<?xml version="1.0" standalone="no"?>
<!DOCTYPE svg PUBLIC "-//W3C//DTD SVG 1.1//EN" "http://www.w3.org/Graphics/SVG/1.1/DTD/svg11.dtd" >
<svg xmlns="http://www.w3.org/2000/svg" xmlns:xlink="http://www.w3.org/1999/xlink" version="1.1">
<metadata>
Created by FontForge 20170910 at Wed Feb  5 03:25:25 2014
 By Jimmy Wärting
Spaced and kerned with iKern.
</metadata>
<defs>
<font id="MuseoSansCyrillic-100Italic" horiz-adv-x="560" >
  <font-face 
    font-family="Museo Sans Cyrillic"
    font-weight="100"
    font-style="italic"
    font-stretch="normal"
    units-per-em="1000"
    panose-1="2 0 0 0 0 0 0 0 0 0"
    ascent="770"
    descent="-230"
    x-height="500"
    cap-height="700"
    bbox="-172 -210 1087 874"
    underline-thickness="50"
    underline-position="-100"
    slope="-11"
    unicode-range="U+0020-FB04"
  />
<missing-glyph horiz-adv-x="510" 
d="M505 0h-500v700h500v-700zM85 650l170 -255l170 255h-340zM285 350l170 -255v510zM55 605v-510l170 255zM255 305l-170 -255h340z" />
    <glyph glyph-name="f_f" unicode="ff" horiz-adv-x="618" 
d="M86 0h-42l90 462h-63l7 38h63l5 25c15 75 50 129 90 150c40 23 69 30 98 30c14 0 24 -1 31 -2l-9 -39c-3 1 -10 2 -22 2c-25 0 -47 -5 -78 -24c-31 -17 -57 -61 -69 -122l-4 -20h267l5 25c15 75 50 129 90 150c40 23 69 30 98 30c14 0 24 -1 31 -2l-9 -39
c-3 1 -10 2 -22 2c-25 0 -47 -5 -78 -24c-31 -17 -57 -61 -69 -122l-4 -20h137l-7 -38h-137l-90 -462h-42l90 462h-267z" />
    <glyph glyph-name="fi" unicode="fi" horiz-adv-x="512" 
d="M86 0h-42l90 462h-63l7 38h63l5 25c15 75 50 129 90 150c40 23 69 30 98 30c14 0 24 -1 31 -2l-9 -39c-4 1 -11 2 -22 2c-25 0 -47 -5 -78 -24c-31 -17 -57 -61 -69 -122l-4 -20h284l-98 -500h-42l90 462h-241zM495 627h-50l15 73h50z" />
    <glyph glyph-name="fl" unicode="fl" horiz-adv-x="541" 
d="M87 0h-42l89 459h-63l7 38h63l5 25c12 63 40 111 67 135c46 41 94 48 122 48c14 0 24 -1 31 -2l-9 -39c-7 1 -14 2 -22 2c-25 0 -47 -5 -78 -24c-31 -17 -57 -61 -69 -121l-5 -24h137l-7 -38h-137zM355 77c0 9 1 18 3 29l116 594h42l-114 -587c-2 -11 -3 -20 -3 -29
c0 -46 27 -48 49 -48c5 0 9 0 13 1l-9 -39c-4 -1 -10 -2 -17 -2c-29 -2 -77 11 -80 81z" />
    <glyph glyph-name="f_f_i" unicode="ffi" horiz-adv-x="825" 
d="M86 0h-42l90 462h-63l7 38h63l5 25c15 75 50 129 90 150c40 23 69 30 98 30c14 0 24 -1 31 -2l-9 -39c-7 1 -14 2 -22 2c-25 0 -47 -5 -78 -24c-31 -17 -57 -61 -69 -122l-4 -20h267l5 25c15 75 50 129 90 150c40 23 69 30 98 30c7 0 18 -1 31 -2l-9 -39
c-4 1 -11 2 -22 2c-25 0 -47 -5 -78 -24c-31 -17 -57 -61 -69 -122l-4 -20h288l-98 -500h-42l90 462h-245l-90 -462h-42l90 462h-267zM808 627h-50l15 73h50z" />
    <glyph glyph-name="f_f_l" unicode="ffl" horiz-adv-x="849" 
d="M86 0h-42l90 462h-63l7 38h63l5 25c15 75 50 129 90 150c40 23 69 30 98 30c14 0 24 -1 31 -2l-9 -39c-3 1 -10 2 -22 2c-25 0 -47 -5 -78 -24c-31 -17 -57 -61 -69 -122l-4 -20h267l5 25c15 75 50 129 90 150c40 23 69 30 98 30c14 0 24 -1 31 -2l-9 -39
c-3 1 -10 2 -22 2c-25 0 -47 -5 -78 -24c-31 -17 -57 -61 -69 -122l-4 -20h137l-7 -38h-137l-90 -462h-42l90 462h-267zM663 77c0 9 1 18 3 29l116 594h42l-114 -587c-2 -11 -3 -21 -3 -29c0 -46 27 -48 49 -48c5 0 9 0 13 1l-9 -39c-4 -1 -10 -2 -17 -2
c-29 -2 -77 11 -80 81z" />
    <glyph glyph-name="f_j" unicode="fj" horiz-adv-x="517" 
d="M86 0h-42l90 462h-63l7 38h63l5 25c15 75 50 129 90 150c40 23 69 30 98 30c13 0 23 -1 31 -2l-9 -39c-4 1 -11 2 -22 2c-25 0 -47 -5 -78 -24c-31 -17 -57 -61 -69 -122l-4 -20h288l-101 -520c-15 -77 -48 -132 -87 -155c-54 -34 -103 -33 -132 -28l8 39
c7 -1 14 -2 22 -2c24 0 47 5 78 24c31 17 57 61 69 121l93 483h-245zM499 627h-50l14 73h50z" />
    <glyph glyph-name=".notdef" horiz-adv-x="510" 
d="M505 0h-500v700h500v-700zM85 650l170 -255l170 255h-340zM285 350l170 -255v510zM55 605v-510l170 255zM255 305l-170 -255h340z" />
    <glyph glyph-name="NULL" horiz-adv-x="0" 
 />
    <glyph glyph-name="CR" horiz-adv-x="333" 
 />
    <glyph glyph-name="space" unicode=" " horiz-adv-x="250" 
 />
    <glyph glyph-name="exclam" unicode="!" horiz-adv-x="250" 
d="M123 175h-43l103 525h43zM97 0h-59l13 61h59z" />
    <glyph glyph-name="quotedbl" unicode="&#x22;" horiz-adv-x="314" 
d="M282 558h-43l29 151h43zM178 558h-43l29 151h43z" />
    <glyph glyph-name="numbersign" unicode="#" horiz-adv-x="728" 
d="M152 0h-44l74 199h-151l15 40h151l82 221h-151l15 40h151l74 200h44l-74 -200h189l74 200h44l-74 -200h148l-15 -40h-148l-82 -221h148l-15 -40h-148l-74 -199h-44l74 199h-189zM323 460l-82 -221h189l82 221h-189z" />
    <glyph glyph-name="dollar" unicode="$" 
d="M29 75l31 31c44 -51 101 -76 171 -76c53 0 98 14 135 42c37 29 56 67 56 114c-1 90 -73 122 -148 159l-71 39c-43 25 -76 74 -76 135c0 55 21 100 64 134c43 35 94 54 154 58l19 94h43l-18 -94c61 -5 110 -27 149 -66l-28 -33c-32 36 -92 58 -145 58
c-50 0 -95 -14 -134 -41s-59 -63 -59 -108c0 -60 47 -102 104 -130c84 -39 191 -81 191 -201c0 -57 -21 -104 -62 -141s-93 -57 -157 -60l-18 -93h-43l18 93c-65 5 -135 37 -176 86z" />
    <glyph glyph-name="percent" unicode="%" horiz-adv-x="701" 
d="M229 451c-69 0 -114 44 -114 115c0 37 16 70 47 100c31 31 67 46 106 46c68 0 113 -45 113 -113c0 -39 -16 -73 -47 -103s-66 -45 -105 -45zM60 0h-56l662 700h57zM231 491c28 0 53 11 74 32c22 22 33 48 33 77c0 41 -29 72 -72 72c-28 0 -53 -11 -75 -33
s-33 -47 -33 -76c0 -41 29 -72 73 -72zM341 103c0 37 16 70 47 100c31 31 67 46 106 46c68 0 113 -45 113 -113c0 -39 -16 -73 -47 -103s-66 -45 -105 -45c-69 0 -114 44 -114 115zM384 100c0 -41 29 -72 73 -72c28 0 53 11 74 32c22 22 33 48 33 77c0 41 -29 72 -72 72
c-28 0 -53 -11 -75 -33s-33 -47 -33 -76z" />
    <glyph glyph-name="ampersand" unicode="&#x26;" horiz-adv-x="655" 
d="M41 160c0 49 16 95 48 136c32 42 74 70 125 83v2s-75 24 -75 126c0 58 22 107 65 146c44 39 100 59 167 59c26 0 53 -4 81 -11l-20 -37c-25 5 -46 8 -62 8c-51 0 -95 -15 -131 -46s-54 -70 -54 -119c0 -31 10 -57 30 -78c21 -21 60 -31 117 -31h163l20 102h43l-20 -102
h97l-8 -40h-97l-22 -112c-34 -172 -122 -258 -265 -258c-127 0 -202 68 -202 172zM86 160c0 -76 58 -130 157 -130c119 0 193 72 222 216l22 112h-161c-67 0 -124 -18 -171 -53c-46 -35 -69 -83 -69 -145z" />
    <glyph glyph-name="quotesingle" unicode="'" horiz-adv-x="210" 
d="M178 558h-43l29 151h43z" />
    <glyph glyph-name="parenleft" unicode="(" horiz-adv-x="264" 
d="M141 -95h-42c-31 83 -46 171 -46 263c0 204 67 390 201 557h46c-137 -175 -206 -361 -206 -558c0 -91 16 -178 47 -262z" />
    <glyph glyph-name="parenright" unicode=")" horiz-adv-x="265" 
d="M19 -95h-46c137 175 206 361 206 558c0 91 -16 178 -47 262h42c31 -83 46 -171 46 -263c0 -204 -67 -390 -201 -557z" />
    <glyph glyph-name="asterisk" unicode="*" horiz-adv-x="494" 
d="M281 478l-120 -134l-33 26l125 132l-145 47l21 41l144 -54l27 164h47l-37 -164l167 53l6 -42l-168 -49l72 -130l-37 -25z" />
    <glyph glyph-name="plus" unicode="+" 
d="M244 0h-43l52 263h-237l7 40h237l52 263h43l-52 -263h236l-7 -40h-236z" />
    <glyph glyph-name="comma" unicode="," horiz-adv-x="253" 
d="M23 -94h-44l84 155h55z" />
    <glyph glyph-name="hyphen" unicode="-" horiz-adv-x="432" 
d="M348 263h-276l7 40h276z" />
    <glyph glyph-name="period" unicode="." horiz-adv-x="217" 
d="M83 0h-61l12 63h61z" />
    <glyph glyph-name="slash" unicode="/" horiz-adv-x="407" 
d="M35 -42h-47l405 782h47z" />
    <glyph glyph-name="zero" unicode="0" horiz-adv-x="614" 
d="M66 209c0 77 11 163 43 255c16 46 35 87 58 123c47 72 123 125 214 125c125 0 188 -74 188 -223c0 -99 -21 -209 -68 -317c-23 -53 -56 -97 -99 -132s-92 -52 -148 -52c-125 0 -188 74 -188 221zM110 207c0 -118 48 -177 145 -177c77 0 144 49 183 114
c20 33 37 71 50 113c27 85 36 162 36 233c0 120 -48 180 -144 180c-91 0 -167 -66 -208 -162c-40 -95 -62 -201 -62 -301z" />
    <glyph glyph-name="one" unicode="1" horiz-adv-x="446" 
d="M359 0h-356l7 40h159l110 565l8 35h-2c-7 -9 -22 -23 -46 -43l-96 -81l-26 32l181 152h43l-129 -660h155z" />
    <glyph glyph-name="two" unicode="2" horiz-adv-x="553" 
d="M435 0h-425c1 68 28 125 81 174c27 25 51 46 74 62s53 36 92 59c77 47 127 81 150 101c51 45 77 93 77 146c0 80 -57 128 -138 128c-71 0 -142 -39 -190 -99l-31 26c51 68 136 115 224 115c108 0 180 -66 180 -167c0 -71 -38 -136 -115 -196c-25 -19 -71 -49 -139 -91
c-31 -19 -56 -35 -75 -48c-18 -12 -38 -28 -61 -47c-45 -37 -70 -78 -79 -123h383z" />
    <glyph glyph-name="three" unicode="3" horiz-adv-x="555" 
d="M10 85l34 29c49 -56 108 -84 179 -84c52 0 100 20 143 60c44 40 66 88 66 145c0 87 -68 134 -160 134h-52l-6 30l241 229l37 32v2c-13 -1 -31 -2 -54 -2h-283l8 40h401l-6 -30l-277 -261c71 0 196 -33 196 -174c0 -66 -26 -124 -79 -173c-52 -49 -111 -74 -177 -74
c-84 0 -162 34 -211 97z" />
    <glyph glyph-name="four" unicode="4" horiz-adv-x="591" 
d="M382 200h-359l6 30l449 470h45l-90 -460h104l-8 -40h-104l-39 -200h-43zM95 241v-1h295l64 328l15 63h-2l-44 -48z" />
    <glyph glyph-name="five" unicode="5" horiz-adv-x="553" 
d="M19 89l37 25c37 -56 89 -84 156 -84c60 0 113 21 158 64c46 43 69 93 69 152c0 92 -66 152 -163 152c-48 0 -102 -17 -126 -32l-18 -10l-31 11l105 333h326l-8 -40h-287l-65 -207l-15 -43h2c32 20 73 30 123 30c60 0 109 -18 146 -54c37 -35 56 -82 56 -139
c0 -71 -27 -132 -82 -183c-54 -51 -118 -76 -192 -76c-79 0 -152 37 -191 101z" />
    <glyph glyph-name="six" unicode="6" horiz-adv-x="584" 
d="M61 236c0 67 19 151 60 236c21 43 46 83 75 118c59 72 147 122 243 122c46 0 88 -9 126 -28l-26 -37c-27 15 -60 23 -100 23c-79 0 -153 -41 -206 -104c-52 -63 -90 -138 -111 -218h2c49 59 128 96 207 96c113 0 186 -67 186 -178c4 -132 -103 -280 -255 -278
c-129 0 -201 100 -201 248zM106 221c0 -50 13 -94 40 -133s65 -58 113 -58c59 0 110 23 151 68c41 46 62 102 62 168c0 85 -55 136 -144 136c-30 0 -62 -7 -96 -22c-33 -14 -63 -36 -88 -65s-38 -60 -38 -94z" />
    <glyph glyph-name="seven" unicode="7" horiz-adv-x="516" 
d="M95 0h-49l408 595l50 65v2c-13 -1 -32 -2 -55 -2h-336l8 40h443l-6 -30z" />
    <glyph glyph-name="eight" unicode="8" horiz-adv-x="590" 
d="M42 168c0 52 26 107 54 139c14 17 30 33 48 48c37 31 51 37 64 44c-47 32 -70 72 -70 119c0 51 22 96 65 135c44 39 100 59 169 59c120 0 185 -56 185 -149c0 -53 -28 -113 -64 -156c-36 -41 -56 -61 -71 -72c55 -35 82 -77 82 -127c0 -63 -26 -115 -78 -157
s-112 -63 -181 -63c-58 0 -106 16 -145 47s-58 76 -58 133zM383 356c19 13 37 30 70 67c35 39 58 91 58 140c0 65 -55 107 -139 107c-54 0 -99 -15 -135 -45c-35 -29 -53 -65 -53 -106c0 -33 13 -59 45 -82c17 -11 31 -21 44 -28l56 -28c25 -11 43 -20 54 -25zM88 168
c0 -85 69 -138 157 -138c55 0 104 17 147 50c44 33 66 76 66 127c0 33 -16 61 -49 84c-16 11 -32 21 -47 28c-15 8 -34 18 -59 29c-24 11 -43 21 -56 28c-24 -13 -48 -28 -89 -64c-41 -35 -70 -88 -70 -144z" />
    <glyph glyph-name="nine" unicode="9" horiz-adv-x="584" 
d="M41 16l26 37c31 -15 64 -23 100 -23c79 0 153 41 205 104c53 63 91 138 112 218h-2c-49 -59 -128 -96 -207 -96c-113 0 -186 67 -186 178c-4 132 103 280 255 278c129 0 201 -100 201 -248c0 -67 -18 -150 -61 -237c-21 -43 -46 -82 -75 -118
c-57 -71 -146 -121 -242 -121c-49 0 -91 9 -126 28zM275 298c30 0 62 7 96 21c34 15 64 36 90 65s39 61 39 95c0 50 -14 94 -41 133s-64 58 -112 58c-59 0 -110 -23 -151 -69c-41 -45 -62 -101 -62 -167c0 -84 54 -136 141 -136z" />
    <glyph glyph-name="colon" unicode=":" horiz-adv-x="215" 
d="M166 437h-61l12 63h61zM81 0h-61l12 63h61z" />
    <glyph glyph-name="semicolon" unicode=";" horiz-adv-x="282" 
d="M213 437h-61l12 63h61zM41 -94h-44l84 155h55z" />
    <glyph glyph-name="less" unicode="&#x3c;" 
d="M475 68l-439 197v36l439 197v-48l-377 -166v-2l377 -166v-48z" />
    <glyph glyph-name="equal" unicode="=" 
d="M504 343h-456v40h456v-40zM504 183h-456v40h456v-40z" />
    <glyph glyph-name="greater" unicode="&#x3e;" 
d="M514 265l-439 -197v48l377 166v2l-377 166v48l439 -197v-36z" />
    <glyph glyph-name="question" unicode="?" horiz-adv-x="433" 
d="M179 175h-43l9 44c13 63 56 117 101 153c67 53 142 105 142 193c0 61 -47 105 -122 105c-46 0 -91 -14 -136 -42l-17 37c47 31 99 47 155 47c103 0 166 -58 166 -145c0 -65 -34 -120 -79 -159c-63 -53 -150 -107 -167 -189zM154 0h-59l13 61h59z" />
    <glyph glyph-name="at" unicode="@" horiz-adv-x="759" 
d="M47 174c0 75 20 146 61 213c41 68 93 122 158 161c65 40 131 60 200 60c143 0 205 -60 205 -147c0 -11 -1 -23 -3 -35l-66 -339h70l-8 -40h-257c-49 0 -90 15 -121 46s-46 70 -46 117c0 59 23 111 70 157c47 47 100 70 157 70h158c1 9 2 17 2 22c0 64 -46 109 -157 109
c-99 0 -187 -40 -264 -119c-76 -79 -114 -170 -114 -275c0 -74 23 -135 69 -183c47 -48 108 -72 183 -72l-8 -41c-83 0 -152 28 -207 84s-82 127 -82 212zM285 211c0 -72 52 -124 127 -124h145l60 310h-143c-49 0 -92 -19 -131 -57c-39 -37 -58 -80 -58 -129z" />
    <glyph glyph-name="A" unicode="A" horiz-adv-x="625" 
d="M23 0h-48l397 700h45l127 -700h-44l-43 242h-297zM343 566l-161 -284h267l-50 284l-12 84h-2c-17 -36 -31 -64 -42 -84z" />
    <glyph glyph-name="B" unicode="B" horiz-adv-x="608" 
d="M304 0h-255l137 700h225c29 0 53 -4 74 -12c55 -23 83 -66 83 -131c0 -89 -50 -158 -125 -187v-2c52 -17 87 -68 87 -139c0 -96 -53 -174 -130 -209c-29 -13 -61 -20 -96 -20zM221 660l-53 -272h190c45 0 83 16 116 47c33 32 49 73 49 122c0 64 -41 103 -112 103h-190z
M160 348l-60 -308h198c31 0 57 5 79 15c65 29 108 93 108 173c0 75 -49 120 -128 120h-197z" />
    <glyph glyph-name="C" unicode="C" horiz-adv-x="719" 
d="M65 286c0 76 20 147 59 213c40 66 92 118 156 156s131 57 202 57c91 0 185 -28 240 -88l-30 -31c-52 52 -122 78 -210 78c-63 0 -124 -17 -181 -51s-103 -81 -138 -141c-35 -59 -53 -124 -53 -193c0 -75 23 -136 68 -185c46 -48 107 -72 182 -72c89 0 186 36 255 95
l25 -33c-33 -30 -76 -55 -129 -74c-52 -19 -102 -29 -151 -29c-91 0 -163 28 -216 83s-79 127 -79 215z" />
    <glyph glyph-name="D" unicode="D" horiz-adv-x="738" 
d="M278 0h-229l137 700h209c187 0 299 -98 299 -270c0 -120 -39 -222 -118 -305c-78 -83 -177 -125 -298 -125zM221 660l-122 -620h170c109 0 199 37 271 111c73 74 109 166 109 277c0 148 -98 232 -259 232h-169z" />
    <glyph glyph-name="E" unicode="E" horiz-adv-x="553" 
d="M451 0h-402l137 700h383l-9 -40h-339l-56 -287h279l-8 -40h-278l-58 -293h358z" />
    <glyph glyph-name="F" unicode="F" horiz-adv-x="501" 
d="M92 0h-43l137 700h353l-8 -40h-310l-57 -292h268l-8 -40h-268z" />
    <glyph glyph-name="G" unicode="G" horiz-adv-x="754" 
d="M63 277c0 116 42 217 127 304s182 131 292 131c99 0 178 -26 237 -78l-30 -32c-47 43 -130 69 -207 69c-99 0 -186 -39 -261 -118c-75 -78 -113 -170 -113 -276c0 -73 22 -133 66 -179c45 -46 104 -69 177 -69c95 0 183 41 265 123l25 127h-124l7 40h168l-62 -319h-43
l12 62l7 30h-2c-5 -5 -11 -12 -46 -36c-17 -12 -35 -23 -54 -32c-36 -19 -97 -36 -153 -36c-87 0 -156 27 -209 81s-79 123 -79 208z" />
    <glyph glyph-name="H" unicode="H" horiz-adv-x="743" 
d="M92 0h-43l137 700h43l-64 -329h444l64 329h43l-137 -700h-43l65 331h-444z" />
    <glyph glyph-name="I" unicode="I" horiz-adv-x="256" 
d="M92 0h-43l137 700h43z" />
    <glyph glyph-name="J" unicode="J" horiz-adv-x="505" 
d="M7 139c0 13 2 30 6 52l4 22h43l-4 -22c-3 -17 -5 -32 -5 -45c0 -78 39 -117 116 -117c39 0 76 13 109 39c34 26 56 67 67 123l90 469h-166l8 40h209l-100 -515c-13 -69 -40 -119 -81 -150s-86 -47 -136 -47c-92 0 -160 48 -160 151z" />
    <glyph glyph-name="K" unicode="K" horiz-adv-x="567" 
d="M92 0h-43l137 700h43l-61 -312h126l265 312h52l-281 -331v-2l158 -367h-47l-148 348h-133z" />
    <glyph glyph-name="L" unicode="L" horiz-adv-x="498" 
d="M425 0h-376l137 700h43l-129 -660h334z" />
    <glyph glyph-name="M" unicode="M" horiz-adv-x="835" 
d="M65 0h-43l194 700h39l118 -440l19 -79h2c17 29 34 56 49 79l290 440h44l-81 -700h-43l62 534l15 93h-2c-21 -39 -39 -70 -54 -93l-265 -399h-44l-110 399l-20 95h-2c-7 -41 -13 -72 -19 -95z" />
    <glyph glyph-name="N" unicode="N" horiz-adv-x="743" 
d="M92 0h-43l137 700h35l292 -549l40 -88h2c3 35 6 65 11 88l107 549h43l-137 -700h-35l-292 549l-40 88h-2c-3 -35 -6 -65 -11 -88z" />
    <glyph glyph-name="O" unicode="O" horiz-adv-x="826" 
d="M64 288c0 75 20 145 61 210c41 66 94 118 159 156c65 39 133 58 203 58c88 0 160 -27 215 -82s83 -125 83 -210c0 -76 -21 -148 -62 -215s-94 -120 -159 -159s-132 -58 -202 -58c-88 0 -160 28 -215 84s-83 128 -83 216zM109 288c0 -76 23 -138 70 -187
c47 -48 108 -72 183 -72c62 0 122 17 180 52c59 35 106 83 143 144s55 125 55 194c0 74 -24 134 -71 181s-107 71 -182 71c-63 0 -124 -17 -182 -51s-105 -81 -142 -141c-36 -59 -54 -123 -54 -191z" />
    <glyph glyph-name="P" unicode="P" horiz-adv-x="591" 
d="M92 0h-43l137 700h219c47 0 84 -8 112 -24c51 -29 77 -75 77 -140c0 -105 -60 -191 -147 -227c-31 -13 -65 -19 -101 -19h-197zM221 660l-64 -330h185c33 0 62 5 88 16c72 31 119 99 119 190c0 79 -53 124 -144 124h-184z" />
    <glyph glyph-name="Q" unicode="Q" horiz-adv-x="826" 
d="M64 288c0 75 20 145 61 210c41 66 94 118 159 156c65 39 133 58 203 58c88 0 160 -27 215 -82s83 -125 83 -210c0 -120 -57 -235 -146 -318l69 -91l-30 -26l-70 92c-76 -59 -158 -89 -246 -89s-160 28 -215 84s-83 128 -83 216zM109 288c0 -76 23 -138 70 -187
c47 -48 108 -72 183 -72c79 0 153 27 222 81l-72 95l30 26l72 -96c77 75 126 177 126 284c0 74 -24 134 -71 181s-107 71 -182 71c-63 0 -124 -17 -182 -51s-105 -81 -142 -141c-36 -59 -54 -123 -54 -191z" />
    <glyph glyph-name="R" unicode="R" horiz-adv-x="604" 
d="M93 0h-43l136 700h222c40 0 72 -6 97 -19c51 -27 77 -72 77 -137c0 -57 -18 -107 -53 -149c-35 -41 -79 -67 -132 -77v-2c3 -5 6 -14 10 -25l102 -291h-46l-108 310h-202zM221 660l-60 -310h185c53 0 98 18 135 54c37 37 56 83 56 140c0 72 -48 116 -129 116h-187z" />
    <glyph glyph-name="S" unicode="S" horiz-adv-x="527" 
d="M20 66l-8 9l31 31c3 -4 6 -8 27 -27c28 -22 74 -49 144 -49c53 0 98 14 135 42c37 29 56 67 56 114c-1 90 -73 122 -148 159l-71 39c-43 25 -76 74 -76 135c0 59 23 105 70 140s103 53 167 53c71 0 134 -29 157 -50l17 -17l-28 -33l-17 16c-7 7 -23 15 -48 26
s-51 16 -80 16c-50 0 -95 -14 -134 -41s-59 -63 -59 -108c0 -60 47 -102 104 -130c84 -39 191 -81 191 -201c0 -59 -22 -108 -67 -146c-44 -37 -100 -56 -168 -56c-106 0 -177 55 -195 78z" />
    <glyph glyph-name="T" unicode="T" horiz-adv-x="596" 
d="M261 0h-43l128 660h-260l7 40h565l-7 -40h-262z" />
    <glyph glyph-name="U" unicode="U" horiz-adv-x="721" 
d="M84 187c0 18 2 37 6 57l89 456h43l-89 -457c-3 -15 -5 -33 -5 -52c0 -103 67 -162 182 -162c66 0 122 19 169 58s78 91 91 158l89 455h43l-92 -465c-15 -77 -49 -137 -104 -181c-54 -44 -119 -66 -196 -66c-140 0 -226 75 -226 199z" />
    <glyph glyph-name="V" unicode="V" horiz-adv-x="621" 
d="M273 0h-47l-124 700h43l100 -566l11 -84h2c17 34 31 62 44 84l321 566h48z" />
    <glyph glyph-name="W" unicode="W" horiz-adv-x="907" 
d="M216 0h-52l-48 700h43l36 -570l2 -75h2l35 75l278 570h50l39 -570l2 -75h2l32 75l259 570h48l-321 -700h-54l-38 528l-3 111h-2c-19 -43 -35 -80 -50 -110z" />
    <glyph glyph-name="X" unicode="X" horiz-adv-x="550" 
d="M16 0h-51l297 373l-137 327h46l91 -221l32 -78h2c17 24 36 49 57 76l180 223h54l-270 -334l157 -366h-46l-112 263l-30 75h-2c-14 -21 -32 -45 -55 -73z" />
    <glyph glyph-name="Y" unicode="Y" horiz-adv-x="567" 
d="M242 0h-43l60 304l-160 396h46l111 -276l29 -79h2l58 78l219 277h53l-315 -397z" />
    <glyph glyph-name="Z" unicode="Z" 
d="M463 0h-487l7 34l489 562l61 64v2c-10 -1 -27 -2 -50 -2h-358l9 40h463l-7 -34l-490 -562l-61 -64v-2c10 1 27 2 50 2h381z" />
    <glyph glyph-name="bracketleft" unicode="[" horiz-adv-x="264" 
d="M131 -95h-108l159 820h108l-8 -40h-65l-143 -740h65z" />
    <glyph glyph-name="backslash" unicode="\" horiz-adv-x="383" 
d="M273 -42h-42l-100 782h42z" />
    <glyph glyph-name="bracketright" unicode="]" horiz-adv-x="264" 
d="M-17 -95l8 40h65l143 740h-65l8 40h108l-159 -820h-108z" />
    <glyph glyph-name="asciicircum" unicode="^" horiz-adv-x="600" 
d="M131 252h-46l197 448h32l197 -448h-46l-167 388z" />
    <glyph glyph-name="underscore" unicode="_" horiz-adv-x="577" 
d="M-18 -40l7 40h496l-7 -40h-496z" />
    <glyph glyph-name="grave" unicode="`" horiz-adv-x="509" 
d="M248 750h-40l-57 111h52z" />
    <glyph glyph-name="a" unicode="a" horiz-adv-x="508" 
d="M347 305h39c5 25 7 47 7 64c0 68 -37 102 -112 102c-55 0 -105 -16 -152 -48l-18 38c47 34 104 51 170 51c104 0 156 -46 156 -137c0 -17 -2 -36 -6 -57l-62 -318h-42l13 65l12 46h-2c-15 -30 -40 -58 -75 -84c-34 -26 -73 -39 -118 -39c-43 0 -78 11 -107 34
s-43 53 -43 91s11 70 32 97s50 47 86 60c73 25 142 35 222 35zM51 117c0 -51 38 -90 110 -90c50 0 95 22 135 67s66 94 78 149l5 23h-32c-197 0 -296 -50 -296 -149z" />
    <glyph glyph-name="b" unicode="b" horiz-adv-x="577" 
d="M72 0h-42l136 700h42l-49 -255l-14 -46h2c37 67 113 113 193 113c116 0 182 -74 182 -197c0 -94 -27 -172 -82 -234c-54 -62 -117 -93 -190 -93c-80 0 -141 41 -161 113h-2c0 -15 -2 -32 -5 -49zM113 184c0 -91 46 -155 137 -155c58 0 110 26 157 79s71 121 71 205
c0 99 -53 158 -138 158c-138 2 -231 -154 -227 -287z" />
    <glyph glyph-name="c" unicode="c" horiz-adv-x="540" 
d="M38 197c0 91 31 166 94 225c63 60 133 90 211 90c68 0 137 -24 176 -71l-30 -31c-32 37 -88 61 -144 61c-67 0 -127 -26 -182 -77c-54 -51 -81 -116 -81 -193c0 -52 17 -94 50 -125c34 -31 77 -47 128 -47c69 0 130 24 181 72l16 -38c-49 -45 -123 -75 -195 -75
c-65 0 -119 19 -161 57s-63 89 -63 152z" />
    <glyph glyph-name="d" unicode="d" horiz-adv-x="579" 
d="M39 185c0 94 27 172 81 234c55 62 118 93 191 93c79 0 141 -41 161 -113h2c0 15 2 31 5 46l50 255h42l-136 -700h-42l11 58l12 43h-2c-37 -63 -108 -113 -192 -113c-117 0 -183 74 -183 197zM83 187c0 -99 52 -158 139 -158c45 0 85 15 120 45c72 60 106 153 106 242
c0 91 -46 155 -137 155c-58 0 -111 -26 -158 -79s-70 -121 -70 -205z" />
    <glyph glyph-name="e" unicode="e" horiz-adv-x="548" 
d="M39 197c0 83 28 156 84 219c56 64 125 96 207 96c116 0 174 -70 174 -177c0 -22 -4 -48 -13 -78h-401c-4 -19 -6 -38 -6 -55c0 -101 64 -173 176 -173c59 0 115 21 167 63l16 -38c-44 -36 -116 -66 -183 -66c-65 0 -119 19 -160 57s-61 89 -61 152zM100 296h355
c3 10 4 24 4 42c0 89 -52 135 -129 135c-97 0 -190 -65 -230 -177z" />
    <glyph glyph-name="f" unicode="f" horiz-adv-x="310" 
d="M87 0h-42l89 459h-63l7 38h63l5 25c12 63 40 111 67 135c46 41 94 48 122 48c14 0 24 -1 31 -2l-9 -39c-7 1 -14 2 -22 2c-25 0 -47 -5 -78 -24c-31 -17 -57 -61 -69 -121l-5 -24h137l-7 -38h-137z" />
    <glyph glyph-name="g" unicode="g" horiz-adv-x="571" 
d="M8 -171l24 35c37 -22 81 -33 130 -33c112 0 199 57 223 172l11 53l13 46h-2c-43 -68 -102 -102 -178 -102c-116 0 -189 76 -189 196c0 49 10 97 29 144s50 88 91 121c41 34 89 51 142 51c81 0 148 -29 165 -98h2c-1 8 0 16 1 24l12 62h42l-97 -502
c-14 -71 -45 -124 -93 -157c-48 -34 -104 -51 -167 -51c-58 0 -111 13 -159 39zM84 197c0 -97 55 -156 146 -156c147 0 214 168 214 296c0 89 -47 134 -140 134c-67 0 -120 -28 -160 -84s-60 -119 -60 -190z" />
    <glyph glyph-name="h" unicode="h" horiz-adv-x="585" 
d="M72 0h-42l136 700h42l-54 -283l-13 -46h2c17 33 46 65 88 95c43 31 91 46 146 46c92 0 139 -45 139 -126c0 -19 -3 -42 -8 -69l-61 -317h-42l58 302c6 31 9 57 9 76c0 61 -37 93 -96 93c-61 0 -116 -23 -166 -70c-49 -47 -80 -102 -93 -167z" />
    <glyph glyph-name="i" unicode="i" horiz-adv-x="216" 
d="M198 627h-50l15 73h50zM72 0h-42l98 500h42z" />
    <glyph glyph-name="j" unicode="j" horiz-adv-x="216" 
d="M197 627h-50l14 73h50zM26 -21l101 521h42l-101 -520c-15 -77 -48 -132 -87 -155c-39 -24 -66 -30 -97 -30c-17 0 -28 1 -35 2l8 39c4 -1 11 -2 22 -2c24 0 47 5 78 24c31 17 57 61 69 121z" />
    <glyph glyph-name="k" unicode="k" horiz-adv-x="470" 
d="M72 0h-42l137 700h42l-78 -397h85l202 197h57l-222 -216v-2l142 -282h-48l-131 264h-92z" />
    <glyph glyph-name="l" unicode="l" horiz-adv-x="233" 
d="M47 77c0 9 1 18 3 29l116 594h42l-114 -587c-2 -11 -3 -21 -3 -29c0 -46 27 -48 49 -48c5 0 9 0 13 1l-9 -39c-4 -1 -10 -2 -17 -2c-29 -2 -77 11 -80 81z" />
    <glyph glyph-name="m" unicode="m" horiz-adv-x="917" 
d="M72 0h-42l97 500h42l-16 -83l-13 -46h2c20 40 51 73 92 100s84 41 128 41c95 0 131 -47 131 -136h2c21 39 51 72 90 97c40 26 82 39 125 39c91 0 138 -46 138 -129c0 -19 -3 -41 -8 -66l-61 -317h-42l58 302c6 31 9 56 9 73c0 65 -33 98 -100 98c-55 0 -105 -24 -149 -72
c-44 -47 -71 -100 -82 -157l-47 -244h-42l58 302c6 31 9 57 9 76c0 63 -32 95 -96 95c-55 0 -106 -24 -151 -71s-74 -100 -85 -159z" />
    <glyph glyph-name="n" unicode="n" horiz-adv-x="585" 
d="M72 0h-42l97 500h42l-15 -83l-14 -46h2c17 33 46 64 89 95s91 46 146 46c92 0 139 -45 139 -126c0 -19 -3 -42 -8 -69l-61 -317h-42l58 302c6 31 9 57 9 76c0 61 -37 93 -96 93c-61 0 -117 -23 -166 -70s-80 -102 -93 -167z" />
    <glyph glyph-name="o" unicode="o" horiz-adv-x="620" 
d="M38 205c0 83 31 155 93 216c63 61 134 91 213 91c65 0 118 -20 159 -60s62 -91 62 -154c0 -84 -31 -157 -94 -218s-133 -92 -212 -92c-65 0 -119 20 -160 61s-61 93 -61 156zM82 206c0 -52 16 -95 49 -128s76 -49 128 -49c67 0 127 26 181 79s81 116 81 189
c0 51 -17 92 -50 125s-75 49 -127 49c-68 0 -129 -26 -182 -79c-53 -52 -80 -114 -80 -186z" />
    <glyph glyph-name="p" unicode="p" horiz-adv-x="578" 
d="M82 52l-49 -252h-42l136 700h42l-10 -55l-12 -45h2c37 64 106 112 191 112c116 0 183 -74 183 -197c0 -93 -27 -171 -82 -234c-54 -62 -117 -93 -188 -93c-81 0 -143 40 -163 113h-2c-1 -15 -3 -32 -6 -49zM114 187c0 -92 48 -158 137 -158c58 0 110 26 157 79
s71 121 71 205c0 99 -52 158 -139 158c-45 0 -85 -15 -120 -45c-71 -59 -106 -150 -106 -239z" />
    <glyph glyph-name="q" unicode="q" horiz-adv-x="578" 
d="M38 184c0 94 27 172 82 234c55 63 118 94 191 94c80 0 140 -40 160 -112h2c1 11 2 25 5 40l11 60h42l-136 -700h-42l49 252l14 49h-2c-39 -65 -105 -113 -193 -113c-116 0 -183 75 -183 196zM82 187c0 -97 52 -158 139 -158c45 0 85 15 120 45c72 60 107 153 107 242
c0 91 -46 155 -137 155c-58 0 -111 -26 -158 -79s-71 -121 -71 -205z" />
    <glyph glyph-name="r" unicode="r" horiz-adv-x="340" 
d="M72 0h-42l97 500h42l-18 -90l-13 -46h2c39 80 106 140 186 140c9 0 19 -1 30 -3l-9 -42c-11 1 -18 2 -22 2c-57 0 -112 -41 -147 -98c-35 -56 -58 -116 -69 -172z" />
    <glyph glyph-name="s" unicode="s" horiz-adv-x="430" 
d="M-1 61l27 30c32 -37 87 -62 143 -62c37 0 70 9 97 26c27 18 41 43 41 74c0 121 -231 89 -231 243c0 44 18 78 54 103s79 37 128 37c64 0 112 -19 143 -56l-28 -30c-28 30 -67 45 -116 45c-36 0 -68 -8 -96 -25c-27 -17 -41 -41 -41 -73c0 -122 231 -90 231 -240
c0 -43 -18 -78 -53 -105s-78 -40 -130 -40c-73 0 -130 24 -169 73z" />
    <glyph glyph-name="t" unicode="t" horiz-adv-x="297" 
d="M72 133c0 17 2 36 6 58l52 268h-66l7 38h66l28 142h42l-28 -142h131l-7 -38h-131l-53 -275c-3 -16 -5 -32 -5 -49c0 -67 30 -100 89 -100c9 0 18 1 29 2l-8 -39c-4 -1 -11 -2 -21 -2c-87 0 -131 46 -131 137z" />
    <glyph glyph-name="u" unicode="u" horiz-adv-x="580" 
d="M52 114c0 19 3 42 8 69l61 317h42l-58 -300c-6 -29 -9 -55 -9 -78c0 -59 26 -93 99 -93c60 0 114 24 162 73s78 104 89 166l45 232h42l-97 -500h-42l16 83l13 46h-2c-18 -34 -48 -66 -89 -96s-89 -45 -144 -45c-80 0 -136 39 -136 126z" />
    <glyph glyph-name="v" unicode="v" horiz-adv-x="495" 
d="M208 0h-40l-100 500h43l76 -395l7 -54h2c10 20 20 38 29 54l229 395h47z" />
    <glyph glyph-name="w" unicode="w" horiz-adv-x="823" 
d="M197 0h-47l-79 500h43l60 -395l6 -54h2l28 54l212 393h49l60 -393l7 -54h2l27 54l214 395h46l-273 -500h-45l-64 391l-6 54h-2l-28 -54z" />
    <glyph glyph-name="x" unicode="x" horiz-adv-x="460" 
d="M18 0h-53l233 265l-120 235h48l89 -179l13 -28h1l20 25l157 182h53l-209 -240l134 -260h-47l-103 203l-13 30h-2c-5 -9 -12 -18 -21 -27z" />
    <glyph glyph-name="y" unicode="y" horiz-adv-x="520" 
d="M-72 -182l24 33c14 -14 33 -21 58 -21c41 0 79 30 116 89l53 85l-112 496h44l87 -406l9 -47h1l27 47l244 406h48l-379 -620c-37 -60 -83 -90 -138 -90c-31 0 -58 9 -82 28z" />
    <glyph glyph-name="z" unicode="z" horiz-adv-x="482" 
d="M389 0h-409l6 34l374 381c29 31 45 46 47 46v2c-11 -1 -28 -2 -50 -2h-275l7 39h386l-7 -34l-375 -381c-15 -15 -32 -31 -41 -39l-7 -7v-2c12 1 29 2 51 2h300z" />
    <glyph glyph-name="braceleft" unicode="{" horiz-adv-x="324" 
d="M85 28c0 15 2 35 7 60l18 94c2 12 3 23 3 32c0 47 -22 76 -65 87l8 40c55 11 96 56 108 119l16 81c24 122 81 183 172 183h8l-7 -39h-5c-16 0 -31 -3 -59 -20c-28 -16 -54 -59 -66 -123l-18 -93c-12 -60 -49 -110 -104 -127v-2c33 -19 57 -56 57 -99c0 -9 -1 -18 -3 -28
l-21 -106c-4 -20 -6 -37 -6 -52c0 -85 57 -91 76 -91h5l-8 -39c-2 -1 -5 -1 -9 -1c-17 0 -35 4 -62 20c-27 15 -45 52 -45 104z" />
    <glyph glyph-name="bar" unicode="|" horiz-adv-x="293" 
d="M171 -155h-43v940h43v-940z" />
    <glyph glyph-name="braceright" unicode="}" horiz-adv-x="324" 
d="M-20 -56h10c10 0 95 5 120 143l20 105c12 65 49 114 104 130v2c-37 23 -56 55 -56 96c0 9 1 18 3 28l18 94c4 20 6 37 6 52c0 85 -58 91 -76 91h-5l8 39c2 1 5 1 9 1c17 0 35 -4 62 -20c27 -15 45 -52 45 -104c0 -14 -2 -34 -7 -60l-16 -82c-2 -12 -3 -23 -3 -32
c0 -44 24 -78 65 -87l-8 -40c-57 -12 -97 -59 -108 -119l-18 -93c-25 -123 -82 -184 -172 -184h-8z" />
    <glyph glyph-name="asciitilde" unicode="~" horiz-adv-x="575" 
d="M108 213h-40c0 99 46 144 115 144c113 0 114 -110 206 -110c21 0 37 7 49 21c24 28 26 54 26 85h40c0 -99 -46 -144 -115 -144c-113 0 -114 110 -206 110c-21 0 -37 -7 -49 -21c-24 -28 -26 -54 -26 -85z" />
    <glyph glyph-name="uni00A0" unicode="&#xa0;" horiz-adv-x="250" 
 />
    <glyph glyph-name="exclamdown" unicode="&#xa1;" horiz-adv-x="226" 
d="M170 439h-59l13 61h59zM38 -200h-43l103 525h43z" />
    <glyph glyph-name="cent" unicode="&#xa2;" 
d="M253 -13h-43l16 85c-103 12 -163 86 -163 206c0 53 10 104 30 155s51 96 94 134s92 58 148 61l16 84h43l-17 -85c107 -11 145 -95 155 -127l3 -13l-41 -16c-1 7 -1 13 -16 40c-17 35 -54 76 -127 76s-132 -31 -176 -92s-66 -135 -66 -220c0 -99 49 -162 150 -162
c93 0 159 74 177 104l8 12l41 -16c-4 -7 -8 -16 -36 -48c-13 -15 -28 -29 -43 -42c-31 -24 -85 -49 -137 -52z" />
    <glyph glyph-name="sterling" unicode="&#xa3;" 
d="M455 0h-458l8 40h64l57 293h-45l8 40h44l33 167c9 48 35 89 76 122c42 33 91 50 146 50c59 0 108 -17 145 -52l-33 -30c-29 27 -66 40 -112 40c-48 0 -88 -13 -121 -40c-32 -27 -52 -60 -59 -99l-31 -158h198l-8 -40h-198l-57 -293h351z" />
    <glyph glyph-name="currency" unicode="&#xa4;" horiz-adv-x="585" 
d="M118 0h-43l37 190h-74l8 40h74l16 80h-74l8 40h74l68 350h192c112 0 184 -61 184 -162c0 -63 -24 -116 -73 -161c-48 -45 -107 -67 -177 -67h-159l-16 -80h255l-8 -40h-255zM247 660l-60 -310h152c59 0 107 18 146 53s58 80 58 133c0 83 -52 124 -144 124h-152z" />
    <glyph glyph-name="yen" unicode="&#xa5;" 
d="M243 0h-43l44 222h-163l7 40h163l9 42l-20 48h-134l8 40h110l-125 308h47l110 -276l30 -79h2c20 29 39 55 57 78l219 277h53l-245 -308h108l-8 -40h-132l-37 -48l-9 -42h160l-7 -40h-160z" />
    <glyph glyph-name="section" unicode="&#xa7;" horiz-adv-x="387" 
d="M138 62h-42l26 481c3 46 21 86 54 119c34 33 77 50 128 50c35 0 66 -11 93 -34l-30 -30c-15 15 -37 23 -64 23c-77 0 -133 -58 -137 -134zM1 -28l30 30c15 -15 37 -23 64 -23c77 0 133 58 137 134l28 475h42l-26 -481c-3 -46 -21 -86 -55 -119c-33 -33 -76 -50 -127 -50
c-35 0 -66 11 -93 34z" />
    <glyph glyph-name="dieresis" unicode="&#xa8;" horiz-adv-x="509" 
d="M288 788h-46l14 73h46zM151 788h-46l14 73h46z" />
    <glyph glyph-name="copyright" unicode="&#xa9;" horiz-adv-x="841" 
d="M78 350c0 101 34 186 103 256c69 71 152 106 249 106c99 0 183 -35 252 -106c69 -70 104 -155 104 -256s-35 -187 -104 -257s-153 -105 -252 -105c-98 0 -181 35 -250 105c-68 70 -102 156 -102 257zM123 350c0 -91 29 -167 88 -228s132 -92 219 -92c88 0 162 31 221 92
c60 61 90 137 90 228c0 90 -30 166 -90 227c-59 62 -133 93 -221 93c-87 0 -160 -31 -219 -93c-59 -61 -88 -137 -88 -227zM442 560c63 0 126 -35 163 -88l-33 -29c-27 41 -80 74 -129 74c-54 0 -96 -17 -126 -50s-45 -72 -45 -117s15 -85 45 -118s72 -49 126 -49
c51 0 94 25 129 74l33 -29c-37 -52 -100 -88 -163 -88c-67 0 -120 21 -158 62s-57 90 -57 147s19 106 57 148s91 63 158 63z" />
    <glyph glyph-name="ordfeminine" unicode="&#xaa;" horiz-adv-x="422" 
d="M214 382c-48 0 -95 29 -95 82c0 81 70 122 211 122h21l1 5c11 55 -9 82 -60 82c-29 0 -59 -10 -92 -29l-17 32c24 19 74 34 110 34c67 0 101 -30 101 -90c0 -12 -2 -25 -5 -40l-38 -192h-39l10 51h-2c-30 -37 -65 -56 -106 -57zM222 419c27 0 53 14 77 42s38 54 43 79
l2 10h-13c-113 0 -169 -28 -169 -83c0 -28 20 -48 60 -48zM330 263h-253l7 37h253z" />
    <glyph glyph-name="guillemotleft" unicode="&#xab;" horiz-adv-x="488" 
d="M382 77h-48l-128 208l204 203h57l-211 -208zM227 77h-48l-128 208l192 203h57l-199 -208z" />
    <glyph glyph-name="logicalnot" unicode="&#xac;" horiz-adv-x="668" 
d="M523 343h-414v40h456v-219h-42v179z" />
    <glyph glyph-name="uni00AD" unicode="&#xad;" horiz-adv-x="432" 
d="M348 263h-276l7 40h276z" />
    <glyph glyph-name="registered" unicode="&#xae;" horiz-adv-x="841" 
d="M78 350c0 101 34 186 103 256c69 71 152 106 249 106c99 0 183 -35 252 -106c69 -70 104 -155 104 -256s-35 -187 -104 -257s-153 -105 -252 -105c-98 0 -181 35 -250 105c-68 70 -102 156 -102 257zM123 350c0 -91 29 -167 88 -228s132 -92 219 -92c88 0 162 31 221 92
c60 61 90 137 90 228c0 90 -30 166 -90 227c-59 62 -133 93 -221 93c-87 0 -160 -31 -219 -93c-59 -61 -88 -137 -88 -227zM358 150h-44v400h133c68 0 116 -47 116 -116c0 -56 -33 -96 -77 -107v-2c3 -3 7 -11 13 -22l79 -153h-49l-85 167h-86v-167zM358 510v-155h84
c47 0 76 30 76 79c0 48 -29 76 -76 76h-84z" />
    <glyph glyph-name="overscore" unicode="&#xaf;" horiz-adv-x="509" 
d="M319 786h-239l7 40h239z" />
    <glyph glyph-name="degree" unicode="&#xb0;" horiz-adv-x="389" 
d="M230 449c-68 0 -114 47 -114 112c0 39 16 73 47 103c31 31 67 46 106 46c67 0 113 -48 113 -112c0 -39 -16 -73 -48 -104c-31 -30 -66 -45 -104 -45zM232 489c28 0 53 11 74 32c22 22 33 48 33 77c0 41 -29 72 -72 72c-28 0 -53 -11 -75 -33s-33 -47 -33 -76
c0 -41 29 -72 73 -72z" />
    <glyph glyph-name="plusminus" unicode="&#xb1;" 
d="M277 0h-43v263h-237v40h237v263h43v-263h236v-40h-236v-263zM17 -153v40h476v-40h-476z" />
    <glyph glyph-name="twosuperior" unicode="&#xb2;" horiz-adv-x="376" 
d="M346 423h-266c2 94 75 145 144 186c71 46 140 80 140 152c0 40 -29 70 -76 70c-33 0 -68 -17 -104 -50l-21 28c31 32 81 58 126 58c75 0 114 -43 114 -104c0 -60 -37 -107 -88 -139c-70 -46 -168 -87 -189 -165h227z" />
    <glyph glyph-name="threesuperior" unicode="&#xb3;" horiz-adv-x="376" 
d="M215 413c-55 0 -102 22 -140 65l30 24c31 -35 68 -53 111 -53c30 0 57 12 81 35c25 23 37 51 37 84c0 48 -42 78 -91 78h-32l-7 24l133 127l30 25v2c-12 -2 -25 -3 -38 -3h-164l7 36h255l-5 -26l-158 -150c25 -2 50 -12 73 -30c24 -18 36 -46 36 -83
c0 -41 -16 -77 -48 -108c-31 -31 -68 -47 -110 -47z" />
    <glyph glyph-name="acute" unicode="&#xb4;" horiz-adv-x="509" 
d="M173 750h-48l89 111h60z" />
    <glyph glyph-name="mu" unicode="&#xb5;" horiz-adv-x="579" 
d="M74 -33l-33 -167h-42l136 700h42l-58 -300c-6 -29 -9 -55 -9 -78c0 -59 26 -93 99 -93c60 0 114 24 162 73s78 104 89 166l45 232h42l-97 -500h-42l16 83l13 46h-2c-18 -34 -48 -66 -89 -96s-89 -45 -144 -45c-56 0 -95 18 -117 53h-2c-3 -35 -6 -60 -9 -74z" />
    <glyph glyph-name="mu" unicode="&#x3bc;" horiz-adv-x="579" 
d="M74 -33l-33 -167h-42l136 700h42l-58 -300c-6 -29 -9 -55 -9 -78c0 -59 26 -93 99 -93c60 0 114 24 162 73s78 104 89 166l45 232h42l-97 -500h-42l16 83l13 46h-2c-18 -34 -48 -66 -89 -96s-89 -45 -144 -45c-56 0 -95 18 -117 53h-2c-3 -35 -6 -60 -9 -74z" />
    <glyph glyph-name="paragraph" unicode="&#xb6;" horiz-adv-x="543" 
d="M257 -50h-42l56 291c-54 0 -101 19 -140 57s-59 85 -59 141c0 70 28 131 85 183s121 78 192 78h220l-7 -40h-167zM361 -50h-42l125 647h42z" />
    <glyph glyph-name="middot" unicode="&#xb7;" horiz-adv-x="217" 
d="M131 254h-61l12 63h61z" />
    <glyph glyph-name="cedilla" unicode="&#xb8;" horiz-adv-x="509" 
d="M149 -93l45 111l33 -6l-28 -72c32 -5 57 -28 57 -64c0 -52 -50 -80 -102 -80c-19 0 -35 2 -48 5l8 37c9 -3 22 -5 39 -5c32 0 62 12 62 43c0 21 -18 32 -54 32c-5 0 -9 0 -12 -1z" />
    <glyph glyph-name="onesuperior" unicode="&#xb9;" horiz-adv-x="376" 
d="M336 423h-227l7 36h96l62 322l6 22h-2c-3 -5 -12 -14 -27 -27l-51 -42l-22 29l112 94h38l-78 -398h93z" />
    <glyph glyph-name="ordmasculine" unicode="&#xba;" horiz-adv-x="487" 
d="M267 383c-83 0 -140 56 -140 135c0 51 19 96 58 135s83 58 132 58c41 0 75 -13 101 -39c27 -25 40 -57 40 -96c0 -52 -20 -97 -59 -136c-39 -38 -83 -57 -132 -57zM267 420c39 0 74 15 105 45c31 31 47 67 47 110c0 59 -42 99 -102 99c-39 0 -74 -15 -105 -45
s-46 -66 -46 -108c0 -60 41 -101 101 -101zM386 263h-294l7 37h294z" />
    <glyph glyph-name="guillemotright" unicode="&#xbb;" horiz-adv-x="488" 
d="M241 77h-57l199 208l-126 203h48l128 -208zM74 77h-57l211 208l-126 203h48l128 -208z" />
    <glyph glyph-name="onequarter" unicode="&#xbc;" horiz-adv-x="896" 
d="M729 0h-38l24 121h-218l5 26l278 287h34l-54 -277h68l-7 -36h-68zM701 700l-471 -700h-47l472 700h46zM282 266h-227l7 36h96l62 322l6 22h-2c-3 -5 -12 -14 -27 -27l-51 -42l-22 29l112 94h38l-78 -398h93zM562 159v-2h160l28 147l16 65h-2c-15 -18 -30 -35 -45 -50z
" />
    <glyph glyph-name="onehalf" unicode="&#xbd;" horiz-adv-x="890" 
d="M780 0h-266c2 94 75 145 144 186c71 46 140 80 140 152c0 40 -29 70 -76 70c-33 0 -68 -17 -104 -50l-21 28c31 32 81 58 126 58c75 0 114 -43 114 -104c0 -60 -37 -107 -88 -139c-70 -46 -168 -87 -189 -165h227zM281 266h-227l7 36h96l62 322l6 22h-2
c-3 -5 -12 -14 -27 -27l-51 -42l-22 29l112 94h38l-78 -398h93zM700 700l-471 -700h-47l472 700h46z" />
    <glyph glyph-name="threequarters" unicode="&#xbe;" horiz-adv-x="931" 
d="M765 0h-38l24 121h-218l5 26l278 287h34l-54 -277h68l-7 -36h-68zM598 159v-2h160l28 147l16 65h-2c-15 -18 -30 -35 -45 -50zM193 256c-55 0 -102 22 -140 65l30 24c31 -35 68 -53 111 -53c30 0 57 12 81 35c25 23 37 51 37 84c0 48 -42 78 -91 78h-32l-7 24l133 127
l30 25v2c-12 -2 -25 -3 -38 -3h-164l7 36h255l-5 -26l-158 -150c25 -2 50 -12 73 -30c24 -18 36 -46 36 -83c0 -41 -16 -77 -48 -108c-31 -31 -68 -47 -110 -47zM737 700l-471 -700h-47l472 700h46z" />
    <glyph glyph-name="questiondown" unicode="&#xbf;" horiz-adv-x="429" 
d="M306 439h-59l13 61h59zM-20 -65c0 65 34 121 78 158c62 55 151 108 168 190l9 42h43l-9 -42c-13 -63 -57 -117 -102 -153c-65 -53 -141 -105 -141 -193c0 -61 47 -105 122 -105c47 0 92 14 136 42l17 -37c-49 -31 -100 -47 -155 -47c-103 0 -166 58 -166 145z" />
    <glyph glyph-name="Agrave" unicode="&#xc0;" horiz-adv-x="625" 
d="M23 0h-48l397 700h45l127 -700h-44l-43 242h-297zM343 566l-161 -284h267l-50 284l-12 84h-2c-17 -36 -31 -64 -42 -84zM425 750h-40l-57 111h52z" />
    <glyph glyph-name="Aacute" unicode="&#xc1;" horiz-adv-x="625" 
d="M23 0h-48l397 700h45l127 -700h-44l-43 242h-297zM343 566l-161 -284h267l-50 284l-12 84h-2c-17 -36 -31 -64 -42 -84zM428 750h-48l89 111h60z" />
    <glyph glyph-name="Acircumflex" unicode="&#xc2;" horiz-adv-x="625" 
d="M23 0h-48l397 700h45l127 -700h-44l-43 242h-297zM343 566l-161 -284h267l-50 284l-12 84h-2c-17 -36 -31 -64 -42 -84zM348 750h-52l102 111h52l58 -111h-46l-40 80h-2z" />
    <glyph glyph-name="Atilde" unicode="&#xc3;" horiz-adv-x="625" 
d="M23 0h-48l397 700h45l127 -700h-44l-43 242h-297zM343 566l-161 -284h267l-50 284l-12 84h-2c-17 -36 -31 -64 -42 -84zM307 753h-40c13 72 45 108 96 108c65 0 68 -74 111 -74c27 0 44 24 52 71h40c-15 -73 -44 -108 -97 -108c-64 0 -66 74 -111 74
c-28 0 -46 -38 -51 -71z" />
    <glyph glyph-name="Adieresis" unicode="&#xc4;" horiz-adv-x="625" 
d="M23 0h-48l397 700h45l127 -700h-44l-43 242h-297zM343 566l-161 -284h267l-50 284l-12 84h-2c-17 -36 -31 -64 -42 -84zM505 788h-46l14 73h46zM368 788h-46l14 73h46z" />
    <glyph glyph-name="Aring" unicode="&#xc5;" horiz-adv-x="625" 
d="M23 0h-48l397 700h45l127 -700h-44l-43 242h-297zM343 566l-161 -284h267l-50 284l-12 84h-2c-17 -36 -31 -64 -42 -84zM410 740c-40 0 -62 22 -62 59c0 39 35 75 74 75c40 0 62 -23 62 -59c0 -39 -35 -75 -74 -75zM410 775c21 0 39 17 39 40c0 15 -11 25 -27 25
c-21 0 -39 -17 -39 -41c0 -16 9 -24 27 -24z" />
    <glyph glyph-name="AE" unicode="&#xc6;" horiz-adv-x="828" 
d="M18 0h-49l423 700h452l-8 -40h-340l-56 -287h279l-8 -40h-279l-57 -293h359l-8 -40h-402l65 333h-170zM417 660l-174 -287h154l56 287h-36z" />
    <glyph glyph-name="Ccedilla" unicode="&#xc7;" horiz-adv-x="719" 
d="M292 -93l33 83c-80 7 -143 37 -190 91c-47 55 -70 123 -70 205c0 76 20 147 59 213c40 66 92 118 156 156s131 57 202 57c91 0 185 -28 240 -88l-30 -31c-52 52 -122 78 -210 78c-63 0 -124 -17 -181 -51s-103 -81 -138 -141c-35 -59 -53 -124 -53 -193
c0 -75 23 -136 68 -185c46 -48 107 -72 182 -72c89 0 186 36 255 95l25 -33c-33 -30 -76 -55 -129 -74c-52 -19 -102 -29 -151 -29l-18 -48c32 -5 57 -28 57 -64c0 -52 -50 -80 -102 -80c-19 0 -35 2 -48 5l8 37c9 -3 22 -5 39 -5c32 0 62 12 62 43c0 21 -18 32 -54 32
c-5 0 -9 0 -12 -1z" />
    <glyph glyph-name="Egrave" unicode="&#xc8;" horiz-adv-x="553" 
d="M451 0h-402l137 700h383l-9 -40h-339l-56 -287h279l-8 -40h-278l-58 -293h358zM419 750h-40l-57 111h52z" />
    <glyph glyph-name="Eacute" unicode="&#xc9;" horiz-adv-x="553" 
d="M451 0h-402l137 700h383l-9 -40h-339l-56 -287h279l-8 -40h-278l-58 -293h358zM422 750h-48l89 111h60z" />
    <glyph glyph-name="Ecircumflex" unicode="&#xca;" horiz-adv-x="553" 
d="M451 0h-402l137 700h383l-9 -40h-339l-56 -287h279l-8 -40h-278l-58 -293h358zM342 750h-52l102 111h52l58 -111h-46l-40 80h-2z" />
    <glyph glyph-name="Edieresis" unicode="&#xcb;" horiz-adv-x="553" 
d="M451 0h-402l137 700h383l-9 -40h-339l-56 -287h279l-8 -40h-278l-58 -293h358zM499 788h-46l14 73h46zM362 788h-46l14 73h46z" />
    <glyph glyph-name="Igrave" unicode="&#xcc;" horiz-adv-x="256" 
d="M92 0h-43l137 700h43zM237 750h-40l-57 111h52z" />
    <glyph glyph-name="Iacute" unicode="&#xcd;" horiz-adv-x="256" 
d="M92 0h-43l137 700h43zM240 750h-48l89 111h60z" />
    <glyph glyph-name="Icircumflex" unicode="&#xce;" horiz-adv-x="256" 
d="M160 750h-52l102 111h52l58 -111h-46l-40 80h-2zM92 0h-43l137 700h43z" />
    <glyph glyph-name="Idieresis" unicode="&#xcf;" horiz-adv-x="256" 
d="M92 0h-43l137 700h43zM317 788h-46l14 73h46zM180 788h-46l14 73h46z" />
    <glyph glyph-name="Eth" unicode="&#xd0;" horiz-adv-x="746" 
d="M286 0h-229l65 333h-60l8 40h60l64 327h209c187 0 299 -98 299 -270c0 -120 -39 -222 -118 -305c-78 -83 -177 -125 -298 -125zM164 333l-57 -293h170c109 0 199 37 271 111c73 74 109 166 109 277c0 148 -98 232 -259 232h-169l-57 -287h184l-8 -40h-184z" />
    <glyph glyph-name="Ntilde" unicode="&#xd1;" horiz-adv-x="743" 
d="M92 0h-43l137 700h35l292 -549l40 -88h2c3 35 6 65 11 88l107 549h43l-137 -700h-35l-292 549l-40 88h-2c-3 -35 -6 -65 -11 -88zM362 753h-40c13 72 45 108 96 108c65 0 68 -74 111 -74c27 0 44 24 52 71h40c-15 -73 -44 -108 -97 -108c-64 0 -66 74 -111 74
c-28 0 -46 -38 -51 -71z" />
    <glyph glyph-name="Ograve" unicode="&#xd2;" horiz-adv-x="826" 
d="M64 288c0 75 20 145 61 210c41 66 94 118 159 156c65 39 133 58 203 58c88 0 160 -27 215 -82s83 -125 83 -210c0 -76 -21 -148 -62 -215s-94 -120 -159 -159s-132 -58 -202 -58c-88 0 -160 28 -215 84s-83 128 -83 216zM109 288c0 -76 23 -138 70 -187
c47 -48 108 -72 183 -72c62 0 122 17 180 52c59 35 106 83 143 144s55 125 55 194c0 74 -24 134 -71 181s-107 71 -182 71c-63 0 -124 -17 -182 -51s-105 -81 -142 -141c-36 -59 -54 -123 -54 -191zM521 750h-40l-57 111h52z" />
    <glyph glyph-name="Oacute" unicode="&#xd3;" horiz-adv-x="826" 
d="M64 288c0 75 20 145 61 210c41 66 94 118 159 156c65 39 133 58 203 58c88 0 160 -27 215 -82s83 -125 83 -210c0 -76 -21 -148 -62 -215s-94 -120 -159 -159s-132 -58 -202 -58c-88 0 -160 28 -215 84s-83 128 -83 216zM109 288c0 -76 23 -138 70 -187
c47 -48 108 -72 183 -72c62 0 122 17 180 52c59 35 106 83 143 144s55 125 55 194c0 74 -24 134 -71 181s-107 71 -182 71c-63 0 -124 -17 -182 -51s-105 -81 -142 -141c-36 -59 -54 -123 -54 -191zM524 750h-48l89 111h60z" />
    <glyph glyph-name="Ocircumflex" unicode="&#xd4;" horiz-adv-x="826" 
d="M64 288c0 75 20 145 61 210c41 66 94 118 159 156c65 39 133 58 203 58c88 0 160 -27 215 -82s83 -125 83 -210c0 -76 -21 -148 -62 -215s-94 -120 -159 -159s-132 -58 -202 -58c-88 0 -160 28 -215 84s-83 128 -83 216zM109 288c0 -76 23 -138 70 -187
c47 -48 108 -72 183 -72c62 0 122 17 180 52c59 35 106 83 143 144s55 125 55 194c0 74 -24 134 -71 181s-107 71 -182 71c-63 0 -124 -17 -182 -51s-105 -81 -142 -141c-36 -59 -54 -123 -54 -191zM444 750h-52l102 111h52l58 -111h-46l-40 80h-2z" />
    <glyph glyph-name="Otilde" unicode="&#xd5;" horiz-adv-x="826" 
d="M64 288c0 75 20 145 61 210c41 66 94 118 159 156c65 39 133 58 203 58c88 0 160 -27 215 -82s83 -125 83 -210c0 -76 -21 -148 -62 -215s-94 -120 -159 -159s-132 -58 -202 -58c-88 0 -160 28 -215 84s-83 128 -83 216zM109 288c0 -76 23 -138 70 -187
c47 -48 108 -72 183 -72c62 0 122 17 180 52c59 35 106 83 143 144s55 125 55 194c0 74 -24 134 -71 181s-107 71 -182 71c-63 0 -124 -17 -182 -51s-105 -81 -142 -141c-36 -59 -54 -123 -54 -191zM403 753h-40c13 72 45 108 96 108c65 0 68 -74 111 -74c27 0 44 24 52 71
h40c-15 -73 -44 -108 -97 -108c-64 0 -66 74 -111 74c-28 0 -46 -38 -51 -71z" />
    <glyph glyph-name="Odieresis" unicode="&#xd6;" horiz-adv-x="826" 
d="M64 288c0 75 20 145 61 210c41 66 94 118 159 156c65 39 133 58 203 58c88 0 160 -27 215 -82s83 -125 83 -210c0 -76 -21 -148 -62 -215s-94 -120 -159 -159s-132 -58 -202 -58c-88 0 -160 28 -215 84s-83 128 -83 216zM109 288c0 -76 23 -138 70 -187
c47 -48 108 -72 183 -72c62 0 122 17 180 52c59 35 106 83 143 144s55 125 55 194c0 74 -24 134 -71 181s-107 71 -182 71c-63 0 -124 -17 -182 -51s-105 -81 -142 -141c-36 -59 -54 -123 -54 -191zM601 788h-46l14 73h46zM464 788h-46l14 73h46z" />
    <glyph glyph-name="multiply" unicode="&#xd7;" 
d="M60 0l-28 28l224 255l-224 255l28 28l223 -253l223 253l28 -28l-225 -255l225 -255l-28 -28l-223 253z" />
    <glyph glyph-name="Oslash" unicode="&#xd8;" horiz-adv-x="826" 
d="M111 -23l-33 26l66 72c-53 55 -80 126 -80 213c0 75 20 145 61 210c41 66 94 118 159 156c65 39 133 58 203 58c73 0 135 -19 186 -58l64 70l32 -27l-64 -70c53 -55 80 -124 80 -207c0 -76 -21 -148 -62 -215s-94 -120 -159 -159s-132 -58 -202 -58
c-74 0 -136 20 -187 59zM174 107l470 515c-44 33 -96 49 -157 49c-63 0 -124 -17 -182 -51s-105 -81 -142 -141c-36 -59 -54 -123 -54 -191c0 -73 22 -134 65 -181zM675 594l-471 -515c44 -33 97 -50 158 -50c62 0 122 17 180 52c59 35 106 83 143 144s55 125 55 194
c0 70 -22 128 -65 175z" />
    <glyph glyph-name="Ugrave" unicode="&#xd9;" horiz-adv-x="721" 
d="M84 187c0 18 2 37 6 57l89 456h43l-89 -457c-3 -15 -5 -33 -5 -52c0 -103 67 -162 182 -162c66 0 122 19 169 58s78 91 91 158l89 455h43l-92 -465c-15 -77 -49 -137 -104 -181c-54 -44 -119 -66 -196 -66c-140 0 -226 75 -226 199zM469 750h-40l-57 111h52z" />
    <glyph glyph-name="Uacute" unicode="&#xda;" horiz-adv-x="721" 
d="M84 187c0 18 2 37 6 57l89 456h43l-89 -457c-3 -15 -5 -33 -5 -52c0 -103 67 -162 182 -162c66 0 122 19 169 58s78 91 91 158l89 455h43l-92 -465c-15 -77 -49 -137 -104 -181c-54 -44 -119 -66 -196 -66c-140 0 -226 75 -226 199zM472 750h-48l89 111h60z" />
    <glyph glyph-name="Ucircumflex" unicode="&#xdb;" horiz-adv-x="721" 
d="M84 187c0 18 2 37 6 57l89 456h43l-89 -457c-3 -15 -5 -33 -5 -52c0 -103 67 -162 182 -162c66 0 122 19 169 58s78 91 91 158l89 455h43l-92 -465c-15 -77 -49 -137 -104 -181c-54 -44 -119 -66 -196 -66c-140 0 -226 75 -226 199zM392 750h-52l102 111h52l58 -111h-46
l-40 80h-2z" />
    <glyph glyph-name="Udieresis" unicode="&#xdc;" horiz-adv-x="721" 
d="M84 187c0 18 2 37 6 57l89 456h43l-89 -457c-3 -15 -5 -33 -5 -52c0 -103 67 -162 182 -162c66 0 122 19 169 58s78 91 91 158l89 455h43l-92 -465c-15 -77 -49 -137 -104 -181c-54 -44 -119 -66 -196 -66c-140 0 -226 75 -226 199zM549 788h-46l14 73h46zM412 788h-46
l14 73h46z" />
    <glyph glyph-name="Yacute" unicode="&#xdd;" horiz-adv-x="567" 
d="M242 0h-43l60 304l-160 396h46l111 -276l29 -79h2l58 78l219 277h53l-315 -397zM381 750h-48l89 111h60z" />
    <glyph glyph-name="Thorn" unicode="&#xde;" horiz-adv-x="593" 
d="M92 0h-43l137 700h43l-26 -130h177c117 0 189 -61 189 -164c0 -73 -24 -133 -73 -178s-107 -68 -175 -68h-197zM195 530l-64 -330h186c59 0 108 18 147 55c40 37 60 87 60 151c0 79 -53 124 -144 124h-185z" />
    <glyph glyph-name="germandbls" unicode="&#xdf;" horiz-adv-x="561" 
d="M72 0h-42l104 539c11 53 37 95 78 126s86 47 134 47c93 0 147 -53 147 -122c0 -55 -41 -104 -82 -132c-41 -27 -82 -65 -82 -98c0 -29 42 -64 83 -92c43 -27 84 -75 84 -126c0 -41 -17 -76 -52 -105s-75 -44 -120 -44c-61 0 -114 12 -158 35l9 44c15 -11 37 -20 66 -27
c30 -7 57 -11 82 -11c32 0 61 9 88 28s40 45 40 80c0 40 -43 83 -84 108c-41 27 -84 69 -84 109c0 44 42 89 82 116c41 27 83 70 83 113c0 45 -35 83 -102 83c-39 0 -75 -13 -108 -39c-33 -25 -54 -60 -63 -103z" />
    <glyph glyph-name="agrave" unicode="&#xe0;" horiz-adv-x="508" 
d="M347 305h39c5 25 7 47 7 64c0 68 -37 102 -112 102c-55 0 -105 -16 -152 -48l-18 38c47 34 104 51 170 51c104 0 156 -46 156 -137c0 -17 -2 -36 -6 -57l-62 -318h-42l13 65l12 46h-2c-15 -30 -40 -58 -75 -84c-34 -26 -73 -39 -118 -39c-43 0 -78 11 -107 34
s-43 53 -43 91s11 70 32 97s50 47 86 60c73 25 142 35 222 35zM51 117c0 -51 38 -90 110 -90c50 0 95 22 135 67s66 94 78 149l5 23h-32c-197 0 -296 -50 -296 -149zM324 589h-40l-57 111h52z" />
    <glyph glyph-name="aacute" unicode="&#xe1;" horiz-adv-x="508" 
d="M347 305h39c5 25 7 47 7 64c0 68 -37 102 -112 102c-55 0 -105 -16 -152 -48l-18 38c47 34 104 51 170 51c104 0 156 -46 156 -137c0 -17 -2 -36 -6 -57l-62 -318h-42l13 65l12 46h-2c-15 -30 -40 -58 -75 -84c-34 -26 -73 -39 -118 -39c-43 0 -78 11 -107 34
s-43 53 -43 91s11 70 32 97s50 47 86 60c73 25 142 35 222 35zM51 117c0 -51 38 -90 110 -90c50 0 95 22 135 67s66 94 78 149l5 23h-32c-197 0 -296 -50 -296 -149zM327 589h-48l89 111h60z" />
    <glyph glyph-name="acircumflex" unicode="&#xe2;" horiz-adv-x="508" 
d="M347 305h39c5 25 7 47 7 64c0 68 -37 102 -112 102c-55 0 -105 -16 -152 -48l-18 38c47 34 104 51 170 51c104 0 156 -46 156 -137c0 -17 -2 -36 -6 -57l-62 -318h-42l13 65l12 46h-2c-15 -30 -40 -58 -75 -84c-34 -26 -73 -39 -118 -39c-43 0 -78 11 -107 34
s-43 53 -43 91s11 70 32 97s50 47 86 60c73 25 142 35 222 35zM51 117c0 -51 38 -90 110 -90c50 0 95 22 135 67s66 94 78 149l5 23h-32c-197 0 -296 -50 -296 -149zM247 589h-52l102 111h52l58 -111h-46l-40 80h-2z" />
    <glyph glyph-name="atilde" unicode="&#xe3;" horiz-adv-x="508" 
d="M347 305h39c5 25 7 47 7 64c0 68 -37 102 -112 102c-55 0 -105 -16 -152 -48l-18 38c47 34 104 51 170 51c104 0 156 -46 156 -137c0 -17 -2 -36 -6 -57l-62 -318h-42l13 65l12 46h-2c-15 -30 -40 -58 -75 -84c-34 -26 -73 -39 -118 -39c-43 0 -78 11 -107 34
s-43 53 -43 91s11 70 32 97s50 47 86 60c73 25 142 35 222 35zM51 117c0 -51 38 -90 110 -90c50 0 95 22 135 67s66 94 78 149l5 23h-32c-197 0 -296 -50 -296 -149zM206 592h-40c13 72 45 108 96 108c65 0 68 -74 111 -74c27 0 44 24 52 71h40c-15 -73 -44 -108 -97 -108
c-64 0 -66 74 -111 74c-28 0 -46 -38 -51 -71z" />
    <glyph glyph-name="adieresis" unicode="&#xe4;" horiz-adv-x="508" 
d="M347 305h39c5 25 7 47 7 64c0 68 -37 102 -112 102c-55 0 -105 -16 -152 -48l-18 38c47 34 104 51 170 51c104 0 156 -46 156 -137c0 -17 -2 -36 -6 -57l-62 -318h-42l13 65l12 46h-2c-15 -30 -40 -58 -75 -84c-34 -26 -73 -39 -118 -39c-43 0 -78 11 -107 34
s-43 53 -43 91s11 70 32 97s50 47 86 60c73 25 142 35 222 35zM51 117c0 -51 38 -90 110 -90c50 0 95 22 135 67s66 94 78 149l5 23h-32c-197 0 -296 -50 -296 -149zM404 627h-46l14 73h46zM267 627h-46l14 73h46z" />
    <glyph glyph-name="aring" unicode="&#xe5;" horiz-adv-x="508" 
d="M347 305h39c5 25 7 47 7 64c0 68 -37 102 -112 102c-55 0 -105 -16 -152 -48l-18 38c47 34 104 51 170 51c104 0 156 -46 156 -137c0 -17 -2 -36 -6 -57l-62 -318h-42l13 65l12 46h-2c-15 -30 -40 -58 -75 -84c-34 -26 -73 -39 -118 -39c-43 0 -78 11 -107 34
s-43 53 -43 91s11 70 32 97s50 47 86 60c73 25 142 35 222 35zM51 117c0 -51 38 -90 110 -90c50 0 95 22 135 67s66 94 78 149l5 23h-32c-197 0 -296 -50 -296 -149zM309 579c-40 0 -62 22 -62 59c0 39 35 75 74 75c40 0 62 -23 62 -59c0 -39 -35 -75 -74 -75zM309 614
c21 0 39 17 39 40c0 15 -11 25 -27 25c-21 0 -39 -17 -39 -41c0 -16 9 -24 27 -24z" />
    <glyph glyph-name="ae" unicode="&#xe6;" horiz-adv-x="868" 
d="M8 113c0 77 42 131 114 155c72 25 135 32 223 32h40c6 33 9 57 9 70c0 67 -39 101 -117 101c-53 0 -102 -16 -147 -48l-18 38c40 29 108 51 165 51c100 0 152 -36 157 -108h2c53 72 124 108 213 108c115 0 175 -69 175 -178c0 -19 -5 -47 -9 -62l-3 -11h-392
c-5 -21 -7 -43 -7 -64c0 -107 65 -168 166 -168c59 0 115 21 168 63l16 -38c-22 -19 -50 -34 -85 -47s-67 -19 -97 -19c-109 0 -187 57 -206 149h-2c-8 -20 -26 -47 -61 -84s-93 -65 -157 -65c-85 0 -147 46 -147 125zM431 300h345c2 14 3 27 3 40c0 89 -54 133 -130 133
c-95 0 -179 -61 -218 -173zM53 116c0 -51 38 -89 109 -89c51 0 95 22 134 65s65 92 77 147l5 22h-69c-171 0 -256 -48 -256 -145z" />
    <glyph glyph-name="ccedilla" unicode="&#xe7;" horiz-adv-x="541" 
d="M191 -93l34 84c-55 7 -100 29 -135 66c-34 37 -51 83 -51 140c0 91 31 166 94 225c63 60 133 90 211 90c68 0 137 -24 176 -71l-30 -31c-32 37 -88 61 -144 61c-67 0 -127 -26 -182 -77c-54 -51 -81 -116 -81 -193c0 -52 17 -94 50 -125c34 -31 77 -47 128 -47
c69 0 130 24 181 72l16 -38c-49 -45 -123 -75 -195 -75h-4l-18 -48c32 -5 57 -28 57 -64c0 -52 -50 -80 -102 -80c-19 0 -35 2 -48 5l8 37c9 -3 22 -5 39 -5c32 0 62 12 62 43c0 21 -18 32 -54 32c-5 0 -9 0 -12 -1z" />
    <glyph glyph-name="egrave" unicode="&#xe8;" horiz-adv-x="548" 
d="M39 197c0 83 28 156 84 219c56 64 125 96 207 96c116 0 174 -70 174 -177c0 -22 -4 -48 -13 -78h-401c-4 -19 -6 -38 -6 -55c0 -101 64 -173 176 -173c59 0 115 21 167 63l16 -38c-44 -36 -116 -66 -183 -66c-65 0 -119 19 -160 57s-61 89 -61 152zM100 296h355
c3 10 4 24 4 42c0 89 -52 135 -129 135c-97 0 -190 -65 -230 -177zM374 589h-40l-57 111h52z" />
    <glyph glyph-name="eacute" unicode="&#xe9;" horiz-adv-x="548" 
d="M39 197c0 83 28 156 84 219c56 64 125 96 207 96c116 0 174 -70 174 -177c0 -22 -4 -48 -13 -78h-401c-4 -19 -6 -38 -6 -55c0 -101 64 -173 176 -173c59 0 115 21 167 63l16 -38c-44 -36 -116 -66 -183 -66c-65 0 -119 19 -160 57s-61 89 -61 152zM100 296h355
c3 10 4 24 4 42c0 89 -52 135 -129 135c-97 0 -190 -65 -230 -177zM377 589h-48l89 111h60z" />
    <glyph glyph-name="ecircumflex" unicode="&#xea;" horiz-adv-x="548" 
d="M39 197c0 83 28 156 84 219c56 64 125 96 207 96c116 0 174 -70 174 -177c0 -22 -4 -48 -13 -78h-401c-4 -19 -6 -38 -6 -55c0 -101 64 -173 176 -173c59 0 115 21 167 63l16 -38c-44 -36 -116 -66 -183 -66c-65 0 -119 19 -160 57s-61 89 -61 152zM100 296h355
c3 10 4 24 4 42c0 89 -52 135 -129 135c-97 0 -190 -65 -230 -177zM297 589h-52l102 111h52l58 -111h-46l-40 80h-2z" />
    <glyph glyph-name="edieresis" unicode="&#xeb;" horiz-adv-x="548" 
d="M39 197c0 83 28 156 84 219c56 64 125 96 207 96c116 0 174 -70 174 -177c0 -22 -4 -48 -13 -78h-401c-4 -19 -6 -38 -6 -55c0 -101 64 -173 176 -173c59 0 115 21 167 63l16 -38c-44 -36 -116 -66 -183 -66c-65 0 -119 19 -160 57s-61 89 -61 152zM100 296h355
c3 10 4 24 4 42c0 89 -52 135 -129 135c-97 0 -190 -65 -230 -177zM454 627h-46l14 73h46zM317 627h-46l14 73h46z" />
    <glyph glyph-name="igrave" unicode="&#xec;" horiz-adv-x="216" 
d="M72 0h-42l97 500h42zM185 589h-40l-57 111h52z" />
    <glyph glyph-name="iacute" unicode="&#xed;" horiz-adv-x="216" 
d="M72 0h-42l97 500h42zM188 589h-48l89 111h60z" />
    <glyph glyph-name="icircumflex" unicode="&#xee;" horiz-adv-x="216" 
d="M108 589h-52l102 111h52l58 -111h-46l-40 80h-2zM72 0h-42l97 500h42z" />
    <glyph glyph-name="idieresis" unicode="&#xef;" horiz-adv-x="216" 
d="M72 0h-42l97 500h42zM265 627h-46l14 73h46zM128 627h-46l14 73h46z" />
    <glyph glyph-name="eth" unicode="&#xf0;" horiz-adv-x="576" 
d="M36 183c0 73 26 138 78 197s121 88 206 88c91 0 139 -43 153 -62l5 -7h2c-11 78 -45 140 -102 186l-187 -80l-10 37l161 69c-39 23 -87 43 -143 59l18 35c68 -19 124 -44 169 -75l139 59l11 -37l-116 -49c71 -63 106 -146 106 -249c0 -75 -24 -159 -69 -235
s-128 -131 -228 -131c-62 0 -110 19 -143 56s-50 84 -50 139zM80 185c0 -89 54 -157 149 -157c69 0 126 29 173 88s71 120 71 181c0 79 -59 131 -154 131c-65 0 -121 -24 -168 -72s-71 -105 -71 -171z" />
    <glyph glyph-name="ntilde" unicode="&#xf1;" horiz-adv-x="585" 
d="M72 0h-42l97 500h42l-15 -83l-14 -46h2c17 33 46 64 89 95s91 46 146 46c92 0 139 -45 139 -126c0 -19 -3 -42 -8 -69l-61 -317h-42l58 302c6 31 9 57 9 76c0 61 -37 93 -96 93c-61 0 -117 -23 -166 -70s-80 -102 -93 -167zM266 592h-40c13 72 45 108 96 108
c65 0 68 -74 111 -74c27 0 44 24 52 71h40c-15 -73 -44 -108 -97 -108c-64 0 -66 74 -111 74c-28 0 -46 -38 -51 -71z" />
    <glyph glyph-name="ograve" unicode="&#xf2;" horiz-adv-x="620" 
d="M38 205c0 83 31 155 93 216c63 61 134 91 213 91c65 0 118 -20 159 -60s62 -91 62 -154c0 -84 -31 -157 -94 -218s-133 -92 -212 -92c-65 0 -119 20 -160 61s-61 93 -61 156zM82 206c0 -52 16 -95 49 -128s76 -49 128 -49c67 0 127 26 181 79s81 116 81 189
c0 51 -17 92 -50 125s-75 49 -127 49c-68 0 -129 -26 -182 -79c-53 -52 -80 -114 -80 -186zM387 589h-40l-57 111h52z" />
    <glyph glyph-name="oacute" unicode="&#xf3;" horiz-adv-x="620" 
d="M38 205c0 83 31 155 93 216c63 61 134 91 213 91c65 0 118 -20 159 -60s62 -91 62 -154c0 -84 -31 -157 -94 -218s-133 -92 -212 -92c-65 0 -119 20 -160 61s-61 93 -61 156zM82 206c0 -52 16 -95 49 -128s76 -49 128 -49c67 0 127 26 181 79s81 116 81 189
c0 51 -17 92 -50 125s-75 49 -127 49c-68 0 -129 -26 -182 -79c-53 -52 -80 -114 -80 -186zM390 589h-48l89 111h60z" />
    <glyph glyph-name="ocircumflex" unicode="&#xf4;" horiz-adv-x="620" 
d="M310 589h-52l102 111h52l58 -111h-46l-40 80h-2zM38 205c0 83 31 155 93 216c63 61 134 91 213 91c65 0 118 -20 159 -60s62 -91 62 -154c0 -84 -31 -157 -94 -218s-133 -92 -212 -92c-65 0 -119 20 -160 61s-61 93 -61 156zM82 206c0 -52 16 -95 49 -128s76 -49 128 -49
c67 0 127 26 181 79s81 116 81 189c0 51 -17 92 -50 125s-75 49 -127 49c-68 0 -129 -26 -182 -79c-53 -52 -80 -114 -80 -186z" />
    <glyph glyph-name="otilde" unicode="&#xf5;" horiz-adv-x="620" 
d="M38 205c0 83 31 155 93 216c63 61 134 91 213 91c65 0 118 -20 159 -60s62 -91 62 -154c0 -84 -31 -157 -94 -218s-133 -92 -212 -92c-65 0 -119 20 -160 61s-61 93 -61 156zM82 206c0 -52 16 -95 49 -128s76 -49 128 -49c67 0 127 26 181 79s81 116 81 189
c0 51 -17 92 -50 125s-75 49 -127 49c-68 0 -129 -26 -182 -79c-53 -52 -80 -114 -80 -186zM269 592h-40c13 72 45 108 96 108c65 0 68 -74 111 -74c27 0 44 24 52 71h40c-15 -73 -44 -108 -97 -108c-64 0 -66 74 -111 74c-28 0 -46 -38 -51 -71z" />
    <glyph glyph-name="odieresis" unicode="&#xf6;" horiz-adv-x="620" 
d="M38 205c0 83 31 155 93 216c63 61 134 91 213 91c65 0 118 -20 159 -60s62 -91 62 -154c0 -84 -31 -157 -94 -218s-133 -92 -212 -92c-65 0 -119 20 -160 61s-61 93 -61 156zM82 206c0 -52 16 -95 49 -128s76 -49 128 -49c67 0 127 26 181 79s81 116 81 189
c0 51 -17 92 -50 125s-75 49 -127 49c-68 0 -129 -26 -182 -79c-53 -52 -80 -114 -80 -186zM467 627h-46l14 73h46zM330 627h-46l14 73h46z" />
    <glyph glyph-name="divide" unicode="&#xf7;" 
d="M305 431h-57v59h57v-59zM515 263h-476v40h476v-40zM305 76h-57v59h57v-59z" />
    <glyph glyph-name="oslash" unicode="&#xf8;" horiz-adv-x="620" 
d="M81 -29l-32 28l48 52c-39 41 -59 92 -59 154c0 83 31 155 93 216c63 61 134 91 213 91c53 0 98 -14 137 -41l50 55l32 -28l-51 -56c35 -39 53 -87 53 -144c0 -84 -31 -157 -94 -218s-133 -92 -212 -92c-49 0 -92 12 -129 36zM126 83l325 356c-31 21 -66 32 -107 32
c-68 0 -129 -26 -182 -79c-53 -52 -80 -114 -80 -186c0 -49 15 -90 44 -123zM482 410l-323 -354c29 -18 63 -27 100 -27c67 0 127 26 181 79s81 116 81 189c0 44 -13 82 -39 113z" />
    <glyph glyph-name="ugrave" unicode="&#xf9;" horiz-adv-x="580" 
d="M52 114c0 19 3 42 8 69l61 317h42l-58 -300c-6 -29 -9 -55 -9 -78c0 -59 26 -93 99 -93c60 0 114 24 162 73s78 104 89 166l45 232h42l-97 -500h-42l16 83l13 46h-2c-18 -34 -48 -66 -89 -96s-89 -45 -144 -45c-80 0 -136 39 -136 126zM364 589h-40l-57 111h52z" />
    <glyph glyph-name="uacute" unicode="&#xfa;" horiz-adv-x="580" 
d="M52 114c0 19 3 42 8 69l61 317h42l-58 -300c-6 -29 -9 -55 -9 -78c0 -59 26 -93 99 -93c60 0 114 24 162 73s78 104 89 166l45 232h42l-97 -500h-42l16 83l13 46h-2c-18 -34 -48 -66 -89 -96s-89 -45 -144 -45c-80 0 -136 39 -136 126zM367 589h-48l89 111h60z" />
    <glyph glyph-name="ucircumflex" unicode="&#xfb;" horiz-adv-x="580" 
d="M52 114c0 19 3 42 8 69l61 317h42l-58 -300c-6 -29 -9 -55 -9 -78c0 -59 26 -93 99 -93c60 0 114 24 162 73s78 104 89 166l45 232h42l-97 -500h-42l16 83l13 46h-2c-18 -34 -48 -66 -89 -96s-89 -45 -144 -45c-80 0 -136 39 -136 126zM287 589h-52l102 111h52l58 -111
h-46l-40 80h-2z" />
    <glyph glyph-name="udieresis" unicode="&#xfc;" horiz-adv-x="580" 
d="M52 114c0 19 3 42 8 69l61 317h42l-58 -300c-6 -29 -9 -55 -9 -78c0 -59 26 -93 99 -93c60 0 114 24 162 73s78 104 89 166l45 232h42l-97 -500h-42l16 83l13 46h-2c-18 -34 -48 -66 -89 -96s-89 -45 -144 -45c-80 0 -136 39 -136 126zM444 627h-46l14 73h46zM307 627
h-46l14 73h46z" />
    <glyph glyph-name="yacute" unicode="&#xfd;" horiz-adv-x="520" 
d="M-72 -182l24 33c14 -14 33 -21 58 -21c41 0 79 30 116 89l53 85l-112 496h44l87 -406l9 -47h1l27 47l244 406h48l-379 -620c-37 -60 -83 -90 -138 -90c-31 0 -58 9 -82 28zM338 589h-48l89 111h60z" />
    <glyph glyph-name="thorn" unicode="&#xfe;" horiz-adv-x="579" 
d="M83 52l-49 -252h-42l174 900h42l-49 -255l-12 -45h2c36 63 105 112 192 112c116 0 183 -74 183 -197c0 -93 -27 -171 -82 -234c-54 -62 -117 -93 -188 -93c-81 0 -143 40 -163 113h-2c-1 -15 -3 -32 -6 -49zM115 187c0 -92 48 -158 137 -158c58 0 110 26 157 79
s70 121 70 205c0 99 -53 158 -138 158c-45 0 -85 -15 -120 -45c-71 -59 -106 -150 -106 -239z" />
    <glyph glyph-name="ydieresis" unicode="&#xff;" horiz-adv-x="520" 
d="M-72 -182l24 33c14 -14 33 -21 58 -21c41 0 79 30 116 89l53 85l-112 496h44l87 -406l9 -47h1l27 47l244 406h48l-379 -620c-37 -60 -83 -90 -138 -90c-31 0 -58 9 -82 28zM415 627h-46l14 73h46zM278 627h-46l14 73h46z" />
    <glyph glyph-name="Amacron" unicode="&#x100;" horiz-adv-x="625" 
d="M23 0h-48l397 700h45l127 -700h-44l-43 242h-297zM343 566l-161 -284h267l-50 284l-12 84h-2c-17 -36 -31 -64 -42 -84zM532 786h-239l7 40h239z" />
    <glyph glyph-name="amacron" unicode="&#x101;" horiz-adv-x="508" 
d="M347 305h39c5 25 7 47 7 64c0 68 -37 102 -112 102c-55 0 -105 -16 -152 -48l-18 38c47 34 104 51 170 51c104 0 156 -46 156 -137c0 -17 -2 -36 -6 -57l-62 -318h-42l13 65l12 46h-2c-15 -30 -40 -58 -75 -84c-34 -26 -73 -39 -118 -39c-43 0 -78 11 -107 34
s-43 53 -43 91s11 70 32 97s50 47 86 60c73 25 142 35 222 35zM51 117c0 -51 38 -90 110 -90c50 0 95 22 135 67s66 94 78 149l5 23h-32c-197 0 -296 -50 -296 -149zM431 625h-239l7 40h239z" />
    <glyph glyph-name="Abreve" unicode="&#x102;" horiz-adv-x="625" 
d="M23 0h-48l397 700h45l127 -700h-44l-43 242h-297zM343 566l-161 -284h267l-50 284l-12 84h-2c-17 -36 -31 -64 -42 -84zM407 747c-47 0 -86 28 -86 80c0 12 2 23 5 34h40c-3 -12 -5 -22 -5 -30c0 -31 17 -46 51 -46c37 0 68 23 76 76h40c-9 -80 -60 -114 -121 -114z" />
    <glyph glyph-name="abreve" unicode="&#x103;" horiz-adv-x="508" 
d="M347 305h39c5 25 7 47 7 64c0 68 -37 102 -112 102c-55 0 -105 -16 -152 -48l-18 38c47 34 104 51 170 51c104 0 156 -46 156 -137c0 -17 -2 -36 -6 -57l-62 -318h-42l13 65l12 46h-2c-15 -30 -40 -58 -75 -84c-34 -26 -73 -39 -118 -39c-43 0 -78 11 -107 34
s-43 53 -43 91s11 70 32 97s50 47 86 60c73 25 142 35 222 35zM51 117c0 -51 38 -90 110 -90c50 0 95 22 135 67s66 94 78 149l5 23h-32c-197 0 -296 -50 -296 -149zM306 586c-47 0 -86 28 -86 80c0 12 2 23 5 34h40c-3 -12 -5 -22 -5 -30c0 -31 17 -46 51 -46
c37 0 68 23 76 76h40c-9 -80 -60 -114 -121 -114z" />
    <glyph glyph-name="Aogonek" unicode="&#x104;" horiz-adv-x="625" 
d="M23 0h-48l397 700h45l127 -700h-2c-70 -44 -105 -84 -105 -119c0 -24 24 -40 43 -43l15 -3l-16 -39c-5 0 -10 0 -30 7c-26 7 -57 28 -57 72c0 46 35 92 105 138l-40 229h-297zM343 566l-161 -284h267l-50 284l-12 84h-2c-17 -36 -31 -64 -42 -84z" />
    <glyph glyph-name="aogonek" unicode="&#x105;" horiz-adv-x="508" 
d="M347 305h39c5 25 7 47 7 64c0 68 -37 102 -112 102c-55 0 -105 -16 -152 -48l-18 38c47 34 104 51 170 51c104 0 156 -46 156 -137c0 -17 -2 -36 -6 -57l-62 -318c-70 -44 -105 -84 -105 -119c0 -24 24 -40 44 -43l14 -3l-16 -39c-5 0 -10 0 -30 7c-26 7 -57 28 -57 72
c0 48 37 95 111 142l10 48l12 46h-2c-15 -30 -40 -58 -75 -84c-34 -26 -73 -39 -118 -39c-43 0 -78 11 -107 34s-43 53 -43 91s11 70 32 97s50 47 86 60c73 25 142 35 222 35zM51 117c0 -51 38 -90 110 -90c50 0 95 22 135 67s66 94 78 149l5 23h-32
c-197 0 -296 -50 -296 -149z" />
    <glyph glyph-name="Cacute" unicode="&#x106;" horiz-adv-x="719" 
d="M65 286c0 76 20 147 59 213c40 66 92 118 156 156s131 57 202 57c91 0 185 -28 240 -88l-30 -31c-52 52 -122 78 -210 78c-63 0 -124 -17 -181 -51s-103 -81 -138 -141c-35 -59 -53 -124 -53 -193c0 -75 23 -136 68 -185c46 -48 107 -72 182 -72c89 0 186 36 255 95
l25 -33c-33 -30 -76 -55 -129 -74c-52 -19 -102 -29 -151 -29c-91 0 -163 28 -216 83s-79 127 -79 215zM515 750h-48l89 111h60z" />
    <glyph glyph-name="cacute" unicode="&#x107;" horiz-adv-x="540" 
d="M38 197c0 91 31 166 94 225c63 60 133 90 211 90c68 0 137 -24 176 -71l-30 -31c-32 37 -88 61 -144 61c-67 0 -127 -26 -182 -77c-54 -51 -81 -116 -81 -193c0 -52 17 -94 50 -125c34 -31 77 -47 128 -47c69 0 130 24 181 72l16 -38c-49 -45 -123 -75 -195 -75
c-65 0 -119 19 -161 57s-63 89 -63 152zM375 589h-48l89 111h60z" />
    <glyph glyph-name="Ccircumflex" unicode="&#x108;" horiz-adv-x="719" 
d="M435 750h-52l102 111h52l58 -111h-46l-40 80h-2zM65 286c0 76 20 147 59 213c40 66 92 118 156 156s131 57 202 57c91 0 185 -28 240 -88l-30 -31c-52 52 -122 78 -210 78c-63 0 -124 -17 -181 -51s-103 -81 -138 -141c-35 -59 -53 -124 -53 -193c0 -75 23 -136 68 -185
c46 -48 107 -72 182 -72c89 0 186 36 255 95l25 -33c-33 -30 -76 -55 -129 -74c-52 -19 -102 -29 -151 -29c-91 0 -163 28 -216 83s-79 127 -79 215z" />
    <glyph glyph-name="ccircumflex" unicode="&#x109;" horiz-adv-x="540" 
d="M295 589h-52l102 111h52l58 -111h-46l-40 80h-2zM38 197c0 91 31 166 94 225c63 60 133 90 211 90c68 0 137 -24 176 -71l-30 -31c-32 37 -88 61 -144 61c-67 0 -127 -26 -182 -77c-54 -51 -81 -116 -81 -193c0 -52 17 -94 50 -125c34 -31 77 -47 128 -47
c69 0 130 24 181 72l16 -38c-49 -45 -123 -75 -195 -75c-65 0 -119 19 -161 57s-63 89 -63 152z" />
    <glyph glyph-name="Cdotaccent" unicode="&#x10a;" horiz-adv-x="719" 
d="M65 286c0 76 20 147 59 213c40 66 92 118 156 156s131 57 202 57c91 0 185 -28 240 -88l-30 -31c-52 52 -122 78 -210 78c-63 0 -124 -17 -181 -51s-103 -81 -138 -141c-35 -59 -53 -124 -53 -193c0 -75 23 -136 68 -185c46 -48 107 -72 182 -72c89 0 186 36 255 95
l25 -33c-33 -30 -76 -55 -129 -74c-52 -19 -102 -29 -151 -29c-91 0 -163 28 -216 83s-79 127 -79 215zM523 788h-46l14 73h46z" />
    <glyph glyph-name="cdotaccent" unicode="&#x10b;" horiz-adv-x="540" 
d="M38 197c0 91 31 166 94 225c63 60 133 90 211 90c68 0 137 -24 176 -71l-30 -31c-32 37 -88 61 -144 61c-67 0 -127 -26 -182 -77c-54 -51 -81 -116 -81 -193c0 -52 17 -94 50 -125c34 -31 77 -47 128 -47c69 0 130 24 181 72l16 -38c-49 -45 -123 -75 -195 -75
c-65 0 -119 19 -161 57s-63 89 -63 152zM383 627h-46l14 73h46z" />
    <glyph glyph-name="Ccaron" unicode="&#x10c;" horiz-adv-x="719" 
d="M521 750h-52l-58 111h46l40 -80h2l72 80h52zM65 286c0 76 20 147 59 213c40 66 92 118 156 156s131 57 202 57c91 0 185 -28 240 -88l-30 -31c-52 52 -122 78 -210 78c-63 0 -124 -17 -181 -51s-103 -81 -138 -141c-35 -59 -53 -124 -53 -193c0 -75 23 -136 68 -185
c46 -48 107 -72 182 -72c89 0 186 36 255 95l25 -33c-33 -30 -76 -55 -129 -74c-52 -19 -102 -29 -151 -29c-91 0 -163 28 -216 83s-79 127 -79 215z" />
    <glyph glyph-name="ccaron" unicode="&#x10d;" horiz-adv-x="540" 
d="M381 589h-52l-58 111h46l40 -80h2l72 80h52zM38 197c0 91 31 166 94 225c63 60 133 90 211 90c68 0 137 -24 176 -71l-30 -31c-32 37 -88 61 -144 61c-67 0 -127 -26 -182 -77c-54 -51 -81 -116 -81 -193c0 -52 17 -94 50 -125c34 -31 77 -47 128 -47c69 0 130 24 181 72
l16 -38c-49 -45 -123 -75 -195 -75c-65 0 -119 19 -161 57s-63 89 -63 152z" />
    <glyph glyph-name="Dcaron" unicode="&#x10e;" horiz-adv-x="738" 
d="M462 750h-52l-58 111h46l40 -80h2l72 80h52zM278 0h-229l137 700h209c187 0 299 -98 299 -270c0 -120 -39 -222 -118 -305c-78 -83 -177 -125 -298 -125zM221 660l-122 -620h170c109 0 199 37 271 111c73 74 109 166 109 277c0 148 -98 232 -259 232h-169z" />
    <glyph glyph-name="dcaron" unicode="&#x10f;" horiz-adv-x="579" 
d="M39 185c0 94 27 172 81 234c55 62 118 93 191 93c79 0 141 -41 161 -113h2c0 15 2 31 5 46l50 255h42l-136 -700h-42l11 58l12 43h-2c-37 -63 -108 -113 -192 -113c-117 0 -183 74 -183 197zM83 187c0 -99 52 -158 139 -158c45 0 85 15 120 45c72 60 106 153 106 242
c0 91 -46 155 -137 155c-58 0 -111 -26 -158 -79s-70 -121 -70 -205zM639 700h48v-13c0 -35 -14 -76 -42 -121h-39c24 41 36 76 36 106c0 9 -1 18 -3 28z" />
    <glyph glyph-name="Dcroat" unicode="&#x110;" horiz-adv-x="746" 
d="M286 0h-229l65 333h-60l8 40h60l64 327h209c187 0 299 -98 299 -270c0 -120 -39 -222 -118 -305c-78 -83 -177 -125 -298 -125zM164 333l-57 -293h170c109 0 199 37 271 111c73 74 109 166 109 277c0 148 -98 232 -259 232h-169l-57 -287h184l-8 -40h-184z" />
    <glyph glyph-name="dslash" unicode="&#x111;" horiz-adv-x="579" 
d="M39 185c0 94 27 172 81 234c55 62 118 93 191 93c79 0 141 -41 161 -113h2c0 15 2 31 5 46l24 124h-133l8 40h133l18 91h42l-18 -91h83l-8 -40h-83l-110 -569h-42l11 58l12 43h-2c-37 -63 -108 -113 -192 -113c-117 0 -183 74 -183 197zM83 187c0 -99 52 -158 139 -158
c45 0 85 15 120 45c72 60 106 153 106 242c0 91 -46 155 -137 155c-58 0 -111 -26 -158 -79s-70 -121 -70 -205z" />
    <glyph glyph-name="Emacron" unicode="&#x112;" horiz-adv-x="553" 
d="M451 0h-402l137 700h383l-9 -40h-339l-56 -287h279l-8 -40h-278l-58 -293h358zM526 786h-239l7 40h239z" />
    <glyph glyph-name="emacron" unicode="&#x113;" horiz-adv-x="548" 
d="M39 197c0 83 28 156 84 219c56 64 125 96 207 96c116 0 174 -70 174 -177c0 -22 -4 -48 -13 -78h-401c-4 -19 -6 -38 -6 -55c0 -101 64 -173 176 -173c59 0 115 21 167 63l16 -38c-44 -36 -116 -66 -183 -66c-65 0 -119 19 -160 57s-61 89 -61 152zM100 296h355
c3 10 4 24 4 42c0 89 -52 135 -129 135c-97 0 -190 -65 -230 -177zM481 625h-239l7 40h239z" />
    <glyph glyph-name="Ebreve" unicode="&#x114;" horiz-adv-x="553" 
d="M451 0h-402l137 700h383l-9 -40h-339l-56 -287h279l-8 -40h-278l-58 -293h358zM401 747c-47 0 -86 28 -86 80c0 12 2 23 5 34h40c-3 -12 -5 -22 -5 -30c0 -31 17 -46 51 -46c37 0 68 23 76 76h40c-9 -80 -60 -114 -121 -114z" />
    <glyph glyph-name="ebreve" unicode="&#x115;" horiz-adv-x="548" 
d="M39 197c0 83 28 156 84 219c56 64 125 96 207 96c116 0 174 -70 174 -177c0 -22 -4 -48 -13 -78h-401c-4 -19 -6 -38 -6 -55c0 -101 64 -173 176 -173c59 0 115 21 167 63l16 -38c-44 -36 -116 -66 -183 -66c-65 0 -119 19 -160 57s-61 89 -61 152zM100 296h355
c3 10 4 24 4 42c0 89 -52 135 -129 135c-97 0 -190 -65 -230 -177zM356 586c-47 0 -86 28 -86 80c0 12 2 23 5 34h40c-3 -12 -5 -22 -5 -30c0 -31 17 -46 51 -46c37 0 68 23 76 76h40c-9 -80 -60 -114 -121 -114z" />
    <glyph glyph-name="Edotaccent" unicode="&#x116;" horiz-adv-x="553" 
d="M451 0h-402l137 700h383l-9 -40h-339l-56 -287h279l-8 -40h-278l-58 -293h358zM430 788h-46l14 73h46z" />
    <glyph glyph-name="edotaccent" unicode="&#x117;" horiz-adv-x="548" 
d="M39 197c0 83 28 156 84 219c56 64 125 96 207 96c116 0 174 -70 174 -177c0 -22 -4 -48 -13 -78h-401c-4 -19 -6 -38 -6 -55c0 -101 64 -173 176 -173c59 0 115 21 167 63l16 -38c-44 -36 -116 -66 -183 -66c-65 0 -119 19 -160 57s-61 89 -61 152zM100 296h355
c3 10 4 24 4 42c0 89 -52 135 -129 135c-97 0 -190 -65 -230 -177zM385 627h-46l14 73h46z" />
    <glyph glyph-name="Eogonek" unicode="&#x118;" horiz-adv-x="553" 
d="M391 0h-342l137 700h383l-9 -40h-339l-56 -287h279l-8 -40h-278l-58 -293h358l-7 -40c-23 -14 -45 -32 -67 -54c-21 -22 -32 -44 -32 -65c0 -24 24 -40 44 -43l14 -3l-16 -39c-5 0 -10 0 -30 7c-26 7 -57 28 -57 72c0 39 28 80 84 123v2z" />
    <glyph glyph-name="eogonek" unicode="&#x119;" horiz-adv-x="549" 
d="M39 197c0 83 28 156 84 219c56 64 125 96 207 96c116 0 174 -70 174 -177c0 -21 -5 -51 -10 -67l-3 -11h-401c-4 -22 -6 -40 -6 -55c0 -108 72 -173 176 -173c56 0 119 26 146 47l21 16l16 -38c-6 -5 -27 -18 -63 -41c-72 -44 -127 -89 -127 -132c0 -24 24 -40 43 -43
l15 -3l-16 -39c-5 0 -10 0 -30 7c-26 7 -57 28 -57 72c0 37 25 74 75 113v2c-69 -7 -127 8 -174 47s-70 93 -70 160zM100 296h355c3 13 4 27 4 42c0 89 -52 135 -129 135c-97 0 -190 -65 -230 -177z" />
    <glyph glyph-name="Ecaron" unicode="&#x11a;" horiz-adv-x="553" 
d="M451 0h-402l137 700h383l-9 -40h-339l-56 -287h279l-8 -40h-278l-58 -293h358zM428 750h-52l-58 111h46l40 -80h2l72 80h52z" />
    <glyph glyph-name="ecaron" unicode="&#x11b;" horiz-adv-x="548" 
d="M39 197c0 83 28 156 84 219c56 64 125 96 207 96c116 0 174 -70 174 -177c0 -22 -4 -48 -13 -78h-401c-4 -19 -6 -38 -6 -55c0 -101 64 -173 176 -173c59 0 115 21 167 63l16 -38c-44 -36 -116 -66 -183 -66c-65 0 -119 19 -160 57s-61 89 -61 152zM100 296h355
c3 10 4 24 4 42c0 89 -52 135 -129 135c-97 0 -190 -65 -230 -177zM383 589h-52l-58 111h46l40 -80h2l72 80h52z" />
    <glyph glyph-name="Gcircumflex" unicode="&#x11c;" horiz-adv-x="754" 
d="M63 277c0 116 42 217 127 304s182 131 292 131c99 0 178 -26 237 -78l-30 -32c-47 43 -130 69 -207 69c-99 0 -186 -39 -261 -118c-75 -78 -113 -170 -113 -276c0 -73 22 -133 66 -179c45 -46 104 -69 177 -69c95 0 183 41 265 123l25 127h-124l7 40h168l-62 -319h-43
l12 62l7 30h-2c-5 -5 -11 -12 -46 -36c-17 -12 -35 -23 -54 -32c-36 -19 -97 -36 -153 -36c-87 0 -156 27 -209 81s-79 123 -79 208zM431 750h-52l102 111h52l58 -111h-46l-40 80h-2z" />
    <glyph glyph-name="gcircumflex" unicode="&#x11d;" horiz-adv-x="571" 
d="M8 -171l24 35c37 -22 81 -33 130 -33c112 0 199 57 223 172l11 53l13 46h-2c-43 -68 -102 -102 -178 -102c-116 0 -189 76 -189 196c0 49 10 97 29 144s50 88 91 121c41 34 89 51 142 51c81 0 148 -29 165 -98h2c-1 8 0 16 1 24l12 62h42l-97 -502
c-14 -71 -45 -124 -93 -157c-48 -34 -104 -51 -167 -51c-58 0 -111 13 -159 39zM84 197c0 -97 55 -156 146 -156c147 0 214 168 214 296c0 89 -47 134 -140 134c-67 0 -120 -28 -160 -84s-60 -119 -60 -190zM284 589h-52l102 111h52l58 -111h-46l-40 80h-2z" />
    <glyph glyph-name="Gbreve" unicode="&#x11e;" horiz-adv-x="754" 
d="M63 277c0 116 42 217 127 304s182 131 292 131c99 0 178 -26 237 -78l-30 -32c-47 43 -130 69 -207 69c-99 0 -186 -39 -261 -118c-75 -78 -113 -170 -113 -276c0 -73 22 -133 66 -179c45 -46 104 -69 177 -69c95 0 183 41 265 123l25 127h-124l7 40h168l-62 -319h-43
l12 62l7 30h-2c-5 -5 -11 -12 -46 -36c-17 -12 -35 -23 -54 -32c-36 -19 -97 -36 -153 -36c-87 0 -156 27 -209 81s-79 123 -79 208zM488 747c-47 0 -86 28 -86 80c0 12 2 23 5 34h40c-3 -12 -5 -22 -5 -30c0 -31 17 -46 51 -46c37 0 68 23 76 76h40
c-9 -80 -60 -114 -121 -114z" />
    <glyph glyph-name="gbreve" unicode="&#x11f;" horiz-adv-x="571" 
d="M8 -171l24 35c37 -22 81 -33 130 -33c112 0 199 57 223 172l11 53l13 46h-2c-43 -68 -102 -102 -178 -102c-116 0 -189 76 -189 196c0 49 10 97 29 144s50 88 91 121c41 34 89 51 142 51c81 0 148 -29 165 -98h2c-1 8 0 16 1 24l12 62h42l-97 -502
c-14 -71 -45 -124 -93 -157c-48 -34 -104 -51 -167 -51c-58 0 -111 13 -159 39zM84 197c0 -97 55 -156 146 -156c147 0 214 168 214 296c0 89 -47 134 -140 134c-67 0 -120 -28 -160 -84s-60 -119 -60 -190zM341 586c-47 0 -86 28 -86 80c0 12 2 23 5 34h40
c-3 -12 -5 -22 -5 -30c0 -31 17 -46 51 -46c37 0 68 23 76 76h40c-9 -80 -60 -114 -121 -114z" />
    <glyph glyph-name="Gdotaccent" unicode="&#x120;" horiz-adv-x="754" 
d="M63 277c0 116 42 217 127 304s182 131 292 131c99 0 178 -26 237 -78l-30 -32c-47 43 -130 69 -207 69c-99 0 -186 -39 -261 -118c-75 -78 -113 -170 -113 -276c0 -73 22 -133 66 -179c45 -46 104 -69 177 -69c95 0 183 41 265 123l25 127h-124l7 40h168l-62 -319h-43
l12 62l7 30h-2c-5 -5 -11 -12 -46 -36c-17 -12 -35 -23 -54 -32c-36 -19 -97 -36 -153 -36c-87 0 -156 27 -209 81s-79 123 -79 208zM519 788h-46l14 73h46z" />
    <glyph glyph-name="gdotaccent" unicode="&#x121;" horiz-adv-x="571" 
d="M8 -171l24 35c37 -22 81 -33 130 -33c112 0 199 57 223 172l11 53l13 46h-2c-43 -68 -102 -102 -178 -102c-116 0 -189 76 -189 196c0 49 10 97 29 144s50 88 91 121c41 34 89 51 142 51c81 0 148 -29 165 -98h2c-1 8 0 16 1 24l12 62h42l-97 -502
c-14 -71 -45 -124 -93 -157c-48 -34 -104 -51 -167 -51c-58 0 -111 13 -159 39zM84 197c0 -97 55 -156 146 -156c147 0 214 168 214 296c0 89 -47 134 -140 134c-67 0 -120 -28 -160 -84s-60 -119 -60 -190zM372 627h-46l14 73h46z" />
    <glyph glyph-name="Gcommaaccent" unicode="&#x122;" horiz-adv-x="754" 
d="M63 277c0 116 42 217 127 304s182 131 292 131c99 0 178 -26 237 -78l-30 -32c-47 43 -130 69 -207 69c-99 0 -186 -39 -261 -118c-75 -78 -113 -170 -113 -276c0 -73 22 -133 66 -179c45 -46 104 -69 177 -69c95 0 183 41 265 123l25 127h-124l7 40h168l-62 -319h-43
l12 62l7 30h-2c-5 -5 -11 -12 -46 -36c-17 -12 -35 -23 -54 -32c-36 -19 -97 -36 -153 -36c-87 0 -156 27 -209 81s-79 123 -79 208zM311 -66h48v-13c0 -35 -14 -76 -42 -121h-39c24 41 36 76 36 106c0 9 -1 18 -3 28z" />
    <glyph glyph-name="gcommaaccent" unicode="&#x123;" horiz-adv-x="571" 
d="M8 -171l24 35c37 -22 81 -33 130 -33c112 0 199 57 223 172l11 53l13 46h-2c-43 -68 -102 -102 -178 -102c-116 0 -189 76 -189 196c0 49 10 97 29 144s50 88 91 121c41 34 89 51 142 51c81 0 148 -29 165 -98h2c-1 8 0 16 1 24l12 62h42l-97 -502
c-14 -71 -45 -124 -93 -157c-48 -34 -104 -51 -167 -51c-58 0 -111 13 -159 39zM84 197c0 -97 55 -156 146 -156c147 0 214 168 214 296c0 89 -47 134 -140 134c-67 0 -120 -28 -160 -84s-60 -119 -60 -190zM360 566h-48v13c0 35 14 76 42 121h39c-24 -41 -36 -76 -36 -106
c0 -9 1 -18 3 -28z" />
    <glyph glyph-name="Hcircumflex" unicode="&#x124;" horiz-adv-x="743" 
d="M92 0h-43l137 700h43l-64 -329h444l64 329h43l-137 -700h-43l65 331h-444zM406 750h-52l102 111h52l58 -111h-46l-40 80h-2z" />
    <glyph glyph-name="hcircumflex" unicode="&#x125;" horiz-adv-x="585" 
d="M72 0h-42l136 700h42l-54 -283l-13 -46h2c17 33 46 65 88 95c43 31 91 46 146 46c92 0 139 -45 139 -126c0 -19 -3 -42 -8 -69l-61 -317h-42l58 302c6 31 9 57 9 76c0 61 -37 93 -96 93c-61 0 -116 -23 -166 -70c-49 -47 -80 -102 -93 -167zM144 750h-52l102 111h52
l58 -111h-46l-40 80h-2z" />
    <glyph glyph-name="Hbar" unicode="&#x126;" horiz-adv-x="757" 
d="M100 0h-43l100 511h-64l7 40h65l29 149h43l-29 -149h444l29 149h43l-29 -149h65l-7 -40h-66l-100 -511h-43l65 331h-444zM200 511l-27 -140h444l27 140h-444z" />
    <glyph glyph-name="hbar" unicode="&#x127;" horiz-adv-x="585" 
d="M72 0h-42l110 569h-80l8 40h80l18 91h42l-18 -91h134l-8 -40h-133l-29 -152l-13 -46h2c17 33 46 65 88 95c43 31 91 46 146 46c92 0 139 -45 139 -126c0 -19 -3 -42 -8 -69l-61 -317h-42l58 302c6 31 9 57 9 76c0 61 -37 93 -96 93c-61 0 -116 -23 -166 -70
c-49 -47 -80 -102 -93 -167z" />
    <glyph glyph-name="Itilde" unicode="&#x128;" horiz-adv-x="256" 
d="M119 753h-40c13 72 45 108 96 108c65 0 68 -74 111 -74c27 0 44 24 52 71h40c-15 -73 -44 -108 -97 -108c-64 0 -66 74 -111 74c-28 0 -46 -38 -51 -71zM92 0h-43l137 700h43z" />
    <glyph glyph-name="itilde" unicode="&#x129;" horiz-adv-x="216" 
d="M67 592h-40c13 72 45 108 96 108c65 0 68 -74 111 -74c27 0 44 24 52 71h40c-15 -73 -44 -108 -97 -108c-64 0 -66 74 -111 74c-28 0 -46 -38 -51 -71zM72 0h-42l97 500h42z" />
    <glyph glyph-name="Imacron" unicode="&#x12a;" horiz-adv-x="256" 
d="M92 0h-43l137 700h43zM344 786h-239l7 40h239z" />
    <glyph glyph-name="imacron" unicode="&#x12b;" horiz-adv-x="216" 
d="M72 0h-42l97 500h42zM292 625h-239l7 40h239z" />
    <glyph glyph-name="Ibreve" unicode="&#x12c;" horiz-adv-x="256" 
d="M219 747c-47 0 -86 28 -86 80c0 12 2 23 5 34h40c-3 -12 -5 -22 -5 -30c0 -31 17 -46 51 -46c37 0 68 23 76 76h40c-9 -80 -60 -114 -121 -114zM92 0h-43l137 700h43z" />
    <glyph glyph-name="ibreve" unicode="&#x12d;" horiz-adv-x="216" 
d="M167 586c-47 0 -86 28 -86 80c0 12 2 23 5 34h40c-3 -12 -5 -22 -5 -30c0 -31 17 -46 51 -46c37 0 68 23 76 76h40c-9 -80 -60 -114 -121 -114zM72 0h-42l97 500h42z" />
    <glyph glyph-name="Iogonek" unicode="&#x12e;" horiz-adv-x="258" 
d="M-57 -125c0 47 37 94 110 141l134 684h43l-137 -700c-70 -44 -105 -84 -105 -119c0 -24 24 -40 44 -43l14 -3l-16 -39c-5 0 -10 0 -30 7c-26 7 -57 28 -57 72z" />
    <glyph glyph-name="iogonek" unicode="&#x12f;" horiz-adv-x="216" 
d="M-78 -125c0 47 37 94 111 142l95 483h42l-98 -500c-70 -44 -105 -84 -105 -119c0 -24 24 -40 43 -43l15 -3l-16 -39c-5 0 -10 0 -30 7c-26 7 -57 28 -57 72zM198 627h-50l15 73h50z" />
    <glyph glyph-name="Idot" unicode="&#x130;" horiz-adv-x="256" 
d="M248 788h-46l14 73h46zM92 0h-43l137 700h43z" />
    <glyph glyph-name="dotlessi" unicode="&#x131;" horiz-adv-x="216" 
d="M72 0h-42l97 500h42z" />
    <glyph glyph-name="IJ" unicode="&#x132;" horiz-adv-x="556" 
d="M201 -5l8 41c102 0 165 61 189 182l94 482h43l-94 -482c-17 -91 -52 -152 -97 -183c-45 -29 -87 -40 -143 -40zM92 0h-43l137 700h43z" />
    <glyph glyph-name="ij" unicode="&#x133;" horiz-adv-x="432" 
d="M413 627h-50l14 73h50zM242 -21l101 521h42l-101 -520c-15 -77 -48 -132 -87 -155c-39 -24 -66 -30 -97 -30c-17 0 -28 1 -35 2l8 39c4 -1 11 -2 22 -2c24 0 47 5 78 24c31 17 57 61 69 121zM198 627h-50l15 73h50zM72 0h-42l98 500h42z" />
    <glyph glyph-name="Jcircumflex" unicode="&#x134;" horiz-adv-x="505" 
d="M7 139c0 13 2 30 6 52l4 22h43l-4 -22c-3 -17 -5 -32 -5 -45c0 -78 39 -117 116 -117c39 0 76 13 109 39c34 26 56 67 67 123l90 469h-166l8 40h209l-100 -515c-13 -69 -40 -119 -81 -150s-86 -47 -136 -47c-92 0 -160 48 -160 151zM332 750h-52l102 111h52l58 -111h-46
l-40 80h-2z" />
    <glyph glyph-name="jcircumflex" unicode="&#x135;" horiz-adv-x="217" 
d="M107 589h-52l102 111h52l58 -111h-46l-40 80h-2zM26 -21l102 521h42l-101 -520c-15 -77 -48 -132 -87 -155c-39 -24 -66 -30 -97 -30l-35 2l8 39c5 -1 13 -2 22 -2c24 0 47 5 78 24c29 17 56 61 68 121z" />
    <glyph glyph-name="Kcommaaccent" unicode="&#x136;" horiz-adv-x="567" 
d="M92 0h-43l137 700h43l-61 -312h126l265 312h52l-281 -331v-2l158 -367h-47l-148 348h-133zM210 -66h48v-13c0 -35 -14 -76 -42 -121h-39c24 41 36 76 36 106c0 9 -1 18 -3 28z" />
    <glyph glyph-name="kcommaaccent" unicode="&#x137;" horiz-adv-x="470" 
d="M72 0h-42l137 700h42l-78 -397h85l202 197h57l-222 -216v-2l142 -282h-48l-131 264h-92zM162 -66h48v-13c0 -35 -14 -76 -42 -121h-39c24 41 36 76 36 106c0 9 -1 18 -3 28z" />
    <glyph glyph-name="kgreenlandic" unicode="&#x138;" horiz-adv-x="471" 
d="M72 0h-42l97 500h42l-41 -213h86l214 213h59l-237 -232v-2l135 -266h-49l-123 250h-92z" />
    <glyph glyph-name="Lacute" unicode="&#x139;" horiz-adv-x="498" 
d="M425 0h-376l137 700h43l-129 -660h334zM244 750h-48l89 111h60z" />
    <glyph glyph-name="lacute" unicode="&#x13a;" horiz-adv-x="233" 
d="M47 77c0 9 1 18 3 29l116 594h42l-114 -587c-2 -11 -3 -21 -3 -29c0 -46 27 -48 49 -48c5 0 9 0 13 1l-9 -39c-4 -1 -10 -2 -17 -2c-29 -2 -77 11 -80 81zM219 750h-48l89 111h60z" />
    <glyph glyph-name="Lcommaaccent" unicode="&#x13b;" horiz-adv-x="498" 
d="M425 0h-376l137 700h43l-129 -660h334zM212 -66h48v-13c0 -35 -14 -76 -42 -121h-39c24 41 36 76 36 106c0 9 -1 18 -3 28z" />
    <glyph glyph-name="lcommaaccent" unicode="&#x13c;" horiz-adv-x="233" 
d="M47 77c0 9 1 18 3 29l116 594h42l-114 -587c-2 -11 -3 -21 -3 -29c0 -46 27 -48 49 -48c5 0 9 0 13 1l-9 -39c-4 -1 -10 -2 -17 -2c-29 -2 -77 11 -80 81zM49 -66h48v-13c0 -35 -14 -76 -42 -121h-39c24 41 36 76 36 106c0 9 -1 18 -3 28z" />
    <glyph glyph-name="Lcaron" unicode="&#x13d;" horiz-adv-x="498" 
d="M425 0h-376l137 700h43l-129 -660h334zM329 700h48v-13c0 -35 -14 -76 -42 -121h-39c24 41 36 76 36 106c0 9 -1 18 -3 28z" />
    <glyph glyph-name="lcaron" unicode="&#x13e;" horiz-adv-x="233" 
d="M47 77c0 9 1 18 3 29l116 594h42l-114 -587c-2 -11 -3 -21 -3 -29c0 -46 27 -48 49 -48c5 0 9 0 13 1l-9 -39c-4 -1 -10 -2 -17 -2c-29 -2 -77 11 -80 81zM274 700h48v-13c0 -35 -14 -76 -42 -121h-39c24 41 36 76 36 106c0 9 -1 18 -3 28z" />
    <glyph glyph-name="Ldot" unicode="&#x13f;" horiz-adv-x="498" 
d="M425 0h-376l137 700h43l-129 -660h334zM325 333h-61l12 63h61z" />
    <glyph glyph-name="ldot" unicode="&#x140;" horiz-adv-x="235" 
d="M47 77c0 9 1 18 3 29l116 594h42l-114 -587c-2 -11 -3 -21 -3 -29c0 -46 27 -48 49 -48c5 0 9 0 13 1l-9 -39c-4 -1 -10 -2 -17 -2c-29 -2 -77 11 -80 81zM263 333h-61l12 63h61z" />
    <glyph glyph-name="Lslash" unicode="&#x141;" horiz-adv-x="505" 
d="M434 0h-377l72 370l-72 -37l9 47l73 38l55 282h43l-51 -257l128 66l-9 -48l-128 -66l-69 -355h334z" />
    <glyph glyph-name="lslash" unicode="&#x142;" horiz-adv-x="246" 
d="M59 77c0 9 1 18 3 29l54 277l-97 -50l8 47l98 51l53 269h42l-48 -245l103 54l-10 -48l-102 -53l-57 -295c-2 -11 -3 -21 -3 -29c0 -46 27 -48 49 -48c5 0 9 0 13 1l-9 -39c-4 -1 -10 -2 -17 -2c-29 -2 -77 11 -80 81z" />
    <glyph glyph-name="Nacute" unicode="&#x143;" horiz-adv-x="743" 
d="M92 0h-43l137 700h35l292 -549l40 -88h2c3 35 6 65 11 88l107 549h43l-137 -700h-35l-292 549l-40 88h-2c-3 -35 -6 -65 -11 -88zM487 750h-48l89 111h60z" />
    <glyph glyph-name="nacute" unicode="&#x144;" horiz-adv-x="585" 
d="M72 0h-42l97 500h42l-15 -83l-14 -46h2c17 33 46 64 89 95s91 46 146 46c92 0 139 -45 139 -126c0 -19 -3 -42 -8 -69l-61 -317h-42l58 302c6 31 9 57 9 76c0 61 -37 93 -96 93c-61 0 -117 -23 -166 -70s-80 -102 -93 -167zM390 589h-48l89 111h60z" />
    <glyph glyph-name="Ncommaaccent" unicode="&#x145;" horiz-adv-x="743" 
d="M92 0h-43l137 700h35l292 -549l40 -88h2c3 35 6 65 11 88l107 549h43l-137 -700h-35l-292 549l-40 88h-2c-3 -35 -6 -65 -11 -88zM281 -66h48v-13c0 -35 -14 -76 -42 -121h-39c24 41 36 76 36 106c0 9 -1 18 -3 28z" />
    <glyph glyph-name="ncommaaccent" unicode="&#x146;" horiz-adv-x="585" 
d="M72 0h-42l97 500h42l-15 -83l-14 -46h2c17 33 46 64 89 95s91 46 146 46c92 0 139 -45 139 -126c0 -19 -3 -42 -8 -69l-61 -317h-42l58 302c6 31 9 57 9 76c0 61 -37 93 -96 93c-61 0 -117 -23 -166 -70s-80 -102 -93 -167zM212 -66h48v-13c0 -35 -14 -76 -42 -121h-39
c24 41 36 76 36 106c0 9 -1 18 -3 28z" />
    <glyph glyph-name="Ncaron" unicode="&#x147;" horiz-adv-x="743" 
d="M92 0h-43l137 700h35l292 -549l40 -88h2c3 35 6 65 11 88l107 549h43l-137 -700h-35l-292 549l-40 88h-2c-3 -35 -6 -65 -11 -88zM493 750h-52l-58 111h46l40 -80h2l72 80h52z" />
    <glyph glyph-name="ncaron" unicode="&#x148;" horiz-adv-x="585" 
d="M72 0h-42l97 500h42l-15 -83l-14 -46h2c17 33 46 64 89 95s91 46 146 46c92 0 139 -45 139 -126c0 -19 -3 -42 -8 -69l-61 -317h-42l58 302c6 31 9 57 9 76c0 61 -37 93 -96 93c-61 0 -117 -23 -166 -70s-80 -102 -93 -167zM396 589h-52l-58 111h46l40 -80h2l72 80h52z
" />
    <glyph glyph-name="napostrophe" unicode="&#x149;" horiz-adv-x="585" 
d="M72 0h-42l97 500h42l-15 -83l-14 -46h2c17 33 46 64 89 95s91 46 146 46c92 0 139 -45 139 -126c0 -19 -3 -42 -8 -69l-61 -317h-42l58 302c6 31 9 57 9 76c0 61 -37 93 -96 93c-61 0 -117 -23 -166 -70s-80 -102 -93 -167zM113 700h48v-13c0 -35 -14 -76 -42 -121h-39
c24 41 36 76 36 106c0 9 -1 18 -3 28z" />
    <glyph glyph-name="Eng" unicode="&#x14a;" horiz-adv-x="743" 
d="M92 0h-43l137 700h35l292 -549l40 -88h2c3 35 6 65 11 88l107 549h43l-134 -682c-17 -91 -52 -152 -97 -183c-44 -31 -86 -40 -142 -40l8 41c100 0 162 58 187 174l-286 539l-40 88h-2c-3 -35 -6 -65 -11 -88z" />
    <glyph glyph-name="eng" unicode="&#x14b;" horiz-adv-x="585" 
d="M72 0h-42l97 500h42l-15 -83l-14 -46h2c17 33 46 64 89 95s91 46 146 46c92 0 139 -45 139 -126c0 -19 -3 -42 -8 -69l-66 -342c-15 -77 -48 -132 -87 -155c-39 -24 -66 -30 -97 -30l-35 2l8 39c5 -1 13 -2 22 -2c24 0 47 5 78 24c31 17 57 61 69 121l63 328
c6 31 9 57 9 76c0 61 -37 93 -96 93c-61 0 -117 -23 -166 -70s-80 -102 -93 -167z" />
    <glyph glyph-name="Omacron" unicode="&#x14c;" horiz-adv-x="826" 
d="M64 288c0 75 20 145 61 210c41 66 94 118 159 156c65 39 133 58 203 58c88 0 160 -27 215 -82s83 -125 83 -210c0 -76 -21 -148 -62 -215s-94 -120 -159 -159s-132 -58 -202 -58c-88 0 -160 28 -215 84s-83 128 -83 216zM109 288c0 -76 23 -138 70 -187
c47 -48 108 -72 183 -72c62 0 122 17 180 52c59 35 106 83 143 144s55 125 55 194c0 74 -24 134 -71 181s-107 71 -182 71c-63 0 -124 -17 -182 -51s-105 -81 -142 -141c-36 -59 -54 -123 -54 -191zM628 786h-239l7 40h239z" />
    <glyph glyph-name="omacron" unicode="&#x14d;" horiz-adv-x="620" 
d="M38 205c0 83 31 155 93 216c63 61 134 91 213 91c65 0 118 -20 159 -60s62 -91 62 -154c0 -84 -31 -157 -94 -218s-133 -92 -212 -92c-65 0 -119 20 -160 61s-61 93 -61 156zM82 206c0 -52 16 -95 49 -128s76 -49 128 -49c67 0 127 26 181 79s81 116 81 189
c0 51 -17 92 -50 125s-75 49 -127 49c-68 0 -129 -26 -182 -79c-53 -52 -80 -114 -80 -186zM494 625h-239l7 40h239z" />
    <glyph glyph-name="Obreve" unicode="&#x14e;" horiz-adv-x="826" 
d="M64 288c0 75 20 145 61 210c41 66 94 118 159 156c65 39 133 58 203 58c88 0 160 -27 215 -82s83 -125 83 -210c0 -76 -21 -148 -62 -215s-94 -120 -159 -159s-132 -58 -202 -58c-88 0 -160 28 -215 84s-83 128 -83 216zM109 288c0 -76 23 -138 70 -187
c47 -48 108 -72 183 -72c62 0 122 17 180 52c59 35 106 83 143 144s55 125 55 194c0 74 -24 134 -71 181s-107 71 -182 71c-63 0 -124 -17 -182 -51s-105 -81 -142 -141c-36 -59 -54 -123 -54 -191zM503 747c-47 0 -86 28 -86 80c0 12 2 23 5 34h40c-3 -12 -5 -22 -5 -30
c0 -31 17 -46 51 -46c37 0 68 23 76 76h40c-9 -80 -60 -114 -121 -114z" />
    <glyph glyph-name="obreve" unicode="&#x14f;" horiz-adv-x="620" 
d="M38 205c0 83 31 155 93 216c63 61 134 91 213 91c65 0 118 -20 159 -60s62 -91 62 -154c0 -84 -31 -157 -94 -218s-133 -92 -212 -92c-65 0 -119 20 -160 61s-61 93 -61 156zM82 206c0 -52 16 -95 49 -128s76 -49 128 -49c67 0 127 26 181 79s81 116 81 189
c0 51 -17 92 -50 125s-75 49 -127 49c-68 0 -129 -26 -182 -79c-53 -52 -80 -114 -80 -186zM369 586c-47 0 -86 28 -86 80c0 12 2 23 5 34h40c-3 -12 -5 -22 -5 -30c0 -31 17 -46 51 -46c37 0 68 23 76 76h40c-9 -80 -60 -114 -121 -114z" />
    <glyph glyph-name="Ohungarumlaut" unicode="&#x150;" horiz-adv-x="826" 
d="M64 288c0 75 20 145 61 210c41 66 94 118 159 156c65 39 133 58 203 58c88 0 160 -27 215 -82s83 -125 83 -210c0 -76 -21 -148 -62 -215s-94 -120 -159 -159s-132 -58 -202 -58c-88 0 -160 28 -215 84s-83 128 -83 216zM109 288c0 -76 23 -138 70 -187
c47 -48 108 -72 183 -72c62 0 122 17 180 52c59 35 106 83 143 144s55 125 55 194c0 74 -24 134 -71 181s-107 71 -182 71c-63 0 -124 -17 -182 -51s-105 -81 -142 -141c-36 -59 -54 -123 -54 -191zM567 750h-48l89 111h60zM455 750h-51l84 111h54z" />
    <glyph glyph-name="ohungarumlaut" unicode="&#x151;" horiz-adv-x="620" 
d="M38 205c0 83 31 155 93 216c63 61 134 91 213 91c65 0 118 -20 159 -60s62 -91 62 -154c0 -84 -31 -157 -94 -218s-133 -92 -212 -92c-65 0 -119 20 -160 61s-61 93 -61 156zM82 206c0 -52 16 -95 49 -128s76 -49 128 -49c67 0 127 26 181 79s81 116 81 189
c0 51 -17 92 -50 125s-75 49 -127 49c-68 0 -129 -26 -182 -79c-53 -52 -80 -114 -80 -186zM433 589h-48l89 111h60zM321 589h-51l84 111h54z" />
    <glyph glyph-name="OE" unicode="&#x152;" horiz-adv-x="929" 
d="M64 282c0 115 42 215 125 300s181 128 294 128c13 0 34 -2 64 -5c31 -3 51 -5 61 -5h337l-8 -40h-340l-56 -287h279l-8 -40h-279l-57 -293h359l-8 -40h-345c-9 0 -28 -2 -57 -5s-49 -5 -61 -5c-92 0 -165 27 -219 81s-81 124 -81 211zM109 277c0 -73 23 -133 68 -178
s107 -68 185 -68c21 0 49 3 62 6l9 2l121 622c-21 5 -44 8 -69 8c-103 0 -192 -39 -266 -116c-73 -77 -110 -169 -110 -276z" />
    <glyph glyph-name="oe" unicode="&#x153;" horiz-adv-x="1021" 
d="M38 205c0 83 31 155 93 216c63 61 134 91 213 91c105 0 184 -59 211 -150h2c52 91 142 150 246 150c116 0 174 -70 174 -177c0 -29 -4 -55 -13 -78h-401c-4 -16 -6 -34 -6 -55c0 -108 72 -173 176 -173c57 0 112 21 167 63l16 -38c-22 -19 -50 -34 -85 -47
c-34 -13 -67 -19 -98 -19c-108 0 -190 56 -214 151h-2c-56 -92 -157 -151 -258 -151c-65 0 -119 20 -160 61s-61 93 -61 156zM573 296h355c3 7 4 21 4 42c0 89 -52 135 -129 135c-97 0 -190 -65 -230 -177zM82 206c0 -52 16 -95 49 -128s76 -49 128 -49c67 0 127 26 181 79
s81 116 81 189c0 51 -17 92 -50 125s-75 49 -127 49c-68 0 -129 -26 -182 -79c-53 -52 -80 -114 -80 -186z" />
    <glyph glyph-name="Racute" unicode="&#x154;" horiz-adv-x="604" 
d="M93 0h-43l136 700h222c40 0 72 -6 97 -19c51 -27 77 -72 77 -137c0 -57 -18 -107 -53 -149c-35 -41 -79 -67 -132 -77v-2c3 -5 6 -14 10 -25l102 -291h-46l-108 310h-202zM221 660l-60 -310h185c53 0 98 18 135 54c37 37 56 83 56 140c0 72 -48 116 -129 116h-187z
M412 750h-48l89 111h60z" />
    <glyph glyph-name="racute" unicode="&#x155;" horiz-adv-x="340" 
d="M72 0h-42l97 500h42l-18 -90l-13 -46h2c39 80 106 140 186 140c9 0 19 -1 30 -3l-9 -42c-11 1 -18 2 -22 2c-57 0 -112 -41 -147 -98c-35 -56 -58 -116 -69 -172zM287 589h-48l89 111h60z" />
    <glyph glyph-name="Rcommaaccent" unicode="&#x156;" horiz-adv-x="604" 
d="M93 0h-43l136 700h222c40 0 72 -6 97 -19c51 -27 77 -72 77 -137c0 -57 -18 -107 -53 -149c-35 -41 -79 -67 -132 -77v-2c3 -5 6 -14 10 -25l102 -291h-46l-108 310h-202zM221 660l-60 -310h185c53 0 98 18 135 54c37 37 56 83 56 140c0 72 -48 116 -129 116h-187z
M233 -66h48v-13c0 -35 -14 -76 -42 -121h-39c24 41 36 76 36 106c0 9 -1 18 -3 28z" />
    <glyph glyph-name="rcommaaccent" unicode="&#x157;" horiz-adv-x="340" 
d="M72 0h-42l97 500h42l-18 -90l-13 -46h2c39 80 106 140 186 140c9 0 19 -1 30 -3l-9 -42c-11 1 -18 2 -22 2c-57 0 -112 -41 -147 -98c-35 -56 -58 -116 -69 -172zM21 -66h48v-13c0 -35 -14 -76 -42 -121h-39c24 41 36 76 36 106c0 9 -1 18 -3 28z" />
    <glyph glyph-name="Rcaron" unicode="&#x158;" horiz-adv-x="604" 
d="M93 0h-43l136 700h222c40 0 72 -6 97 -19c51 -27 77 -72 77 -137c0 -57 -18 -107 -53 -149c-35 -41 -79 -67 -132 -77v-2c3 -5 6 -14 10 -25l102 -291h-46l-108 310h-202zM221 660l-60 -310h185c53 0 98 18 135 54c37 37 56 83 56 140c0 72 -48 116 -129 116h-187z
M418 750h-52l-58 111h46l40 -80h2l72 80h52z" />
    <glyph glyph-name="rcaron" unicode="&#x159;" horiz-adv-x="340" 
d="M72 0h-42l97 500h42l-18 -90l-13 -46h2c39 80 106 140 186 140c9 0 19 -1 30 -3l-9 -42c-11 1 -18 2 -22 2c-57 0 -112 -41 -147 -98c-35 -56 -58 -116 -69 -172zM293 589h-52l-58 111h46l40 -80h2l72 80h52z" />
    <glyph glyph-name="Sacute" unicode="&#x15a;" horiz-adv-x="527" 
d="M20 66l-8 9l31 31c3 -4 6 -8 27 -27c28 -22 74 -49 144 -49c53 0 98 14 135 42c37 29 56 67 56 114c-1 90 -73 122 -148 159l-71 39c-43 25 -76 74 -76 135c0 59 23 105 70 140s103 53 167 53c71 0 134 -29 157 -50l17 -17l-28 -33l-17 16c-7 7 -23 15 -48 26
s-51 16 -80 16c-50 0 -95 -14 -134 -41s-59 -63 -59 -108c0 -60 47 -102 104 -130c84 -39 191 -81 191 -201c0 -59 -22 -108 -67 -146c-44 -37 -100 -56 -168 -56c-106 0 -177 55 -195 78zM374 750h-48l89 111h60z" />
    <glyph glyph-name="sacute" unicode="&#x15b;" horiz-adv-x="430" 
d="M-1 61l27 30c32 -37 87 -62 143 -62c37 0 70 9 97 26c27 18 41 43 41 74c0 121 -231 89 -231 243c0 44 18 78 54 103s79 37 128 37c64 0 112 -19 143 -56l-28 -30c-28 30 -67 45 -116 45c-36 0 -68 -8 -96 -25c-27 -17 -41 -41 -41 -73c0 -122 231 -90 231 -240
c0 -43 -18 -78 -53 -105s-78 -40 -130 -40c-73 0 -130 24 -169 73zM297 589h-48l89 111h60z" />
    <glyph glyph-name="Scircumflex" unicode="&#x15c;" horiz-adv-x="527" 
d="M20 66l-8 9l31 31c3 -4 6 -8 27 -27c28 -22 74 -49 144 -49c53 0 98 14 135 42c37 29 56 67 56 114c-1 90 -73 122 -148 159l-71 39c-43 25 -76 74 -76 135c0 59 23 105 70 140s103 53 167 53c71 0 134 -29 157 -50l17 -17l-28 -33l-17 16c-7 7 -23 15 -48 26
s-51 16 -80 16c-50 0 -95 -14 -134 -41s-59 -63 -59 -108c0 -60 47 -102 104 -130c84 -39 191 -81 191 -201c0 -59 -22 -108 -67 -146c-44 -37 -100 -56 -168 -56c-106 0 -177 55 -195 78zM294 750h-52l102 111h52l58 -111h-46l-40 80h-2z" />
    <glyph glyph-name="scircumflex" unicode="&#x15d;" horiz-adv-x="430" 
d="M-1 61l27 30c32 -37 87 -62 143 -62c37 0 70 9 97 26c27 18 41 43 41 74c0 121 -231 89 -231 243c0 44 18 78 54 103s79 37 128 37c64 0 112 -19 143 -56l-28 -30c-28 30 -67 45 -116 45c-36 0 -68 -8 -96 -25c-27 -17 -41 -41 -41 -73c0 -122 231 -90 231 -240
c0 -43 -18 -78 -53 -105s-78 -40 -130 -40c-73 0 -130 24 -169 73zM217 589h-52l102 111h52l58 -111h-46l-40 80h-2z" />
    <glyph glyph-name="Scedilla" unicode="&#x15e;" horiz-adv-x="527" 
d="M156 -93l33 82c-95 9 -151 58 -169 78l-7 8l31 31c3 -4 6 -8 27 -27c28 -22 74 -49 144 -49c53 0 98 14 135 42c37 29 56 67 56 114c-1 90 -73 122 -148 159l-71 39c-43 25 -76 74 -76 135c0 59 23 105 70 140s103 53 167 53c71 0 134 -29 157 -50l17 -17l-28 -33l-17 16
c-7 7 -23 15 -48 26s-51 16 -80 16c-50 0 -95 -14 -134 -41s-59 -63 -59 -108c0 -60 47 -102 104 -130c84 -39 191 -81 191 -201c0 -59 -21 -107 -64 -144s-97 -56 -163 -58l-18 -48c32 -5 57 -28 57 -64c0 -52 -50 -80 -102 -80c-19 0 -35 2 -48 5l8 37c9 -3 22 -5 39 -5
c32 0 62 12 62 43c0 21 -18 32 -54 32c-5 0 -9 0 -12 -1z" />
    <glyph glyph-name="scedilla" unicode="&#x15f;" horiz-adv-x="431" 
d="M110 -93l33 82c-63 6 -111 30 -144 72l27 30c32 -37 87 -62 143 -62c37 0 70 9 97 26c27 18 41 43 41 74c0 121 -231 89 -231 243c0 44 18 78 54 103s79 37 128 37c64 0 112 -19 143 -56l-28 -30c-28 30 -67 45 -116 45c-36 0 -68 -8 -96 -25c-27 -17 -41 -41 -41 -73
c0 -122 231 -90 231 -240c0 -41 -16 -75 -49 -102s-74 -41 -124 -43l-18 -48c32 -5 57 -28 57 -64c0 -52 -50 -80 -102 -80c-19 0 -35 2 -48 5l8 37c9 -3 22 -5 39 -5c32 0 62 12 62 43c0 21 -18 32 -54 32c-5 0 -9 0 -12 -1z" />
    <glyph glyph-name="Scaron" unicode="&#x160;" horiz-adv-x="527" 
d="M20 66l-8 9l31 31c3 -4 6 -8 27 -27c28 -22 74 -49 144 -49c53 0 98 14 135 42c37 29 56 67 56 114c-1 90 -73 122 -148 159l-71 39c-43 25 -76 74 -76 135c0 59 23 105 70 140s103 53 167 53c71 0 134 -29 157 -50l17 -17l-28 -33l-17 16c-7 7 -23 15 -48 26
s-51 16 -80 16c-50 0 -95 -14 -134 -41s-59 -63 -59 -108c0 -60 47 -102 104 -130c84 -39 191 -81 191 -201c0 -59 -22 -108 -67 -146c-44 -37 -100 -56 -168 -56c-106 0 -177 55 -195 78zM380 750h-52l-58 111h46l40 -80h2l72 80h52z" />
    <glyph glyph-name="scaron" unicode="&#x161;" horiz-adv-x="430" 
d="M-1 61l27 30c32 -37 87 -62 143 -62c37 0 70 9 97 26c27 18 41 43 41 74c0 121 -231 89 -231 243c0 44 18 78 54 103s79 37 128 37c64 0 112 -19 143 -56l-28 -30c-28 30 -67 45 -116 45c-36 0 -68 -8 -96 -25c-27 -17 -41 -41 -41 -73c0 -122 231 -90 231 -240
c0 -43 -18 -78 -53 -105s-78 -40 -130 -40c-73 0 -130 24 -169 73zM303 589h-52l-58 111h46l40 -80h2l72 80h52z" />
    <glyph glyph-name="Tcommaaccent" unicode="&#x162;" horiz-adv-x="597" 
d="M221 0h-2l128 660h-260l7 40h565l-7 -40h-262l-128 -660h-5l-23 -60c32 -5 57 -28 57 -64c0 -52 -50 -80 -102 -80c-19 0 -35 2 -48 5l8 37c9 -3 22 -5 39 -5c32 0 62 12 62 43c0 21 -18 32 -54 32c-5 0 -9 0 -12 -1z" />
    <glyph glyph-name="tcommaaccent" unicode="&#x163;" horiz-adv-x="297" 
d="M88 -93l42 104c-39 21 -58 61 -58 122c0 17 2 36 6 58l52 268h-66l7 38h66l28 142h42l-28 -142h131l-7 -38h-131l-53 -275c-3 -16 -5 -32 -5 -49c0 -67 30 -100 89 -100c9 0 18 1 29 2l-8 -39c-4 -1 -11 -2 -21 -2c-15 0 -29 1 -42 4l-23 -60c32 -5 57 -28 57 -64
c0 -52 -50 -80 -102 -80c-19 0 -35 2 -48 5l8 37c9 -3 22 -5 39 -5c32 0 62 12 62 43c0 21 -18 32 -54 32c-5 0 -9 0 -12 -1z" />
    <glyph glyph-name="Tcaron" unicode="&#x164;" horiz-adv-x="596" 
d="M413 750h-52l-58 111h46l40 -80h2l72 80h52zM261 0h-43l128 660h-260l7 40h565l-7 -40h-262z" />
    <glyph glyph-name="tcaron" unicode="&#x165;" horiz-adv-x="297" 
d="M72 133c0 17 2 36 6 58l52 268h-66l7 38h66l28 142h42l-28 -142h131l-7 -38h-131l-53 -275c-3 -16 -5 -32 -5 -49c0 -67 30 -100 89 -100c9 0 18 1 29 2l-8 -39c-4 -1 -11 -2 -21 -2c-87 0 -131 46 -131 137zM304 700h48v-13c0 -35 -14 -76 -42 -121h-39
c24 41 36 76 36 106c0 9 -1 18 -3 28z" />
    <glyph glyph-name="Tbar" unicode="&#x166;" horiz-adv-x="607" 
d="M267 0h-43l65 337h-166l8 40h166l55 283h-260l7 40h565l-7 -40h-262l-55 -283h170l-8 -40h-170z" />
    <glyph glyph-name="tbar" unicode="&#x167;" horiz-adv-x="302" 
d="M74 133c0 17 2 36 6 58l20 104h-65l7 40h66l24 124h-66l7 38h66l28 142h42l-28 -142h131l-7 -38h-131l-24 -124h131l-7 -40h-132c-17 -87 -26 -140 -26 -160c0 -67 30 -100 89 -100l29 2l-8 -39c-5 -1 -12 -2 -21 -2c-87 0 -131 46 -131 137z" />
    <glyph glyph-name="Utilde" unicode="&#x168;" horiz-adv-x="721" 
d="M84 187c0 18 2 37 6 57l89 456h43l-89 -457c-3 -15 -5 -33 -5 -52c0 -103 67 -162 182 -162c66 0 122 19 169 58s78 91 91 158l89 455h43l-92 -465c-15 -77 -49 -137 -104 -181c-54 -44 -119 -66 -196 -66c-140 0 -226 75 -226 199zM351 753h-40c13 72 45 108 96 108
c65 0 68 -74 111 -74c27 0 44 24 52 71h40c-15 -73 -44 -108 -97 -108c-64 0 -66 74 -111 74c-28 0 -46 -38 -51 -71z" />
    <glyph glyph-name="utilde" unicode="&#x169;" horiz-adv-x="580" 
d="M52 114c0 19 3 42 8 69l61 317h42l-58 -300c-6 -29 -9 -55 -9 -78c0 -59 26 -93 99 -93c60 0 114 24 162 73s78 104 89 166l45 232h42l-97 -500h-42l16 83l13 46h-2c-18 -34 -48 -66 -89 -96s-89 -45 -144 -45c-80 0 -136 39 -136 126zM246 592h-40c13 72 45 108 96 108
c65 0 68 -74 111 -74c27 0 44 24 52 71h40c-15 -73 -44 -108 -97 -108c-64 0 -66 74 -111 74c-28 0 -46 -38 -51 -71z" />
    <glyph glyph-name="Umacron" unicode="&#x16a;" horiz-adv-x="721" 
d="M84 187c0 18 2 37 6 57l89 456h43l-89 -457c-3 -15 -5 -33 -5 -52c0 -103 67 -162 182 -162c66 0 122 19 169 58s78 91 91 158l89 455h43l-92 -465c-15 -77 -49 -137 -104 -181c-54 -44 -119 -66 -196 -66c-140 0 -226 75 -226 199zM576 786h-239l7 40h239z" />
    <glyph glyph-name="umacron" unicode="&#x16b;" horiz-adv-x="580" 
d="M52 114c0 19 3 42 8 69l61 317h42l-58 -300c-6 -29 -9 -55 -9 -78c0 -59 26 -93 99 -93c60 0 114 24 162 73s78 104 89 166l45 232h42l-97 -500h-42l16 83l13 46h-2c-18 -34 -48 -66 -89 -96s-89 -45 -144 -45c-80 0 -136 39 -136 126zM471 625h-239l7 40h239z" />
    <glyph glyph-name="Ubreve" unicode="&#x16c;" horiz-adv-x="721" 
d="M84 187c0 18 2 37 6 57l89 456h43l-89 -457c-3 -15 -5 -33 -5 -52c0 -103 67 -162 182 -162c66 0 122 19 169 58s78 91 91 158l89 455h43l-92 -465c-15 -77 -49 -137 -104 -181c-54 -44 -119 -66 -196 -66c-140 0 -226 75 -226 199zM451 747c-47 0 -86 28 -86 80
c0 12 2 23 5 34h40c-3 -12 -5 -22 -5 -30c0 -31 17 -46 51 -46c37 0 68 23 76 76h40c-9 -80 -60 -114 -121 -114z" />
    <glyph glyph-name="ubreve" unicode="&#x16d;" horiz-adv-x="580" 
d="M52 114c0 19 3 42 8 69l61 317h42l-58 -300c-6 -29 -9 -55 -9 -78c0 -59 26 -93 99 -93c60 0 114 24 162 73s78 104 89 166l45 232h42l-97 -500h-42l16 83l13 46h-2c-18 -34 -48 -66 -89 -96s-89 -45 -144 -45c-80 0 -136 39 -136 126zM346 586c-47 0 -86 28 -86 80
c0 12 2 23 5 34h40c-3 -12 -5 -22 -5 -30c0 -31 17 -46 51 -46c37 0 68 23 76 76h40c-9 -80 -60 -114 -121 -114z" />
    <glyph glyph-name="Uring" unicode="&#x16e;" horiz-adv-x="721" 
d="M84 187c0 18 2 37 6 57l89 456h43l-89 -457c-3 -15 -5 -33 -5 -52c0 -103 67 -162 182 -162c66 0 122 19 169 58s78 91 91 158l89 455h43l-92 -465c-15 -77 -49 -137 -104 -181c-54 -44 -119 -66 -196 -66c-140 0 -226 75 -226 199zM454 740c-40 0 -62 22 -62 59
c0 39 35 75 74 75c40 0 62 -23 62 -59c0 -39 -35 -75 -74 -75zM454 775c21 0 39 17 39 40c0 15 -11 25 -27 25c-21 0 -39 -17 -39 -41c0 -16 9 -24 27 -24z" />
    <glyph glyph-name="uring" unicode="&#x16f;" horiz-adv-x="580" 
d="M52 114c0 19 3 42 8 69l61 317h42l-58 -300c-6 -29 -9 -55 -9 -78c0 -59 26 -93 99 -93c60 0 114 24 162 73s78 104 89 166l45 232h42l-97 -500h-42l16 83l13 46h-2c-18 -34 -48 -66 -89 -96s-89 -45 -144 -45c-80 0 -136 39 -136 126zM349 579c-40 0 -62 22 -62 59
c0 39 35 75 74 75c40 0 62 -23 62 -59c0 -39 -35 -75 -74 -75zM349 614c21 0 39 17 39 40c0 15 -11 25 -27 25c-21 0 -39 -17 -39 -41c0 -16 9 -24 27 -24z" />
    <glyph glyph-name="Uhungarumlaut" unicode="&#x170;" horiz-adv-x="721" 
d="M84 187c0 18 2 37 6 57l89 456h43l-89 -457c-3 -15 -5 -33 -5 -52c0 -103 67 -162 182 -162c66 0 122 19 169 58s78 91 91 158l89 455h43l-92 -465c-15 -77 -49 -137 -104 -181c-54 -44 -119 -66 -196 -66c-140 0 -226 75 -226 199zM515 750h-48l89 111h60zM403 750h-51
l84 111h54z" />
    <glyph glyph-name="uhungarumlaut" unicode="&#x171;" horiz-adv-x="580" 
d="M52 114c0 19 3 42 8 69l61 317h42l-58 -300c-6 -29 -9 -55 -9 -78c0 -59 26 -93 99 -93c60 0 114 24 162 73s78 104 89 166l45 232h42l-97 -500h-42l16 83l13 46h-2c-18 -34 -48 -66 -89 -96s-89 -45 -144 -45c-80 0 -136 39 -136 126zM410 589h-48l89 111h60zM298 589
h-51l84 111h54z" />
    <glyph glyph-name="Uogonek" unicode="&#x172;" horiz-adv-x="721" 
d="M84 187c0 18 2 37 6 57l89 456h43l-89 -457c-3 -15 -5 -33 -5 -52c0 -103 67 -162 182 -162c66 0 122 19 169 58s78 91 91 158l89 455h43l-92 -465c-19 -99 -74 -172 -165 -219c-89 -46 -133 -91 -133 -135c0 -24 24 -40 44 -43l14 -3l-16 -39c-5 0 -10 0 -30 7
c-26 7 -57 28 -57 72c0 37 23 75 69 112v2c-122 -15 -251 49 -252 198z" />
    <glyph glyph-name="uogonek" unicode="&#x173;" horiz-adv-x="580" 
d="M52 114c0 19 3 42 8 69l61 317h42l-58 -300c-6 -29 -9 -55 -9 -78c0 -59 26 -93 99 -93c60 0 114 24 162 73s78 104 89 166l45 232h42l-97 -500c-70 -44 -105 -84 -105 -119c0 -24 24 -40 43 -43l15 -3l-16 -39c-5 0 -10 0 -30 7c-26 7 -57 28 -57 72c0 48 37 95 111 142
l13 66l13 46h-2c-18 -34 -48 -66 -89 -96s-89 -45 -144 -45c-80 0 -136 39 -136 126z" />
    <glyph glyph-name="Wcircumflex" unicode="&#x174;" horiz-adv-x="907" 
d="M216 0h-52l-48 700h43l36 -570l2 -75h2l35 75l278 570h50l39 -570l2 -75h2l32 75l259 570h48l-321 -700h-54l-38 528l-3 111h-2c-19 -43 -35 -80 -50 -110zM490 750h-52l102 111h52l58 -111h-46l-40 80h-2z" />
    <glyph glyph-name="wcircumflex" unicode="&#x175;" horiz-adv-x="823" 
d="M197 0h-47l-79 500h43l60 -395l6 -54h2l28 54l212 393h49l60 -393l7 -54h2l27 54l214 395h46l-273 -500h-45l-64 391l-6 54h-2l-28 -54zM407 589h-52l102 111h52l58 -111h-46l-40 80h-2z" />
    <glyph glyph-name="Ycircumflex" unicode="&#x176;" horiz-adv-x="567" 
d="M242 0h-43l60 304l-160 396h46l111 -276l29 -79h2l58 78l219 277h53l-315 -397zM310 750h-52l102 111h52l58 -111h-46l-40 80h-2z" />
    <glyph glyph-name="ycircumflex" unicode="&#x177;" horiz-adv-x="520" 
d="M-72 -182l24 33c14 -14 33 -21 58 -21c41 0 79 30 116 89l53 85l-112 496h44l87 -406l9 -47h1l27 47l244 406h48l-379 -620c-37 -60 -83 -90 -138 -90c-31 0 -58 9 -82 28zM258 589h-52l102 111h52l58 -111h-46l-40 80h-2z" />
    <glyph glyph-name="Ydieresis" unicode="&#x178;" horiz-adv-x="567" 
d="M242 0h-43l60 304l-160 396h46l111 -276l29 -79h2l58 78l219 277h53l-315 -397zM467 788h-46l14 73h46zM330 788h-46l14 73h46z" />
    <glyph glyph-name="Zacute" unicode="&#x179;" 
d="M463 0h-487l7 34l489 562l61 64v2c-10 -1 -27 -2 -50 -2h-358l9 40h463l-7 -34l-490 -562l-61 -64v-2c10 1 27 2 50 2h381zM404 750h-48l89 111h60z" />
    <glyph glyph-name="zacute" unicode="&#x17a;" horiz-adv-x="482" 
d="M389 0h-409l6 34l374 381c29 31 45 46 47 46v2c-11 -1 -28 -2 -50 -2h-275l7 39h386l-7 -34l-375 -381c-15 -15 -32 -31 -41 -39l-7 -7v-2c12 1 29 2 51 2h300zM321 589h-48l89 111h60z" />
    <glyph glyph-name="Zdotaccent" unicode="&#x17b;" 
d="M463 0h-487l7 34l489 562l61 64v2c-10 -1 -27 -2 -50 -2h-358l9 40h463l-7 -34l-490 -562l-61 -64v-2c10 1 27 2 50 2h381zM412 788h-46l14 73h46z" />
    <glyph glyph-name="zdotaccent" unicode="&#x17c;" horiz-adv-x="482" 
d="M389 0h-409l6 34l374 381c29 31 45 46 47 46v2c-11 -1 -28 -2 -50 -2h-275l7 39h386l-7 -34l-375 -381c-15 -15 -32 -31 -41 -39l-7 -7v-2c12 1 29 2 51 2h300zM329 627h-46l14 73h46z" />
    <glyph glyph-name="Zcaron" unicode="&#x17d;" 
d="M463 0h-487l7 34l489 562l61 64v2c-10 -1 -27 -2 -50 -2h-358l9 40h463l-7 -34l-490 -562l-61 -64v-2c10 1 27 2 50 2h381zM410 750h-52l-58 111h46l40 -80h2l72 80h52z" />
    <glyph glyph-name="zcaron" unicode="&#x17e;" horiz-adv-x="482" 
d="M389 0h-409l6 34l374 381c29 31 45 46 47 46v2c-11 -1 -28 -2 -50 -2h-275l7 39h386l-7 -34l-375 -381c-15 -15 -32 -31 -41 -39l-7 -7v-2c12 1 29 2 51 2h300zM327 589h-52l-58 111h46l40 -80h2l72 80h52z" />
    <glyph glyph-name="longs" unicode="&#x17f;" horiz-adv-x="251" 
d="M87 0h-42l89 459h-63l7 38h63l5 25c12 63 40 111 67 135c46 41 94 48 122 48l31 -2l-9 -39c-5 1 -13 2 -22 2c-25 0 -47 -5 -78 -24c-31 -17 -57 -61 -69 -121z" />
    <glyph glyph-name="florin" unicode="&#x192;" 
d="M-40 -95l8 38c16 -3 36 -5 60 -5c25 0 48 5 80 24c32 17 62 61 79 121l84 295h-96l7 38h99l34 118c21 75 59 128 99 149c40 23 69 29 100 29c33 0 63 -3 89 -8l-7 -38c-28 5 -55 7 -81 7c-77 0 -130 -48 -159 -145l-33 -112h133l-7 -38h-136l-87 -304
c-21 -75 -59 -126 -99 -147c-40 -23 -67 -28 -98 -28c-25 0 -48 2 -69 6z" />
    <glyph glyph-name="Scommaaccent" unicode="&#x218;" horiz-adv-x="527" 
d="M20 66l-8 9l31 31c3 -4 6 -8 27 -27c28 -22 74 -49 144 -49c53 0 98 14 135 42c37 29 56 67 56 114c-1 90 -73 122 -148 159l-71 39c-43 25 -76 74 -76 135c0 59 23 105 70 140s103 53 167 53c71 0 134 -29 157 -50l17 -17l-28 -33l-17 16c-7 7 -23 15 -48 26
s-51 16 -80 16c-50 0 -95 -14 -134 -41s-59 -63 -59 -108c0 -60 47 -102 104 -130c84 -39 191 -81 191 -201c0 -59 -22 -108 -67 -146c-44 -37 -100 -56 -168 -56c-106 0 -177 55 -195 78zM168 -66h48v-13c0 -35 -14 -76 -42 -121h-39c24 41 36 76 36 106c0 9 -1 18 -3 28z
" />
    <glyph glyph-name="scommaaccent" unicode="&#x219;" horiz-adv-x="430" 
d="M-1 61l27 30c32 -37 87 -62 143 -62c37 0 70 9 97 26c27 18 41 43 41 74c0 121 -231 89 -231 243c0 44 18 78 54 103s79 37 128 37c64 0 112 -19 143 -56l-28 -30c-28 30 -67 45 -116 45c-36 0 -68 -8 -96 -25c-27 -17 -41 -41 -41 -73c0 -122 231 -90 231 -240
c0 -43 -18 -78 -53 -105s-78 -40 -130 -40c-73 0 -130 24 -169 73zM132 -66h48v-13c0 -35 -14 -76 -42 -121h-39c24 41 36 76 36 106c0 9 -1 18 -3 28z" />
    <glyph glyph-name="uni021A" unicode="&#x21a;" horiz-adv-x="596" 
d="M261 0h-43l128 660h-260l7 40h565l-7 -40h-262zM203 -66h48v-13c0 -35 -14 -76 -42 -121h-39c24 41 36 76 36 106c0 9 -1 18 -3 28z" />
    <glyph glyph-name="uni021B" unicode="&#x21b;" horiz-adv-x="297" 
d="M72 133c0 17 2 36 6 58l52 268h-66l7 38h66l28 142h42l-28 -142h131l-7 -38h-131l-53 -275c-3 -16 -5 -32 -5 -49c0 -67 30 -100 89 -100c9 0 18 1 29 2l-8 -39c-4 -1 -11 -2 -21 -2c-87 0 -131 46 -131 137zM124 -66h48v-13c0 -35 -14 -76 -42 -121h-39
c24 41 36 76 36 106c0 9 -1 18 -3 28z" />
    <glyph glyph-name="circumflex" unicode="&#x2c6;" horiz-adv-x="508" 
d="M131 750h-52l102 111h52l58 -111h-46l-40 80h-2z" />
    <glyph glyph-name="caron" unicode="&#x2c7;" horiz-adv-x="508" 
d="M217 750h-52l-58 111h46l40 -80h2l72 80h52z" />
    <glyph glyph-name="breve" unicode="&#x2d8;" horiz-adv-x="510" 
d="M189 747c-47 0 -86 28 -86 80c0 12 2 23 5 34h40c-3 -12 -5 -22 -5 -30c0 -31 17 -46 51 -46c37 0 68 23 76 76h40c-9 -80 -60 -114 -121 -114z" />
    <glyph glyph-name="dotaccent" unicode="&#x2d9;" horiz-adv-x="510" 
d="M220 788h-46l14 73h46z" />
    <glyph glyph-name="ring" unicode="&#x2da;" horiz-adv-x="510" 
d="M193 740c-40 0 -62 22 -62 59c0 39 35 75 74 75c40 0 62 -23 62 -59c0 -39 -35 -75 -74 -75zM193 775c21 0 39 17 39 40c0 15 -11 25 -27 25c-21 0 -39 -17 -39 -41c0 -16 9 -24 27 -24z" />
    <glyph glyph-name="ogonek" unicode="&#x2db;" horiz-adv-x="509" 
d="M124 -125c0 57 47 101 116 145l43 -13l-32 -19c-13 -9 -30 -24 -51 -46c-21 -23 -31 -43 -31 -61c0 -24 24 -40 43 -43l15 -3l-16 -39c-5 0 -10 0 -30 7c-26 7 -57 28 -57 72z" />
    <glyph glyph-name="tilde" unicode="&#x2dc;" horiz-adv-x="509" 
d="M90 753h-40c13 72 45 108 96 108c65 0 68 -74 111 -74c27 0 44 24 52 71h40c-15 -73 -44 -108 -97 -108c-64 0 -66 74 -111 74c-28 0 -46 -38 -51 -71z" />
    <glyph glyph-name="hungarumlaut" unicode="&#x2dd;" horiz-adv-x="509" 
d="M231 750h-48l89 111h60zM119 750h-51l84 111h54z" />
    <glyph glyph-name="uni0400" unicode="&#x400;" horiz-adv-x="553" 
d="M451 0h-402l137 700h383l-9 -40h-339l-56 -287h279l-8 -40h-278l-58 -293h358zM431 750h-40l-57 111h52z" />
    <glyph glyph-name="uni0401" unicode="&#x401;" horiz-adv-x="553" 
d="M451 0h-402l137 700h383l-9 -40h-339l-56 -287h279l-8 -40h-278l-58 -293h358zM498 788h-46l14 73h46zM361 788h-46l14 73h46z" />
    <glyph glyph-name="uni0402" unicode="&#x402;" horiz-adv-x="711" 
d="M205 0h-43l128 660h-206l8 40h493l-8 -40h-244l-50 -259l-7 -30h2c66 31 131 46 196 46c120 0 186 -64 186 -172c0 -69 -24 -129 -72 -180c-47 -51 -110 -77 -189 -77c-2 0 -19 1 -51 3l7 39c12 -2 27 -3 45 -3c63 0 114 21 154 64c41 43 61 94 61 154
c0 87 -49 131 -147 131c-69 0 -136 -18 -201 -54z" />
    <glyph glyph-name="uni0403" unicode="&#x403;" horiz-adv-x="479" 
d="M92 0h-43l137 700h353l-8 -40h-310zM387 750h-48l89 111h60z" />
    <glyph glyph-name="uni0404" unicode="&#x404;" horiz-adv-x="715" 
d="M64 285c0 71 18 140 55 205c37 66 89 119 154 160c66 41 137 62 213 62c102 0 180 -29 234 -88l-28 -31c-52 52 -122 78 -211 78c-85 0 -161 -29 -229 -87s-112 -129 -133 -213h424l-8 -40h-423c-2 -16 -3 -32 -3 -47c0 -77 23 -138 69 -185c47 -47 107 -70 182 -70
c95 0 180 33 255 98l21 -34c-72 -63 -181 -105 -282 -105c-87 0 -158 28 -211 84c-53 57 -79 128 -79 213z" />
    <glyph glyph-name="uni0405" unicode="&#x405;" horiz-adv-x="527" 
d="M20 66l-8 9l31 31c3 -4 6 -8 27 -27c28 -22 74 -49 144 -49c53 0 98 14 135 42c37 29 56 67 56 114c-1 90 -73 122 -148 159l-71 39c-43 25 -76 74 -76 135c0 59 23 105 70 140s103 53 167 53c71 0 134 -29 157 -50l17 -17l-28 -33l-17 16c-7 7 -23 15 -48 26
s-51 16 -80 16c-50 0 -95 -14 -134 -41s-59 -63 -59 -108c0 -60 47 -102 104 -130c84 -39 191 -81 191 -201c0 -59 -22 -108 -67 -146c-44 -37 -100 -56 -168 -56c-106 0 -177 55 -195 78z" />
    <glyph glyph-name="uni0406" unicode="&#x406;" horiz-adv-x="256" 
d="M92 0h-43l137 700h43z" />
    <glyph glyph-name="uni0407" unicode="&#x407;" horiz-adv-x="256" 
d="M92 0h-43l137 700h43zM317 788h-46l14 73h46zM180 788h-46l14 73h46z" />
    <glyph glyph-name="uni0408" unicode="&#x408;" horiz-adv-x="505" 
d="M7 139c0 13 2 30 6 52l4 22h43l-4 -22c-3 -17 -5 -32 -5 -45c0 -78 39 -117 116 -117c39 0 76 13 109 39c34 26 56 67 67 123l90 469h-166l8 40h209l-100 -515c-13 -69 -40 -119 -81 -150s-86 -47 -136 -47c-92 0 -160 48 -160 151z" />
    <glyph glyph-name="uni0409" unicode="&#x409;" horiz-adv-x="924" 
d="M-32 -8l8 42c68 9 123 62 167 158s77 211 109 376l26 132h330l-61 -310h141c113 0 186 -58 186 -161c0 -62 -23 -116 -70 -161s-105 -68 -174 -68h-202l129 660h-244l-18 -89c-12 -59 -23 -110 -34 -155c-21 -89 -52 -188 -85 -253c-50 -100 -114 -167 -208 -171z
M540 350l-61 -310h150c55 0 102 18 141 54s59 80 59 132c0 81 -55 124 -139 124h-150z" />
    <glyph glyph-name="uni040A" unicode="&#x40a;" horiz-adv-x="982" 
d="M92 0h-43l137 700h43l-61 -311h394l61 311h43l-61 -310h141c113 0 186 -58 186 -161c0 -62 -23 -116 -70 -161s-105 -68 -174 -68h-202l68 349h-394zM598 350l-61 -310h150c55 0 102 18 141 54s59 80 59 132c0 81 -55 124 -139 124h-150z" />
    <glyph glyph-name="uni040B" unicode="&#x40b;" horiz-adv-x="704" 
d="M203 0h-43l130 660h-206l8 40h492l-8 -40h-243l-52 -264l-9 -33h2c69 36 138 54 208 54c105 0 161 -51 161 -135c0 -19 -2 -39 -6 -60l-44 -222h-43l43 215c5 22 7 40 7 55c0 71 -40 106 -121 106c-40 0 -80 -7 -120 -20s-71 -26 -94 -41z" />
    <glyph glyph-name="uni040C" unicode="&#x40c;" horiz-adv-x="568" 
d="M92 0h-43l137 700h43l-61 -312h126l265 312h52l-281 -331v-2l158 -367h-47l-148 348h-133zM406 750h-48l89 111h60z" />
    <glyph glyph-name="uni040D" unicode="&#x40d;" horiz-adv-x="749" 
d="M89 0h-40l137 700h43l-106 -545l-21 -86h2c33 39 59 70 78 91l500 540h40l-137 -700h-43l106 545l21 86h-2c-31 -37 -56 -67 -75 -88zM491 750h-40l-57 111h52z" />
    <glyph glyph-name="uni040E" unicode="&#x40e;" horiz-adv-x="578" 
d="M35 30l26 33c27 -23 53 -35 77 -35c47 0 70 30 117 110l-170 562h45l129 -426l23 -92h2l52 92l243 426h50l-353 -606c-41 -71 -88 -106 -141 -106c-31 0 -65 14 -100 42zM370 734c-56 0 -105 36 -105 89c0 9 2 22 6 38h41c-3 -11 -5 -22 -5 -31c0 -36 28 -56 65 -56
c45 0 86 28 94 87h41c-13 -85 -58 -127 -137 -127z" />
    <glyph glyph-name="uni040F" unicode="&#x40f;" horiz-adv-x="717" 
d="M280 0h-230l136 700h43l-128 -660h417l128 660h43l-136 -700h-230l-27 -140h-43z" />
    <glyph glyph-name="uni0410" unicode="&#x410;" horiz-adv-x="625" 
d="M23 0h-48l397 700h45l127 -700h-44l-43 242h-297zM343 566l-161 -284h267l-50 284l-12 84h-2c-17 -36 -31 -64 -42 -84z" />
    <glyph glyph-name="uni0411" unicode="&#x411;" horiz-adv-x="584" 
d="M289 0h-240l137 700h382l-8 -40h-339l-51 -260h165c111 0 183 -55 183 -159c0 -71 -23 -129 -69 -174c-45 -45 -99 -67 -160 -67zM162 360l-62 -320h183c53 0 98 18 135 54s55 84 55 145c0 76 -50 121 -129 121h-182z" />
    <glyph glyph-name="uni0412" unicode="&#x412;" horiz-adv-x="608" 
d="M304 0h-255l137 700h225c29 0 53 -4 74 -12c55 -23 83 -66 83 -131c0 -89 -50 -158 -125 -187v-2c52 -17 87 -68 87 -139c0 -96 -53 -174 -130 -209c-29 -13 -61 -20 -96 -20zM221 660l-53 -272h190c45 0 83 16 116 47c33 32 49 73 49 122c0 64 -41 103 -112 103h-190z
M160 348l-60 -308h198c31 0 57 5 79 15c65 29 108 93 108 173c0 75 -49 120 -128 120h-197z" />
    <glyph glyph-name="uni0413" unicode="&#x413;" horiz-adv-x="479" 
d="M92 0h-43l137 700h353l-8 -40h-310z" />
    <glyph glyph-name="uni0414" unicode="&#x414;" horiz-adv-x="687" 
d="M86 40h386l120 620h-277l-17 -88c-15 -90 -41 -184 -78 -283s-81 -182 -134 -249zM-33 -140h-43l35 180h73c59 69 108 153 145 250s63 191 78 281l25 129h363l-128 -660h78l-35 -180h-42l27 140h-549z" />
    <glyph glyph-name="uni0415" unicode="&#x415;" horiz-adv-x="553" 
d="M451 0h-402l137 700h383l-9 -40h-339l-56 -287h279l-8 -40h-278l-58 -293h358z" />
    <glyph glyph-name="uni0416" unicode="&#x416;" horiz-adv-x="829" 
d="M21 0h-54l300 368v2l-150 330h49l139 -312h107l61 312h43l-61 -312h100l261 312h56l-280 -330v-2l157 -368h-49l-146 348h-107l-68 -348h-43l68 348h-101z" />
    <glyph glyph-name="uni0417" unicode="&#x417;" horiz-adv-x="524" 
d="M-5 76l29 30c36 -51 90 -76 161 -76c61 0 112 18 155 53c43 36 64 81 64 134c0 83 -60 125 -144 125h-89l8 40h71c49 0 93 16 132 48s59 72 59 120c0 69 -45 120 -136 120c-59 0 -113 -19 -163 -57l-21 34c59 43 119 65 179 65c120 0 186 -59 186 -158
c0 -93 -59 -159 -144 -187v-2c71 -21 107 -69 107 -144c0 -66 -25 -121 -76 -166c-50 -45 -110 -67 -180 -67c-76 0 -154 29 -198 88z" />
    <glyph glyph-name="uni0418" unicode="&#x418;" horiz-adv-x="749" 
d="M89 0h-40l137 700h43l-106 -545l-21 -86h2c33 39 59 70 78 91l500 540h40l-137 -700h-43l106 545l21 86h-2c-31 -37 -56 -67 -75 -88z" />
    <glyph glyph-name="uni0419" unicode="&#x419;" horiz-adv-x="749" 
d="M89 0h-40l137 700h43l-106 -545l-21 -86h2c33 39 59 70 78 91l500 540h40l-137 -700h-43l106 545l21 86h-2c-31 -37 -56 -67 -75 -88zM464 734c-56 0 -105 36 -105 89c0 9 2 22 6 38h41c-3 -11 -5 -22 -5 -31c0 -36 28 -56 65 -56c45 0 86 28 94 87h41
c-13 -85 -58 -127 -137 -127z" />
    <glyph glyph-name="uni041A" unicode="&#x41a;" horiz-adv-x="568" 
d="M92 0h-43l137 700h43l-61 -312h126l265 312h52l-281 -331v-2l158 -367h-47l-148 348h-133z" />
    <glyph glyph-name="uni041B" unicode="&#x41b;" horiz-adv-x="650" 
d="M623 700l-137 -700h-43l129 660h-277l-21 -106c-11 -57 -22 -107 -33 -151c-21 -87 -50 -181 -83 -244c-50 -95 -114 -161 -208 -167l8 42c128 17 209 195 273 519l29 147h363z" />
    <glyph glyph-name="uni041C" unicode="&#x41c;" horiz-adv-x="835" 
d="M65 0h-43l194 700h39l118 -440l19 -79h2c17 29 34 56 49 79l290 440h44l-81 -700h-43l62 534l15 93h-2c-21 -39 -39 -70 -54 -93l-265 -399h-44l-110 399l-20 95h-2c-7 -41 -13 -72 -19 -95z" />
    <glyph glyph-name="uni041D" unicode="&#x41d;" horiz-adv-x="743" 
d="M92 0h-43l137 700h43l-64 -329h444l64 329h43l-137 -700h-43l65 331h-444z" />
    <glyph glyph-name="uni041E" unicode="&#x41e;" horiz-adv-x="826" 
d="M64 288c0 75 20 145 61 210c41 66 94 118 159 156c65 39 133 58 203 58c88 0 160 -27 215 -82s83 -125 83 -210c0 -76 -21 -148 -62 -215s-94 -120 -159 -159s-132 -58 -202 -58c-88 0 -160 28 -215 84s-83 128 -83 216zM109 288c0 -76 23 -138 70 -187
c47 -48 108 -72 183 -72c62 0 122 17 180 52c59 35 106 83 143 144s55 125 55 194c0 74 -24 134 -71 181s-107 71 -182 71c-63 0 -124 -17 -182 -51s-105 -81 -142 -141c-36 -59 -54 -123 -54 -191z" />
    <glyph glyph-name="uni041F" unicode="&#x41f;" horiz-adv-x="733" 
d="M92 0h-43l137 700h520l-137 -700h-43l129 660h-434z" />
    <glyph glyph-name="uni0420" unicode="&#x420;" horiz-adv-x="591" 
d="M92 0h-43l137 700h219c47 0 84 -8 112 -24c51 -29 77 -75 77 -140c0 -105 -60 -191 -147 -227c-31 -13 -65 -19 -101 -19h-197zM221 660l-64 -330h185c33 0 62 5 88 16c72 31 119 99 119 190c0 79 -53 124 -144 124h-184z" />
    <glyph glyph-name="uni0421" unicode="&#x421;" horiz-adv-x="719" 
d="M65 286c0 76 20 147 59 213c40 66 92 118 156 156s131 57 202 57c91 0 185 -28 240 -88l-30 -31c-52 52 -122 78 -210 78c-63 0 -124 -17 -181 -51s-103 -81 -138 -141c-35 -59 -53 -124 -53 -193c0 -75 23 -136 68 -185c46 -48 107 -72 182 -72c89 0 186 36 255 95
l25 -33c-33 -30 -76 -55 -129 -74c-52 -19 -102 -29 -151 -29c-91 0 -163 28 -216 83s-79 127 -79 215z" />
    <glyph glyph-name="uni0422" unicode="&#x422;" horiz-adv-x="596" 
d="M261 0h-43l128 660h-260l7 40h565l-7 -40h-262z" />
    <glyph glyph-name="uni0423" unicode="&#x423;" horiz-adv-x="578" 
d="M35 30l26 33c27 -23 53 -35 77 -35c47 0 70 30 117 110l-170 562h45l129 -426l23 -92h2l52 92l243 426h50l-353 -606c-41 -71 -88 -106 -141 -106c-31 0 -65 14 -100 42z" />
    <glyph glyph-name="uni0424" unicode="&#x424;" horiz-adv-x="811" 
d="M59 312c0 106 38 191 114 255c77 64 171 96 284 96l17 87h43l-17 -87c87 0 155 -21 206 -62s77 -99 77 -172c0 -105 -38 -190 -115 -254c-76 -64 -170 -96 -282 -96l-18 -91h-43l18 91c-87 0 -157 21 -208 62s-76 98 -76 171zM491 623l-97 -504c97 1 179 29 245 84
s99 131 99 228c0 124 -91 192 -247 192zM104 311c0 -124 91 -192 247 -192l97 504c-97 -1 -179 -30 -245 -85s-99 -130 -99 -227z" />
    <glyph glyph-name="uni0425" unicode="&#x425;" horiz-adv-x="550" 
d="M16 0h-51l297 373l-137 327h46l91 -221l32 -78h2c17 24 36 49 57 76l180 223h54l-270 -334l157 -366h-46l-112 263l-30 75h-2c-14 -21 -32 -45 -55 -73z" />
    <glyph glyph-name="uni0426" unicode="&#x426;" horiz-adv-x="733" 
d="M588 0h-538l136 700h43l-128 -660h417l128 660h43l-128 -660h77l-35 -180h-42z" />
    <glyph glyph-name="uni0427" unicode="&#x427;" horiz-adv-x="596" 
d="M252 283c-109 0 -165 54 -165 143c0 19 2 35 5 50l44 224h43l-43 -217c-3 -16 -5 -33 -5 -51c0 -72 41 -108 124 -108c39 0 78 7 116 20c39 14 70 29 94 44l61 312h43l-137 -700h-43l60 304l8 33h-2c-70 -36 -138 -54 -203 -54z" />
    <glyph glyph-name="uni0428" unicode="&#x428;" horiz-adv-x="982" 
d="M818 0h-769l137 700h43l-129 -660h320l129 660h43l-129 -660h320l129 660h43z" />
    <glyph glyph-name="uni0429" unicode="&#x429;" horiz-adv-x="1003" 
d="M862 0h-812l136 700h43l-128 -660h320l128 660h43l-128 -660h320l128 660h43l-128 -660h86l-35 -180h-43z" />
    <glyph glyph-name="uni042A" unicode="&#x42a;" horiz-adv-x="643" 
d="M358 0h-225l129 660h-186l8 40h229l-59 -300h165c104 0 173 -55 173 -159c0 -71 -23 -129 -70 -174c-46 -45 -101 -67 -164 -67zM246 360l-62 -320h173c53 0 98 18 135 54s55 84 55 145c0 76 -50 121 -129 121h-172z" />
    <glyph glyph-name="uni042B" unicode="&#x42b;" horiz-adv-x="784" 
d="M274 0h-225l137 700h43l-59 -300h165c104 0 173 -55 173 -159c0 -71 -23 -129 -70 -174c-46 -45 -101 -67 -164 -67zM162 360l-62 -320h173c53 0 98 18 135 54s55 84 55 145c0 76 -50 121 -129 121h-172zM620 0h-43l137 700h43z" />
    <glyph glyph-name="uni042C" unicode="&#x42c;" horiz-adv-x="559" 
d="M274 0h-225l137 700h43l-59 -300h165c104 0 173 -55 173 -159c0 -71 -23 -129 -70 -174c-46 -45 -101 -67 -164 -67zM162 360l-62 -320h173c53 0 98 18 135 54s55 84 55 145c0 76 -50 121 -129 121h-172z" />
    <glyph glyph-name="uni042D" unicode="&#x42d;" horiz-adv-x="715" 
d="M616 331h-421l8 40h420c3 21 4 38 4 49c0 72 -22 132 -66 179c-43 48 -104 72 -181 72c-88 0 -166 -26 -235 -79l-25 32c64 53 163 88 264 88c87 0 157 -27 210 -82c53 -54 80 -124 80 -209c0 -75 -20 -147 -60 -214c-39 -67 -92 -120 -157 -160
c-65 -39 -135 -59 -208 -59c-96 0 -195 37 -247 106l30 29c44 -56 131 -94 220 -94c82 0 158 29 227 87c70 58 116 130 137 215z" />
    <glyph glyph-name="uni042E" unicode="&#x42e;" horiz-adv-x="1036" 
d="M92 0h-43l137 700h43l-64 -329h137c21 95 70 176 149 242s164 99 255 99c85 0 155 -27 208 -82s80 -125 80 -210c0 -76 -20 -148 -60 -215c-39 -67 -91 -120 -154 -159s-129 -58 -197 -58c-85 0 -155 28 -209 84s-81 128 -81 216c0 10 1 24 2 43h-138zM338 288
c0 -76 22 -138 67 -186s104 -72 176 -72c61 0 119 17 176 52s103 82 138 143c36 61 54 125 54 194c0 74 -23 134 -68 181s-103 70 -175 70c-61 0 -120 -17 -177 -51c-56 -34 -102 -81 -138 -140c-35 -59 -53 -123 -53 -191z" />
    <glyph glyph-name="uni042F" unicode="&#x42f;" horiz-adv-x="602" 
d="M31 0h-53l230 288l23 26l1 2c-71 20 -117 75 -117 154c0 88 48 173 132 209c31 14 75 21 133 21h195l-137 -700h-43l61 310h-176zM284 350h180l60 310h-150c-45 0 -79 -5 -102 -14c-67 -28 -112 -99 -112 -176c0 -73 47 -120 124 -120z" />
    <glyph glyph-name="uni0430" unicode="&#x430;" horiz-adv-x="508" 
d="M347 305h39c5 25 7 47 7 64c0 68 -37 102 -112 102c-55 0 -105 -16 -152 -48l-18 38c47 34 104 51 170 51c104 0 156 -46 156 -137c0 -17 -2 -36 -6 -57l-62 -318h-42l13 65l12 46h-2c-15 -30 -40 -58 -75 -84c-34 -26 -73 -39 -118 -39c-43 0 -78 11 -107 34
s-43 53 -43 91s11 70 32 97s50 47 86 60c73 25 142 35 222 35zM51 117c0 -51 38 -90 110 -90c50 0 95 22 135 67s66 94 78 149l5 23h-32c-197 0 -296 -50 -296 -149z" />
    <glyph glyph-name="uni0431" unicode="&#x431;" horiz-adv-x="564" 
d="M50 201c0 101 30 221 93 302c37 49 94 90 171 125l210 95l12 -37l-213 -96c-65 -29 -113 -64 -144 -103s-54 -89 -71 -151h2c55 77 124 116 209 116c111 0 181 -68 181 -180c0 -74 -25 -140 -75 -198c-50 -57 -115 -86 -195 -86c-120 0 -180 71 -180 213zM94 176
c0 -95 58 -148 143 -148c61 0 112 24 154 72c43 48 64 103 64 165c0 93 -58 147 -139 147c-57 0 -109 -23 -154 -70c-45 -46 -68 -101 -68 -166z" />
    <glyph glyph-name="uni0432" unicode="&#x432;" horiz-adv-x="487" 
d="M210 0h-180l97 500h152c93 0 147 -36 147 -103c0 -63 -39 -114 -104 -135v-2c52 -11 85 -49 85 -102c0 -48 -20 -86 -59 -115s-85 -43 -138 -43zM162 462l-36 -184h117c37 0 70 10 97 30c27 21 41 50 41 87c0 45 -35 67 -106 67h-113zM118 239l-39 -200h124
c42 0 79 10 111 29c33 20 49 50 49 91c0 53 -41 80 -122 80h-123z" />
    <glyph glyph-name="uni0433" unicode="&#x433;" horiz-adv-x="398" 
d="M72 0h-42l97 500h284l-7 -38h-242z" />
    <glyph glyph-name="uni0434" unicode="&#x434;" 
d="M73 39h288l82 423h-198l-6 -33c-35 -177 -91 -307 -166 -390zM-26 -120h-42l31 159h55c83 79 143 209 179 390l14 71h282l-90 -461h70l-31 -159h-42l24 120h-427z" />
    <glyph glyph-name="uni0435" unicode="&#x435;" horiz-adv-x="547" 
d="M38 197c0 83 28 156 84 219c56 64 125 96 207 96c116 0 174 -70 174 -177c0 -22 -4 -48 -13 -78h-401c-4 -19 -6 -38 -6 -55c0 -101 64 -173 176 -173c59 0 115 21 167 63l16 -38c-44 -36 -116 -66 -183 -66c-65 0 -119 19 -160 57s-61 89 -61 152zM99 296h355
c3 10 4 24 4 42c0 89 -52 135 -129 135c-97 0 -190 -65 -230 -177z" />
    <glyph glyph-name="uni0436" unicode="&#x436;" horiz-adv-x="689" 
d="M22 0h-55l226 261v2l-113 237h45l107 -224h90l43 224h42l-43 -224h88l186 224h53l-207 -247v-2l127 -251h-49l-118 237h-88l-46 -237h-42l46 237h-89z" />
    <glyph glyph-name="uni0437" unicode="&#x437;" horiz-adv-x="429" 
d="M-12 59l29 31c24 -29 74 -62 134 -62c41 0 76 12 107 35c31 24 47 56 47 97c0 53 -39 80 -116 80h-65l7 39h59c79 0 143 40 143 116c0 51 -40 76 -103 76c-47 0 -90 -16 -127 -47l-23 34c46 36 98 54 157 54c84 0 141 -40 141 -112c0 -65 -37 -117 -101 -137v-2
c49 -13 73 -46 73 -99c0 -51 -19 -93 -57 -126c-38 -32 -84 -48 -137 -48c-75 0 -136 32 -168 71z" />
    <glyph glyph-name="uni0438" unicode="&#x438;" horiz-adv-x="584" 
d="M69 0h-39l97 500h42l-69 -356l-18 -78h2c29 35 53 62 72 82l342 352h39l-97 -500h-42l69 357l17 75h-2c-28 -33 -52 -59 -71 -79z" />
    <glyph glyph-name="uni0439" unicode="&#x439;" horiz-adv-x="584" 
d="M69 0h-39l97 500h42l-69 -356l-18 -78h2c29 35 53 62 72 82l342 352h39l-97 -500h-42l69 357l17 75h-2c-28 -33 -52 -59 -71 -79zM354 573c-56 0 -105 36 -105 89c0 9 2 22 6 38h41c-3 -11 -5 -22 -5 -31c0 -36 28 -56 65 -56c45 0 86 28 94 87h41
c-13 -85 -58 -127 -137 -127z" />
    <glyph glyph-name="uni043A" unicode="&#x43a;" horiz-adv-x="469" 
d="M72 0h-42l97 500h42l-43 -221h86l205 221h56l-229 -243v-2l152 -255h-53l-137 240h-87z" />
    <glyph glyph-name="uni043B" unicode="&#x43b;" horiz-adv-x="511" 
d="M-38 -4l7 39c91 16 148 123 187 316l28 149h280l-97 -500h-42l90 461h-196l-21 -110c-47 -240 -121 -346 -236 -355z" />
    <glyph glyph-name="uni043C" unicode="&#x43c;" horiz-adv-x="706" 
d="M53 0h-42l137 500h38l105 -331l20 -73h2c16 27 32 51 48 73l234 331h42l-57 -500h-42l39 347l16 86h-2c-10 -19 -26 -43 -47 -72l-216 -306h-43l-98 304c-8 24 -16 52 -17 65l-2 9h-2c-7 -41 -13 -70 -18 -86z" />
    <glyph glyph-name="uni043D" unicode="&#x43d;" horiz-adv-x="585" 
d="M72 0h-42l97 500h42l-43 -223h327l43 223h42l-97 -500h-42l46 238h-327z" />
    <glyph glyph-name="uni043E" unicode="&#x43e;" horiz-adv-x="620" 
d="M38 205c0 83 31 155 93 216c63 61 134 91 213 91c65 0 118 -20 159 -60s62 -91 62 -154c0 -84 -31 -157 -94 -218s-133 -92 -212 -92c-65 0 -119 20 -160 61s-61 93 -61 156zM82 206c0 -52 16 -95 49 -128s76 -49 128 -49c67 0 127 26 181 79s81 116 81 189
c0 51 -17 92 -50 125s-75 49 -127 49c-68 0 -129 -26 -182 -79c-53 -52 -80 -114 -80 -186z" />
    <glyph glyph-name="uni043F" unicode="&#x43f;" horiz-adv-x="575" 
d="M72 0h-42l97 500h401l-97 -500h-42l90 461h-317z" />
    <glyph glyph-name="uni0440" unicode="&#x440;" horiz-adv-x="578" 
d="M82 52l-49 -252h-42l136 700h42l-10 -55l-12 -45h2c37 64 106 112 191 112c116 0 183 -74 183 -197c0 -93 -27 -171 -82 -234c-54 -62 -117 -93 -188 -93c-81 0 -143 40 -163 113h-2c-1 -15 -3 -32 -6 -49zM114 187c0 -92 48 -158 137 -158c58 0 110 26 157 79
s71 121 71 205c0 99 -52 158 -139 158c-45 0 -85 -15 -120 -45c-71 -59 -106 -150 -106 -239z" />
    <glyph glyph-name="uni0441" unicode="&#x441;" horiz-adv-x="540" 
d="M38 197c0 91 31 166 94 225c63 60 133 90 211 90c68 0 137 -24 176 -71l-30 -31c-32 37 -88 61 -144 61c-67 0 -127 -26 -182 -77c-54 -51 -81 -116 -81 -193c0 -52 17 -94 50 -125c34 -31 77 -47 128 -47c69 0 130 24 181 72l16 -38c-49 -45 -123 -75 -195 -75
c-65 0 -119 19 -161 57s-63 89 -63 152z" />
    <glyph glyph-name="uni0442" unicode="&#x442;" horiz-adv-x="469" 
d="M197 0h-42l90 461h-190l7 39h422l-7 -39h-190z" />
    <glyph glyph-name="uni0443" unicode="&#x443;" horiz-adv-x="518" 
d="M-70 -182l24 33c14 -14 33 -21 58 -21c41 0 79 30 116 89l53 85l-112 496h44l87 -406l9 -47h1l27 47l244 406h48l-379 -620c-37 -60 -83 -90 -138 -90c-31 0 -58 9 -82 28z" />
    <glyph glyph-name="uni0444" unicode="&#x444;" horiz-adv-x="685" 
d="M40 207c0 83 30 154 91 211s139 88 233 93l37 189h42l-37 -189c136 -7 224 -88 224 -215c0 -82 -31 -153 -93 -213c-61 -59 -139 -91 -232 -94l-37 -189h-42l37 189c-67 3 -121 24 -162 63s-61 91 -61 155zM398 469l-85 -439c73 2 136 29 190 80c55 51 82 113 82 186
c0 105 -67 166 -187 173zM85 208c0 -109 66 -170 186 -178l85 439c-74 -3 -138 -29 -191 -78s-80 -110 -80 -183z" />
    <glyph glyph-name="uni0445" unicode="&#x445;" horiz-adv-x="460" 
d="M18 0h-53l233 265l-120 235h48l89 -179l13 -28h1l20 25l157 182h53l-209 -240l134 -260h-47l-103 203l-13 30h-2c-5 -9 -12 -18 -21 -27z" />
    <glyph glyph-name="uni0446" unicode="&#x446;" horiz-adv-x="589" 
d="M453 0h-423l97 500h42l-90 -461h311l90 461h42l-90 -461h70l-31 -159h-42z" />
    <glyph glyph-name="uni0447" unicode="&#x447;" horiz-adv-x="482" 
d="M194 190c-96 0 -140 44 -140 112c0 12 2 26 5 43l30 155h42l-30 -155c-3 -16 -4 -28 -4 -36c0 -52 32 -78 95 -78c60 0 113 16 158 47l43 222h42l-97 -500h-42l38 196l9 34h-2c-21 -11 -46 -20 -75 -28s-53 -12 -72 -12z" />
    <glyph glyph-name="uni0448" unicode="&#x448;" horiz-adv-x="780" 
d="M636 0h-606l97 500h42l-90 -461h240l90 461h42l-90 -461h240l90 461h42z" />
    <glyph glyph-name="uni0449" unicode="&#x449;" horiz-adv-x="800" 
d="M664 0h-634l97 500h42l-90 -461h240l90 461h42l-90 -461h240l90 461h42l-90 -461h70l-31 -159h-42z" />
    <glyph glyph-name="uni044A" unicode="&#x44a;" horiz-adv-x="511" 
d="M253 0h-161l90 462h-141l7 38h183l-39 -200h109c100 0 150 -41 150 -123c0 -51 -18 -94 -54 -127s-84 -50 -144 -50zM185 261l-44 -222h113c89 0 152 53 152 134c0 59 -35 88 -106 88h-115z" />
    <glyph glyph-name="uni044B" unicode="&#x44b;" horiz-adv-x="634" 
d="M191 0h-161l97 500h42l-39 -200h109c100 0 150 -41 150 -123c0 -51 -18 -94 -54 -127s-84 -50 -144 -50zM123 261l-44 -222h113c89 0 152 53 152 134c0 59 -35 88 -106 88h-115zM490 0h-42l97 500h42z" />
    <glyph glyph-name="uni044C" unicode="&#x44c;" horiz-adv-x="449" 
d="M191 0h-161l97 500h42l-39 -200h109c100 0 150 -41 150 -123c0 -51 -18 -94 -54 -127s-84 -50 -144 -50zM123 261l-44 -222h113c89 0 152 53 152 134c0 59 -35 88 -106 88h-115z" />
    <glyph glyph-name="uni044D" unicode="&#x44d;" horiz-adv-x="537" 
d="M427 230h-274l7 39h275c1 13 2 24 2 32c0 105 -75 170 -176 170c-60 0 -114 -21 -162 -63l-25 32c47 44 119 72 190 72c63 0 115 -20 156 -59s62 -92 62 -157c0 -80 -30 -151 -90 -214c-59 -63 -132 -94 -219 -94c-69 0 -137 27 -176 78l24 34c32 -44 90 -71 155 -71
c59 0 111 19 158 57c47 39 78 87 93 144z" />
    <glyph glyph-name="uni044E" unicode="&#x44e;" horiz-adv-x="787" 
d="M72 0h-42l97 500h42l-45 -231h108c15 69 51 127 106 173c56 47 117 70 183 70c63 0 113 -20 152 -60s59 -91 59 -154c0 -84 -30 -157 -91 -218s-129 -92 -205 -92c-63 0 -114 20 -153 61s-58 93 -58 156c0 11 0 19 1 25h-109zM269 206c0 -52 15 -95 46 -128
s72 -49 121 -49c65 0 123 26 174 79c52 53 78 116 78 189c0 51 -16 92 -47 125s-71 49 -120 49c-65 0 -124 -26 -175 -79c-51 -52 -77 -114 -77 -186z" />
    <glyph glyph-name="uni044F" unicode="&#x44f;" horiz-adv-x="481" 
d="M36 0h-55l155 177l27 30v2c-49 9 -91 54 -91 121c0 104 74 170 190 170h172l-97 -500h-42l39 202h-122zM117 331c0 -61 33 -91 98 -91h127l43 222h-123c-88 0 -145 -46 -145 -131z" />
    <glyph glyph-name="uni0450" unicode="&#x450;" horiz-adv-x="547" 
d="M38 197c0 83 28 156 84 219c56 64 125 96 207 96c116 0 174 -70 174 -177c0 -22 -4 -48 -13 -78h-401c-4 -19 -6 -38 -6 -55c0 -101 64 -173 176 -173c59 0 115 21 167 63l16 -38c-44 -36 -116 -66 -183 -66c-65 0 -119 19 -160 57s-61 89 -61 152zM99 296h355
c3 10 4 24 4 42c0 89 -52 135 -129 135c-97 0 -190 -65 -230 -177zM386 590h-40l-57 111h52z" />
    <glyph glyph-name="uni0451" unicode="&#x451;" horiz-adv-x="547" 
d="M38 197c0 83 28 156 84 219c56 64 125 96 207 96c116 0 174 -70 174 -177c0 -22 -4 -48 -13 -78h-401c-4 -19 -6 -38 -6 -55c0 -101 64 -173 176 -173c59 0 115 21 167 63l16 -38c-44 -36 -116 -66 -183 -66c-65 0 -119 19 -160 57s-61 89 -61 152zM99 296h355
c3 10 4 24 4 42c0 89 -52 135 -129 135c-97 0 -190 -65 -230 -177zM446 627h-46l14 73h46zM309 627h-46l14 73h46z" />
    <glyph glyph-name="uni0452" unicode="&#x452;" horiz-adv-x="586" 
d="M142 576h-66l8 38h65l17 86h42l-17 -86h239l-8 -38h-238l-40 -209l-13 -46h2c17 33 46 65 88 95c43 31 91 46 146 46c92 0 139 -45 139 -126c0 -19 -3 -42 -8 -69l-56 -293c-12 -63 -40 -112 -68 -136c-13 -13 -29 -23 -46 -30c-35 -16 -56 -18 -81 -18l-25 3l8 38
c6 -1 13 -2 22 -2c25 0 48 5 79 24c31 17 57 60 69 121l53 278c6 31 9 57 9 76c0 61 -37 93 -96 93c-61 0 -116 -23 -166 -70c-49 -47 -80 -102 -93 -167l-35 -184h-42z" />
    <glyph glyph-name="uni0453" unicode="&#x453;" horiz-adv-x="398" 
d="M72 0h-42l97 500h284l-7 -38h-242zM293 589h-48l89 111h60z" />
    <glyph glyph-name="uni0454" unicode="&#x454;" horiz-adv-x="538" 
d="M37 201c0 81 30 153 91 216s135 95 220 95c74 0 130 -24 168 -71l-28 -32c-33 41 -82 62 -145 62c-57 0 -110 -19 -157 -56s-78 -84 -95 -140h277l-7 -39h-279c-1 -15 -2 -26 -2 -34c0 -55 17 -98 51 -128s77 -45 128 -45c69 0 128 24 179 71l20 -35
c-51 -45 -129 -77 -202 -77c-64 0 -117 19 -158 58s-61 91 -61 155z" />
    <glyph glyph-name="uni0455" unicode="&#x455;" horiz-adv-x="430" 
d="M-1 61l27 30c32 -37 87 -62 143 -62c37 0 70 9 97 26c27 18 41 43 41 74c0 121 -231 89 -231 243c0 44 18 78 54 103s79 37 128 37c64 0 112 -19 143 -56l-28 -30c-28 30 -67 45 -116 45c-36 0 -68 -8 -96 -25c-27 -17 -41 -41 -41 -73c0 -122 231 -90 231 -240
c0 -43 -18 -78 -53 -105s-78 -40 -130 -40c-73 0 -130 24 -169 73z" />
    <glyph glyph-name="uni0456" unicode="&#x456;" horiz-adv-x="216" 
d="M198 627h-50l15 73h50zM72 0h-42l98 500h42z" />
    <glyph glyph-name="uni0457" unicode="&#x457;" horiz-adv-x="216" 
d="M72 0h-42l97 500h42zM264 627h-46l14 73h46zM127 627h-46l14 73h46z" />
    <glyph glyph-name="uni0458" unicode="&#x458;" horiz-adv-x="216" 
d="M197 627h-50l14 73h50zM26 -21l101 521h42l-101 -520c-15 -77 -48 -132 -87 -155c-39 -24 -66 -30 -97 -30c-17 0 -28 1 -35 2l8 39c4 -1 11 -2 22 -2c24 0 47 5 78 24c31 17 57 61 69 121z" />
    <glyph glyph-name="uni0459" unicode="&#x459;" horiz-adv-x="704" 
d="M-25 -4l7 39c89 16 151 121 187 316l28 149h226l-39 -200h110c99 0 149 -41 149 -124c0 -53 -19 -96 -57 -128c-37 -32 -85 -48 -142 -48h-160l90 461h-142l-21 -110c-47 -240 -121 -346 -236 -355zM377 261l-44 -222h113c87 0 152 48 152 133c0 59 -35 89 -106 89h-115z
" />
    <glyph glyph-name="uni045A" unicode="&#x45a;" horiz-adv-x="777" 
d="M72 0h-42l97 500h42l-40 -206h287l40 206h42l-40 -206h104c74 2 152 -28 155 -117c0 -53 -18 -95 -54 -128s-84 -49 -143 -49h-161l49 255h-287zM450 255l-42 -216h113c89 0 151 48 151 137c0 53 -38 79 -113 79h-109z" />
    <glyph glyph-name="uni045B" unicode="&#x45b;" horiz-adv-x="586" 
d="M142 576h-66l8 38h65l17 86h42l-17 -86h239l-8 -38h-238l-40 -209l-13 -46h2c17 33 46 65 88 95c43 31 91 46 146 46c92 0 139 -45 139 -126c0 -19 -3 -42 -8 -69l-51 -267h-42l48 252c6 31 9 57 9 76c0 61 -37 93 -96 93c-61 0 -116 -23 -166 -70
c-49 -47 -80 -102 -93 -167l-35 -184h-42z" />
    <glyph glyph-name="uni045C" unicode="&#x45c;" horiz-adv-x="469" 
d="M72 0h-42l97 500h42l-43 -221h86l205 221h56l-229 -243v-2l152 -255h-53l-137 240h-87zM315 589h-48l89 111h60z" />
    <glyph glyph-name="uni045D" unicode="&#x45d;" horiz-adv-x="584" 
d="M69 0h-39l97 500h42l-69 -356l-18 -78h2c29 35 53 62 72 82l342 352h39l-97 -500h-42l69 357l17 75h-2c-28 -33 -52 -59 -71 -79zM398 590h-40l-57 111h52z" />
    <glyph glyph-name="uni045E" unicode="&#x45e;" horiz-adv-x="518" 
d="M-70 -182l24 33c14 -14 33 -21 58 -21c41 0 79 30 116 89l53 85l-112 496h44l87 -406l9 -47h1l27 47l244 406h48l-379 -620c-37 -60 -83 -90 -138 -90c-31 0 -58 9 -82 28zM320 573c-56 0 -105 36 -105 89c0 9 2 22 6 38h41c-3 -11 -5 -22 -5 -31c0 -36 28 -56 65 -56
c45 0 86 28 94 87h41c-13 -85 -58 -127 -137 -127z" />
    <glyph glyph-name="uni045F" unicode="&#x45f;" horiz-adv-x="550" 
d="M197 0h-167l97 500h42l-90 -461h292l90 461h42l-97 -500h-167l-24 -120h-42z" />
    <glyph glyph-name="uni0462" unicode="&#x462;" horiz-adv-x="663" 
d="M367 0h-222l105 540h-190l8 40h190l24 120h43l-24 -120h203l-8 -40h-203l-27 -140h168c105 0 179 -61 179 -161c0 -63 -24 -119 -72 -167c-47 -48 -105 -72 -174 -72zM258 360l-62 -320h170c56 0 104 19 143 58s59 86 59 142c0 75 -57 120 -140 120h-170z" />
    <glyph glyph-name="uni0463" unicode="&#x463;" horiz-adv-x="480" 
d="M220 0h-162l90 462h-121l8 38h121l39 200h42l-39 -200h170l-8 -38h-170l-31 -162h110c70 0 148 -24 148 -124c0 -51 -18 -93 -54 -126c-35 -33 -83 -50 -143 -50zM151 261l-43 -222h113c89 0 151 54 151 135c0 57 -31 87 -106 87h-115z" />
    <glyph glyph-name="uni0472" unicode="&#x472;" horiz-adv-x="826" 
d="M64 288c0 75 20 145 61 210c41 66 94 118 159 156c65 39 133 58 203 58c88 0 160 -27 215 -82s83 -125 83 -210c0 -76 -21 -148 -62 -215s-94 -120 -159 -159s-132 -58 -202 -58c-88 0 -160 28 -215 84s-83 128 -83 216zM109 288c0 -76 23 -138 70 -187
c47 -48 108 -72 183 -72c81 0 158 29 229 88c72 59 118 131 139 218h-618c-2 -16 -3 -32 -3 -47zM487 671c-82 0 -159 -28 -230 -85s-116 -127 -137 -211h617c2 14 3 29 3 44c0 74 -24 134 -71 181s-107 71 -182 71z" />
    <glyph glyph-name="uni0473" unicode="&#x473;" horiz-adv-x="620" 
d="M38 205c0 83 31 155 93 216c63 61 134 91 213 91c65 0 118 -20 159 -60s62 -91 62 -154c0 -84 -31 -157 -94 -218s-133 -92 -212 -92c-65 0 -119 20 -160 61s-61 93 -61 156zM82 206c0 -52 16 -95 49 -128s76 -49 128 -49c55 0 107 19 156 58s82 88 97 146h-429
c-1 -6 -1 -15 -1 -27zM344 471c-57 0 -109 -19 -158 -57s-81 -85 -96 -142h429c1 11 2 19 2 25c0 51 -17 92 -50 125s-75 49 -127 49z" />
    <glyph glyph-name="uni0474" unicode="&#x474;" horiz-adv-x="679" 
d="M274 0h-47l-125 700h44l100 -566l10 -84h2l44 84l254 471c24 44 45 71 63 80c19 10 53 15 102 15h24l-8 -41h-21h-34c-4 0 -21 0 -26 -3c-18 -6 -35 -22 -57 -63z" />
    <glyph glyph-name="uni0475" unicode="&#x475;" horiz-adv-x="534" 
d="M208 0h-40l-100 500h42l78 -392l6 -54h2l28 54l166 305c19 34 37 57 56 69s48 18 87 18h21l-8 -41h-21c-49 0 -69 -10 -97 -61z" />
    <glyph glyph-name="uni048A" unicode="&#x48a;" horiz-adv-x="772" 
d="M89 0h-40l137 700h43l-106 -545l-21 -86h2c33 39 59 70 78 91l500 540h40l-129 -660h90l-6 -33l-90 -147h-44l78 140h-79l106 545l21 86h-2c-31 -37 -56 -67 -75 -88zM459 734c-56 0 -105 36 -105 89c0 9 2 22 6 38h41c-3 -11 -5 -22 -5 -31c0 -36 28 -56 65 -56
c45 0 86 28 94 87h41c-13 -85 -58 -127 -137 -127z" />
    <glyph glyph-name="uni048B" unicode="&#x48b;" horiz-adv-x="600" 
d="M69 0h-39l97 500h42l-69 -356l-18 -78h2c29 35 53 62 72 82l342 352h39l-90 -462h71l-6 -33l-74 -125h-41l65 120h-64l69 357l17 75h-2c-28 -33 -52 -59 -71 -79zM349 573c-56 0 -105 36 -105 89c0 9 2 22 6 38h41c-3 -11 -5 -22 -5 -31c0 -36 28 -56 65 -56
c45 0 86 28 94 87h41c-13 -85 -58 -127 -137 -127z" />
    <glyph glyph-name="uni048C" unicode="&#x48c;" horiz-adv-x="643" 
d="M349 0h-232l114 586h-164l7 40h164l24 124h43l-24 -124h170l-7 -40h-170l-35 -176h178c105 0 177 -63 177 -166c0 -65 -24 -122 -71 -171s-105 -73 -174 -73zM231 370l-64 -330h180c55 0 103 20 142 59c40 40 60 87 60 142c0 84 -54 129 -137 129h-181z" />
    <glyph glyph-name="uni048D" unicode="&#x48d;" horiz-adv-x="493" 
d="M233 0h-162l90 462h-121l8 38h121l39 200h42l-39 -200h170l-8 -38h-170l-31 -162h110c70 0 148 -24 148 -124c0 -51 -18 -93 -54 -126c-35 -33 -83 -50 -143 -50zM164 261l-43 -222h113c89 0 151 54 151 135c0 57 -31 87 -106 87h-115z" />
    <glyph glyph-name="uni048E" unicode="&#x48e;" horiz-adv-x="614" 
d="M92 0h-43l137 700h219c47 0 84 -8 112 -24c51 -29 77 -75 77 -140c0 -85 -33 -152 -100 -201l58 -82l-32 -23l-59 85c-4 -3 -13 -5 -14 -6c-31 -13 -65 -19 -101 -19h-197zM437 349l-69 100l32 23l71 -103c52 39 78 94 78 167c0 79 -53 124 -144 124h-184l-64 -330h185
c33 0 62 5 88 16z" />
    <glyph glyph-name="uni048F" unicode="&#x48f;" horiz-adv-x="593" 
d="M82 52l-49 -252h-42l136 700h42l-10 -55l-12 -45h2c37 64 106 112 191 112c116 0 183 -74 183 -197c0 -107 -36 -194 -107 -260l53 -65l-30 -26l-54 66c-41 -28 -85 -42 -132 -42c-81 0 -143 40 -163 113h-2c-1 -15 -3 -32 -6 -49zM359 64l-65 81l30 26l66 -82
c59 56 89 131 89 224c0 99 -52 158 -139 158c-45 0 -85 -15 -120 -45c-71 -59 -106 -150 -106 -239c0 -92 48 -158 137 -158c37 0 73 12 108 35z" />
    <glyph glyph-name="uni0490" unicode="&#x490;" horiz-adv-x="480" 
d="M93 0h-43l136 700h312l15 80h42l-23 -120h-311z" />
    <glyph glyph-name="uni0491" unicode="&#x491;" horiz-adv-x="388" 
d="M72 0h-42l97 500h234l14 70h40l-21 -108h-232z" />
    <glyph glyph-name="uni0492" unicode="&#x492;" horiz-adv-x="493" 
d="M100 0h-43l64 328h-65l8 40h65l65 332h353l-8 -40h-310l-57 -292h163l-8 -40h-163z" />
    <glyph glyph-name="uni0493" unicode="&#x493;" horiz-adv-x="403" 
d="M73 0h-42l45 231h-64l7 38h64l45 231h284l-7 -38h-242l-38 -193h135l-7 -38h-135z" />
    <glyph glyph-name="uni0494" unicode="&#x494;" horiz-adv-x="582" 
d="M93 0h-43l136 700h353l-8 -40h-310l-55 -282c52 26 107 39 166 39c116 0 178 -54 178 -193c0 -85 -23 -175 -68 -256s-128 -138 -231 -138l8 41c85 1 154 55 191 128s56 153 56 226c0 96 -35 152 -143 152c-53 0 -108 -14 -165 -43z" />
    <glyph glyph-name="uni0495" unicode="&#x495;" horiz-adv-x="472" 
d="M72 0h-42l97 500h283l-8 -39h-241l-41 -213c44 21 87 32 130 32c96 0 144 -52 144 -157c0 -63 -17 -125 -52 -187s-82 -109 -141 -141l-21 34c53 28 94 71 125 129c31 57 46 113 46 167c0 76 -36 114 -109 114c-44 0 -88 -12 -131 -37z" />
    <glyph glyph-name="uni0496" unicode="&#x496;" horiz-adv-x="872" 
d="M21 0h-54l300 368v2l-150 330h49l139 -312h107l61 312h43l-61 -312h100l261 312h56l-280 -330v-2l140 -328h81l-35 -180h-42l27 140h-63l-146 348h-107l-68 -348h-43l68 348h-101z" />
    <glyph glyph-name="uni0497" unicode="&#x497;" horiz-adv-x="729" 
d="M22 0h-55l226 261v2l-113 237h45l107 -224h90l43 224h42l-43 -224h88l186 224h53l-207 -247v-2l107 -212h72l-31 -159h-42l24 120h-52l-118 237h-88l-46 -237h-42l46 237h-89z" />
    <glyph glyph-name="uni0498" unicode="&#x498;" horiz-adv-x="525" 
d="M-5 76l29 30c36 -51 90 -76 161 -76c61 0 112 18 155 53c43 36 64 81 64 134c0 83 -60 125 -144 125h-89l8 40h71c49 0 93 16 132 48s59 72 59 120c0 69 -45 120 -136 120c-59 0 -113 -19 -163 -57l-21 34c59 43 119 65 179 65c120 0 186 -59 186 -158
c0 -93 -59 -159 -144 -187v-2c71 -21 107 -69 107 -144c0 -62 -22 -115 -67 -158c-44 -43 -98 -68 -162 -74l-25 -129h-42l24 129c-72 3 -141 32 -182 87z" />
    <glyph glyph-name="uni0499" unicode="&#x499;" horiz-adv-x="431" 
d="M-12 59l29 31c24 -29 74 -62 134 -62c41 0 76 12 107 35c31 24 47 56 47 97c0 53 -39 80 -116 80h-65l7 39h59c79 0 143 40 143 116c0 51 -40 76 -103 76c-47 0 -90 -16 -127 -47l-23 34c46 36 98 54 157 54c84 0 141 -40 141 -112c0 -65 -37 -117 -101 -137v-2
c49 -13 73 -46 73 -99c0 -49 -18 -90 -53 -122s-79 -49 -130 -52l-20 -108h-42l21 110c-60 7 -106 30 -138 69z" />
    <glyph glyph-name="uni049A" unicode="&#x49a;" horiz-adv-x="611" 
d="M92 0h-43l137 700h43l-61 -312h126l265 312h52l-281 -331v-2l141 -327h81l-35 -180h-42l27 140h-61l-148 348h-133z" />
    <glyph glyph-name="uni049B" unicode="&#x49b;" horiz-adv-x="500" 
d="M72 0h-42l97 500h42l-43 -221h86l205 221h56l-229 -243v-2l129 -216h61l-31 -159h-42l24 120h-42l-137 240h-87z" />
    <glyph glyph-name="uni049C" unicode="&#x49c;" horiz-adv-x="626" 
d="M92 0h-43l137 700h43l-61 -312h86l25 130h41l-25 -130h61l256 312h57l-281 -338v-2l158 -360h-47l-151 348h-61l-25 -130h-41l25 130h-86z" />
    <glyph glyph-name="uni049D" unicode="&#x49d;" horiz-adv-x="529" 
d="M72 0h-42l97 500h42l-43 -221h70l21 109h39l-21 -109h38l203 221h57l-229 -244v-2l152 -254h-51l-139 240h-38l-22 -111h-39l22 111h-70z" />
    <glyph glyph-name="uni049E" unicode="&#x49e;" horiz-adv-x="573" 
d="M158 533h-105l7 40h106l25 127h43l-25 -127h112l-7 -40h-113l-28 -145h126l265 312h52l-281 -331v-2l158 -367h-47l-148 348h-133l-68 -348h-43z" />
    <glyph glyph-name="uni049F" unicode="&#x49f;" horiz-adv-x="470" 
d="M133 530h-63l8 38h63l26 132h42l-26 -132h136l-8 -38h-136l-44 -227h85l202 197h57l-222 -216v-2l142 -282h-48l-131 264h-92l-52 -264h-42z" />
    <glyph glyph-name="uni04A0" unicode="&#x4a0;" horiz-adv-x="709" 
d="M232 0h-43l129 660h-231l8 40h274l-61 -312h130l257 312h56l-281 -336v-2l159 -362h-48l-151 348h-130z" />
    <glyph glyph-name="uni04A1" unicode="&#x4a1;" horiz-adv-x="531" 
d="M134 0h-42l90 462h-141l7 38h183l-43 -221h86l205 221h56l-228 -243v-2l151 -255h-52l-138 240h-87z" />
    <glyph glyph-name="uni04A2" unicode="&#x4a2;" horiz-adv-x="764" 
d="M93 0h-43l136 700h43l-64 -329h444l64 329h43l-128 -660h86l-35 -180h-42l27 140h-87l64 331h-444z" />
    <glyph glyph-name="uni04A3" unicode="&#x4a3;" horiz-adv-x="601" 
d="M72 0h-42l97 500h42l-44 -223h327l44 223h42l-90 -461h75l-31 -159h-42l24 120h-75l46 238h-327z" />
    <glyph glyph-name="uni04A4" unicode="&#x4a4;" horiz-adv-x="916" 
d="M92 0h-43l137 700h43l-64 -329h394l64 329h353l-8 -40h-310l-129 -660h-43l65 331h-394z" />
    <glyph glyph-name="uni04A5" unicode="&#x4a5;" horiz-adv-x="707" 
d="M72 0h-42l97 500h42l-43 -223h287l43 223h264l-7 -38h-222l-90 -462h-42l46 238h-287z" />
    <glyph glyph-name="uni04A6" unicode="&#x4a6;" horiz-adv-x="989" 
d="M93 0h-43l136 700h457l-61 -312c52 26 107 39 164 39c115 0 178 -57 178 -197c0 -87 -23 -177 -68 -260s-128 -140 -231 -140l8 41c85 1 154 55 191 130s56 155 56 230c0 99 -35 156 -143 156c-51 0 -105 -15 -164 -44l-66 -343h-43l128 660h-371z" />
    <glyph glyph-name="uni04A7" unicode="&#x4a7;" horiz-adv-x="779" 
d="M72 0h-42l97 500h341l-45 -233c44 22 89 33 134 33c99 0 148 -55 148 -164c0 -65 -17 -129 -52 -192s-82 -112 -143 -149l-21 33c51 31 92 75 124 132c33 57 49 116 49 175c0 83 -38 124 -115 124c-45 0 -89 -13 -134 -39l-42 -220h-42l89 461h-257z" />
    <glyph glyph-name="uni04A8" unicode="&#x4a8;" horiz-adv-x="913" 
d="M67 285c1 264 202 394 333 424l13 -38c-68 -16 -136 -56 -197 -117s-104 -160 -104 -269c0 -73 23 -134 68 -183c46 -49 109 -73 188 -73c43 0 89 8 137 25c-91 55 -141 152 -141 272c0 107 42 207 102 271c61 64 140 103 215 103c117 0 197 -82 197 -219
c0 -88 -26 -170 -78 -246c-51 -75 -117 -135 -197 -180c32 -10 69 -15 111 -15h74l-7 -40h-67c-61 0 -115 10 -162 30c-63 -28 -125 -42 -184 -42c-92 0 -165 28 -220 83c-54 56 -81 127 -81 214zM409 326c0 -111 50 -204 145 -252c80 39 146 94 199 167s80 153 80 239
c0 115 -68 179 -152 179c-57 0 -121 -29 -177 -82c-55 -52 -95 -144 -95 -251z" />
    <glyph glyph-name="uni04A9" unicode="&#x4a9;" horiz-adv-x="772" 
d="M44 237c0 69 22 127 66 176c45 49 97 82 157 98l12 -40c-51 -14 -95 -41 -134 -82c-38 -40 -57 -91 -57 -154c0 -60 20 -109 59 -148s89 -58 150 -58c46 0 93 8 141 25c-86 54 -129 133 -129 238c0 61 21 112 64 155s95 65 158 65c55 0 97 -18 128 -54
c31 -35 47 -79 47 -130c0 -113 -69 -209 -174 -273c33 -10 69 -15 107 -15h45l-8 -40h-44c-54 0 -103 10 -148 30c-63 -28 -127 -42 -191 -42c-76 0 -137 24 -182 71c-45 48 -67 107 -67 178zM353 292c0 -101 44 -173 131 -218c107 53 178 145 178 254c0 38 -11 71 -34 100
s-57 43 -103 43c-44 0 -84 -16 -119 -49s-53 -76 -53 -130z" />
    <glyph glyph-name="uni04AA" unicode="&#x4aa;" horiz-adv-x="720" 
d="M65 286c0 76 20 147 59 213c40 66 92 118 156 156s131 57 202 57c91 0 185 -28 240 -88l-30 -31c-52 52 -122 78 -210 78c-63 0 -124 -17 -181 -51s-103 -81 -138 -141c-35 -59 -53 -124 -53 -193c0 -75 23 -136 68 -185c46 -48 107 -72 182 -72c89 0 186 36 255 95
l25 -33c-32 -29 -73 -53 -122 -72s-98 -29 -146 -31l-24 -128h-42l24 129c-82 7 -147 37 -194 91c-47 55 -71 123 -71 206z" />
    <glyph glyph-name="uni04AB" unicode="&#x4ab;" horiz-adv-x="541" 
d="M39 197c0 91 31 166 94 225c63 60 133 90 211 90c68 0 137 -24 176 -71l-30 -31c-32 37 -88 61 -144 61c-67 0 -127 -26 -182 -77c-54 -51 -81 -116 -81 -193c0 -52 17 -94 50 -125c34 -31 77 -47 128 -47c69 0 130 24 181 72l16 -38c-49 -45 -123 -75 -195 -75h-1
l-20 -108h-42l21 111c-109 15 -182 93 -182 206z" />
    <glyph glyph-name="uni04AC" unicode="&#x4ac;" horiz-adv-x="594" 
d="M304 0h-87l128 660h-261l8 40h565l-8 -40h-261l-120 -620h86l-35 -180h-42z" />
    <glyph glyph-name="uni04AD" unicode="&#x4ad;" horiz-adv-x="471" 
d="M231 0h-75l89 461h-190l8 39h422l-8 -39h-190l-82 -422h75l-31 -159h-42z" />
    <glyph glyph-name="uni04AE" unicode="&#x4ae;" horiz-adv-x="551" 
d="M239 0h-43l60 304l-160 396h46l111 -276l29 -79h2l58 78l219 277h53l-315 -397z" />
    <glyph glyph-name="uni04AF" unicode="&#x4af;" horiz-adv-x="493" 
d="M130 -200l47 239l-109 461h42l84 -359l9 -51h2c9 17 18 34 29 51l224 359h47l-288 -461l-47 -239h-40z" />
    <glyph glyph-name="uni04B0" unicode="&#x4b0;" horiz-adv-x="551" 
d="M249 265h-132l8 39h132l-161 396h46l112 -276l28 -79h2c20 30 39 56 58 79l220 276h52l-314 -396h133l-8 -39h-133l-52 -265h-43z" />
    <glyph glyph-name="uni04B1" unicode="&#x4b1;" horiz-adv-x="492" 
d="M169 0h-114l8 39h114l-107 461h42l83 -359l9 -51h2c9 17 18 34 29 51l221 359h47l-286 -461h114l-8 -39h-114l-39 -200h-40z" />
    <glyph glyph-name="uni04B2" unicode="&#x4b2;" horiz-adv-x="593" 
d="M16 0h-51l297 373l-137 327h46l91 -221l32 -78h2c17 24 36 49 57 76l180 223h54l-270 -334l140 -326h78l-35 -180h-42l27 140h-57l-112 263l-30 75h-2c-14 -21 -32 -45 -55 -73z" />
    <glyph glyph-name="uni04B3" unicode="&#x4b3;" horiz-adv-x="491" 
d="M18 0h-53l233 265l-120 235h48l89 -179l13 -28h1l20 25l157 182h53l-209 -240l114 -221h60l-31 -159h-42l24 120h-38l-103 203l-13 30h-2c-5 -9 -12 -18 -21 -27z" />
    <glyph glyph-name="uni04B4" unicode="&#x4b4;" horiz-adv-x="877" 
d="M737 0h-547l128 660h-231l8 40h505l-8 -40h-231l-120 -620h417l128 660h43l-128 -660h86l-35 -180h-42z" />
    <glyph glyph-name="uni04B5" unicode="&#x4b5;" horiz-adv-x="711" 
d="M575 0h-423l89 461h-186l8 39h414l-8 -39h-186l-82 -422h311l90 461h42l-90 -461h70l-31 -159h-42z" />
    <glyph glyph-name="uni04B6" unicode="&#x4b6;" horiz-adv-x="617" 
d="M252 283c-109 0 -165 54 -165 143c0 19 2 35 5 50l44 224h43l-43 -217c-3 -16 -5 -33 -5 -51c0 -72 41 -108 124 -108c39 0 78 7 116 20c39 14 70 29 94 44l61 312h43l-129 -660h87l-35 -180h-42l27 140h-88l60 304l8 33h-2c-70 -36 -138 -54 -203 -54z" />
    <glyph glyph-name="uni04B7" unicode="&#x4b7;" horiz-adv-x="499" 
d="M194 190c-96 0 -140 44 -140 112c0 12 2 26 5 43l30 155h42l-30 -155c-3 -16 -4 -28 -4 -36c0 -52 32 -78 95 -78c60 0 113 16 158 47l43 222h42l-90 -461h84l-31 -159h-42l24 120h-84l38 196l9 34h-2c-21 -11 -46 -20 -75 -28s-53 -12 -72 -12z" />
    <glyph glyph-name="uni04B8" unicode="&#x4b8;" horiz-adv-x="595" 
d="M259 170h-41l22 113c-103 3 -154 55 -154 143c0 19 2 35 5 50l44 224h43l-43 -217c-3 -16 -5 -33 -5 -51c0 -71 39 -107 118 -108l29 146h41l-29 -144c64 7 122 27 175 62l61 312h43l-137 -700h-43l60 304l8 33h-2c-58 -30 -116 -48 -173 -53z" />
    <glyph glyph-name="uni04B9" unicode="&#x4b9;" horiz-adv-x="482" 
d="M200 109h-39l16 81c-82 5 -123 42 -123 112c0 12 2 26 5 43l30 155h42l-30 -155c-3 -16 -4 -28 -4 -36c0 -50 29 -76 88 -78l25 127h39l-25 -125c48 5 90 20 126 45l43 222h42l-97 -500h-42l38 196l9 34h-2c-35 -20 -77 -33 -125 -39z" />
    <glyph glyph-name="uni04BA" unicode="&#x4ba;" horiz-adv-x="601" 
d="M92 0h-43l137 700h43l-50 -258l-10 -35h2c67 35 136 53 207 53c107 0 162 -52 162 -135c0 -18 -2 -37 -6 -58l-52 -267h-43l51 260c5 22 7 40 7 54c0 70 -41 105 -122 105c-39 0 -79 -7 -118 -20s-71 -26 -95 -41z" />
    <glyph glyph-name="uni04BB" unicode="&#x4bb;" horiz-adv-x="585" 
d="M72 0h-42l136 700h42l-54 -283l-13 -46h2c17 33 46 65 88 95c43 31 91 46 146 46c92 0 139 -45 139 -126c0 -19 -3 -42 -8 -69l-61 -317h-42l58 302c6 31 9 57 9 76c0 61 -37 93 -96 93c-61 0 -116 -23 -166 -70c-49 -47 -80 -102 -93 -167z" />
    <glyph glyph-name="uni04BC" unicode="&#x4bc;" horiz-adv-x="840" 
d="M126 627h46c-29 -65 -44 -114 -44 -149c0 -47 24 -71 71 -71h9c26 87 72 159 138 217c67 59 144 88 233 88c143 0 229 -83 229 -232c0 -27 -5 -64 -14 -113h-550c-33 -157 14 -338 226 -338c85 0 177 30 244 90l24 -36c-59 -55 -158 -95 -265 -95c-89 0 -159 26 -209 77
c-50 52 -75 122 -75 210c0 30 3 61 9 92h-8c-33 0 -59 10 -78 29c-19 20 -28 47 -28 81s14 84 42 150zM255 407h501c5 27 7 50 7 71c0 112 -60 193 -185 193c-73 0 -140 -25 -199 -74s-100 -113 -124 -190z" />
    <glyph glyph-name="uni04BD" unicode="&#x4bd;" horiz-adv-x="648" 
d="M55 342c0 35 11 72 33 113h44c-24 -38 -36 -74 -36 -108c0 -33 17 -50 51 -50h8c20 62 55 113 104 154s106 61 171 61c116 0 174 -70 174 -177c0 -22 -4 -48 -13 -78h-401c-4 -19 -6 -37 -6 -55c0 -101 64 -173 176 -173c59 0 115 21 167 63l16 -38
c-44 -36 -116 -66 -183 -66c-65 0 -119 19 -160 57s-61 89 -61 152c0 18 2 38 5 60h-2c-58 0 -87 28 -87 85zM200 296h355c3 10 4 24 4 42c0 89 -52 135 -129 135c-97 0 -190 -65 -230 -177z" />
    <glyph glyph-name="uni04BE" unicode="&#x4be;" horiz-adv-x="840" 
d="M126 627h46c-29 -65 -44 -114 -44 -149c0 -47 24 -71 71 -71h9c26 87 72 159 138 217c67 59 144 88 233 88c143 0 229 -83 229 -232c0 -27 -5 -64 -14 -113h-550c-33 -157 14 -338 226 -338c85 0 177 30 244 90l24 -36c-59 -55 -158 -95 -265 -95h-7l-24 -128h-42l25 131
c-149 17 -236 125 -236 284c0 30 3 61 9 92h-8c-33 0 -59 10 -78 29c-19 20 -28 47 -28 81s14 84 42 150zM255 407h501c5 27 7 50 7 71c0 112 -60 193 -185 193c-73 0 -140 -25 -199 -74s-100 -113 -124 -190z" />
    <glyph glyph-name="uni04BF" unicode="&#x4bf;" horiz-adv-x="648" 
d="M55 342c0 35 11 72 33 113h44c-24 -38 -36 -74 -36 -108c0 -33 17 -50 51 -50h8c20 62 55 113 104 154s106 61 171 61c116 0 174 -70 174 -177c0 -22 -4 -48 -13 -78h-401c-4 -19 -6 -37 -6 -55c0 -101 64 -173 176 -173c59 0 115 21 167 63l16 -38
c-44 -36 -116 -66 -183 -66h-12l-20 -108h-42l21 113c-103 20 -168 95 -168 204c0 18 2 38 5 60h-2c-58 0 -87 28 -87 85zM200 296h355c3 10 4 24 4 42c0 89 -52 135 -129 135c-97 0 -190 -65 -230 -177z" />
    <glyph glyph-name="uni04C0" unicode="&#x4c0;" horiz-adv-x="256" 
d="M92 0h-43l137 700h43z" />
    <glyph glyph-name="uni04C1" unicode="&#x4c1;" horiz-adv-x="829" 
d="M21 0h-54l300 368v2l-150 330h49l139 -312h107l61 312h43l-61 -312h100l261 312h56l-280 -330v-2l157 -368h-49l-146 348h-107l-68 -348h-43l68 348h-101zM507 734c-56 0 -105 36 -105 89c0 9 2 22 6 38h41c-3 -11 -5 -22 -5 -31c0 -36 28 -56 65 -56c45 0 86 28 94 87
h41c-13 -85 -58 -127 -137 -127z" />
    <glyph glyph-name="uni04C2" unicode="&#x4c2;" horiz-adv-x="689" 
d="M22 0h-55l226 261v2l-113 237h45l107 -224h90l43 224h42l-43 -224h88l186 224h53l-207 -247v-2l127 -251h-49l-118 237h-88l-46 -237h-42l46 237h-89zM405 573c-56 0 -105 36 -105 89c0 9 2 22 6 38h41c-3 -11 -5 -22 -5 -31c0 -36 28 -56 65 -56c45 0 86 28 94 87h41
c-13 -85 -58 -127 -137 -127z" />
    <glyph glyph-name="uni04C3" unicode="&#x4c3;" horiz-adv-x="596" 
d="M93 0h-43l136 700h43l-61 -312c61 0 103 -1 125 -2l263 314h55l-270 -323c105 -24 169 -103 169 -219c0 -54 -12 -106 -35 -156c-23 -49 -58 -90 -103 -123s-95 -49 -150 -49l8 41c67 0 123 29 168 88c46 58 69 124 69 198c0 127 -84 191 -221 191h-85z" />
    <glyph glyph-name="uni04C4" unicode="&#x4c4;" horiz-adv-x="481" 
d="M72 0h-42l97 500h42l-43 -223c39 0 66 -1 82 -2l209 225h58l-220 -232c89 -22 134 -81 134 -176c0 -121 -73 -236 -190 -297l-20 37c49 23 89 58 120 107s47 99 47 152c0 98 -59 147 -178 147h-50z" />
    <glyph glyph-name="uni04C5" unicode="&#x4c5;" horiz-adv-x="672" 
d="M521 0h-78l129 660h-277l-21 -106c-11 -57 -22 -107 -33 -151c-21 -87 -50 -181 -83 -244c-50 -95 -114 -161 -208 -167l8 42c128 17 209 195 273 519l29 147h363l-129 -660h89l-6 -33l-90 -147h-44z" />
    <glyph glyph-name="uni04C6" unicode="&#x4c6;" horiz-adv-x="531" 
d="M-39 -4l7 39c91 16 148 123 187 316l28 149h280l-90 -462h70l-6 -33l-74 -125h-41l65 120h-63l90 461h-196l-21 -110c-47 -240 -121 -346 -236 -355z" />
    <glyph glyph-name="uni04C7" unicode="&#x4c7;" horiz-adv-x="744" 
d="M93 0h-43l136 700h43l-64 -329h444l64 329h43l-133 -686c-24 -123 -90 -184 -198 -184l8 39c24 0 49 6 78 25c31 19 57 63 69 123l61 314h-444z" />
    <glyph glyph-name="uni04C8" unicode="&#x4c8;" horiz-adv-x="586" 
d="M72 0h-42l97 500h42l-43 -223h327l43 223h43l-91 -467c-13 -69 -39 -125 -75 -161c-36 -37 -63 -54 -106 -77l-19 36c87 40 139 107 157 202l40 205h-327z" />
    <glyph glyph-name="uni04C9" unicode="&#x4c9;" horiz-adv-x="762" 
d="M92 0h-43l137 700h43l-64 -329h444l64 329h43l-129 -660h96l-6 -33l-90 -147h-44l78 140h-85l65 331h-444z" />
    <glyph glyph-name="uni04CA" unicode="&#x4ca;" horiz-adv-x="600" 
d="M72 0h-42l97 500h42l-43 -223h327l43 223h42l-90 -462h77l-6 -33l-74 -125h-41l65 120h-70l46 238h-327z" />
    <glyph glyph-name="uni04CB" unicode="&#x4cb;" horiz-adv-x="596" 
d="M252 283c-109 0 -165 54 -165 143c0 19 2 35 5 50l44 224h43l-43 -217c-3 -16 -5 -33 -5 -51c0 -72 41 -108 124 -108c39 0 78 7 116 20c39 14 70 29 94 44l61 312h43l-137 -700h-87l-27 -140h-42l35 180h86l52 264l8 33h-2c-70 -36 -138 -54 -203 -54z" />
    <glyph glyph-name="uni04CC" unicode="&#x4cc;" horiz-adv-x="482" 
d="M248 -120h-42l31 159h66l31 157l9 34h-2c-21 -11 -46 -20 -75 -28s-53 -12 -72 -12c-96 0 -140 44 -140 112c0 12 2 26 5 43l30 155h42l-30 -155c0 -8 -4 -28 -4 -36c0 -52 32 -78 95 -78c60 0 113 16 158 47l43 222h42l-97 -500h-66z" />
    <glyph glyph-name="uni04CD" unicode="&#x4cd;" horiz-adv-x="848" 
d="M65 0h-43l194 700h39l118 -440l19 -79h2c17 29 34 56 49 79l290 440h44l-77 -660h93l-6 -33l-90 -147h-44l78 140h-78l62 534l15 93h-2c-21 -39 -39 -70 -54 -93l-265 -399h-44l-110 399l-20 95h-2c-7 -41 -13 -72 -19 -95z" />
    <glyph glyph-name="uni04CE" unicode="&#x4ce;" horiz-adv-x="724" 
d="M53 0h-42l137 500h38l105 -331l20 -73h2c16 27 32 51 48 73l234 331h42l-53 -462h79l-6 -33l-74 -125h-41l65 120h-69l39 347l16 86h-2c-10 -19 -26 -43 -47 -72l-216 -306h-43l-98 304c-8 24 -16 52 -17 65l-2 9h-2c-7 -41 -13 -70 -18 -86z" />
    <glyph glyph-name="uni04CF" unicode="&#x4cf;" horiz-adv-x="217" 
d="M73 0h-43l137 700h43z" />
    <glyph glyph-name="uni04D0" unicode="&#x4d0;" horiz-adv-x="625" 
d="M23 0h-48l397 700h45l127 -700h-44l-43 242h-297zM343 566l-161 -284h267l-50 284l-12 84h-2c-17 -36 -31 -64 -42 -84zM407 734c-56 0 -105 36 -105 89c0 9 2 22 6 38h41c-3 -11 -5 -22 -5 -31c0 -36 28 -56 65 -56c45 0 86 28 94 87h41c-13 -85 -58 -127 -137 -127z
" />
    <glyph glyph-name="uni04D1" unicode="&#x4d1;" horiz-adv-x="509" 
d="M348 305h39c5 25 7 47 7 64c0 68 -37 102 -112 102c-55 0 -105 -16 -152 -48l-18 38c47 34 104 51 170 51c104 0 156 -46 156 -137c0 -17 -2 -36 -6 -57l-62 -318h-42l13 65l12 46h-2c-15 -30 -40 -58 -75 -84c-34 -26 -73 -39 -118 -39c-43 0 -78 11 -107 34
s-43 53 -43 91s11 70 32 97s50 47 86 60c73 25 142 35 222 35zM52 117c0 -51 38 -90 110 -90c50 0 95 22 135 67s66 94 78 149l5 23h-32c-197 0 -296 -50 -296 -149zM319 573c-56 0 -105 36 -105 89c0 9 2 22 6 38h41c-3 -11 -5 -22 -5 -31c0 -36 28 -56 65 -56
c45 0 86 28 94 87h41c-13 -85 -58 -127 -137 -127z" />
    <glyph glyph-name="uni04D2" unicode="&#x4d2;" horiz-adv-x="625" 
d="M23 0h-48l397 700h45l127 -700h-44l-43 242h-297zM343 566l-161 -284h267l-50 284l-12 84h-2c-17 -36 -31 -64 -42 -84zM502 788h-46l14 73h46zM365 788h-46l14 73h46z" />
    <glyph glyph-name="uni04D3" unicode="&#x4d3;" horiz-adv-x="509" 
d="M348 305h39c5 25 7 47 7 64c0 68 -37 102 -112 102c-55 0 -105 -16 -152 -48l-18 38c47 34 104 51 170 51c104 0 156 -46 156 -137c0 -17 -2 -36 -6 -57l-62 -318h-42l13 65l12 46h-2c-15 -30 -40 -58 -75 -84c-34 -26 -73 -39 -118 -39c-43 0 -78 11 -107 34
s-43 53 -43 91s11 70 32 97s50 47 86 60c73 25 142 35 222 35zM52 117c0 -51 38 -90 110 -90c50 0 95 22 135 67s66 94 78 149l5 23h-32c-197 0 -296 -50 -296 -149zM408 627h-46l14 73h46zM271 627h-46l14 73h46z" />
    <glyph glyph-name="uni04D4" unicode="&#x4d4;" horiz-adv-x="824" 
d="M14 0h-49l423 700h452l-8 -40h-340l-56 -287h279l-8 -40h-279l-57 -293h359l-8 -40h-402l65 333h-170zM413 660l-174 -287h154l56 287h-36z" />
    <glyph glyph-name="uni04D5" unicode="&#x4d5;" horiz-adv-x="869" 
d="M9 113c0 77 42 131 114 155c72 25 135 32 223 32h40c6 33 9 57 9 70c0 67 -39 101 -117 101c-53 0 -102 -16 -147 -48l-18 38c40 29 108 51 165 51c100 0 152 -36 157 -108h2c53 72 124 108 213 108c115 0 175 -69 175 -178c0 -19 -5 -47 -9 -62l-3 -11h-392
c-5 -21 -7 -43 -7 -64c0 -107 65 -168 166 -168c59 0 115 21 168 63l16 -38c-22 -19 -50 -34 -85 -47s-67 -19 -97 -19c-109 0 -187 57 -206 149h-2c-8 -20 -26 -47 -61 -84s-93 -65 -157 -65c-85 0 -147 46 -147 125zM432 300h345c2 14 3 27 3 40c0 89 -54 133 -130 133
c-95 0 -179 -61 -218 -173zM54 116c0 -51 38 -89 109 -89c51 0 95 22 134 65s65 92 77 147l5 22h-69c-171 0 -256 -48 -256 -145z" />
    <glyph glyph-name="uni04D6" unicode="&#x4d6;" horiz-adv-x="553" 
d="M451 0h-402l137 700h383l-9 -40h-339l-56 -287h279l-8 -40h-278l-58 -293h358zM395 734c-56 0 -105 36 -105 89c0 9 2 22 6 38h41c-3 -11 -5 -22 -5 -31c0 -36 28 -56 65 -56c45 0 86 28 94 87h41c-13 -85 -58 -127 -137 -127z" />
    <glyph glyph-name="uni04D7" unicode="&#x4d7;" horiz-adv-x="547" 
d="M38 197c0 83 28 156 84 219c56 64 125 96 207 96c116 0 174 -70 174 -177c0 -22 -4 -48 -13 -78h-401c-4 -19 -6 -38 -6 -55c0 -101 64 -173 176 -173c59 0 115 21 167 63l16 -38c-44 -36 -116 -66 -183 -66c-65 0 -119 19 -160 57s-61 89 -61 152zM99 296h355
c3 10 4 24 4 42c0 89 -52 135 -129 135c-97 0 -190 -65 -230 -177zM351 573c-56 0 -105 36 -105 89c0 9 2 22 6 38h41c-3 -11 -5 -22 -5 -31c0 -36 28 -56 65 -56c45 0 86 28 94 87h41c-13 -85 -58 -127 -137 -127z" />
    <glyph glyph-name="uni04D8" unicode="&#x4d8;" horiz-adv-x="716" 
d="M53 225c0 40 6 89 18 146h550c5 26 7 50 7 73c0 137 -83 227 -226 227c-40 0 -80 -7 -121 -21c-40 -13 -70 -27 -90 -40l-30 -20l-23 34c5 5 12 10 48 30c18 11 37 20 56 27c39 16 102 31 161 31c169 0 270 -102 270 -278c0 -199 -130 -446 -378 -446
c-71 0 -130 20 -175 59s-67 99 -67 178zM98 229c0 -129 66 -199 193 -199c83 0 152 27 209 81c57 55 94 128 113 220h-504c-7 -35 -11 -69 -11 -102z" />
    <glyph glyph-name="uni04D9" unicode="&#x4d9;" horiz-adv-x="549" 
d="M28 165c0 24 6 55 18 94h399c2 6 3 19 3 39c0 101 -64 173 -176 173c-60 0 -115 -21 -165 -62l-18 37c44 36 118 66 185 66c65 0 117 -19 158 -58s61 -91 61 -156c0 -81 -28 -153 -84 -216c-55 -63 -124 -94 -205 -94c-116 0 -176 70 -176 177zM73 162
c0 -89 52 -135 129 -135c49 0 96 17 141 51s77 81 94 142h-356c-5 -18 -8 -37 -8 -58z" />
    <glyph glyph-name="uni04DA" unicode="&#x4da;" horiz-adv-x="714" 
d="M51 233c0 29 5 69 16 118h552c6 24 9 49 9 74c0 68 -20 126 -60 174s-97 72 -170 72c-83 0 -174 -30 -237 -82l-23 35c63 51 162 88 263 88c81 0 146 -27 196 -80s75 -122 75 -207c0 -100 -38 -207 -101 -292s-164 -145 -273 -145c-151 0 -247 88 -247 245zM96 233
c0 -123 66 -203 206 -203c71 0 133 26 188 79s95 120 119 202h-504c-6 -33 -9 -59 -9 -78zM540 788h-46l14 73h46zM403 788h-46l14 73h46z" />
    <glyph glyph-name="uni04DB" unicode="&#x4db;" horiz-adv-x="548" 
d="M422 627h-46l14 73h46zM285 627h-46l14 73h46zM28 165c0 24 6 55 18 94h399c2 6 3 19 3 39c0 101 -64 173 -176 173c-60 0 -115 -21 -165 -62l-18 37c44 36 118 66 185 66c65 0 117 -19 158 -58s61 -91 61 -156c0 -81 -28 -153 -84 -216c-55 -63 -124 -94 -205 -94
c-116 0 -176 70 -176 177zM73 162c0 -89 52 -135 129 -135c49 0 96 17 141 51s77 81 94 142h-356c-5 -18 -8 -37 -8 -58z" />
    <glyph glyph-name="uni04DC" unicode="&#x4dc;" horiz-adv-x="829" 
d="M604 788h-46l14 73h46zM467 788h-46l14 73h46zM21 0h-54l300 368v2l-150 330h49l139 -312h107l61 312h43l-61 -312h100l261 312h56l-280 -330v-2l157 -368h-49l-146 348h-107l-68 -348h-43l68 348h-101z" />
    <glyph glyph-name="uni04DD" unicode="&#x4dd;" horiz-adv-x="689" 
d="M504 627h-46l14 73h46zM367 627h-46l14 73h46zM22 0h-55l226 261v2l-113 237h45l107 -224h90l43 224h42l-43 -224h88l186 224h53l-207 -247v-2l127 -251h-49l-118 237h-88l-46 -237h-42l46 237h-89z" />
    <glyph glyph-name="uni04DE" unicode="&#x4de;" horiz-adv-x="524" 
d="M443 788h-46l14 73h46zM306 788h-46l14 73h46zM-5 76l29 30c36 -51 90 -76 161 -76c61 0 112 18 155 53c43 36 64 81 64 134c0 83 -60 125 -144 125h-89l8 40h71c49 0 93 16 132 48s59 72 59 120c0 69 -45 120 -136 120c-59 0 -113 -19 -163 -57l-21 34
c59 43 119 65 179 65c120 0 186 -59 186 -158c0 -93 -59 -159 -144 -187v-2c71 -21 107 -69 107 -144c0 -66 -25 -121 -76 -166c-50 -45 -110 -67 -180 -67c-76 0 -154 29 -198 88z" />
    <glyph glyph-name="uni04DF" unicode="&#x4df;" horiz-adv-x="429" 
d="M370 627h-46l14 73h46zM233 627h-46l14 73h46zM-12 59l29 31c24 -29 74 -62 134 -62c41 0 76 12 107 35c31 24 47 56 47 97c0 53 -39 80 -116 80h-65l7 39h59c79 0 143 40 143 116c0 51 -40 76 -103 76c-47 0 -90 -16 -127 -47l-23 34c46 36 98 54 157 54
c84 0 141 -40 141 -112c0 -65 -37 -117 -101 -137v-2c49 -13 73 -46 73 -99c0 -51 -19 -93 -57 -126c-38 -32 -84 -48 -137 -48c-75 0 -136 32 -168 71z" />
    <glyph glyph-name="uni04E0" unicode="&#x4e0;" horiz-adv-x="514" 
d="M-7 52l24 36c27 -29 89 -57 152 -57c62 0 116 18 161 54c45 37 68 83 68 139c0 81 -53 121 -185 121h-77l6 34l257 239l52 43l-1 2c-17 -1 -37 -2 -60 -2h-265l8 39h388l-6 -30l-277 -257l-34 -26v-2c89 3 151 -10 186 -39s53 -69 53 -120c0 -66 -26 -122 -79 -168
c-52 -45 -116 -68 -193 -68c-39 0 -76 7 -109 21c-33 15 -56 28 -69 41z" />
    <glyph glyph-name="uni04E1" unicode="&#x4e1;" horiz-adv-x="465" 
d="M-74 -148l24 36c27 -29 89 -57 152 -57c62 0 116 18 161 55c45 36 68 82 68 138c0 81 -53 121 -185 121h-77l6 34l257 239l52 43l-1 2c-17 -1 -37 -2 -60 -2h-265l8 39h388l-6 -30l-277 -257l-34 -26v-2c89 3 151 -10 186 -39s53 -69 53 -120c0 -66 -26 -122 -79 -167
c-52 -46 -116 -69 -193 -69c-39 0 -75 7 -108 22c-33 14 -57 27 -70 40z" />
    <glyph glyph-name="uni04E2" unicode="&#x4e2;" horiz-adv-x="749" 
d="M89 0h-40l137 700h43l-106 -545l-21 -86h2c33 39 59 70 78 91l500 540h40l-137 -700h-43l106 545l21 86h-2c-31 -37 -56 -67 -75 -88zM592 787h-239l7 40h239z" />
    <glyph glyph-name="uni04E3" unicode="&#x4e3;" horiz-adv-x="584" 
d="M69 0h-39l97 500h42l-69 -356l-18 -78h2c29 35 53 62 72 82l342 352h39l-97 -500h-42l69 357l17 75h-2c-28 -33 -52 -59 -71 -79zM479 625h-239l7 40h239z" />
    <glyph glyph-name="uni04E4" unicode="&#x4e4;" horiz-adv-x="749" 
d="M562 788h-46l14 73h46zM425 788h-46l14 73h46zM89 0h-40l137 700h43l-106 -545l-21 -86h2c33 39 59 70 78 91l500 540h40l-137 -700h-43l106 545l21 86h-2c-31 -37 -56 -67 -75 -88z" />
    <glyph glyph-name="uni04E5" unicode="&#x4e5;" horiz-adv-x="584" 
d="M454 627h-46l14 73h46zM317 627h-46l14 73h46zM69 0h-39l97 500h42l-69 -356l-18 -78h2c29 35 53 62 72 82l342 352h39l-97 -500h-42l69 357l17 75h-2c-28 -33 -52 -59 -71 -79z" />
    <glyph glyph-name="uni04E6" unicode="&#x4e6;" horiz-adv-x="826" 
d="M64 288c0 75 20 145 61 210c41 66 94 118 159 156c65 39 133 58 203 58c88 0 160 -27 215 -82s83 -125 83 -210c0 -76 -21 -148 -62 -215s-94 -120 -159 -159s-132 -58 -202 -58c-88 0 -160 28 -215 84s-83 128 -83 216zM109 288c0 -76 23 -138 70 -187
c47 -48 108 -72 183 -72c62 0 122 17 180 52c59 35 106 83 143 144s55 125 55 194c0 74 -24 134 -71 181s-107 71 -182 71c-63 0 -124 -17 -182 -51s-105 -81 -142 -141c-36 -59 -54 -123 -54 -191zM599 788h-46l14 73h46zM462 788h-46l14 73h46z" />
    <glyph glyph-name="uni04E7" unicode="&#x4e7;" horiz-adv-x="620" 
d="M38 205c0 83 31 155 93 216c63 61 134 91 213 91c65 0 118 -20 159 -60s62 -91 62 -154c0 -84 -31 -157 -94 -218s-133 -92 -212 -92c-65 0 -119 20 -160 61s-61 93 -61 156zM82 206c0 -52 16 -95 49 -128s76 -49 128 -49c67 0 127 26 181 79s81 116 81 189
c0 51 -17 92 -50 125s-75 49 -127 49c-68 0 -129 -26 -182 -79c-53 -52 -80 -114 -80 -186zM466 627h-46l14 73h46zM329 627h-46l14 73h46z" />
    <glyph glyph-name="uni04E8" unicode="&#x4e8;" horiz-adv-x="826" 
d="M64 288c0 75 20 145 61 210c41 66 94 118 159 156c65 39 133 58 203 58c88 0 160 -27 215 -82s83 -125 83 -210c0 -76 -21 -148 -62 -215s-94 -120 -159 -159s-132 -58 -202 -58c-88 0 -160 28 -215 84s-83 128 -83 216zM109 288c0 -76 23 -138 70 -187
c47 -48 108 -72 183 -72c81 0 158 29 229 88c72 59 118 131 139 218h-618c-2 -16 -3 -32 -3 -47zM487 671c-82 0 -159 -28 -230 -85s-116 -127 -137 -211h617c2 14 3 29 3 44c0 74 -24 134 -71 181s-107 71 -182 71z" />
    <glyph glyph-name="uni04E9" unicode="&#x4e9;" horiz-adv-x="620" 
d="M38 205c0 83 31 155 93 216c63 61 134 91 213 91c65 0 118 -20 159 -60s62 -91 62 -154c0 -84 -31 -157 -94 -218s-133 -92 -212 -92c-65 0 -119 20 -160 61s-61 93 -61 156zM82 206c0 -52 16 -95 49 -128s76 -49 128 -49c55 0 107 19 156 58s82 88 97 146h-429
c-1 -6 -1 -15 -1 -27zM344 471c-57 0 -109 -19 -158 -57s-81 -85 -96 -142h429c1 11 2 19 2 25c0 51 -17 92 -50 125s-75 49 -127 49z" />
    <glyph glyph-name="uni04EA" unicode="&#x4ea;" horiz-adv-x="826" 
d="M64 288c0 75 20 145 61 210c41 66 94 118 159 156c65 39 133 58 203 58c88 0 160 -27 215 -82s83 -125 83 -210c0 -76 -21 -148 -62 -215s-94 -120 -159 -159s-132 -58 -202 -58c-88 0 -160 28 -215 84s-83 128 -83 216zM109 288c0 -76 23 -138 70 -187
c47 -48 108 -72 183 -72c81 0 158 29 229 88c72 59 118 131 139 218h-618c-2 -16 -3 -32 -3 -47zM487 671c-82 0 -159 -28 -230 -85s-116 -127 -137 -211h617c2 14 3 29 3 44c0 74 -24 134 -71 181s-107 71 -182 71zM463 788h-46l14 73h46zM600 788h-46l14 73h46z" />
    <glyph glyph-name="uni04EB" unicode="&#x4eb;" horiz-adv-x="620" 
d="M38 205c0 83 31 155 93 216c63 61 134 91 213 91c65 0 118 -20 159 -60s62 -91 62 -154c0 -84 -31 -157 -94 -218s-133 -92 -212 -92c-65 0 -119 20 -160 61s-61 93 -61 156zM82 206c0 -52 16 -95 49 -128s76 -49 128 -49c55 0 107 19 156 58s82 88 97 146h-429
c-1 -6 -1 -15 -1 -27zM344 471c-57 0 -109 -19 -158 -57s-81 -85 -96 -142h429c1 11 2 19 2 25c0 51 -17 92 -50 125s-75 49 -127 49zM329 627h-46l14 73h46zM466 627h-46l14 73h46z" />
    <glyph glyph-name="uni04EC" unicode="&#x4ec;" horiz-adv-x="715" 
d="M616 331h-421l8 40h420c3 21 4 38 4 49c0 72 -22 132 -66 179c-43 48 -104 72 -181 72c-88 0 -166 -26 -235 -79l-25 32c64 53 163 88 264 88c87 0 157 -27 210 -82c53 -54 80 -124 80 -209c0 -75 -20 -147 -60 -214c-39 -67 -92 -120 -157 -160
c-65 -39 -135 -59 -208 -59c-96 0 -195 37 -247 106l30 29c44 -56 131 -94 220 -94c82 0 158 29 227 87c70 58 116 130 137 215zM375 788h-46l14 73h46zM512 788h-46l14 73h46z" />
    <glyph glyph-name="uni04ED" unicode="&#x4ed;" horiz-adv-x="537" 
d="M427 230h-274l7 39h275c1 13 2 24 2 32c0 105 -75 170 -176 170c-60 0 -114 -21 -162 -63l-25 32c47 44 119 72 190 72c63 0 115 -20 156 -59s62 -92 62 -157c0 -80 -30 -151 -90 -214c-59 -63 -132 -94 -219 -94c-69 0 -137 27 -176 78l24 34c32 -44 90 -71 155 -71
c59 0 111 19 158 57c47 39 78 87 93 144zM269 627h-46l14 73h46zM406 627h-46l14 73h46z" />
    <glyph glyph-name="uni04EE" unicode="&#x4ee;" horiz-adv-x="578" 
d="M35 30l26 33c27 -23 53 -35 77 -35c47 0 70 30 117 110l-170 562h45l129 -426l23 -92h2l52 92l243 426h50l-353 -606c-41 -71 -88 -106 -141 -106c-31 0 -65 14 -100 42zM501 788h-239l7 40h239z" />
    <glyph glyph-name="uni04EF" unicode="&#x4ef;" horiz-adv-x="518" 
d="M-70 -182l24 33c14 -14 33 -21 58 -21c41 0 79 30 116 89l53 85l-112 496h44l87 -406l9 -47h1l27 47l244 406h48l-379 -620c-37 -60 -83 -90 -138 -90c-31 0 -58 9 -82 28zM446 625h-239l7 40h239z" />
    <glyph glyph-name="uni04F0" unicode="&#x4f0;" horiz-adv-x="578" 
d="M470 788h-46l14 73h46zM333 788h-46l14 73h46zM35 30l26 33c27 -23 53 -35 77 -35c47 0 70 30 117 110l-170 562h45l129 -426l23 -92h2l52 92l243 426h50l-353 -606c-41 -71 -88 -106 -141 -106c-31 0 -65 14 -100 42z" />
    <glyph glyph-name="uni04F1" unicode="&#x4f1;" horiz-adv-x="518" 
d="M-70 -182l24 33c14 -14 33 -21 58 -21c41 0 79 30 116 89l53 85l-112 496h44l87 -406l9 -47h1l27 47l244 406h48l-379 -620c-37 -60 -83 -90 -138 -90c-31 0 -58 9 -82 28zM414 627h-46l14 73h46zM277 627h-46l14 73h46z" />
    <glyph glyph-name="uni04F2" unicode="&#x4f2;" horiz-adv-x="578" 
d="M35 30l26 33c27 -23 53 -35 77 -35c47 0 70 30 117 110l-170 562h45l129 -426l23 -92h2l52 92l243 426h50l-353 -606c-41 -71 -88 -106 -141 -106c-31 0 -65 14 -100 42zM450 750h-48l89 111h60zM338 750h-51l84 111h54z" />
    <glyph glyph-name="uni04F3" unicode="&#x4f3;" horiz-adv-x="518" 
d="M-70 -182l24 33c14 -14 33 -21 58 -21c41 0 79 30 116 89l53 85l-112 496h44l87 -406l9 -47h1l27 47l244 406h48l-379 -620c-37 -60 -83 -90 -138 -90c-31 0 -58 9 -82 28zM387 589h-48l89 111h60zM275 589h-51l84 111h54z" />
    <glyph glyph-name="uni04F4" unicode="&#x4f4;" horiz-adv-x="596" 
d="M468 788h-46l14 73h46zM331 788h-46l14 73h46zM252 283c-109 0 -165 54 -165 143c0 19 2 35 5 50l44 224h43l-43 -217c-3 -16 -5 -33 -5 -51c0 -72 41 -108 124 -108c39 0 78 7 116 20c39 14 70 29 94 44l61 312h43l-137 -700h-43l60 304l8 33h-2
c-70 -36 -138 -54 -203 -54z" />
    <glyph glyph-name="uni04F5" unicode="&#x4f5;" horiz-adv-x="482" 
d="M386 627h-46l14 73h46zM249 627h-46l14 73h46zM194 190c-96 0 -140 44 -140 112c0 12 2 26 5 43l30 155h42l-30 -155c-3 -16 -4 -28 -4 -36c0 -52 32 -78 95 -78c60 0 113 16 158 47l43 222h42l-97 -500h-42l38 196l9 34h-2c-21 -11 -46 -20 -75 -28s-53 -12 -72 -12z
" />
    <glyph glyph-name="uni04F6" unicode="&#x4f6;" horiz-adv-x="480" 
d="M137 0h-87l136 700h353l-8 -40h-310l-120 -620h86l-35 -180h-42z" />
    <glyph glyph-name="uni04F7" unicode="&#x4f7;" horiz-adv-x="399" 
d="M105 0h-75l97 500h284l-8 -38h-242l-82 -423h75l-31 -159h-42z" />
    <glyph glyph-name="uni04F8" unicode="&#x4f8;" horiz-adv-x="784" 
d="M580 788h-46l14 73h46zM443 788h-46l14 73h46zM620 0h-43l137 700h43zM274 0h-225l137 700h43l-59 -300h165c104 0 173 -55 173 -159c0 -71 -23 -129 -70 -174c-46 -45 -101 -67 -164 -67zM162 360l-62 -320h173c53 0 98 18 135 54s55 84 55 145c0 76 -50 121 -129 121
h-172z" />
    <glyph glyph-name="uni04F9" unicode="&#x4f9;" horiz-adv-x="634" 
d="M472 627h-46l14 73h46zM335 627h-46l14 73h46zM490 0h-42l97 500h42zM191 0h-161l97 500h42l-39 -200h109c100 0 150 -41 150 -123c0 -51 -18 -94 -54 -127s-84 -50 -144 -50zM123 261l-44 -222h113c89 0 152 53 152 134c0 59 -35 88 -106 88h-115z" />
    <glyph glyph-name="uni0524" unicode="&#x524;" horiz-adv-x="754" 
d="M93 0h-43l136 700h520l-128 -660h86l-35 -180h-42l27 140h-87l128 660h-434z" />
    <glyph glyph-name="uni0525" unicode="&#x525;" horiz-adv-x="591" 
d="M72 0h-42l97 500h401l-90 -461h75l-31 -159h-42l24 120h-75l89 461h-317z" />
    <glyph glyph-name="uni1E9E" unicode="&#x1e9e;" horiz-adv-x="658" 
d="M87 0h-43l103 528c9 50 33 91 71 123c39 33 84 49 135 49h302l-6 -30l-220 -242l-34 -36v-2c129 0 194 -54 194 -163c0 -46 -15 -89 -44 -130c-29 -40 -66 -68 -111 -83c-28 -9 -68 -14 -119 -14h-132l8 40h126c47 0 80 3 100 10c36 12 66 35 91 68c25 34 37 70 37 109
c0 82 -53 123 -159 123h-59l6 32l198 220l56 58v2c-4 -1 -18 -2 -42 -2h-191c-40 0 -76 -13 -107 -39s-50 -58 -57 -96z" />
    <glyph glyph-name="thinspace" unicode="&#x2009;" horiz-adv-x="10" 
 />
    <glyph glyph-name="endash" unicode="&#x2013;" horiz-adv-x="632" 
d="M548 263h-476l7 40h476z" />
    <glyph glyph-name="emdash" unicode="&#x2014;" horiz-adv-x="832" 
d="M748 263h-676l7 40h676z" />
    <glyph glyph-name="quoteleft" unicode="&#x2018;" horiz-adv-x="230" 
d="M179 557h-54l77 151h41z" />
    <glyph glyph-name="quoteright" unicode="&#x2019;" horiz-adv-x="227" 
d="M168 557h-41l64 151h54z" />
    <glyph glyph-name="quotesinglbase" unicode="&#x201a;" horiz-adv-x="247" 
d="M-5 -90l64 151h54l-77 -151h-41z" />
    <glyph glyph-name="quotedblleft" unicode="&#x201c;" horiz-adv-x="330" 
d="M279 557h-54l77 151h41zM179 557h-54l77 151h41z" />
    <glyph glyph-name="quotedblright" unicode="&#x201d;" horiz-adv-x="327" 
d="M268 557h-41l64 151h54zM168 557h-41l64 151h54z" />
    <glyph glyph-name="quotedblbase" unicode="&#x201e;" horiz-adv-x="347" 
d="M136 -90h-41l64 151h54zM36 -90h-41l64 151h54z" />
    <glyph glyph-name="dagger" unicode="&#x2020;" horiz-adv-x="383" 
d="M143 -50h-42l99 510h-114l8 40h114l38 200h42l-38 -200h119l-8 -40h-119z" />
    <glyph glyph-name="daggerdbl" unicode="&#x2021;" horiz-adv-x="400" 
d="M152 -50h-42l45 236h-114l8 40h114l46 234h-114l8 40h114l38 200h42l-38 -200h119l-8 -40h-119l-46 -234h119l-8 -40h-119z" />
    <glyph glyph-name="bullet" unicode="&#x2022;" horiz-adv-x="443" 
d="M313 197c-25 -25 -56 -38 -93 -38s-68 13 -94 38c-25 26 -38 57 -38 94s13 68 38 93c26 26 57 39 94 39s68 -13 93 -39c26 -25 39 -56 39 -93s-13 -68 -39 -94z" />
    <glyph glyph-name="ellipsis" unicode="&#x2026;" horiz-adv-x="644" 
d="M509 0h-61l13 63h61zM296 0h-61l13 63h61zM83 0h-61l13 63h61z" />
    <glyph glyph-name="perthousand" unicode="&#x2030;" horiz-adv-x="999" 
d="M230 451c-69 0 -114 44 -114 115c0 37 16 70 47 100c31 31 67 46 106 46c68 0 113 -45 113 -113c0 -39 -16 -73 -47 -103s-66 -45 -105 -45zM61 0h-56l662 700h57zM232 491c28 0 53 11 74 32c22 22 33 48 33 77c0 41 -29 72 -72 72c-28 0 -53 -11 -75 -33
s-33 -47 -33 -76c0 -41 29 -72 73 -72zM663 103c0 37 16 70 47 100c31 31 67 46 106 46c68 0 113 -45 113 -113c0 -39 -16 -73 -47 -103s-66 -45 -105 -45c-69 0 -114 44 -114 115zM342 103c0 37 16 70 47 100c31 31 67 46 106 46c68 0 113 -45 113 -113
c0 -39 -16 -73 -47 -103s-66 -45 -105 -45c-69 0 -114 44 -114 115zM706 100c0 -41 29 -72 73 -72c28 0 53 11 74 32c22 22 33 48 33 77c0 41 -29 72 -72 72c-28 0 -53 -11 -75 -33s-33 -47 -33 -76zM385 100c0 -41 29 -72 73 -72c28 0 53 11 74 32c22 22 33 48 33 77
c0 41 -29 72 -72 72c-28 0 -53 -11 -75 -33s-33 -47 -33 -76z" />
    <glyph glyph-name="guilsinglleft" unicode="&#x2039;" horiz-adv-x="327" 
d="M227 77h-48l-128 208l192 203h57l-199 -208z" />
    <glyph glyph-name="guilsinglright" unicode="&#x203a;" horiz-adv-x="325" 
d="M78 77h-57l199 208l-126 203h48l128 -208z" />
    <glyph glyph-name="fraction" unicode="&#x2044;" horiz-adv-x="150" 
d="M346 700l-471 -700h-47l472 700h46z" />
    <glyph glyph-name="zerosuperior" unicode="&#x2070;" horiz-adv-x="376" 
d="M218 413c-81 0 -121 46 -121 138c0 60 13 129 40 197c28 69 84 119 156 119c81 0 121 -47 121 -141c0 -60 -13 -127 -41 -196c-28 -68 -84 -117 -155 -117zM218 449c56 0 101 43 124 102c23 60 33 121 33 174c0 71 -27 106 -82 106c-56 0 -101 -44 -124 -104
s-33 -120 -33 -175c0 -69 27 -103 82 -103z" />
    <glyph glyph-name="foursuperior" unicode="&#x2074;" horiz-adv-x="376" 
d="M304 423h-38l24 121h-218l5 26l278 287h34l-54 -277h68l-7 -36h-68zM137 582v-2h160l28 147l16 65h-2c-15 -18 -30 -35 -45 -50z" />
    <glyph glyph-name="fivesuperior" unicode="&#x2075;" horiz-adv-x="376" 
d="M211 413c-53 0 -104 25 -128 70l33 20c13 -31 50 -54 94 -54c33 0 63 13 90 38c27 26 41 56 41 90c0 51 -39 88 -94 88c-29 0 -58 -9 -86 -27l-24 10l67 209h206l-7 -36h-174l-28 -91l-15 -43h2c20 9 40 14 59 14c80 0 133 -51 133 -124c0 -43 -18 -82 -53 -115
s-73 -49 -116 -49z" />
    <glyph glyph-name="sixsuperior" unicode="&#x2076;" horiz-adv-x="376" 
d="M101 565c0 53 23 125 60 189s103 113 174 113c35 0 63 -7 86 -21l-23 -30c-21 10 -42 15 -63 15c-40 0 -76 -17 -108 -52s-56 -77 -72 -126h2c32 32 72 48 119 48c69 0 114 -43 114 -114c0 -54 -17 -97 -51 -128c-33 -31 -71 -46 -112 -46c-83 0 -126 60 -126 152z
M227 449c36 0 66 13 89 40s35 60 35 97c0 48 -32 79 -83 79c-29 0 -58 -11 -86 -32s-42 -45 -42 -72c0 -59 32 -112 87 -112z" />
    <glyph glyph-name="sevensuperior" unicode="&#x2077;" horiz-adv-x="376" 
d="M142 423h-45l239 333l50 65v2c-13 -1 -32 -2 -55 -2h-176l7 36h279l-5 -26z" />
    <glyph glyph-name="eightsuperior" unicode="&#x2078;" horiz-adv-x="376" 
d="M219 413c-75 0 -131 41 -131 113c0 55 33 103 100 144c-26 21 -39 45 -39 73c0 38 15 68 45 90c31 23 65 34 102 34c67 0 118 -35 118 -95c0 -21 -6 -42 -19 -64c-25 -44 -45 -60 -64 -76c33 -23 50 -50 50 -82c0 -36 -16 -68 -49 -96c-32 -27 -70 -41 -113 -41zM269 664
l31 -14c9 7 19 15 28 24c20 19 47 60 47 96c0 39 -36 61 -80 61c-27 0 -51 -8 -74 -23c-22 -15 -33 -36 -33 -63c0 -19 6 -33 25 -48l23 -16zM219 449c30 0 58 10 84 29s39 43 39 70c0 20 -9 37 -29 50c-9 7 -18 13 -27 18c-16 9 -52 26 -67 34c-61 -33 -92 -74 -92 -123
c0 -47 41 -78 92 -78z" />
    <glyph glyph-name="ninesuperior" unicode="&#x2079;" horiz-adv-x="376" 
d="M89 434l23 30c15 -10 36 -15 63 -15c40 0 76 17 108 52s56 77 72 126h-2c-32 -32 -72 -48 -119 -48c-69 0 -114 43 -114 114c0 54 17 96 50 127c34 31 72 47 113 47c83 0 126 -60 126 -152c0 -53 -23 -125 -60 -189s-103 -113 -174 -113c-34 0 -63 7 -86 21zM242 615
c29 0 58 11 86 32s42 45 42 72c0 59 -32 112 -87 112c-36 0 -66 -14 -89 -41s-35 -59 -35 -96c0 -48 32 -79 83 -79z" />
    <glyph glyph-name="zeroinferior" unicode="&#x2080;" horiz-adv-x="376" 
d="M105 -167c-81 0 -121 46 -121 138c0 60 13 129 40 197c28 69 84 119 156 119c81 0 121 -47 121 -141c0 -60 -13 -127 -41 -195c-28 -69 -84 -118 -155 -118zM105 -131c56 0 101 43 124 103c23 59 33 120 33 173c0 71 -27 106 -82 106c-56 0 -101 -44 -124 -104
s-33 -120 -33 -175c0 -69 27 -103 82 -103z" />
    <glyph glyph-name="oneinferior" unicode="&#x2081;" horiz-adv-x="376" 
d="M224 -157h-227l7 36h96l62 322l6 22h-2c-3 -5 -12 -14 -27 -27l-51 -42l-22 29l112 94h38l-78 -398h93z" />
    <glyph glyph-name="twoinferior" unicode="&#x2082;" horiz-adv-x="376" 
d="M233 -157h-266c2 94 75 145 144 186c71 46 140 80 140 152c0 40 -29 70 -76 70c-33 0 -68 -17 -104 -50l-21 28c31 32 81 58 126 58c75 0 114 -43 114 -104c0 -60 -37 -107 -88 -139c-70 -46 -168 -87 -189 -165h227z" />
    <glyph glyph-name="threeinferior" unicode="&#x2083;" horiz-adv-x="376" 
d="M103 -168c-55 0 -102 22 -140 65l30 24c31 -35 68 -53 111 -53c30 0 57 12 81 35c25 23 37 51 37 84c0 48 -42 78 -91 78h-32l-7 24l133 127l30 25v2c-12 -2 -25 -3 -38 -3h-164l7 36h255l-5 -26l-158 -150c25 -2 50 -12 73 -30c24 -18 36 -46 36 -83
c0 -41 -16 -77 -48 -108c-31 -31 -68 -47 -110 -47z" />
    <glyph glyph-name="fourinferior" unicode="&#x2084;" horiz-adv-x="376" 
d="M191 -157h-38l24 121h-218l5 26l278 287h34l-54 -277h68l-7 -36h-68zM24 2v-2h160l28 147l16 65h-2c-15 -18 -30 -35 -45 -50z" />
    <glyph glyph-name="fiveinferior" unicode="&#x2085;" horiz-adv-x="376" 
d="M98 -167c-53 0 -104 25 -128 70l33 20c13 -31 50 -54 94 -54c33 0 63 13 90 39c27 25 41 55 41 89c0 51 -39 88 -94 88c-29 0 -58 -9 -86 -27l-24 10l67 209h206l-7 -36h-174l-28 -91l-15 -43h2c20 9 40 14 59 14c80 0 133 -51 133 -124c0 -43 -18 -81 -53 -114
s-73 -50 -116 -50z" />
    <glyph glyph-name="sixinferior" unicode="&#x2086;" horiz-adv-x="376" 
d="M-12 -15c0 53 23 125 60 189s103 113 174 113c35 0 63 -7 86 -21l-23 -30c-21 10 -42 15 -63 15c-40 0 -76 -17 -108 -52s-56 -77 -72 -126h2c32 32 72 48 119 48c69 0 114 -43 114 -114c0 -54 -17 -96 -51 -127c-33 -31 -71 -47 -112 -47c-83 0 -126 60 -126 152z
M114 -131c36 0 66 14 89 41s35 59 35 96c0 48 -32 79 -83 79c-29 0 -58 -11 -86 -32s-42 -45 -42 -72c0 -59 32 -112 87 -112z" />
    <glyph glyph-name="seveninferior" unicode="&#x2087;" horiz-adv-x="376" 
d="M30 -158h-45l239 333l50 65v2c-13 -1 -32 -2 -55 -2h-176l7 36h279l-5 -26z" />
    <glyph glyph-name="eightinferior" unicode="&#x2088;" horiz-adv-x="376" 
d="M106 -166c-75 0 -131 41 -131 113c0 54 33 102 100 144c-26 21 -39 45 -39 73c0 38 15 68 45 90c31 23 65 34 102 34c67 0 118 -35 118 -95c0 -21 -6 -42 -19 -64c-25 -44 -45 -60 -64 -76c33 -23 50 -50 50 -82c0 -36 -16 -68 -49 -95c-32 -28 -70 -42 -113 -42zM156 85
l31 -14c9 7 19 15 28 24c20 19 47 60 47 96c0 39 -36 61 -80 61c-27 0 -51 -8 -74 -23c-22 -15 -33 -36 -33 -63c0 -19 6 -33 25 -48l23 -16zM106 -130c30 0 58 10 84 29s39 43 39 70c0 20 -9 37 -29 50c-9 7 -18 13 -27 18c-16 9 -52 26 -67 34c-61 -33 -92 -74 -92 -123
c0 -47 41 -78 92 -78z" />
    <glyph glyph-name="nineinferior" unicode="&#x2089;" horiz-adv-x="376" 
d="M-24 -146l23 30c15 -10 36 -15 63 -15c40 0 76 17 108 52s56 77 72 126h-2c-32 -32 -72 -48 -119 -48c-69 0 -114 43 -114 114c0 54 17 96 50 127c34 31 72 47 113 47c83 0 126 -60 126 -152c0 -53 -23 -125 -60 -189s-103 -113 -174 -113c-34 0 -63 7 -86 21zM129 35
c29 0 58 11 86 32s42 45 42 72c0 59 -32 112 -87 112c-36 0 -66 -14 -89 -41s-35 -59 -35 -96c0 -48 32 -79 83 -79z" />
    <glyph glyph-name="Euro" unicode="&#x20ac;" 
d="M82 273h-60l7 40h55c2 29 8 59 17 89h-54l7 40h61c33 79 85 144 155 194c70 51 145 76 226 76c32 0 63 -4 94 -12l-18 -40c-22 7 -48 10 -77 10c-69 0 -135 -21 -196 -64c-61 -42 -106 -97 -137 -164h328l-15 -40h-328c-9 -28 -16 -58 -19 -89h313l-14 -40h-300
c1 -71 23 -129 65 -175c42 -45 101 -68 178 -68c37 0 67 4 91 13l4 -42c-28 -9 -60 -13 -96 -13c-85 0 -154 26 -207 79s-79 121 -80 206z" />
    <glyph glyph-name="numero" unicode="&#x2116;" horiz-adv-x="1009" 
d="M743 459c0 37 14 70 43 99s62 44 101 44c61 0 106 -44 106 -104c0 -37 -15 -70 -44 -99s-62 -44 -101 -44c-61 0 -105 43 -105 104zM784 461c0 -39 28 -68 67 -68c25 0 48 10 69 31s32 45 32 73c0 39 -28 66 -68 66c-26 0 -49 -10 -70 -31c-20 -20 -30 -44 -30 -71z
M935 243h-226l7 37h226zM86 0h-43l137 700h35l292 -549l40 -88h2c3 35 6 65 11 88l107 549h43l-137 -700h-35l-292 549l-40 88h-2c-3 -35 -6 -65 -11 -88z" />
    <glyph glyph-name="trademark" unicode="&#x2122;" horiz-adv-x="1027" 
d="M574 264h-38l35 436h35l126 -270l14 -40h2c3 13 8 27 14 40l126 270h35l35 -436h-38l-28 328l1 28h-2l-127 -274h-34l-127 274h-2l1 -28zM334 264h-39v398h-160v38h360v-38h-161v-398z" />
    <glyph glyph-name="minus" unicode="&#x2212;" 
d="M525 263h-496v40h496v-40z" />
    <glyph glyph-name="infinity" unicode="&#x221e;" horiz-adv-x="462" 
d="M356 232c-32 -32 -71 -48 -116 -48s-84 16 -117 48c-32 33 -48 72 -48 117s16 84 48 116c33 32 72 48 117 48s84 -16 116 -48s48 -71 48 -116s-16 -84 -48 -117z" />
    <glyph glyph-name="approxequal" unicode="&#x2248;" 
d="M62 321l-25 30c43 44 90 66 141 66c33 0 69 -12 107 -35c39 -23 69 -35 91 -35c40 0 79 19 116 56l25 -30c-43 -44 -90 -66 -141 -66c-33 0 -69 12 -108 35c-38 23 -68 35 -90 35c-40 0 -79 -19 -116 -56zM62 161l-25 30c43 44 90 66 141 66c33 0 69 -12 107 -35
c39 -23 69 -35 91 -35c40 0 79 19 116 56l25 -30c-43 -44 -90 -66 -141 -66c-33 0 -69 12 -108 35c-38 23 -68 35 -90 35c-40 0 -79 -19 -116 -56z" />
    <glyph glyph-name="notequal" unicode="&#x2260;" 
d="M139 67l-33 25l68 91h-126v40h156l91 120h-247v40h277l90 119l33 -25l-71 -94h127v-40h-157l-91 -120h248v-40h-278z" />
    <glyph glyph-name="lessequal" unicode="&#x2264;" 
d="M460 68l-439 197v36l439 197v-48l-377 -166v-2l377 -166v-48zM21 -153v40h439v-40h-439z" />
    <glyph glyph-name="greaterequal" unicode="&#x2265;" 
d="M478 265l-439 -197v48l377 166v2l-377 166v48l439 -197v-36zM38 -153v40h439v-40h-439z" />
    <glyph glyph-name="commaaccent" unicode="&#xf6c3;" horiz-adv-x="335" 
d="M71 -66h48v-13c0 -35 -14 -76 -42 -121h-39c24 41 36 76 36 106c0 9 -1 18 -3 28z" />
    <glyph glyph-name="cyrbreve" unicode="&#xf6d4;" horiz-adv-x="276" 
d="M284 734c-56 0 -105 36 -105 89c0 9 2 22 6 38h41c-3 -11 -5 -22 -5 -31c0 -36 28 -56 65 -56c45 0 86 28 94 87h41c-13 -85 -58 -127 -137 -127z" />
    <glyph glyph-name="apple" unicode="&#xf8ff;" horiz-adv-x="1130" 
d="M432 -146l-265 141v152l-126 72v278l126 71v151l265 142l134 -71l132 71l265 -142v-151l124 -71v-278l-124 -72v-152l-265 -141l-132 71zM207 169v-139l238 -126l121 66l118 -66l238 126v139l114 64v249l-114 66v136l-238 126l-118 -64l-121 64l-238 -126v-136l-114 -66
v-249zM456 -50l-215 114v121l-99 60v225l99 58v123l215 114l110 -59l107 59l214 -114v-123l100 -58v-225l-100 -60v-121l-214 -114l-107 58zM446 551v-460h43v228h228v40h-228v192h199c23 0 29 -8 29 -29v-42h42v54c0 40 -15 57 -58 57h-320v-40h65z" />
    <glyph glyph-name="zero.tnum" 
d="M39 209c0 77 11 163 43 255c16 46 35 87 58 123c47 72 123 125 214 125c125 0 188 -74 188 -223c0 -99 -21 -209 -68 -317c-23 -53 -56 -97 -99 -132s-92 -52 -148 -52c-125 0 -188 74 -188 221zM83 207c0 -118 48 -177 145 -177c77 0 144 49 183 114c20 33 37 71 50 113
c27 85 36 162 36 233c0 120 -48 180 -144 180c-91 0 -167 -66 -208 -162c-40 -95 -62 -201 -62 -301z" />
    <glyph glyph-name="one.tnum" 
d="M416 0h-356l7 40h159l110 565l8 35h-2c-7 -9 -22 -23 -46 -43l-96 -81l-26 32l181 152h43l-129 -660h155z" />
    <glyph glyph-name="two.tnum" 
d="M438 0h-425c1 68 28 125 81 174c27 25 51 46 74 62s53 36 92 59c77 47 127 81 150 101c51 45 77 93 77 146c0 80 -57 128 -138 128c-71 0 -142 -39 -190 -99l-31 26c51 68 136 115 224 115c108 0 180 -66 180 -167c0 -71 -38 -136 -115 -196c-25 -19 -71 -49 -139 -91
c-31 -19 -56 -35 -75 -48c-18 -12 -38 -28 -61 -47c-45 -37 -70 -78 -79 -123h383z" />
    <glyph glyph-name="three.tnum" 
d="M12 85l34 29c49 -56 108 -84 179 -84c52 0 100 20 143 60c44 40 66 88 66 145c0 87 -68 134 -160 134h-52l-6 30l241 229l37 32v2c-13 -1 -31 -2 -54 -2h-283l8 40h401l-6 -30l-277 -261c71 0 196 -33 196 -174c0 -66 -26 -124 -79 -173c-52 -49 -111 -74 -177 -74
c-84 0 -162 34 -211 97z" />
    <glyph glyph-name="four.tnum" 
d="M366 200h-359l6 30l449 470h45l-90 -460h104l-8 -40h-104l-39 -200h-43zM79 241v-1h295l64 328l15 63h-2l-44 -48z" />
    <glyph glyph-name="five.tnum" 
d="M22 89l37 25c37 -56 89 -84 156 -84c60 0 113 21 158 64c46 43 69 93 69 152c0 92 -66 152 -163 152c-48 0 -102 -17 -126 -32l-18 -10l-31 11l105 333h326l-8 -40h-287l-65 -207l-15 -43h2c32 20 73 30 123 30c60 0 109 -18 146 -54c37 -35 56 -82 56 -139
c0 -71 -27 -132 -82 -183c-54 -51 -118 -76 -192 -76c-79 0 -152 37 -191 101z" />
    <glyph glyph-name="six.tnum" 
d="M49 236c0 67 19 151 60 236c21 43 46 83 75 118c59 72 147 122 243 122c46 0 88 -9 126 -28l-26 -37c-27 15 -60 23 -100 23c-79 0 -153 -41 -206 -104c-52 -63 -90 -138 -111 -218h2c49 59 128 96 207 96c113 0 186 -67 186 -178c4 -132 -103 -280 -255 -278
c-129 0 -201 100 -201 248zM94 221c0 -50 13 -94 40 -133s65 -58 113 -58c59 0 110 23 151 68c41 46 62 102 62 168c0 85 -55 136 -144 136c-30 0 -62 -7 -96 -22c-33 -14 -63 -36 -88 -65s-38 -60 -38 -94z" />
    <glyph glyph-name="seven.tnum" 
d="M117 0h-49l408 595l50 65v2c-13 -1 -32 -2 -55 -2h-336l8 40h443l-6 -30z" />
    <glyph glyph-name="eight.tnum" 
d="M27 168c0 52 26 107 54 139c14 17 30 33 48 48c37 31 51 37 64 44c-47 32 -70 72 -70 119c0 51 22 96 65 135c44 39 100 59 169 59c120 0 185 -56 185 -149c0 -53 -28 -113 -64 -156c-36 -41 -56 -61 -71 -72c55 -35 82 -77 82 -127c0 -63 -26 -115 -78 -157
s-112 -63 -181 -63c-58 0 -106 16 -145 47s-58 76 -58 133zM368 356c19 13 37 30 70 67c35 39 58 91 58 140c0 65 -55 107 -139 107c-54 0 -99 -15 -135 -45c-35 -29 -53 -65 -53 -106c0 -33 13 -59 45 -82c17 -11 31 -21 44 -28l56 -28c25 -11 43 -20 54 -25zM73 168
c0 -85 69 -138 157 -138c55 0 104 17 147 50c44 33 66 76 66 127c0 33 -16 61 -49 84c-16 11 -32 21 -47 28c-15 8 -34 18 -59 29c-24 11 -43 21 -56 28c-24 -13 -48 -28 -89 -64c-41 -35 -70 -88 -70 -144z" />
    <glyph glyph-name="nine.tnum" 
d="M29 16l26 37c31 -15 64 -23 100 -23c79 0 153 41 205 104c53 63 91 138 112 218h-2c-49 -59 -128 -96 -207 -96c-113 0 -186 67 -186 178c-4 132 103 280 255 278c129 0 201 -100 201 -248c0 -67 -18 -150 -61 -237c-21 -43 -46 -82 -75 -118
c-57 -71 -146 -121 -242 -121c-49 0 -91 9 -126 28zM263 298c30 0 62 7 96 21c34 15 64 36 90 65s39 61 39 95c0 50 -14 94 -41 133s-64 58 -112 58c-59 0 -110 -23 -151 -69c-41 -45 -62 -101 -62 -167c0 -84 54 -136 141 -136z" />
    <glyph glyph-name="hyphen.case" horiz-adv-x="434" 
d="M361 329h-276l7 40h276z" />
    <glyph glyph-name="parenleft.case" horiz-adv-x="264" 
d="M147 -65h-42c-31 83 -46 171 -46 263c0 204 67 390 201 557h46c-137 -175 -206 -361 -206 -558c0 -91 16 -178 47 -262z" />
    <glyph glyph-name="parenright.case" horiz-adv-x="264" 
d="M24 -65h-46c137 175 206 361 206 558c0 91 -16 178 -47 262h42c31 -83 46 -171 46 -263c0 -204 -67 -390 -201 -557z" />
    <glyph glyph-name="bracketleft.case" horiz-adv-x="264" 
d="M136 -65h-108l159 820h108l-8 -40h-65l-143 -740h65z" />
    <glyph glyph-name="bracketright.case" horiz-adv-x="263" 
d="M-11 -65l8 40h64l143 740h-65l8 40h108l-159 -820h-107z" />
    <glyph glyph-name="braceleft.case" horiz-adv-x="325" 
d="M91 59c0 14 2 34 7 60l18 94c2 12 3 23 3 32c0 47 -22 76 -65 87l8 40c55 11 96 56 108 119l16 81c24 122 81 183 172 183h8l-7 -39h-5c-16 0 -31 -3 -59 -20c-28 -16 -54 -59 -66 -123l-18 -93c-12 -60 -49 -110 -104 -127v-2c33 -19 57 -56 57 -99c0 -9 -1 -18 -3 -28
l-21 -106c-4 -20 -6 -37 -6 -52c0 -85 57 -91 76 -91h5l-8 -39c-2 -1 -5 -1 -9 -1c-17 0 -35 4 -62 20c-27 15 -45 52 -45 104z" />
    <glyph glyph-name="braceright.case" horiz-adv-x="324" 
d="M-15 -26h10c10 0 95 5 120 143l20 105c12 65 49 114 104 130v2c-37 23 -56 55 -56 96c0 9 1 18 3 28l18 94c4 20 6 37 6 52c0 85 -58 91 -76 91h-5l8 39c2 1 5 1 9 1c17 0 35 -4 62 -20c27 -15 45 -52 45 -104c0 -14 -2 -34 -7 -60l-16 -82c-2 -12 -3 -23 -3 -32
c0 -44 24 -78 65 -87l-8 -40c-57 -12 -97 -59 -108 -119l-18 -93c-25 -123 -82 -184 -172 -184h-8z" />
    <glyph glyph-name="at.case" horiz-adv-x="759" 
d="M67 281c0 75 20 146 61 213c41 68 93 122 158 161c65 40 131 60 200 60c143 0 205 -60 205 -147c0 -11 -1 -23 -3 -35l-66 -339h70l-8 -40h-257c-49 0 -90 15 -121 46s-46 70 -46 117c0 59 23 111 70 157c47 47 100 70 157 70h158c1 9 2 17 2 22c0 64 -46 109 -157 109
c-99 0 -187 -40 -264 -119c-76 -79 -114 -170 -114 -275c0 -74 23 -135 69 -183c47 -48 108 -72 183 -72l-8 -41c-83 0 -152 28 -207 84s-82 127 -82 212zM305 318c0 -72 52 -124 127 -124h145l60 310h-143c-49 0 -92 -19 -131 -57c-39 -37 -58 -80 -58 -129z" />
    <glyph glyph-name="guillemotleft.case" horiz-adv-x="489" 
d="M394 137h-48l-128 208l204 203h57l-211 -208zM239 137h-48l-128 208l192 203h57l-199 -208z" />
    <glyph glyph-name="guillemotright.case" horiz-adv-x="489" 
d="M253 137h-57l199 208l-126 203h48l128 -208zM86 137h-57l211 208l-126 203h48l128 -208z" />
    <glyph glyph-name="guilsinglleft.case" horiz-adv-x="329" 
d="M239 137h-48l-128 208l192 203h57l-199 -208z" />
    <glyph glyph-name="guilsinglright.case" horiz-adv-x="325" 
d="M89 137h-57l199 208l-126 203h48l128 -208z" />
    <glyph glyph-name="endash.case" horiz-adv-x="636" 
d="M561 323h-476l7 40h476z" />
    <glyph glyph-name="emdash.case" horiz-adv-x="834" 
d="M760 323h-676l7 40h676z" />
    <glyph glyph-name="periodcentered.case" horiz-adv-x="217" 
d="M142 315h-61l12 63h61z" />
    <glyph glyph-name="questiondown.case" horiz-adv-x="434" 
d="M348 639h-59l13 61h59zM21 133c0 65 34 121 78 158c62 55 151 108 168 190l9 44h43l-9 -44c-13 -63 -57 -117 -102 -153c-65 -53 -141 -105 -141 -193c0 -61 47 -105 122 -105c48 0 93 14 136 42l17 -37c-47 -31 -99 -47 -155 -47c-103 0 -166 58 -166 145z" />
    <glyph glyph-name="exclamdown.case" horiz-adv-x="248" 
d="M220 639h-59l13 61h59zM88 0h-43l103 525h43z" />
    <glyph glyph-name="bullet.case" horiz-adv-x="442" 
d="M323 257c-25 -25 -56 -38 -93 -38s-68 13 -94 38c-25 26 -38 57 -38 94s13 68 38 93c26 26 57 39 94 39s68 -13 93 -39c26 -25 39 -56 39 -93s-13 -68 -39 -94z" />
    <glyph glyph-name="zero.p_osf" horiz-adv-x="583" 
d="M50 201c0 55 11 108 34 161s57 98 102 135s96 55 151 55c61 0 108 -20 139 -61c32 -41 48 -92 48 -155c0 -54 -11 -107 -34 -160c-22 -52 -55 -96 -100 -133s-95 -55 -152 -55c-124 0 -188 89 -188 213zM95 204c0 -101 50 -175 146 -175c46 0 88 16 125 48
c76 64 114 164 114 257c0 103 -50 177 -146 177c-147 0 -239 -169 -239 -307z" />
    <glyph glyph-name="one.p_osf" horiz-adv-x="450" 
d="M359 0h-341l8 39h159l78 404l10 48h-2c-12 -8 -27 -17 -44 -26l-128 -70l-15 35l198 110h42l-97 -501h140z" />
    <glyph glyph-name="two.p_osf" horiz-adv-x="525" 
d="M416 0h-405l6 32c153 91 258 163 317 217s89 109 89 164c0 64 -53 98 -129 98c-58 0 -117 -27 -176 -82l-23 33c63 60 130 90 201 90c119 0 172 -61 172 -137c0 -63 -29 -122 -86 -179c-57 -56 -152 -122 -285 -197v-2c13 1 31 2 54 2h272z" />
    <glyph glyph-name="three.p_osf" horiz-adv-x="524" 
d="M-20 -37l34 27c35 -51 88 -77 158 -77c51 0 98 18 142 54c44 35 66 81 66 136c0 80 -67 123 -162 123h-51l-5 32l233 213l37 30v2c-13 -1 -31 -2 -54 -2h-251l7 39h372l-5 -28l-274 -245c41 0 81 -8 124 -31c44 -21 74 -67 74 -130c0 -67 -26 -123 -78 -167
c-51 -45 -110 -67 -177 -67c-77 0 -150 31 -190 91z" />
    <glyph glyph-name="four.p_osf" horiz-adv-x="577" 
d="M332 41h-344l6 29l439 470h38l-89 -460h113l-8 -39h-113l-30 -157h-42zM59 81v-1h281l63 325l15 63h-2c-15 -21 -31 -39 -46 -55z" />
    <glyph glyph-name="five.p_osf" horiz-adv-x="533" 
d="M-8 -24l36 23c28 -47 84 -75 145 -75c57 0 109 19 156 56s71 86 71 147c0 83 -69 132 -157 132c-50 0 -98 -13 -143 -38l-30 10l100 309h315l-7 -39h-277l-60 -186l-15 -40h2c38 17 78 25 120 25c56 0 103 -15 140 -45c38 -29 57 -71 57 -126c0 -73 -28 -132 -83 -177
c-55 -46 -118 -69 -189 -69c-77 0 -148 33 -181 93z" />
    <glyph glyph-name="six.p_osf" horiz-adv-x="586" 
d="M58 218c0 65 19 146 60 226c59 119 166 224 313 224c45 0 87 -9 126 -27l-26 -35c-24 14 -57 21 -100 21c-76 0 -142 -30 -198 -91c-56 -60 -95 -132 -116 -215h2c51 59 128 93 208 93c115 0 188 -64 188 -168c0 -67 -25 -127 -75 -180c-50 -52 -111 -78 -183 -78
c-128 0 -199 93 -199 230zM102 206c0 -46 14 -87 42 -123s66 -54 115 -54c59 0 109 21 150 62c41 42 61 93 61 154c0 80 -56 128 -148 128c-53 0 -103 -17 -150 -51s-70 -73 -70 -116z" />
    <glyph glyph-name="seven.p_osf" horiz-adv-x="497" 
d="M71 -116h-51l388 557l46 60v2c-13 -1 -32 -2 -55 -2h-320l7 39h429l-5 -28z" />
    <glyph glyph-name="eight.p_osf" horiz-adv-x="583" 
d="M42 158c0 60 31 118 74 154c43 37 67 52 87 63c-47 32 -70 70 -70 113c0 47 21 88 64 125s97 56 164 56c115 0 181 -55 181 -140c0 -51 -25 -105 -61 -145s-52 -55 -69 -68c54 -33 81 -73 81 -121c0 -56 -26 -105 -77 -146s-110 -61 -176 -61c-55 0 -101 15 -140 45
c-39 31 -58 72 -58 125zM321 361l54 -25c19 13 35 27 67 62c32 36 55 84 55 129c0 63 -54 101 -137 101c-51 0 -95 -14 -130 -41s-52 -60 -52 -98c0 -31 13 -55 44 -76c16 -11 30 -19 43 -26s32 -15 56 -26zM87 158c0 -39 15 -71 45 -94s66 -35 109 -35c49 0 96 16 140 48
c45 32 67 71 67 116c0 32 -15 58 -48 79c-16 11 -31 21 -45 28s-33 16 -58 27c-24 11 -42 19 -55 26c-25 -12 -48 -27 -88 -60c-39 -33 -67 -83 -67 -135z" />
    <glyph glyph-name="nine.p_osf" horiz-adv-x="571" 
d="M14 -101l26 35c27 -14 60 -21 100 -21c76 0 142 30 198 90c56 61 95 133 116 216h-2c-51 -59 -128 -93 -208 -93c-115 0 -188 64 -188 168c0 67 25 127 75 179c50 53 111 79 183 79c128 0 199 -93 199 -230c0 -65 -18 -146 -61 -227c-57 -117 -165 -224 -312 -223
c-49 0 -91 9 -126 27zM246 167c53 0 103 17 151 51s72 73 72 116c0 46 -14 87 -42 123s-66 54 -115 54c-59 0 -109 -21 -150 -63c-41 -41 -61 -92 -61 -153c0 -80 56 -128 145 -128z" />
    <glyph glyph-name="zero.t_osf" 
d="M38 201c0 55 11 108 34 161s57 98 102 135s96 55 151 55c61 0 108 -20 139 -61c32 -41 48 -92 48 -155c0 -54 -11 -107 -34 -160c-22 -52 -55 -96 -100 -133s-95 -55 -152 -55c-124 0 -188 89 -188 213zM83 204c0 -101 50 -175 146 -175c46 0 88 16 125 48
c76 64 114 164 114 257c0 103 -50 177 -146 177c-147 0 -239 -169 -239 -307z" />
    <glyph glyph-name="one.t_osf" 
d="M414 0h-341l8 39h159l78 404l10 48h-2c-12 -8 -27 -17 -44 -26l-128 -70l-15 35l198 110h42l-97 -501h140z" />
    <glyph glyph-name="two.t_osf" 
d="M433 0h-405l6 32c153 91 258 163 317 217s89 109 89 164c0 64 -53 98 -129 98c-58 0 -117 -27 -176 -82l-23 33c63 60 130 90 201 90c119 0 172 -61 172 -137c0 -63 -29 -122 -86 -179c-57 -56 -152 -122 -285 -197v-2c13 1 31 2 54 2h272z" />
    <glyph glyph-name="three.t_osf" 
d="M-2 -37l34 27c35 -51 88 -77 158 -77c51 0 98 18 142 54c44 35 66 81 66 136c0 80 -67 123 -162 123h-51l-5 32l233 213l37 30v2c-13 -1 -31 -2 -54 -2h-251l7 39h372l-5 -28l-274 -245c41 0 81 -8 124 -31c44 -21 74 -67 74 -130c0 -67 -26 -123 -78 -167
c-51 -45 -110 -67 -177 -67c-77 0 -150 31 -190 91z" />
    <glyph glyph-name="four.t_osf" 
d="M323 41h-344l6 29l439 470h38l-89 -460h113l-8 -39h-113l-30 -157h-42zM50 81v-1h281l63 325l15 63h-2c-15 -21 -31 -39 -46 -55z" />
    <glyph glyph-name="five.t_osf" 
d="M5 -24l36 23c28 -47 84 -75 145 -75c57 0 109 19 156 56s71 86 71 147c0 83 -69 132 -157 132c-50 0 -98 -13 -143 -38l-30 10l100 309h315l-7 -39h-277l-60 -186l-15 -40h2c38 17 78 25 120 25c56 0 103 -15 140 -45c38 -29 57 -71 57 -126c0 -73 -28 -132 -83 -177
c-55 -46 -118 -69 -189 -69c-77 0 -148 33 -181 93z" />
    <glyph glyph-name="six.t_osf" 
d="M45 218c0 65 19 146 60 226c59 119 166 224 313 224c45 0 87 -9 126 -27l-26 -35c-24 14 -57 21 -100 21c-76 0 -142 -30 -198 -91c-56 -60 -95 -132 -116 -215h2c51 59 128 93 208 93c115 0 188 -64 188 -168c0 -67 -25 -127 -75 -180c-50 -52 -111 -78 -183 -78
c-128 0 -199 93 -199 230zM89 206c0 -46 14 -87 42 -123s66 -54 115 -54c59 0 109 21 150 62c41 42 61 93 61 154c0 80 -56 128 -148 128c-53 0 -103 -17 -150 -51s-70 -73 -70 -116z" />
    <glyph glyph-name="seven.t_osf" 
d="M102 -116h-51l388 557l46 60v2c-13 -1 -32 -2 -55 -2h-320l7 39h429l-5 -28z" />
    <glyph glyph-name="eight.t_osf" 
d="M31 158c0 60 31 118 74 154c43 37 67 52 87 63c-47 32 -70 70 -70 113c0 47 21 88 64 125s97 56 164 56c115 0 181 -55 181 -140c0 -51 -25 -105 -61 -145s-52 -55 -69 -68c54 -33 81 -73 81 -121c0 -56 -26 -105 -77 -146s-110 -61 -176 -61c-55 0 -101 15 -140 45
c-39 31 -58 72 -58 125zM310 361l54 -25c19 13 35 27 67 62c32 36 55 84 55 129c0 63 -54 101 -137 101c-51 0 -95 -14 -130 -41s-52 -60 -52 -98c0 -31 13 -55 44 -76c16 -11 30 -19 43 -26s32 -15 56 -26zM76 158c0 -39 15 -71 45 -94s66 -35 109 -35c49 0 96 16 140 48
c45 32 67 71 67 116c0 32 -15 58 -48 79c-16 11 -31 21 -45 28s-33 16 -58 27c-24 11 -42 19 -55 26c-25 -12 -48 -27 -88 -60c-39 -33 -67 -83 -67 -135z" />
    <glyph glyph-name="nine.t_osf" 
d="M8 -101l26 35c27 -14 60 -21 100 -21c76 0 142 30 198 90c56 61 95 133 116 216h-2c-51 -59 -128 -93 -208 -93c-115 0 -188 64 -188 168c0 67 25 127 75 179c50 53 111 79 183 79c128 0 199 -93 199 -230c0 -65 -18 -146 -61 -227c-57 -117 -165 -224 -312 -223
c-49 0 -91 9 -126 27zM240 167c53 0 103 17 151 51s72 73 72 116c0 46 -14 87 -42 123s-66 54 -115 54c-59 0 -109 -21 -150 -63c-41 -41 -61 -92 -61 -153c0 -80 56 -128 145 -128z" />
    <glyph glyph-name="dollar.osf" horiz-adv-x="497" 
d="M8 86l35 27c43 -56 98 -84 165 -84c41 0 77 12 110 35c33 24 50 56 50 96c1 118 -265 103 -264 254c0 49 18 88 55 118c37 31 83 48 137 51l17 85h43l-17 -86c53 -5 96 -25 130 -59l-31 -30c-25 31 -81 51 -134 51c-40 0 -76 -11 -108 -32s-48 -53 -48 -95
c-1 -123 265 -99 264 -257c0 -47 -19 -88 -57 -121s-86 -49 -144 -50l-18 -93h-43l19 96c-64 8 -129 42 -161 94z" />
    <glyph glyph-name="cent.osf" horiz-adv-x="551" 
d="M252 -25h-43l17 84c-108 12 -179 85 -179 196c0 77 27 142 82 195s118 82 190 88l17 86h43l-18 -86c67 -7 118 -33 154 -78l-27 -32c-29 44 -85 70 -149 70c-63 0 -120 -23 -171 -69s-76 -104 -76 -173c0 -96 69 -158 169 -158c61 0 129 28 176 72l17 -37
c-48 -44 -118 -75 -185 -76z" />
    <glyph glyph-name="sterling.osf" horiz-adv-x="577" 
d="M460 0h-458l6 39h66l41 209h-46l7 39h46l25 128c9 49 35 90 78 122s92 48 149 48c61 0 111 -17 152 -52l-32 -30c-31 27 -71 41 -122 41c-99 0 -169 -61 -185 -140l-23 -117h243l-7 -39h-243l-41 -209h351z" />
    <glyph glyph-name="yen.osf" horiz-adv-x="582" 
d="M245 157h-168l8 40h168l6 32l-21 48h-138l8 40h114l-109 258h46l96 -232l31 -76h2c19 28 38 53 56 76l184 232h53l-208 -258h111l-8 -40h-136l-38 -48l-6 -32h165l-8 -40h-165l-30 -157h-43z" />
    <glyph glyph-name="florin.osf" horiz-adv-x="477" 
d="M-117 -122l8 38c14 -3 34 -5 60 -5c25 0 48 5 80 24c32 17 62 61 79 121l78 275h-96l7 38h100l34 122c21 75 59 128 99 149c40 23 69 29 100 29c33 0 62 -3 89 -8l-7 -38c-23 5 -50 7 -81 7c-77 0 -130 -48 -159 -145l-33 -116h132l-7 -38h-136l-81 -284
c-21 -75 -59 -126 -99 -147c-40 -23 -67 -28 -98 -28c-24 0 -47 2 -69 6z" />
    <glyph glyph-name="Euro.osf" horiz-adv-x="604" 
d="M112 208h-73l8 40h64c3 29 7 53 12 73h-62l8 40h68c27 65 69 118 128 160c59 43 131 64 214 64c33 0 65 -5 97 -14l-19 -38c-23 7 -50 10 -79 10c-139 0 -244 -75 -293 -182h301l-17 -40h-300c-7 -21 -12 -46 -14 -73h288l-17 -40h-270c9 -104 86 -178 223 -178
c31 0 61 4 90 13l4 -42c-27 -9 -59 -13 -95 -13c-82 0 -146 21 -191 62c-45 42 -70 95 -75 158z" />
    <glyph glyph-name="zero.numerator" horiz-adv-x="376" 
d="M187 256c-81 0 -121 46 -121 138c0 60 13 129 40 197c28 69 84 119 156 119c81 0 121 -47 121 -141c0 -60 -13 -127 -41 -196c-28 -68 -84 -117 -155 -117zM187 292c56 0 101 43 124 102c23 60 33 121 33 174c0 71 -27 106 -82 106c-56 0 -101 -44 -124 -104
s-33 -120 -33 -175c0 -69 27 -103 82 -103z" />
    <glyph glyph-name="one.numerator" horiz-adv-x="376" 
d="M306 266h-227l7 36h96l62 322l6 22h-2c-3 -5 -12 -14 -27 -27l-51 -42l-22 29l112 94h38l-78 -398h93z" />
    <glyph glyph-name="two.numerator" horiz-adv-x="376" 
d="M316 266h-266c2 94 75 145 144 186c71 46 140 80 140 152c0 40 -29 70 -76 70c-33 0 -68 -17 -104 -50l-21 28c31 32 81 58 126 58c75 0 114 -43 114 -104c0 -60 -37 -107 -88 -139c-70 -46 -168 -87 -189 -165h227z" />
    <glyph glyph-name="three.numerator" horiz-adv-x="376" 
d="M185 256c-55 0 -102 22 -140 65l30 24c31 -35 68 -53 111 -53c30 0 57 12 81 35c25 23 37 51 37 84c0 48 -42 78 -91 78h-32l-7 24l133 127l30 25v2c-12 -2 -25 -3 -38 -3h-164l7 36h255l-5 -26l-158 -150c25 -2 50 -12 73 -30c24 -18 36 -46 36 -83
c0 -41 -16 -77 -48 -108c-31 -31 -68 -47 -110 -47z" />
    </font>
</defs>
</svg>
