<?xml version="1.0" standalone="no"?>
<!DOCTYPE svg PUBLIC "-//W3C//DTD SVG 1.1//EN" "http://www.w3.org/Graphics/SVG/1.1/DTD/svg11.dtd" >
<svg xmlns="http://www.w3.org/2000/svg" xmlns:xlink="http://www.w3.org/1999/xlink" version="1.1">
<metadata>
Created by FontForge 20170910 at Wed Feb  5 03:25:25 2014
 By Jimmy Wärting
Spaced and kerned with iKern.
</metadata>
<defs>
<font id="MuseoSansCyrillic-100" horiz-adv-x="376" >
  <font-face 
    font-family="Museo Sans Cyrillic"
    font-weight="100"
    font-stretch="normal"
    units-per-em="1000"
    panose-1="2 0 0 0 0 0 0 0 0 0"
    ascent="770"
    descent="-230"
    x-height="500"
    cap-height="700"
    bbox="-114 -212 1088 873.75"
    underline-thickness="50"
    underline-position="-100"
    unicode-range="U+0020-FB04"
  />
<missing-glyph horiz-adv-x="510" 
d="M505 0h-500v700h500v-700zM85 650l170 -255l170 255h-340zM455 605l-170 -255l170 -255v510zM55 605v-510l170 255zM255 305l-170 -255h340z" />
    <glyph glyph-name="f_f" unicode="ff" horiz-adv-x="612" 
d="M144 0h-42v462h-63v38h63v20c0 77 25 132 61 155c37 23 65 30 97 30c11 0 20 -1 26 -2v-39c-4 1 -12 2 -23 2c-25 0 -46 -5 -74 -24c-27 -17 -45 -61 -45 -121v-21h263v20c0 77 25 132 61 155c37 23 65 30 97 30c11 0 20 -1 26 -2v-39c-4 1 -12 2 -23 2
c-25 0 -46 -5 -74 -24c-27 -17 -45 -61 -45 -121v-21h137v-38h-137v-462h-42v462h-263v-462z" />
    <glyph glyph-name="fi" unicode="fi" horiz-adv-x="514" 
d="M144 0h-42v462h-63v38h63v20c0 77 25 132 61 155c37 23 65 30 97 30c7 0 15 -1 26 -2v-39c-5 1 -13 2 -23 2c-25 0 -46 -5 -74 -24c-27 -17 -45 -61 -45 -121v-21h284v-500h-42v462h-242v-462zM432 627h-50v73h50v-73z" />
    <glyph glyph-name="fl" unicode="fl" horiz-adv-x="521" 
d="M144 0h-42v459h-63v38h63v23c0 77 25 132 61 155c37 23 65 30 97 30c7 0 15 -1 26 -2v-39c-5 1 -13 2 -23 2c-25 0 -46 -5 -74 -24c-27 -17 -45 -61 -45 -121v-24h137v-38h-137v-459zM381 101v599h42v-586c0 -52 20 -78 59 -78c6 0 11 0 15 1v-39c-5 -1 -11 -2 -18 -2
c-29 0 -98 12 -98 105z" />
    <glyph glyph-name="f_f_i" unicode="ffi" horiz-adv-x="819" 
d="M144 0h-42v462h-63v38h63v20c0 77 25 132 61 155c37 23 65 30 97 30c7 0 15 -1 26 -2v-39c-5 1 -13 2 -23 2c-25 0 -46 -5 -74 -24c-27 -17 -45 -61 -45 -121v-21h263v20c0 77 25 132 61 155c37 23 65 30 97 30c7 0 15 -1 26 -2v-39c-5 1 -13 2 -23 2
c-25 0 -46 -5 -74 -24c-27 -17 -45 -61 -45 -121v-21h284v-500h-42v462h-242v-462h-42v462h-263v-462zM737 627h-50v73h50v-73z" />
    <glyph glyph-name="f_f_l" unicode="ffl" horiz-adv-x="826" 
d="M144 0h-42v462h-63v38h63v20c0 77 25 132 61 155c37 23 65 30 97 30c7 0 15 -1 26 -2v-39c-5 1 -13 2 -23 2c-25 0 -46 -5 -74 -24c-27 -17 -45 -61 -45 -121v-21h263v20c0 77 25 132 61 155c37 23 65 30 97 30c7 0 15 -1 26 -2v-39c-5 1 -13 2 -23 2
c-25 0 -46 -5 -74 -24c-27 -17 -45 -61 -45 -121v-21h137v-38h-137v-462h-42v462h-263v-462zM686 101v599h42v-586c0 -52 20 -78 59 -78c6 0 11 0 15 1v-39c-5 -1 -11 -2 -18 -2c-29 0 -98 12 -98 105z" />
    <glyph glyph-name="f_j" unicode="fj" horiz-adv-x="514" 
d="M144 0h-42v462h-63v38h63v20c0 77 25 132 61 155c37 23 65 30 97 30c7 0 15 -1 26 -2v-39c-5 1 -13 2 -23 2c-25 0 -46 -5 -74 -24c-27 -17 -45 -61 -45 -121v-21h284v-520c0 -77 -25 -132 -62 -155c-36 -24 -65 -30 -97 -30c-5 0 -13 1 -25 2v39c4 -1 11 -2 22 -2
c25 0 47 5 74 24c28 17 46 61 46 121v483h-242v-462zM432 627h-50v73h50v-73z" />
    <glyph glyph-name=".notdef" horiz-adv-x="510" 
d="M505 0h-500v700h500v-700zM85 650l170 -255l170 255h-340zM455 605l-170 -255l170 -255v510zM55 605v-510l170 255zM255 305l-170 -255h340z" />
    <glyph glyph-name="NULL" horiz-adv-x="0" 
 />
    <glyph glyph-name="CR" horiz-adv-x="333" 
 />
    <glyph glyph-name="space" unicode=" " horiz-adv-x="250" 
 />
    <glyph glyph-name="exclam" unicode="!" horiz-adv-x="250" 
d="M146 175h-43v525h43v-525zM155 0h-59v61h59v-61z" />
    <glyph glyph-name="quotedbl" unicode="&#x22;" horiz-adv-x="313" 
d="M230 558h-43v151h43v-151zM126 558h-43v151h43v-151z" />
    <glyph glyph-name="numbersign" unicode="#" horiz-adv-x="731" 
d="M211 0h-43l35 199h-152l7 40h152l39 221h-152l7 40h152l35 200h43l-35 -200h189l35 200h43l-35 -200h149l-7 -40h-149l-39 -221h149l-7 -40h-149l-35 -199h-43l35 199h-189zM292 460l-39 -221h189l39 221h-189z" />
    <glyph glyph-name="dollar" unicode="$" horiz-adv-x="560" 
d="M72 75l29 33c44 -47 118 -78 187 -78c45 0 82 13 111 38c30 25 45 59 45 100c0 193 -361 150 -361 363c0 45 17 84 50 118c34 35 78 55 132 61v95h43v-94c65 -3 120 -25 163 -64l-24 -37c-39 36 -97 60 -153 60c-49 0 -89 -14 -120 -42s-46 -60 -46 -96
c0 -65 56 -111 127 -140c102 -41 236 -90 234 -222c0 -97 -72 -172 -181 -181v-93h-43v93c-79 5 -143 33 -193 86z" />
    <glyph glyph-name="percent" unicode="%" horiz-adv-x="696" 
d="M282 489c-25 -25 -56 -38 -92 -38s-67 13 -92 38s-38 56 -38 92s13 67 38 92c25 26 56 39 92 39s67 -13 92 -39c26 -25 39 -56 39 -92s-13 -67 -39 -92zM110 0h-52l531 700h52zM128 517c33 -35 91 -35 124 0c35 35 35 93 0 128c-33 36 -91 36 -124 0
c-33 -35 -33 -93 0 -128zM414 26c-25 25 -38 56 -38 92s13 67 38 92c25 26 56 39 92 39s67 -13 92 -39c26 -25 39 -56 39 -92s-13 -67 -39 -92c-25 -25 -56 -38 -92 -38s-67 13 -92 38zM444 182c-33 -35 -33 -93 0 -128s91 -35 124 0c35 35 35 93 0 128
c-33 36 -91 36 -124 0z" />
    <glyph glyph-name="ampersand" unicode="&#x26;" horiz-adv-x="656" 
d="M64 191c0 87 49 165 132 188v2c-67 27 -101 79 -101 157c0 103 77 174 204 174c23 0 47 -3 74 -10l-14 -38c-23 5 -44 8 -63 8c-89 0 -156 -53 -156 -133c0 -31 7 -57 28 -89c21 -31 71 -52 143 -52h163v102h43v-102h97v-40h-97v-112c0 -172 -84 -258 -223 -258
c-67 0 -123 19 -166 57c-43 39 -64 87 -64 146zM109 193c0 -93 72 -163 185 -163c120 0 180 72 180 216v112h-161c-135 0 -204 -64 -204 -165z" />
    <glyph glyph-name="quotesingle" unicode="'" horiz-adv-x="209" 
d="M126 558h-43v151h43v-151z" />
    <glyph glyph-name="parenleft" unicode="(" horiz-adv-x="264" 
d="M216 -95h-44c-73 129 -110 272 -110 430c0 139 37 269 110 390h44c-75 -127 -113 -257 -113 -391c0 -154 38 -297 113 -429z" />
    <glyph glyph-name="parenright" unicode=")" horiz-adv-x="264" 
d="M92 -95h-44c75 132 113 275 113 429c0 134 -38 264 -113 391h44c73 -121 110 -251 110 -390c0 -158 -37 -301 -110 -430z" />
    <glyph glyph-name="asterisk" unicode="*" horiz-adv-x="496" 
d="M247 477l-93 -133l-36 25l99 130v2l-156 47l13 42l155 -54l-5 164h47l-5 -164l156 53l14 -41l-157 -47v-2l98 -130l-35 -26l-93 134h-2z" />
    <glyph glyph-name="plus" unicode="+" horiz-adv-x="560" 
d="M259 263h-237v40h237v263h43v-263h236v-40h-236v-263h-43v263z" />
    <glyph glyph-name="comma" unicode="," horiz-adv-x="253" 
d="M94 -94h-42l53 155h56z" />
    <glyph glyph-name="hyphen" unicode="-" horiz-adv-x="432" 
d="M354 263h-276v40h276v-40z" />
    <glyph glyph-name="period" unicode="." horiz-adv-x="217" 
d="M139 0h-61v63h61v-63z" />
    <glyph glyph-name="slash" unicode="/" horiz-adv-x="389" 
d="M90 -42h-44l253 782h44z" />
    <glyph glyph-name="zero" unicode="0" horiz-adv-x="612" 
d="M542 350c0 -241 -79 -362 -236 -362s-236 121 -236 362s79 362 236 362s236 -121 236 -362zM497 350c0 213 -64 320 -191 320s-191 -107 -191 -320c0 -96 11 -167 39 -227s80 -93 152 -93s124 33 152 93s39 131 39 227z" />
    <glyph glyph-name="one" unicode="1" horiz-adv-x="452" 
d="M415 0h-357v40h159v570l1 35h-2c-5 -9 -17 -23 -37 -43l-83 -83l-30 29l151 152h43v-660h155v-40z" />
    <glyph glyph-name="two" unicode="2" horiz-adv-x="555" 
d="M490 0h-426c-2 13 -3 26 -3 37c0 242 373 271 373 483c0 87 -64 150 -163 150c-68 0 -133 -40 -170 -100l-32 22c40 71 119 120 203 120c65 0 116 -19 152 -56c37 -37 55 -83 55 -136c0 -37 -9 -72 -28 -104c-36 -64 -94 -100 -158 -147l-90 -64
c-55 -40 -96 -100 -96 -165h383v-40z" />
    <glyph glyph-name="three" unicode="3" horiz-adv-x="557" 
d="M54 85l32 32c44 -49 116 -87 188 -87c47 0 87 16 122 48c35 33 53 74 53 124c0 52 -19 93 -56 122c-37 30 -80 45 -131 45h-48l-12 30l196 229l31 32v2c-13 -1 -31 -2 -54 -2h-287v40h401v-30l-226 -261c48 0 97 -12 146 -41c51 -29 85 -89 85 -166
c0 -59 -22 -110 -66 -152c-43 -41 -95 -62 -156 -62c-80 0 -161 37 -218 97z" />
    <glyph glyph-name="four" unicode="4" horiz-adv-x="593" 
d="M401 200h-360v30l363 470h40v-460h104v-40h-104v-200h-43v200zM101 242v-2h300v328l3 63h-2c-11 -17 -23 -33 -35 -48z" />
    <glyph glyph-name="five" unicode="5" horiz-adv-x="549" 
d="M58 89l35 27c37 -57 91 -86 162 -86c55 0 101 17 138 52s56 79 56 131c0 53 -19 97 -56 132s-83 53 -138 53c-52 0 -97 -14 -136 -42l-32 11l40 333h325v-40h-287l-25 -209l-7 -43h2c33 21 73 32 120 32c67 0 123 -22 169 -66c47 -44 70 -98 70 -161s-23 -116 -70 -160
c-47 -43 -103 -65 -169 -65c-80 0 -154 37 -197 101z" />
    <glyph glyph-name="six" unicode="6" horiz-adv-x="583" 
d="M66 314c0 91 24 183 69 263s128 135 231 135c44 0 85 -9 123 -28l-21 -39c-29 17 -64 25 -105 25c-51 0 -95 -17 -134 -50c-76 -65 -111 -164 -118 -272h2c39 59 115 96 198 96c63 0 114 -20 154 -61c41 -41 61 -96 61 -165c0 -71 -21 -127 -63 -168
c-41 -41 -92 -62 -152 -62c-75 0 -134 31 -179 94c-44 63 -66 140 -66 232zM316 30c49 0 89 18 119 53c31 36 46 82 46 137c0 112 -69 182 -172 182c-50 0 -95 -14 -135 -43c-39 -29 -59 -64 -59 -106c0 -69 63 -223 201 -223z" />
    <glyph glyph-name="seven" unicode="7" horiz-adv-x="518" 
d="M158 0h-45l292 595l37 65v2c-13 -1 -32 -2 -55 -2h-340v40h443v-30z" />
    <glyph glyph-name="eight" unicode="8" horiz-adv-x="589" 
d="M63 195c0 56 22 109 53 142s51 48 71 60c-60 37 -90 84 -90 142c0 49 18 90 54 123c37 33 87 50 152 50c128 0 208 -72 208 -176c0 -30 -7 -61 -21 -92c-28 -61 -51 -86 -74 -107c69 -39 104 -89 104 -150c0 -55 -22 -102 -66 -141c-43 -39 -96 -58 -159 -58
c-61 0 -115 19 -162 56c-47 38 -70 88 -70 151zM376 356c60 57 90 116 90 177c0 84 -66 137 -163 137c-99 0 -161 -56 -161 -129c0 -40 16 -70 53 -97c19 -13 36 -23 51 -31l66 -30c30 -12 51 -21 64 -27zM108 198c0 -49 19 -90 56 -121s80 -47 129 -47c47 0 89 15 126 44
c37 30 56 67 56 110c0 41 -18 75 -57 100c-19 13 -38 23 -55 31c-17 9 -40 19 -69 31s-51 22 -66 29c-19 -9 -39 -25 -70 -54c-29 -29 -50 -75 -50 -123z" />
    <glyph glyph-name="nine" unicode="9" horiz-adv-x="583" 
d="M94 16l21 39c29 -17 64 -25 103 -25c51 0 96 16 135 49c77 67 112 164 119 273h-2c-39 -59 -115 -96 -198 -96c-63 0 -114 20 -155 61c-40 41 -60 95 -60 162c0 73 21 130 62 171s92 62 153 62c75 0 135 -31 179 -94s66 -140 66 -233c0 -91 -24 -182 -69 -262
s-129 -135 -232 -135c-44 0 -85 9 -122 28zM274 298c52 0 97 15 136 44c39 30 58 62 58 95c0 54 -19 106 -56 157s-84 76 -139 76c-105 0 -171 -78 -171 -191c0 -111 69 -181 172 -181z" />
    <glyph glyph-name="colon" unicode=":" horiz-adv-x="213" 
d="M135 441h-57v59h57v-59zM135 0h-57v59h57v-59z" />
    <glyph glyph-name="semicolon" unicode=";" horiz-adv-x="275" 
d="M180 441h-57v59h57v-59zM119 -94h-41l45 155h52z" />
    <glyph glyph-name="less" unicode="&#x3c;" horiz-adv-x="560" 
d="M487 68l-439 197v36l439 197v-48l-377 -166v-2l377 -166v-48z" />
    <glyph glyph-name="equal" unicode="=" horiz-adv-x="560" 
d="M508 343h-456v40h456v-40zM508 183h-456v40h456v-40z" />
    <glyph glyph-name="greater" unicode="&#x3e;" horiz-adv-x="560" 
d="M512 265l-439 -197v48l377 166v2l-377 166v48l439 -197v-36z" />
    <glyph glyph-name="question" unicode="?" horiz-adv-x="435" 
d="M205 175h-43v44c0 60 28 110 63 143c52 48 116 96 116 179c0 73 -61 129 -146 129c-47 0 -89 -14 -127 -42l-23 34c36 29 96 50 149 50c57 0 103 -16 138 -49c36 -33 54 -74 54 -123c0 -61 -28 -111 -64 -144c-51 -49 -117 -94 -117 -177v-44zM213 0h-59v61h59v-61z" />
    <glyph glyph-name="at" unicode="@" horiz-adv-x="761" 
d="M63 243c0 101 34 187 102 258s149 107 244 107c80 0 139 -17 176 -51s56 -76 56 -126v-344h70v-40h-265c-53 0 -99 19 -137 57c-37 38 -56 84 -56 137c0 54 19 100 56 138c38 39 84 58 137 58h150c-4 76 -58 131 -181 131c-86 0 -159 -32 -218 -95s-89 -139 -89 -230
s29 -167 88 -230c59 -62 132 -93 219 -93v-42c-97 0 -180 36 -249 107s-103 157 -103 258zM451 87h145v310h-143c-43 0 -80 -15 -110 -46s-45 -67 -45 -110s15 -79 44 -109c30 -30 66 -45 109 -45z" />
    <glyph glyph-name="A" unicode="A" horiz-adv-x="624" 
d="M73 0h-46l262 700h46l262 -700h-46l-91 242h-297zM285 566l-107 -284h267l-106 284l-26 84h-2c-10 -36 -19 -64 -26 -84z" />
    <glyph glyph-name="B" unicode="B" horiz-adv-x="608" 
d="M352 0h-245v700h235c52 0 94 -16 127 -48s50 -74 50 -127c0 -73 -30 -124 -91 -153v-2c71 -20 119 -89 119 -177c0 -58 -18 -105 -55 -140s-83 -53 -140 -53zM150 660v-272h191c79 0 133 54 133 137s-53 135 -134 135h-190zM150 348v-308h198c95 0 154 58 154 153
c0 93 -64 155 -155 155h-197z" />
    <glyph glyph-name="C" unicode="C" horiz-adv-x="719" 
d="M60 355c0 102 33 187 98 255s148 102 249 102c104 0 187 -29 250 -88l-26 -32c-56 49 -142 79 -223 79c-89 0 -161 -30 -218 -90c-57 -59 -85 -135 -85 -226c0 -93 28 -170 85 -233c57 -62 131 -93 221 -93c93 0 172 32 237 95l27 -30c-73 -71 -161 -106 -264 -106
s-188 35 -253 106s-98 158 -98 261z" />
    <glyph glyph-name="D" unicode="D" horiz-adv-x="738" 
d="M327 0h-220v700h220c105 0 190 -31 253 -93c64 -62 96 -148 96 -257c0 -110 -32 -196 -95 -258c-63 -61 -148 -92 -254 -92zM150 660v-620h170c95 0 170 27 226 81c57 54 85 130 85 229c0 98 -28 174 -85 228c-56 55 -131 82 -226 82h-170z" />
    <glyph glyph-name="E" unicode="E" horiz-adv-x="556" 
d="M509 0h-402v700h383v-40h-340v-287h279v-40h-279v-293h359v-40z" />
    <glyph glyph-name="F" unicode="F" horiz-adv-x="498" 
d="M150 0h-43v700h353v-40h-310v-292h268v-40h-268v-328z" />
    <glyph glyph-name="G" unicode="G" horiz-adv-x="754" 
d="M60 350c0 101 33 187 100 257s150 105 249 105c97 0 179 -26 244 -79l-26 -33c-52 43 -139 71 -218 71c-87 0 -160 -31 -218 -92c-57 -61 -86 -138 -86 -229s28 -168 84 -229c57 -61 128 -92 214 -92c91 0 180 44 240 115v135h-125v40h168v-319h-43v61l1 30h-2
c-55 -61 -143 -103 -239 -103c-97 0 -179 35 -245 104c-65 70 -98 156 -98 258z" />
    <glyph glyph-name="H" unicode="H" horiz-adv-x="744" 
d="M150 0h-43v700h43v-329h444v329h43v-700h-43v331h-444v-331z" />
    <glyph glyph-name="I" unicode="I" horiz-adv-x="257" 
d="M150 0h-43v700h43v-700z" />
    <glyph glyph-name="J" unicode="J" horiz-adv-x="509" 
d="M35 191v22h43v-23c0 -92 50 -161 143 -161c81 0 145 49 145 161v470h-167v40h210v-509c0 -69 -18 -121 -55 -154c-36 -33 -80 -49 -132 -49s-96 16 -133 49c-36 33 -54 85 -54 154z" />
    <glyph glyph-name="K" unicode="K" horiz-adv-x="570" 
d="M150 0h-43v700h43v-312h130l200 312h52l-215 -330v-2l229 -368h-52l-214 348h-130v-348z" />
    <glyph glyph-name="L" unicode="L" horiz-adv-x="508" 
d="M484 0h-377v700h43v-660h334v-40z" />
    <glyph glyph-name="M" unicode="M" horiz-adv-x="834" 
d="M123 0h-43l56 700h42l204 -440l34 -79h2c12 30 23 56 34 79l204 440h42l56 -700h-43l-43 534l-3 93h-2c-13 -39 -25 -70 -36 -93l-188 -399h-44l-187 399l-37 95h-2c0 -41 -1 -72 -3 -95z" />
    <glyph glyph-name="N" unicode="N" horiz-adv-x="750" 
d="M150 0h-43v700h40l399 -549l57 -88h2c-3 35 -5 65 -5 88v549h43v-700h-40l-399 549l-57 88h-2c3 -35 5 -65 5 -88v-549z" />
    <glyph glyph-name="O" unicode="O" horiz-adv-x="826" 
d="M59 355c0 101 34 185 102 254s152 103 252 103s184 -34 252 -103s102 -153 102 -254c0 -103 -34 -190 -102 -261s-152 -106 -252 -106s-184 35 -252 106s-102 158 -102 261zM104 355c0 -92 29 -169 88 -232s133 -94 221 -94s161 31 220 94s89 140 89 232
c0 90 -30 165 -89 225c-59 61 -132 91 -220 91s-162 -30 -221 -91c-59 -60 -88 -135 -88 -225z" />
    <glyph glyph-name="P" unicode="P" horiz-adv-x="589" 
d="M150 0h-43v700h230c62 0 113 -19 153 -56s60 -86 60 -148c0 -63 -20 -113 -60 -150s-91 -56 -153 -56h-187v-290zM150 660v-330h185c104 0 170 62 170 166s-66 164 -170 164h-185z" />
    <glyph glyph-name="Q" unicode="Q" horiz-adv-x="827" 
d="M60 354c0 101 34 186 101 255c68 69 152 103 251 103c102 0 187 -34 254 -103c68 -69 102 -154 102 -255c0 -99 -31 -182 -92 -249l90 -93l-28 -27l-89 92c-65 -59 -144 -89 -237 -89c-100 0 -184 35 -251 106s-101 158 -101 260zM105 354c0 -91 29 -168 88 -231
s132 -94 219 -94c81 0 151 26 208 78l-90 93l28 27l89 -92c51 61 76 134 76 219c0 91 -30 166 -89 226c-59 61 -133 91 -222 91c-87 0 -160 -30 -219 -91s-88 -136 -88 -226z" />
    <glyph glyph-name="R" unicode="R" horiz-adv-x="607" 
d="M150 0h-43v700h205c56 0 98 -7 126 -21c60 -29 97 -91 97 -168c0 -99 -57 -174 -140 -193v-2c5 -5 10 -14 16 -25l157 -291h-51l-166 310h-201v-310zM150 660v-310h190c91 0 150 65 150 161c0 61 -31 112 -82 135c-21 9 -53 14 -98 14h-160z" />
    <glyph glyph-name="S" unicode="S" horiz-adv-x="524" 
d="M52 75l29 33c52 -52 113 -78 184 -78c93 0 159 55 159 138c0 72 -56 122 -127 151c-100 43 -233 87 -231 213c0 54 20 97 60 130c41 33 91 50 151 50c73 0 132 -22 177 -65l-24 -37c-37 37 -99 60 -155 60c-45 0 -84 -12 -116 -37s-48 -57 -48 -98
c0 -68 57 -115 126 -144c101 -40 233 -87 232 -218c0 -54 -19 -98 -56 -133s-86 -52 -149 -52c-83 0 -154 29 -212 87z" />
    <glyph glyph-name="T" unicode="T" horiz-adv-x="601" 
d="M322 0h-43v660h-261v40h565v-40h-261v-660z" />
    <glyph glyph-name="U" unicode="U" horiz-adv-x="721" 
d="M99 240v460h43v-458c0 -131 85 -213 218 -213s219 82 219 215v456h43v-460c0 -77 -24 -138 -73 -184c-48 -45 -111 -68 -188 -68c-78 0 -141 23 -190 69c-48 46 -72 107 -72 183z" />
    <glyph glyph-name="V" unicode="V" horiz-adv-x="621" 
d="M334 0h-47l-262 700h46l211 -566l27 -84h2c10 34 19 62 27 84l212 566h46z" />
    <glyph glyph-name="W" unicode="W" horiz-adv-x="914" 
d="M279 0h-54l-184 700h45l148 -570l17 -75h2c6 27 12 52 19 75l160 570h48l160 -570l19 -75h2c5 27 11 52 17 75l153 570h45l-189 -700h-54l-148 528l-27 111h-4c-9 -44 -18 -81 -27 -111z" />
    <glyph glyph-name="X" unicode="X" horiz-adv-x="555" 
d="M72 0h-51l226 370l-201 330h52l134 -223l46 -78h2c15 29 29 55 43 78l135 223h52l-203 -330l227 -370h-51l-162 266l-45 75h-2c-14 -27 -28 -53 -42 -76z" />
    <glyph glyph-name="Y" unicode="Y" horiz-adv-x="567" 
d="M305 0h-43v304l-238 396h49l166 -276l43 -79h2c15 30 29 56 43 79l166 276h49l-237 -396v-304z" />
    <glyph glyph-name="Z" unicode="Z" horiz-adv-x="565" 
d="M523 0h-488v34l385 562l48 64v2c-11 -1 -28 -2 -51 -2h-361v40h464v-34l-385 -562l-48 -64v-2c11 1 28 2 51 2h385v-40z" />
    <glyph glyph-name="bracketleft" unicode="[" horiz-adv-x="265" 
d="M206 -95h-108v820h108v-40h-65v-740h65v-40z" />
    <glyph glyph-name="backslash" unicode="\" horiz-adv-x="389" 
d="M343 -42h-44l-253 782h44z" />
    <glyph glyph-name="bracketright" unicode="]" horiz-adv-x="265" 
d="M59 -95v40h65v740h-65v40h108v-820h-108z" />
    <glyph glyph-name="asciicircum" unicode="^" horiz-adv-x="600" 
d="M123 252h-46l197 448h32l197 -448h-46l-167 388z" />
    <glyph glyph-name="underscore" unicode="_" horiz-adv-x="582" 
d="M43 -40v40h496v-40h-496z" />
    <glyph glyph-name="grave" unicode="`" horiz-adv-x="509" 
d="M316 750h-44l-79 111h56z" />
    <glyph glyph-name="a" unicode="a" horiz-adv-x="508" 
d="M41 133c0 72 39 115 94 139c41 17 69 24 116 28c47 5 64 5 100 5h33v17c0 99 -46 149 -137 149c-53 0 -101 -16 -143 -48l-24 34c39 33 105 55 169 55c116 0 177 -65 177 -189v-323h-42v66l4 45h-2c-27 -69 -92 -123 -175 -123c-45 0 -85 12 -119 37s-51 61 -51 108z
M85 136c0 -57 48 -109 128 -109c51 0 93 22 124 65c31 44 47 93 47 147v27h-32c-21 0 -38 0 -51 -1c-13 0 -31 -1 -56 -4c-24 -2 -44 -6 -60 -12c-48 -14 -105 -49 -100 -113z" />
    <glyph glyph-name="b" unicode="b" horiz-adv-x="578" 
d="M129 0h-42v700h42v-260l-4 -41h2c31 69 98 113 181 113c66 0 118 -24 157 -72s59 -111 59 -190s-21 -142 -63 -190c-41 -48 -95 -72 -161 -72c-75 0 -142 45 -173 113h-2c3 -12 4 -27 4 -44v-57zM128 249c0 -60 15 -112 45 -155c31 -43 74 -65 129 -65c51 0 93 20 127 59
c34 40 51 94 51 162c0 67 -16 120 -49 160c-32 41 -74 61 -125 61c-101 0 -178 -74 -178 -222z" />
    <glyph glyph-name="c" unicode="c" horiz-adv-x="540" 
d="M310 512c67 0 136 -24 179 -71l-26 -34c-36 39 -96 64 -153 64c-60 0 -111 -21 -152 -62s-62 -94 -62 -160c0 -65 21 -118 62 -159s92 -61 152 -61c63 0 127 27 167 72l22 -35c-43 -48 -114 -78 -189 -78c-73 0 -134 24 -184 72c-49 49 -74 112 -74 189s25 140 75 189
c51 49 112 74 183 74z" />
    <glyph glyph-name="d" unicode="d" horiz-adv-x="578" 
d="M278 512c76 0 141 -45 173 -113h2c-3 12 -4 26 -4 41v260h42v-700h-42v63l4 38h-2c-29 -65 -93 -113 -181 -113c-66 0 -119 24 -158 72s-58 111 -58 190s21 142 62 190c42 48 96 72 162 72zM98 250c0 -67 16 -120 48 -161c33 -40 75 -60 126 -60c101 0 178 74 178 222
c0 60 -15 112 -46 155c-30 43 -73 65 -128 65c-51 0 -93 -20 -127 -60c-34 -39 -51 -93 -51 -161z" />
    <glyph glyph-name="e" unicode="e" horiz-adv-x="549" 
d="M52 249c0 81 24 145 71 192s105 71 172 71c65 0 115 -22 150 -66c36 -43 54 -97 54 -162c0 -6 -1 -15 -2 -27h-401c0 -70 20 -126 61 -167s92 -61 153 -61s113 21 155 63l23 -35c-44 -41 -114 -69 -178 -69c-73 0 -134 24 -184 72c-49 49 -74 112 -74 189zM99 296h356
c-5 116 -72 177 -161 177c-97 0 -178 -65 -195 -177z" />
    <glyph glyph-name="f" unicode="f" horiz-adv-x="307" 
d="M144 0h-42v459h-63v38h63v23c0 77 25 132 61 155c37 23 65 30 97 30c7 0 15 -1 26 -2v-39c-5 1 -13 2 -23 2c-25 0 -46 -5 -74 -24c-27 -17 -45 -61 -45 -121v-24h137v-38h-137v-459z" />
    <glyph glyph-name="g" unicode="g" horiz-adv-x="571" 
d="M98 -171l20 37c43 -23 88 -35 134 -35c113 0 190 56 190 172v58l4 41h-2c-33 -68 -89 -102 -168 -102c-65 0 -119 24 -160 71s-62 110 -62 187c0 78 19 140 58 185c39 46 92 69 157 69c77 0 146 -33 174 -98h2c-2 5 -3 11 -3 19v67h42v-497c0 -72 -22 -125 -66 -160
c-43 -35 -98 -53 -163 -53c-54 0 -106 13 -157 39zM98 258c0 -133 73 -217 181 -217c97 0 164 65 164 217c0 142 -58 213 -174 213c-108 0 -171 -78 -171 -213z" />
    <glyph glyph-name="h" unicode="h" horiz-adv-x="586" 
d="M129 0h-42v700h42v-288l-4 -41h2c11 32 36 63 73 94s84 47 139 47c123 0 165 -67 165 -195v-317h-42v302c0 40 -2 65 -11 96c-13 45 -46 73 -112 73c-58 0 -108 -21 -149 -64s-61 -96 -61 -161v-246z" />
    <glyph glyph-name="i" unicode="i" horiz-adv-x="216" 
d="M133 627h-50v73h50v-73zM129 0h-42v500h42v-500z" />
    <glyph glyph-name="j" unicode="j" horiz-adv-x="216" 
d="M133 627h-50v73h50v-73zM87 -21v521h42v-520c0 -77 -25 -132 -62 -155c-36 -24 -65 -30 -97 -30c-5 0 -13 1 -25 2v39c4 -1 11 -2 22 -2c25 0 47 5 74 24c28 17 46 61 46 121z" />
    <glyph glyph-name="k" unicode="k" horiz-adv-x="473" 
d="M129 0h-42v700h42v-397h89l162 197h55l-181 -215v-2l198 -283h-53l-181 264h-89v-264z" />
    <glyph glyph-name="l" unicode="l" horiz-adv-x="227" 
d="M87 101v599h42v-586c0 -52 20 -78 59 -78c6 0 11 0 15 1v-39c-5 -1 -11 -2 -18 -2c-29 0 -98 12 -98 105z" />
    <glyph glyph-name="m" unicode="m" horiz-adv-x="918" 
d="M129 0h-42v500h42v-88l-4 -41h2c13 37 38 70 76 98c39 29 77 43 116 43c99 0 147 -45 158 -136h2c15 37 40 68 75 95s74 41 115 41c123 0 167 -67 167 -195v-317h-42v302c0 109 -28 171 -125 171c-52 0 -96 -23 -132 -69s-54 -98 -54 -155v-249h-42v302
c0 40 -1 65 -12 97c-13 44 -44 74 -110 74c-53 0 -98 -23 -135 -69s-55 -98 -55 -155v-249z" />
    <glyph glyph-name="n" unicode="n" horiz-adv-x="586" 
d="M129 0h-42v500h42v-88l-4 -41h2c11 32 36 63 73 94s84 47 139 47c123 0 165 -67 165 -195v-317h-42v302c0 40 -2 65 -11 96c-13 45 -46 73 -112 73c-58 0 -108 -21 -149 -64c-41 -42 -61 -95 -61 -158v-249z" />
    <glyph glyph-name="o" unicode="o" horiz-adv-x="620" 
d="M51 253c0 73 25 134 75 184c51 50 112 75 184 75s133 -25 183 -75c51 -50 76 -111 76 -184c0 -74 -25 -137 -76 -188c-50 -51 -111 -77 -183 -77s-133 26 -184 77c-50 51 -75 114 -75 188zM95 253c0 -63 21 -117 62 -160c42 -43 93 -64 153 -64s111 21 152 64
c42 43 63 97 63 160c0 61 -21 113 -63 155c-41 42 -92 63 -152 63s-111 -21 -153 -63c-41 -42 -62 -94 -62 -155z" />
    <glyph glyph-name="p" unicode="p" horiz-adv-x="578" 
d="M129 -200h-42v700h42v-60l-3 -40h2c29 69 97 112 180 112c66 0 118 -24 157 -72s59 -111 59 -190s-21 -142 -62 -190s-95 -72 -160 -72c-76 0 -143 42 -175 113h-2c3 -12 4 -27 4 -44v-257zM128 249c0 -59 16 -111 47 -155c31 -43 74 -65 127 -65c51 0 93 20 127 59
c34 40 51 94 51 162c0 67 -16 120 -49 160c-32 41 -74 61 -125 61c-101 0 -178 -74 -178 -222z" />
    <glyph glyph-name="q" unicode="q" horiz-adv-x="578" 
d="M278 512c76 0 141 -44 172 -112h2c-2 11 -3 25 -3 40v60h42v-700h-42v257l4 44h-2c-28 -61 -88 -113 -181 -113c-66 0 -119 24 -158 72s-58 111 -58 190s21 142 62 190c42 48 96 72 162 72zM98 250c0 -67 16 -120 48 -161c33 -40 75 -60 126 -60c101 0 178 74 178 222
c0 60 -15 112 -46 155c-30 43 -73 65 -128 65c-51 0 -93 -20 -127 -60c-34 -39 -51 -93 -51 -161z" />
    <glyph glyph-name="r" unicode="r" horiz-adv-x="340" 
d="M129 0h-42v500h42v-95l-4 -41h2c27 81 85 140 160 140c10 0 20 -1 29 -3v-42c-4 1 -12 2 -23 2c-37 0 -68 -14 -94 -41c-52 -55 -70 -129 -70 -204v-216z" />
    <glyph glyph-name="s" unicode="s" horiz-adv-x="430" 
d="M41 60l27 32c40 -42 92 -63 155 -63c65 0 115 35 115 94c0 47 -44 78 -97 98c-78 29 -178 61 -178 156c0 43 15 76 46 99c31 24 69 36 114 36c63 0 113 -18 148 -54l-25 -34c-29 31 -71 47 -126 47c-63 0 -113 -30 -113 -91c0 -48 44 -79 97 -100
c78 -29 178 -60 178 -157c0 -80 -67 -135 -160 -135c-77 0 -137 24 -181 72z" />
    <glyph glyph-name="t" unicode="t" horiz-adv-x="304" 
d="M102 181v278h-66v38h66v142h42v-142h131v-38h-131v-275c0 -61 18 -105 45 -125c27 -19 49 -24 74 -24c10 0 18 1 23 2v-39c-5 -1 -14 -2 -25 -2c-52 0 -159 19 -159 185z" />
    <glyph glyph-name="u" unicode="u" horiz-adv-x="580" 
d="M81 183v317h42v-302c0 -40 2 -65 11 -97c13 -43 46 -72 112 -72c60 0 109 22 147 67c39 45 58 99 58 160v244h42v-500h-42v88l4 41h-2c-11 -32 -35 -64 -72 -95s-82 -46 -135 -46c-119 0 -165 63 -165 195z" />
    <glyph glyph-name="v" unicode="v" horiz-adv-x="496" 
d="M268 0h-40l-197 500h45l154 -392l17 -54h2c5 20 11 38 17 54l154 392h44z" />
    <glyph glyph-name="w" unicode="w" horiz-adv-x="823" 
d="M255 0h-45l-176 500h45l136 -392l17 -54h2l17 54l137 390h47l137 -390l17 -54h2c5 19 11 37 17 54l136 392h45l-176 -500h-45l-139 388l-17 54h-2c-5 -20 -11 -38 -17 -54z" />
    <glyph glyph-name="x" unicode="x" horiz-adv-x="462" 
d="M74 0h-52l180 264l-161 236h51l121 -182l17 -28h2l17 28l121 182h51l-161 -236l180 -264h-52l-138 207l-18 29h-2c-5 -9 -11 -19 -18 -29z" />
    <glyph glyph-name="y" unicode="y" horiz-adv-x="517" 
d="M22 -182l19 36c19 -16 39 -24 62 -24c40 0 73 30 98 90l36 83l-207 497h45l165 -399l18 -47h2c5 15 10 31 17 47l165 399h45l-257 -617c-26 -62 -68 -93 -127 -93c-28 0 -59 12 -71 21z" />
    <glyph glyph-name="z" unicode="z" horiz-adv-x="487" 
d="M448 0h-410v34l303 381l39 46v2c-12 -1 -29 -2 -51 -2h-278v39h386v-34l-304 -381l-40 -46v-2c13 1 30 2 52 2h303v-39z" />
    <glyph glyph-name="braceleft" unicode="{" horiz-adv-x="326" 
d="M132 88v94c0 61 -29 107 -85 119v40c55 12 85 56 85 119v81c0 79 24 135 57 156s55 27 79 27h9v-39h-6c-17 0 -32 -4 -56 -21s-40 -61 -40 -122v-93c0 -56 -28 -104 -79 -127v-2c53 -21 79 -64 79 -127v-106c0 -61 16 -105 40 -122s39 -21 56 -21h6v-39
c-2 -1 -5 -1 -9 -1c-17 0 -33 1 -61 16c-39 18 -73 67 -75 168z" />
    <glyph glyph-name="bar" unicode="|" horiz-adv-x="235" 
d="M139 -155h-43v940h43v-940z" />
    <glyph glyph-name="braceright" unicode="}" horiz-adv-x="326" 
d="M49 -95v39h6c17 0 32 4 56 21s40 61 40 122v106c0 63 26 106 79 127v2c-45 19 -79 67 -79 127v93c0 61 -16 105 -40 122s-39 21 -56 21h-6v39h9c24 0 46 -6 79 -27s57 -77 57 -156v-81c0 -61 30 -107 85 -119v-40c-55 -11 -85 -58 -85 -119v-94c0 -64 -18 -115 -39 -139
c-35 -38 -77 -46 -97 -45z" />
    <glyph glyph-name="asciitilde" unicode="~" horiz-adv-x="593" 
d="M119 213h-40c0 99 46 144 115 144c113 0 114 -110 206 -110c21 0 37 7 49 21c24 28 26 54 26 85h40c0 -99 -46 -144 -115 -144c-113 0 -114 110 -206 110c-21 0 -37 -7 -49 -21c-24 -28 -26 -54 -26 -85z" />
    <glyph glyph-name="uni00A0" unicode="&#xa0;" horiz-adv-x="250" 
 />
    <glyph glyph-name="exclamdown" unicode="&#xa1;" horiz-adv-x="227" 
d="M92 325h43v-525h-43v525zM83 500h59v-61h-59v61z" />
    <glyph glyph-name="cent" unicode="&#xa2;" horiz-adv-x="560" 
d="M312 -13h-43v84c-68 6 -120 35 -156 86c-35 52 -53 116 -53 193s18 141 53 192c36 52 88 81 156 87v83h43v-83c81 -7 143 -55 185 -142l-41 -16c-37 77 -91 116 -163 116c-127 0 -188 -97 -188 -237s61 -237 188 -237c72 0 126 39 163 116l41 -16
c-43 -88 -104 -135 -185 -142v-84z" />
    <glyph glyph-name="sterling" unicode="&#xa3;" horiz-adv-x="560" 
d="M509 0h-459v40h65v293h-45v40h45v162c0 50 19 92 56 126s84 51 141 51c55 0 104 -17 147 -51l-29 -33c-33 28 -73 42 -119 42c-96 0 -153 -60 -153 -139v-158h198v-40h-198v-293h351v-40z" />
    <glyph glyph-name="currency" unicode="&#xa4;" horiz-adv-x="585" 
d="M176 0h-43v190h-74v40h74v80h-74v40h74v350h197c62 0 113 -18 153 -53s60 -82 60 -141s-20 -107 -60 -143c-40 -35 -91 -53 -153 -53h-154v-80h255v-40h-255v-190zM176 660v-310h152c104 0 170 59 170 156s-66 154 -170 154h-152z" />
    <glyph glyph-name="yen" unicode="&#xa5;" horiz-adv-x="560" 
d="M259 222h-163v40h163v42l-29 48h-134v40h110l-185 308h49l166 -276l43 -79h2c15 30 29 56 43 79l166 276h49l-185 -308h108v-40h-132l-28 -48v-42h160v-40h-160v-222h-43v222z" />
    <glyph glyph-name="section" unicode="&#xa7;" horiz-adv-x="387" 
d="M184 62h-42l-67 474c-1 11 -2 19 -2 25c0 43 15 79 44 108c30 29 68 43 114 43c35 0 66 -11 93 -33l-26 -32c-21 16 -43 24 -68 24c-64 0 -113 -45 -113 -113c0 -5 1 -12 2 -21zM63 -29l26 32c20 -16 43 -24 68 -24c64 0 112 45 112 113c0 9 0 16 -1 21l-65 475h42
l67 -474c1 -12 2 -20 2 -25c0 -43 -15 -79 -45 -108s-68 -43 -113 -43c-32 0 -63 11 -93 33z" />
    <glyph glyph-name="dieresis" unicode="&#xa8;" horiz-adv-x="509" 
d="M346 788h-46v73h46v-73zM209 788h-46v73h46v-73z" />
    <glyph glyph-name="copyright" unicode="&#xa9;" horiz-adv-x="835" 
d="M64 350c0 101 34 186 103 256c69 71 152 106 249 106c99 0 183 -35 252 -106c69 -70 104 -155 104 -256s-35 -187 -104 -257s-153 -105 -252 -105c-98 0 -181 35 -250 105c-68 70 -102 156 -102 257zM109 350c0 -91 29 -167 88 -228s132 -92 219 -92c88 0 162 31 221 92
c60 61 90 137 90 228c0 90 -30 166 -90 227c-59 62 -133 93 -221 93c-87 0 -160 -31 -219 -93c-59 -61 -88 -137 -88 -227zM428 560c63 0 126 -35 163 -88l-33 -29c-28 43 -78 74 -129 74c-54 0 -96 -17 -126 -50s-45 -72 -45 -117s15 -85 45 -118s72 -49 126 -49
c51 0 100 30 129 74l33 -29c-33 -51 -100 -88 -163 -88c-67 0 -120 21 -158 62s-57 90 -57 147s19 106 57 148s91 63 158 63z" />
    <glyph glyph-name="ordfeminine" unicode="&#xaa;" horiz-adv-x="423" 
d="M197 382c-60 0 -111 33 -111 93c0 74 65 111 194 111h14v4c0 55 -25 83 -76 83c-30 0 -59 -10 -86 -29l-22 30c30 24 66 36 109 36c76 0 114 -40 114 -120v-202h-39v51h-2c-16 -31 -52 -57 -95 -57zM198 419c29 0 52 12 69 37c18 25 27 53 27 84v10h-13
c-103 0 -154 -24 -154 -71c0 -33 26 -60 71 -60zM336 263h-253v37h253v-37z" />
    <glyph glyph-name="guillemotleft" unicode="&#xab;" horiz-adv-x="494" 
d="M379 77l-164 205l164 206h53l-164 -206l164 -205h-53zM272 77h-53l-164 205l164 206h53l-164 -206z" />
    <glyph glyph-name="logicalnot" unicode="&#xac;" horiz-adv-x="629" 
d="M504 343h-414v40h456v-219h-42v179z" />
    <glyph glyph-name="uni00AD" unicode="&#xad;" horiz-adv-x="432" 
d="M354 263h-276v40h276v-40z" />
    <glyph glyph-name="registered" unicode="&#xae;" horiz-adv-x="835" 
d="M64 350c0 101 34 186 103 256c69 71 152 106 249 106c99 0 183 -35 252 -106c69 -70 104 -155 104 -256s-35 -187 -104 -257s-153 -105 -252 -105c-98 0 -181 35 -250 105c-68 70 -102 156 -102 257zM109 350c0 -91 29 -167 88 -228s132 -92 219 -92c88 0 162 31 221 92
c60 61 90 137 90 228c0 90 -30 166 -90 227c-59 62 -133 93 -221 93c-87 0 -160 -31 -219 -93c-59 -61 -88 -137 -88 -227zM344 150h-44v400h133c68 0 116 -47 116 -116c0 -56 -33 -96 -77 -107v-2c3 -3 7 -11 13 -22l79 -153h-49l-85 167h-86v-167zM344 510v-155h84
c47 0 76 30 76 79c0 48 -29 76 -76 76h-84z" />
    <glyph glyph-name="overscore" unicode="&#xaf;" horiz-adv-x="509" 
d="M374 786h-239v40h239v-40z" />
    <glyph glyph-name="degree" unicode="&#xb0;" horiz-adv-x="388" 
d="M286 487c-25 -25 -56 -38 -92 -38s-67 13 -92 38s-38 56 -38 92s13 67 38 92c25 26 56 39 92 39s67 -13 92 -39c26 -25 39 -56 39 -92s-13 -67 -39 -92zM132 515c33 -35 91 -35 124 0c35 35 35 93 0 128c-33 36 -91 36 -124 0c-33 -35 -33 -93 0 -128z" />
    <glyph glyph-name="plusminus" unicode="&#xb1;" horiz-adv-x="560" 
d="M259 263h-237v40h237v263h43v-263h236v-40h-236v-263h-43v263zM42 -153v40h476v-40h-476z" />
    <glyph glyph-name="twosuperior" unicode="&#xb2;" 
d="M320 423h-266c-1 12 -2 21 -2 27c0 60 35 108 78 139c63 44 143 84 143 155c0 48 -38 87 -91 87c-35 0 -67 -17 -94 -50l-24 26c24 33 71 60 118 60c83 0 130 -54 130 -123c0 -55 -34 -99 -77 -128c-62 -43 -142 -81 -144 -157h229v-36z" />
    <glyph glyph-name="threesuperior" unicode="&#xb3;" 
d="M179 413c-53 0 -107 22 -138 65l28 26c20 -29 63 -55 111 -55c26 0 50 10 71 29c21 20 32 44 32 72c0 57 -51 96 -107 96h-32l-11 24l108 127l25 25v2c-12 -2 -25 -3 -38 -3h-164v36h255v-26l-128 -150c34 -3 64 -14 91 -35s40 -53 40 -96c0 -38 -14 -70 -43 -97
c-28 -27 -61 -40 -100 -40z" />
    <glyph glyph-name="acute" unicode="&#xb4;" horiz-adv-x="509" 
d="M237 750h-44l67 111h56z" />
    <glyph glyph-name="mu" unicode="&#xb5;" horiz-adv-x="578" 
d="M132 39h-2c4 -34 6 -58 6 -72v-167h-42v700h42v-302c0 -51 4 -80 19 -116c16 -35 50 -53 103 -53c61 0 111 22 149 67s57 99 57 160v244h42v-500h-42v83l2 41h-2c-3 -8 -5 -16 -28 -48c-11 -15 -24 -29 -39 -41c-28 -24 -81 -47 -140 -47c-60 0 -102 17 -125 51z" />
    <glyph glyph-name="mu" unicode="&#x3bc;" horiz-adv-x="578" 
d="M132 39h-2c4 -34 6 -58 6 -72v-167h-42v700h42v-302c0 -51 4 -80 19 -116c16 -35 50 -53 103 -53c61 0 111 22 149 67s57 99 57 160v244h42v-500h-42v83l2 41h-2c-3 -8 -5 -16 -28 -48c-11 -15 -24 -29 -39 -41c-28 -24 -81 -47 -140 -47c-60 0 -102 17 -125 51z" />
    <glyph glyph-name="paragraph" unicode="&#xb6;" horiz-adv-x="543" 
d="M324 -50h-42v291c-65 0 -122 22 -169 67s-71 99 -71 163s23 118 70 162c47 45 104 67 169 67h210v-40h-167v-710zM428 -50h-42v647h42v-647z" />
    <glyph glyph-name="middot" unicode="&#xb7;" horiz-adv-x="217" 
d="M139 255h-61v63h61v-63z" />
    <glyph glyph-name="cedilla" unicode="&#xb8;" horiz-adv-x="509" 
d="M221 -92l-12 -1l24 111l32 -5v-8l-12 -65c41 -7 69 -32 69 -68c0 -52 -39 -76 -91 -76c-17 0 -31 1 -44 4v38c11 -3 25 -5 41 -5c36 0 54 12 54 37s-20 38 -61 38z" />
    <glyph glyph-name="onesuperior" unicode="&#xb9;" 
d="M310 423h-227v36h96v325l1 22h-1c-3 -5 -10 -14 -23 -27l-44 -43l-26 27l93 94h38v-398h93v-36z" />
    <glyph glyph-name="ordmasculine" unicode="&#xba;" horiz-adv-x="488" 
d="M80 549c0 45 16 84 47 115c32 31 71 47 116 47s84 -16 115 -47c32 -31 48 -70 48 -115c0 -47 -16 -86 -48 -118c-31 -32 -70 -48 -115 -48s-84 16 -116 48c-31 32 -47 71 -47 118zM367 549c0 72 -55 125 -124 125s-124 -53 -124 -125c0 -73 55 -129 124 -129
s124 56 124 129zM392 263h-294v37h294v-37z" />
    <glyph glyph-name="guillemotright" unicode="&#xbb;" horiz-adv-x="494" 
d="M275 77h-53l164 205l-164 206h53l164 -206zM115 77h-53l164 205l-164 206h53l164 -206z" />
    <glyph glyph-name="onequarter" unicode="&#xbc;" horiz-adv-x="911" 
d="M799 0h-38v121h-215v26l222 287h31v-277h68v-36h-68v-121zM601 159v-2h160v147l3 65h-2c-11 -18 -23 -35 -35 -50zM290 266h-227v36h96v325l1 22h-1c-3 -5 -10 -14 -23 -27l-44 -43l-26 27l93 94h38v-398h93v-36zM630 700l-335 -700h-44l336 700h43z" />
    <glyph glyph-name="onehalf" unicode="&#xbd;" horiz-adv-x="899" 
d="M630 700l-335 -700h-44l336 700h43zM290 266h-227v36h96v325l1 22h-1c-3 -5 -10 -14 -23 -27l-44 -43l-26 27l93 94h38v-398h93v-36zM842 0h-266c-1 12 -2 21 -2 27c0 162 221 170 221 294c0 48 -38 87 -91 87c-35 0 -67 -17 -94 -50l-24 26c24 33 71 60 118 60
c83 0 130 -54 130 -123c0 -55 -34 -99 -77 -128c-62 -43 -142 -81 -144 -157h229v-36z" />
    <glyph glyph-name="threequarters" unicode="&#xbe;" horiz-adv-x="934" 
d="M822 0h-38v121h-215v26l222 287h31v-277h68v-36h-68v-121zM624 159v-2h160v147l3 65h-2c-11 -18 -23 -35 -35 -50zM189 256c-53 0 -107 22 -138 65l28 26c20 -29 63 -55 111 -55c26 0 50 10 71 29c21 20 32 44 32 72c0 57 -51 96 -107 96h-32l-11 24l108 127l25 25v2
c-12 -2 -25 -3 -38 -3h-164v36h255v-26l-128 -150c34 -3 64 -14 91 -35s40 -53 40 -96c0 -38 -14 -70 -43 -97c-28 -27 -61 -40 -100 -40zM653 700l-335 -700h-44l336 700h43z" />
    <glyph glyph-name="questiondown" unicode="&#xbf;" horiz-adv-x="425" 
d="M224 325h43v-44c0 -60 -28 -110 -63 -143c-51 -49 -116 -96 -116 -179c0 -73 61 -129 146 -129c47 0 89 14 127 42l23 -34c-36 -29 -96 -50 -149 -50c-57 0 -103 16 -139 49c-35 33 -53 74 -53 123c0 61 28 111 63 144c53 49 118 95 118 177v44zM216 500h59v-61h-59v61z
" />
    <glyph glyph-name="Agrave" unicode="&#xc0;" horiz-adv-x="624" 
d="M73 0h-46l262 700h46l262 -700h-46l-91 242h-297zM285 566l-107 -284h267l-106 284l-26 84h-2c-10 -36 -19 -64 -26 -84zM334 750h-44l-79 111h56z" />
    <glyph glyph-name="Aacute" unicode="&#xc1;" horiz-adv-x="624" 
d="M73 0h-46l262 700h46l262 -700h-46l-91 242h-297zM285 566l-107 -284h267l-106 284l-26 84h-2c-10 -36 -19 -64 -26 -84zM333 750h-44l67 111h56z" />
    <glyph glyph-name="Acircumflex" unicode="&#xc2;" horiz-adv-x="624" 
d="M73 0h-46l262 700h46l262 -700h-46l-91 242h-297zM285 566l-107 -284h267l-106 284l-26 84h-2c-10 -36 -19 -64 -26 -84zM255 750h-49l80 111h52l80 -111h-49l-56 80h-2z" />
    <glyph glyph-name="Atilde" unicode="&#xc3;" horiz-adv-x="624" 
d="M73 0h-46l262 700h46l262 -700h-46l-91 242h-297zM285 566l-107 -284h267l-106 284l-26 84h-2c-10 -36 -19 -64 -26 -84zM208 753h-40c0 72 28 108 83 108c67 0 79 -74 126 -74c27 0 40 24 40 71h40c0 -72 -28 -108 -83 -108c-67 0 -79 74 -126 74c-27 0 -40 -24 -40 -71
z" />
    <glyph glyph-name="Adieresis" unicode="&#xc4;" horiz-adv-x="624" 
d="M73 0h-46l262 700h46l262 -700h-46l-91 242h-297zM285 566l-107 -284h267l-106 284l-26 84h-2c-10 -36 -19 -64 -26 -84zM404 788h-46v73h46v-73zM267 788h-46v73h46v-73z" />
    <glyph glyph-name="Aring" unicode="&#xc5;" horiz-adv-x="624" 
d="M73 0h-46l262 700h46l262 -700h-46l-91 242h-297zM285 566l-107 -284h267l-106 284l-26 84h-2c-10 -36 -19 -64 -26 -84zM359 759c-25 -25 -68 -25 -95 0c-25 25 -25 71 0 96c27 25 70 25 95 0c27 -25 27 -71 0 -96zM344 807c0 43 -64 43 -64 0c0 -42 64 -42 64 0z" />
    <glyph glyph-name="AE" unicode="&#xc6;" horiz-adv-x="825" 
d="M69 0h-46l287 700h449v-40h-340v-287h279v-40h-279v-293h359v-40h-402v333h-171zM340 660l-118 -287h154v287h-36z" />
    <glyph glyph-name="Ccedilla" unicode="&#xc7;" horiz-adv-x="720" 
d="M378 -92l-12 -1l17 82c-95 7 -173 45 -233 114c-59 69 -89 153 -89 252c0 102 33 187 98 255s148 102 249 102c104 0 187 -29 250 -88l-26 -32c-56 49 -142 79 -223 79c-89 0 -161 -30 -218 -90c-57 -59 -85 -135 -85 -226c0 -93 28 -170 85 -233c57 -62 131 -93 221 -93
c93 0 172 32 237 95l27 -30c-71 -69 -157 -104 -257 -106l-9 -48c41 -7 69 -32 69 -68c0 -52 -39 -76 -91 -76c-17 0 -31 1 -44 4v38c11 -3 25 -5 41 -5c36 0 54 12 54 37s-20 38 -61 38z" />
    <glyph glyph-name="Egrave" unicode="&#xc8;" horiz-adv-x="556" 
d="M509 0h-402v700h383v-40h-340v-287h279v-40h-279v-293h359v-40zM333 750h-44l-79 111h56z" />
    <glyph glyph-name="Eacute" unicode="&#xc9;" horiz-adv-x="556" 
d="M509 0h-402v700h383v-40h-340v-287h279v-40h-279v-293h359v-40zM332 750h-44l67 111h56z" />
    <glyph glyph-name="Ecircumflex" unicode="&#xca;" horiz-adv-x="556" 
d="M254 750h-49l80 111h52l80 -111h-49l-56 80h-2zM509 0h-402v700h383v-40h-340v-287h279v-40h-279v-293h359v-40z" />
    <glyph glyph-name="Edieresis" unicode="&#xcb;" horiz-adv-x="556" 
d="M509 0h-402v700h383v-40h-340v-287h279v-40h-279v-293h359v-40zM403 788h-46v73h46v-73zM266 788h-46v73h46v-73z" />
    <glyph glyph-name="Igrave" unicode="&#xcc;" horiz-adv-x="257" 
d="M151 750h-44l-79 111h56zM150 0h-43v700h43v-700z" />
    <glyph glyph-name="Iacute" unicode="&#xcd;" horiz-adv-x="257" 
d="M150 0h-43v700h43v-700zM150 750h-44l67 111h56z" />
    <glyph glyph-name="Icircumflex" unicode="&#xce;" horiz-adv-x="257" 
d="M72 750h-49l80 111h52l80 -111h-49l-56 80h-2zM150 0h-43v700h43v-700z" />
    <glyph glyph-name="Idieresis" unicode="&#xcf;" horiz-adv-x="257" 
d="M150 0h-43v700h43v-700zM221 788h-46v73h46v-73zM84 788h-46v73h46v-73z" />
    <glyph glyph-name="Eth" unicode="&#xd0;" horiz-adv-x="744" 
d="M333 0h-220v333h-60v40h60v327h220c105 0 190 -31 253 -93c64 -62 96 -148 96 -257c0 -110 -32 -196 -95 -258c-63 -61 -148 -92 -254 -92zM156 333v-293h170c95 0 170 27 226 81c57 54 85 130 85 229c0 98 -28 174 -85 228c-56 55 -131 82 -226 82h-170v-287h183v-40
h-183z" />
    <glyph glyph-name="Ntilde" unicode="&#xd1;" horiz-adv-x="750" 
d="M150 0h-43v700h40l399 -549l57 -88h2c-3 35 -5 65 -5 88v549h43v-700h-40l-399 549l-57 88h-2c3 -35 5 -65 5 -88v-549zM271 753h-40c0 72 28 108 83 108c67 0 79 -74 126 -74c27 0 40 24 40 71h40c0 -72 -28 -108 -83 -108c-67 0 -79 74 -126 74c-27 0 -40 -24 -40 -71z
" />
    <glyph glyph-name="Ograve" unicode="&#xd2;" horiz-adv-x="826" 
d="M59 355c0 101 34 185 102 254s152 103 252 103s184 -34 252 -103s102 -153 102 -254c0 -103 -34 -190 -102 -261s-152 -106 -252 -106s-184 35 -252 106s-102 158 -102 261zM104 355c0 -92 29 -169 88 -232s133 -94 221 -94s161 31 220 94s89 140 89 232
c0 90 -30 165 -89 225c-59 61 -132 91 -220 91s-162 -30 -221 -91c-59 -60 -88 -135 -88 -225zM435 750h-44l-79 111h56z" />
    <glyph glyph-name="Oacute" unicode="&#xd3;" horiz-adv-x="826" 
d="M59 355c0 101 34 185 102 254s152 103 252 103s184 -34 252 -103s102 -153 102 -254c0 -103 -34 -190 -102 -261s-152 -106 -252 -106s-184 35 -252 106s-102 158 -102 261zM104 355c0 -92 29 -169 88 -232s133 -94 221 -94s161 31 220 94s89 140 89 232
c0 90 -30 165 -89 225c-59 61 -132 91 -220 91s-162 -30 -221 -91c-59 -60 -88 -135 -88 -225zM434 750h-44l67 111h56z" />
    <glyph glyph-name="Ocircumflex" unicode="&#xd4;" horiz-adv-x="826" 
d="M356 750h-49l80 111h52l80 -111h-49l-56 80h-2zM59 355c0 101 34 185 102 254s152 103 252 103s184 -34 252 -103s102 -153 102 -254c0 -103 -34 -190 -102 -261s-152 -106 -252 -106s-184 35 -252 106s-102 158 -102 261zM104 355c0 -92 29 -169 88 -232
s133 -94 221 -94s161 31 220 94s89 140 89 232c0 90 -30 165 -89 225c-59 61 -132 91 -220 91s-162 -30 -221 -91c-59 -60 -88 -135 -88 -225z" />
    <glyph glyph-name="Otilde" unicode="&#xd5;" horiz-adv-x="826" 
d="M59 355c0 101 34 185 102 254s152 103 252 103s184 -34 252 -103s102 -153 102 -254c0 -103 -34 -190 -102 -261s-152 -106 -252 -106s-184 35 -252 106s-102 158 -102 261zM104 355c0 -92 29 -169 88 -232s133 -94 221 -94s161 31 220 94s89 140 89 232
c0 90 -30 165 -89 225c-59 61 -132 91 -220 91s-162 -30 -221 -91c-59 -60 -88 -135 -88 -225zM309 753h-40c0 72 28 108 83 108c67 0 79 -74 126 -74c27 0 40 24 40 71h40c0 -72 -28 -108 -83 -108c-67 0 -79 74 -126 74c-27 0 -40 -24 -40 -71z" />
    <glyph glyph-name="Odieresis" unicode="&#xd6;" horiz-adv-x="826" 
d="M59 355c0 101 34 185 102 254s152 103 252 103s184 -34 252 -103s102 -153 102 -254c0 -103 -34 -190 -102 -261s-152 -106 -252 -106s-184 35 -252 106s-102 158 -102 261zM104 355c0 -92 29 -169 88 -232s133 -94 221 -94s161 31 220 94s89 140 89 232
c0 90 -30 165 -89 225c-59 61 -132 91 -220 91s-162 -30 -221 -91c-59 -60 -88 -135 -88 -225zM505 788h-46v73h46v-73zM368 788h-46v73h46v-73z" />
    <glyph glyph-name="multiply" unicode="&#xd7;" horiz-adv-x="560" 
d="M58 0l-30 28l224 255l-224 255l30 28l222 -252l222 252l30 -28l-225 -255l225 -255l-30 -28l-222 252z" />
    <glyph glyph-name="Oslash" unicode="&#xd8;" horiz-adv-x="825" 
d="M172 -23l-35 24l50 70c-80 68 -128 171 -128 283c0 101 34 185 103 254s153 104 251 104c69 0 133 -19 192 -57l49 69l34 -25l-49 -69c85 -71 128 -163 128 -276c0 -102 -35 -189 -104 -260s-152 -106 -250 -106c-69 0 -133 19 -192 58zM212 106l368 515
c-50 33 -106 50 -167 50c-86 0 -159 -31 -219 -92s-90 -136 -90 -225c0 -99 41 -189 108 -248zM614 596l-369 -516c49 -34 105 -51 167 -51c86 0 159 31 219 94c61 63 91 139 91 230c0 100 -36 181 -108 243z" />
    <glyph glyph-name="Ugrave" unicode="&#xd9;" horiz-adv-x="721" 
d="M99 240v460h43v-458c0 -131 85 -213 218 -213s219 82 219 215v456h43v-460c0 -77 -24 -138 -73 -184c-48 -45 -111 -68 -188 -68c-78 0 -141 23 -190 69c-48 46 -72 107 -72 183zM382 750h-44l-79 111h56z" />
    <glyph glyph-name="Uacute" unicode="&#xda;" horiz-adv-x="721" 
d="M99 240v460h43v-458c0 -131 85 -213 218 -213s219 82 219 215v456h43v-460c0 -77 -24 -138 -73 -184c-48 -45 -111 -68 -188 -68c-78 0 -141 23 -190 69c-48 46 -72 107 -72 183zM381 750h-44l67 111h56z" />
    <glyph glyph-name="Ucircumflex" unicode="&#xdb;" horiz-adv-x="721" 
d="M303 750h-49l80 111h52l80 -111h-49l-56 80h-2zM99 240v460h43v-458c0 -131 85 -213 218 -213s219 82 219 215v456h43v-460c0 -77 -24 -138 -73 -184c-48 -45 -111 -68 -188 -68c-78 0 -141 23 -190 69c-48 46 -72 107 -72 183z" />
    <glyph glyph-name="Udieresis" unicode="&#xdc;" horiz-adv-x="721" 
d="M99 240v460h43v-458c0 -131 85 -213 218 -213s219 82 219 215v456h43v-460c0 -77 -24 -138 -73 -184c-48 -45 -111 -68 -188 -68c-78 0 -141 23 -190 69c-48 46 -72 107 -72 183zM452 788h-46v73h46v-73zM315 788h-46v73h46v-73z" />
    <glyph glyph-name="Yacute" unicode="&#xdd;" horiz-adv-x="567" 
d="M305 0h-43v304l-238 396h49l166 -276l43 -79h2c15 30 29 56 43 79l166 276h49l-237 -396v-304zM304 750h-44l67 111h56z" />
    <glyph glyph-name="Thorn" unicode="&#xde;" horiz-adv-x="593" 
d="M150 0h-43v700h43v-130h187c62 0 113 -19 153 -56s60 -86 60 -148c0 -63 -20 -113 -60 -150s-92 -56 -155 -56h-185v-160zM150 530v-330h185c104 0 170 62 170 166s-66 164 -170 164h-185z" />
    <glyph glyph-name="germandbls" unicode="&#xdf;" horiz-adv-x="562" 
d="M129 0h-42v532c0 55 19 99 56 131c38 33 82 49 132 49c49 0 88 -14 117 -42c29 -27 44 -59 44 -96c0 -49 -30 -95 -61 -120c-29 -24 -60 -58 -60 -86c0 -16 11 -33 33 -51c22 -17 46 -34 72 -49c27 -15 51 -35 73 -60s33 -51 33 -80c0 -43 -15 -77 -45 -100
s-66 -35 -109 -35c-61 0 -113 12 -154 35v46c43 -27 95 -40 155 -40c61 0 109 33 109 94c2 106 -212 135 -211 238c0 40 31 80 60 104c31 25 61 65 61 104c0 51 -44 97 -119 97c-38 0 -72 -13 -101 -39c-29 -25 -43 -60 -43 -103v-529z" />
    <glyph glyph-name="agrave" unicode="&#xe0;" horiz-adv-x="508" 
d="M41 133c0 72 39 115 94 139c41 17 69 24 116 28c47 5 64 5 100 5h33v17c0 99 -46 149 -137 149c-53 0 -101 -16 -143 -48l-24 34c39 33 105 55 169 55c116 0 177 -65 177 -189v-323h-42v66l4 45h-2c-27 -69 -92 -123 -175 -123c-45 0 -85 12 -119 37s-51 61 -51 108z
M85 136c0 -57 48 -109 128 -109c51 0 93 22 124 65c31 44 47 93 47 147v27h-32c-21 0 -38 0 -51 -1c-13 0 -31 -1 -56 -4c-24 -2 -44 -6 -60 -12c-48 -14 -105 -49 -100 -113zM271 589h-44l-79 111h56z" />
    <glyph glyph-name="aacute" unicode="&#xe1;" horiz-adv-x="508" 
d="M41 133c0 72 39 115 94 139c41 17 69 24 116 28c47 5 64 5 100 5h33v17c0 99 -46 149 -137 149c-53 0 -101 -16 -143 -48l-24 34c39 33 105 55 169 55c116 0 177 -65 177 -189v-323h-42v66l4 45h-2c-27 -69 -92 -123 -175 -123c-45 0 -85 12 -119 37s-51 61 -51 108z
M85 136c0 -57 48 -109 128 -109c51 0 93 22 124 65c31 44 47 93 47 147v27h-32c-21 0 -38 0 -51 -1c-13 0 -31 -1 -56 -4c-24 -2 -44 -6 -60 -12c-48 -14 -105 -49 -100 -113zM269 589h-44l67 111h56z" />
    <glyph glyph-name="acircumflex" unicode="&#xe2;" horiz-adv-x="508" 
d="M41 133c0 72 39 115 94 139c41 17 69 24 116 28c47 5 64 5 100 5h33v17c0 99 -46 149 -137 149c-53 0 -101 -16 -143 -48l-24 34c39 33 105 55 169 55c116 0 177 -65 177 -189v-323h-42v66l4 45h-2c-27 -69 -92 -123 -175 -123c-45 0 -85 12 -119 37s-51 61 -51 108z
M85 136c0 -57 48 -109 128 -109c51 0 93 22 124 65c31 44 47 93 47 147v27h-32c-21 0 -38 0 -51 -1c-13 0 -31 -1 -56 -4c-24 -2 -44 -6 -60 -12c-48 -14 -105 -49 -100 -113zM192 589h-49l80 111h52l80 -111h-49l-56 80h-2z" />
    <glyph glyph-name="atilde" unicode="&#xe3;" horiz-adv-x="508" 
d="M41 133c0 72 39 115 94 139c41 17 69 24 116 28c47 5 64 5 100 5h33v17c0 99 -46 149 -137 149c-53 0 -101 -16 -143 -48l-24 34c39 33 105 55 169 55c116 0 177 -65 177 -189v-323h-42v66l4 45h-2c-27 -69 -92 -123 -175 -123c-45 0 -85 12 -119 37s-51 61 -51 108z
M85 136c0 -57 48 -109 128 -109c51 0 93 22 124 65c31 44 47 93 47 147v27h-32c-21 0 -38 0 -51 -1c-13 0 -31 -1 -56 -4c-24 -2 -44 -6 -60 -12c-48 -14 -105 -49 -100 -113zM145 592h-40c0 72 28 108 83 108c67 0 79 -74 126 -74c27 0 40 24 40 71h40
c0 -72 -28 -108 -83 -108c-67 0 -79 74 -126 74c-27 0 -40 -24 -40 -71z" />
    <glyph glyph-name="adieresis" unicode="&#xe4;" horiz-adv-x="508" 
d="M41 133c0 72 39 115 94 139c41 17 69 24 116 28c47 5 64 5 100 5h33v17c0 99 -46 149 -137 149c-53 0 -101 -16 -143 -48l-24 34c39 33 105 55 169 55c116 0 177 -65 177 -189v-323h-42v66l4 45h-2c-27 -69 -92 -123 -175 -123c-45 0 -85 12 -119 37s-51 61 -51 108z
M85 136c0 -57 48 -109 128 -109c51 0 93 22 124 65c31 44 47 93 47 147v27h-32c-21 0 -38 0 -51 -1c-13 0 -31 -1 -56 -4c-24 -2 -44 -6 -60 -12c-48 -14 -105 -49 -100 -113zM341 627h-46v73h46v-73zM204 627h-46v73h46v-73z" />
    <glyph glyph-name="aring" unicode="&#xe5;" horiz-adv-x="508" 
d="M41 133c0 72 39 115 94 139c41 17 69 24 116 28c47 5 64 5 100 5h33v17c0 99 -46 149 -137 149c-53 0 -101 -16 -143 -48l-24 34c39 33 105 55 169 55c116 0 177 -65 177 -189v-323h-42v66l4 45h-2c-27 -69 -92 -123 -175 -123c-45 0 -85 12 -119 37s-51 61 -51 108z
M85 136c0 -57 48 -109 128 -109c51 0 93 22 124 65c31 44 47 93 47 147v27h-32c-21 0 -38 0 -51 -1c-13 0 -31 -1 -56 -4c-24 -2 -44 -6 -60 -12c-48 -14 -105 -49 -100 -113zM297 598c-25 -25 -71 -25 -96 0c-25 27 -25 70 0 95c25 27 71 27 96 0c25 -25 25 -68 0 -95z
M281 646c0 43 -64 43 -64 0c0 -42 64 -42 64 0z" />
    <glyph glyph-name="ae" unicode="&#xe6;" horiz-adv-x="869" 
d="M42 133c0 70 33 112 82 134c36 17 62 24 109 28c47 5 67 5 111 5h40v22c0 99 -47 149 -141 149c-51 0 -98 -16 -139 -48l-24 34c39 35 104 55 165 55c96 0 153 -39 172 -117h2c40 77 111 117 198 117c64 0 114 -21 149 -64s53 -96 53 -159c0 -8 -1 -17 -2 -28h-391
c0 -147 83 -232 204 -232c61 0 113 21 155 63l23 -35c-44 -41 -114 -69 -178 -69c-104 0 -189 57 -225 153h-2c-4 -20 -17 -47 -45 -86c-27 -37 -80 -67 -144 -67c-49 0 -90 13 -123 38s-49 61 -49 107zM430 300h345c-5 115 -74 172 -161 172c-96 0 -168 -60 -184 -172z
M86 136c0 -60 48 -109 128 -109c51 0 92 22 123 65c31 44 47 93 47 147v22h-69c-45 0 -73 -1 -120 -10c-63 -12 -105 -44 -109 -115z" />
    <glyph glyph-name="ccedilla" unicode="&#xe7;" horiz-adv-x="542" 
d="M275 -92l-12 -1l18 83c-66 7 -121 33 -164 80s-64 107 -64 179c0 77 25 140 75 189c51 49 112 74 183 74c67 0 136 -24 179 -71l-26 -34c-36 39 -96 64 -153 64c-60 0 -111 -21 -152 -62s-62 -94 -62 -160c0 -65 21 -118 62 -159s92 -61 152 -61c63 0 127 27 167 72
l22 -35c-41 -47 -111 -77 -184 -78l-9 -48c41 -7 69 -32 69 -68c0 -52 -39 -76 -91 -76c-17 0 -31 1 -44 4v38c11 -3 25 -5 41 -5c36 0 54 12 54 37s-20 38 -61 38z" />
    <glyph glyph-name="egrave" unicode="&#xe8;" horiz-adv-x="549" 
d="M52 249c0 81 24 145 71 192s105 71 172 71c65 0 115 -22 150 -66c36 -43 54 -97 54 -162c0 -6 -1 -15 -2 -27h-401c0 -70 20 -126 61 -167s92 -61 153 -61s113 21 155 63l23 -35c-44 -41 -114 -69 -178 -69c-73 0 -134 24 -184 72c-49 49 -74 112 -74 189zM99 296h356
c-5 116 -72 177 -161 177c-97 0 -178 -65 -195 -177zM320 589h-44l-79 111h56z" />
    <glyph glyph-name="eacute" unicode="&#xe9;" horiz-adv-x="549" 
d="M52 249c0 81 24 145 71 192s105 71 172 71c65 0 115 -22 150 -66c36 -43 54 -97 54 -162c0 -6 -1 -15 -2 -27h-401c0 -70 20 -126 61 -167s92 -61 153 -61s113 21 155 63l23 -35c-44 -41 -114 -69 -178 -69c-73 0 -134 24 -184 72c-49 49 -74 112 -74 189zM99 296h356
c-5 116 -72 177 -161 177c-97 0 -178 -65 -195 -177zM318 589h-44l67 111h56z" />
    <glyph glyph-name="ecircumflex" unicode="&#xea;" horiz-adv-x="549" 
d="M52 249c0 81 24 145 71 192s105 71 172 71c65 0 115 -22 150 -66c36 -43 54 -97 54 -162c0 -6 -1 -15 -2 -27h-401c0 -70 20 -126 61 -167s92 -61 153 -61s113 21 155 63l23 -35c-44 -41 -114 -69 -178 -69c-73 0 -134 24 -184 72c-49 49 -74 112 -74 189zM99 296h356
c-5 116 -72 177 -161 177c-97 0 -178 -65 -195 -177zM240 589h-49l80 111h52l80 -111h-49l-56 80h-2z" />
    <glyph glyph-name="edieresis" unicode="&#xeb;" horiz-adv-x="549" 
d="M52 249c0 81 24 145 71 192s105 71 172 71c65 0 115 -22 150 -66c36 -43 54 -97 54 -162c0 -6 -1 -15 -2 -27h-401c0 -70 20 -126 61 -167s92 -61 153 -61s113 21 155 63l23 -35c-44 -41 -114 -69 -178 -69c-73 0 -134 24 -184 72c-49 49 -74 112 -74 189zM99 296h356
c-5 116 -72 177 -161 177c-97 0 -178 -65 -195 -177zM389 627h-46v73h46v-73zM252 627h-46v73h46v-73z" />
    <glyph glyph-name="igrave" unicode="&#xec;" horiz-adv-x="216" 
d="M131 589h-44l-79 111h56zM129 0h-42v500h42v-500z" />
    <glyph glyph-name="iacute" unicode="&#xed;" horiz-adv-x="216" 
d="M129 0h-42v500h42v-500zM130 589h-44l67 111h56z" />
    <glyph glyph-name="icircumflex" unicode="&#xee;" horiz-adv-x="216" 
d="M52 589h-49l80 111h52l80 -111h-49l-56 80h-2zM129 0h-42v500h42v-500z" />
    <glyph glyph-name="idieresis" unicode="&#xef;" horiz-adv-x="216" 
d="M129 0h-42v500h42v-500zM201 627h-46v73h46v-73zM64 627h-46v73h46v-73z" />
    <glyph glyph-name="eth" unicode="&#xf0;" horiz-adv-x="577" 
d="M295 468c65 0 125 -27 146 -50l16 -16h2c-24 75 -70 136 -137 183l-172 -80l-17 37l146 68c-44 23 -95 42 -153 57l12 38c76 -19 139 -44 188 -74l123 58l17 -37l-101 -47c104 -79 156 -191 156 -335c1 -133 -75 -282 -242 -282c-69 0 -123 24 -164 72
c-41 49 -61 105 -61 170s21 120 63 167c43 47 102 71 178 71zM281 28c43 0 80 12 111 37c61 51 85 122 85 198c0 48 -17 87 -51 118c-33 31 -77 47 -132 47c-63 0 -111 -20 -145 -59s-51 -85 -51 -139s17 -101 50 -142c33 -40 78 -60 133 -60z" />
    <glyph glyph-name="ntilde" unicode="&#xf1;" horiz-adv-x="586" 
d="M129 0h-42v500h42v-88l-4 -41h2c11 32 36 63 73 94s84 47 139 47c123 0 165 -67 165 -195v-317h-42v302c0 40 -2 65 -11 96c-13 45 -46 73 -112 73c-58 0 -108 -21 -149 -64c-41 -42 -61 -95 -61 -158v-249zM203 592h-40c0 72 28 108 83 108c67 0 79 -74 126 -74
c27 0 40 24 40 71h40c0 -72 -28 -108 -83 -108c-67 0 -79 74 -126 74c-27 0 -40 -24 -40 -71z" />
    <glyph glyph-name="ograve" unicode="&#xf2;" horiz-adv-x="620" 
d="M51 253c0 73 25 134 75 184c51 50 112 75 184 75s133 -25 183 -75c51 -50 76 -111 76 -184c0 -74 -25 -137 -76 -188c-50 -51 -111 -77 -183 -77s-133 26 -184 77c-50 51 -75 114 -75 188zM95 253c0 -63 21 -117 62 -160c42 -43 93 -64 153 -64s111 21 152 64
c42 43 63 97 63 160c0 61 -21 113 -63 155c-41 42 -92 63 -152 63s-111 -21 -153 -63c-41 -42 -62 -94 -62 -155zM332 589h-44l-79 111h56z" />
    <glyph glyph-name="oacute" unicode="&#xf3;" horiz-adv-x="620" 
d="M51 253c0 73 25 134 75 184c51 50 112 75 184 75s133 -25 183 -75c51 -50 76 -111 76 -184c0 -74 -25 -137 -76 -188c-50 -51 -111 -77 -183 -77s-133 26 -184 77c-50 51 -75 114 -75 188zM95 253c0 -63 21 -117 62 -160c42 -43 93 -64 153 -64s111 21 152 64
c42 43 63 97 63 160c0 61 -21 113 -63 155c-41 42 -92 63 -152 63s-111 -21 -153 -63c-41 -42 -62 -94 -62 -155zM331 589h-44l67 111h56z" />
    <glyph glyph-name="ocircumflex" unicode="&#xf4;" horiz-adv-x="620" 
d="M253 589h-49l80 111h52l80 -111h-49l-56 80h-2zM51 253c0 73 25 134 75 184c51 50 112 75 184 75s133 -25 183 -75c51 -50 76 -111 76 -184c0 -74 -25 -137 -76 -188c-50 -51 -111 -77 -183 -77s-133 26 -184 77c-50 51 -75 114 -75 188zM95 253c0 -63 21 -117 62 -160
c42 -43 93 -64 153 -64s111 21 152 64c42 43 63 97 63 160c0 61 -21 113 -63 155c-41 42 -92 63 -152 63s-111 -21 -153 -63c-41 -42 -62 -94 -62 -155z" />
    <glyph glyph-name="otilde" unicode="&#xf5;" horiz-adv-x="620" 
d="M51 253c0 73 25 134 75 184c51 50 112 75 184 75s133 -25 183 -75c51 -50 76 -111 76 -184c0 -74 -25 -137 -76 -188c-50 -51 -111 -77 -183 -77s-133 26 -184 77c-50 51 -75 114 -75 188zM95 253c0 -63 21 -117 62 -160c42 -43 93 -64 153 -64s111 21 152 64
c42 43 63 97 63 160c0 61 -21 113 -63 155c-41 42 -92 63 -152 63s-111 -21 -153 -63c-41 -42 -62 -94 -62 -155zM206 592h-40c0 72 28 108 83 108c67 0 79 -74 126 -74c27 0 40 24 40 71h40c0 -72 -28 -108 -83 -108c-67 0 -79 74 -126 74c-27 0 -40 -24 -40 -71z" />
    <glyph glyph-name="odieresis" unicode="&#xf6;" horiz-adv-x="620" 
d="M51 253c0 73 25 134 75 184c51 50 112 75 184 75s133 -25 183 -75c51 -50 76 -111 76 -184c0 -74 -25 -137 -76 -188c-50 -51 -111 -77 -183 -77s-133 26 -184 77c-50 51 -75 114 -75 188zM95 253c0 -63 21 -117 62 -160c42 -43 93 -64 153 -64s111 21 152 64
c42 43 63 97 63 160c0 61 -21 113 -63 155c-41 42 -92 63 -152 63s-111 -21 -153 -63c-41 -42 -62 -94 -62 -155zM402 627h-46v73h46v-73zM265 627h-46v73h46v-73z" />
    <glyph glyph-name="divide" unicode="&#xf7;" horiz-adv-x="560" 
d="M308 431h-57v59h57v-59zM308 76h-57v59h57v-59zM518 263h-476v40h476v-40z" />
    <glyph glyph-name="oslash" unicode="&#xf8;" horiz-adv-x="621" 
d="M144 -29l-34 26l36 51c-63 52 -94 120 -94 205c0 73 25 134 75 184c51 50 112 75 184 75c51 0 97 -13 138 -39l38 53l34 -26l-38 -53c58 -51 87 -116 87 -194c0 -74 -25 -137 -76 -188c-50 -51 -111 -77 -183 -77c-48 0 -91 12 -130 35zM170 82l255 357
c-35 21 -73 32 -114 32c-60 0 -111 -21 -153 -63c-41 -42 -62 -94 -62 -155c0 -69 25 -126 74 -171zM458 412l-253 -355c32 -19 67 -28 106 -28c60 0 111 21 152 64c42 43 63 97 63 160c0 64 -23 117 -68 159z" />
    <glyph glyph-name="ugrave" unicode="&#xf9;" horiz-adv-x="580" 
d="M81 183v317h42v-302c0 -40 2 -65 11 -97c13 -43 46 -72 112 -72c60 0 109 22 147 67c39 45 58 99 58 160v244h42v-500h-42v88l4 41h-2c-11 -32 -35 -64 -72 -95s-82 -46 -135 -46c-119 0 -165 63 -165 195zM310 589h-44l-79 111h56z" />
    <glyph glyph-name="uacute" unicode="&#xfa;" horiz-adv-x="580" 
d="M81 183v317h42v-302c0 -40 2 -65 11 -97c13 -43 46 -72 112 -72c60 0 109 22 147 67c39 45 58 99 58 160v244h42v-500h-42v88l4 41h-2c-11 -32 -35 -64 -72 -95s-82 -46 -135 -46c-119 0 -165 63 -165 195zM308 589h-44l67 111h56z" />
    <glyph glyph-name="ucircumflex" unicode="&#xfb;" horiz-adv-x="580" 
d="M81 183v317h42v-302c0 -40 2 -65 11 -97c13 -43 46 -72 112 -72c60 0 109 22 147 67c39 45 58 99 58 160v244h42v-500h-42v88l4 41h-2c-11 -32 -35 -64 -72 -95s-82 -46 -135 -46c-119 0 -165 63 -165 195zM230 589h-49l80 111h52l80 -111h-49l-56 80h-2z" />
    <glyph glyph-name="udieresis" unicode="&#xfc;" horiz-adv-x="580" 
d="M81 183v317h42v-302c0 -40 2 -65 11 -97c13 -43 46 -72 112 -72c60 0 109 22 147 67c39 45 58 99 58 160v244h42v-500h-42v88l4 41h-2c-11 -32 -35 -64 -72 -95s-82 -46 -135 -46c-119 0 -165 63 -165 195zM379 627h-46v73h46v-73zM242 627h-46v73h46v-73z" />
    <glyph glyph-name="yacute" unicode="&#xfd;" horiz-adv-x="517" 
d="M22 -182l19 36c19 -16 39 -24 62 -24c40 0 73 30 98 90l36 83l-207 497h45l165 -399l18 -47h2c5 15 10 31 17 47l165 399h45l-257 -617c-26 -62 -68 -93 -127 -93c-28 0 -59 12 -71 21zM280 589h-44l67 111h56z" />
    <glyph glyph-name="thorn" unicode="&#xfe;" horiz-adv-x="578" 
d="M129 -200h-42v900h42v-255l-1 -40h2c25 61 94 107 178 107c66 0 118 -24 157 -72s59 -111 59 -190s-21 -142 -62 -190s-95 -72 -160 -72c-73 0 -145 41 -173 108h-2c1 -12 2 -27 2 -44v-252zM128 249c0 -59 16 -111 47 -155s74 -66 127 -66c51 0 93 20 127 60
s51 94 51 162c0 67 -16 120 -49 160c-32 41 -74 61 -125 61c-101 0 -178 -74 -178 -222z" />
    <glyph glyph-name="ydieresis" unicode="&#xff;" horiz-adv-x="517" 
d="M22 -182l19 36c19 -16 39 -24 62 -24c40 0 73 30 98 90l36 83l-207 497h45l165 -399l18 -47h2c5 15 10 31 17 47l165 399h45l-257 -617c-26 -62 -68 -93 -127 -93c-28 0 -59 12 -71 21zM351 627h-46v73h46v-73zM214 627h-46v73h46v-73z" />
    <glyph glyph-name="Amacron" unicode="&#x100;" horiz-adv-x="624" 
d="M73 0h-46l262 700h46l262 -700h-46l-91 242h-297zM285 566l-107 -284h267l-106 284l-26 84h-2c-10 -36 -19 -64 -26 -84zM432 786h-239v40h239v-40z" />
    <glyph glyph-name="amacron" unicode="&#x101;" horiz-adv-x="508" 
d="M41 133c0 72 39 115 94 139c41 17 69 24 116 28c47 5 64 5 100 5h33v17c0 99 -46 149 -137 149c-53 0 -101 -16 -143 -48l-24 34c39 33 105 55 169 55c116 0 177 -65 177 -189v-323h-42v66l4 45h-2c-27 -69 -92 -123 -175 -123c-45 0 -85 12 -119 37s-51 61 -51 108z
M85 136c0 -57 48 -109 128 -109c51 0 93 22 124 65c31 44 47 93 47 147v27h-32c-21 0 -38 0 -51 -1c-13 0 -31 -1 -56 -4c-24 -2 -44 -6 -60 -12c-48 -14 -105 -49 -100 -113zM369 625h-239v40h239v-40z" />
    <glyph glyph-name="Abreve" unicode="&#x102;" horiz-adv-x="624" 
d="M73 0h-46l262 700h46l262 -700h-46l-91 242h-297zM285 566l-107 -284h267l-106 284l-26 84h-2c-10 -36 -19 -64 -26 -84zM211 845v16h40v-14c0 -41 25 -62 61 -62c35 0 61 20 61 63v13h40v-16c6 -130 -208 -130 -202 0z" />
    <glyph glyph-name="abreve" unicode="&#x103;" horiz-adv-x="508" 
d="M41 133c0 72 39 115 94 139c41 17 69 24 116 28c47 5 64 5 100 5h33v17c0 99 -46 149 -137 149c-53 0 -101 -16 -143 -48l-24 34c39 33 105 55 169 55c116 0 177 -65 177 -189v-323h-42v66l4 45h-2c-27 -69 -92 -123 -175 -123c-45 0 -85 12 -119 37s-51 61 -51 108z
M85 136c0 -57 48 -109 128 -109c51 0 93 22 124 65c31 44 47 93 47 147v27h-32c-21 0 -38 0 -51 -1c-13 0 -31 -1 -56 -4c-24 -2 -44 -6 -60 -12c-48 -14 -105 -49 -100 -113zM148 684v16h40v-14c0 -41 25 -62 61 -62c35 0 61 20 61 63v13h40v-16c6 -130 -208 -130 -202 0z
" />
    <glyph glyph-name="Aogonek" unicode="&#x104;" horiz-adv-x="624" 
d="M73 0h-46l262 700h46l262 -700c-53 -39 -80 -76 -80 -109c0 -29 28 -49 51 -53l17 -3l-9 -39c-5 0 -12 0 -36 8c-32 9 -68 32 -68 83c0 44 25 84 76 120l-88 235h-297zM285 566l-107 -284h267l-106 284l-26 84h-2c-10 -36 -19 -64 -26 -84z" />
    <glyph glyph-name="aogonek" unicode="&#x105;" horiz-adv-x="508" 
d="M41 133c0 72 39 115 94 139c41 17 69 24 116 28c47 5 64 5 100 5h33v17c0 99 -46 149 -137 149c-53 0 -101 -16 -143 -48l-24 34c39 33 105 55 169 55c116 0 177 -65 177 -189v-323c-53 -39 -80 -76 -80 -109c0 -29 28 -49 51 -53l17 -3l-9 -39c-5 0 -12 0 -36 8
c-32 9 -68 32 -68 83c0 42 28 82 83 120v59l4 45h-2c-27 -69 -92 -123 -175 -123c-45 0 -85 12 -119 37s-51 61 -51 108zM85 136c0 -57 48 -109 128 -109c51 0 93 22 124 65c31 44 47 93 47 147v27h-32c-21 0 -38 0 -51 -1c-13 0 -31 -1 -56 -4c-24 -2 -44 -6 -60 -12
c-48 -14 -105 -49 -100 -113z" />
    <glyph glyph-name="Cacute" unicode="&#x106;" horiz-adv-x="719" 
d="M60 355c0 102 33 187 98 255s148 102 249 102c104 0 187 -29 250 -88l-26 -32c-56 49 -142 79 -223 79c-89 0 -161 -30 -218 -90c-57 -59 -85 -135 -85 -226c0 -93 28 -170 85 -233c57 -62 131 -93 221 -93c93 0 172 32 237 95l27 -30c-73 -71 -161 -106 -264 -106
s-188 35 -253 106s-98 158 -98 261zM423 750h-44l67 111h56z" />
    <glyph glyph-name="cacute" unicode="&#x107;" horiz-adv-x="540" 
d="M310 512c67 0 136 -24 179 -71l-26 -34c-36 39 -96 64 -153 64c-60 0 -111 -21 -152 -62s-62 -94 -62 -160c0 -65 21 -118 62 -159s92 -61 152 -61c63 0 127 27 167 72l22 -35c-43 -48 -114 -78 -189 -78c-73 0 -134 24 -184 72c-49 49 -74 112 -74 189s25 140 75 189
c51 49 112 74 183 74zM313 589h-44l67 111h56z" />
    <glyph glyph-name="Ccircumflex" unicode="&#x108;" horiz-adv-x="719" 
d="M345 750h-49l80 111h52l80 -111h-49l-56 80h-2zM60 355c0 102 33 187 98 255s148 102 249 102c104 0 187 -29 250 -88l-26 -32c-56 49 -142 79 -223 79c-89 0 -161 -30 -218 -90c-57 -59 -85 -135 -85 -226c0 -93 28 -170 85 -233c57 -62 131 -93 221 -93
c93 0 172 32 237 95l27 -30c-73 -71 -161 -106 -264 -106s-188 35 -253 106s-98 158 -98 261z" />
    <glyph glyph-name="ccircumflex" unicode="&#x109;" horiz-adv-x="540" 
d="M235 589h-49l80 111h52l80 -111h-49l-56 80h-2zM310 512c67 0 136 -24 179 -71l-26 -34c-36 39 -96 64 -153 64c-60 0 -111 -21 -152 -62s-62 -94 -62 -160c0 -65 21 -118 62 -159s92 -61 152 -61c63 0 127 27 167 72l22 -35c-43 -48 -114 -78 -189 -78
c-73 0 -134 24 -184 72c-49 49 -74 112 -74 189s25 140 75 189c51 49 112 74 183 74z" />
    <glyph glyph-name="Cdotaccent" unicode="&#x10a;" horiz-adv-x="719" 
d="M60 355c0 102 33 187 98 255s148 102 249 102c104 0 187 -29 250 -88l-26 -32c-56 49 -142 79 -223 79c-89 0 -161 -30 -218 -90c-57 -59 -85 -135 -85 -226c0 -93 28 -170 85 -233c57 -62 131 -93 221 -93c93 0 172 32 237 95l27 -30c-73 -71 -161 -106 -264 -106
s-188 35 -253 106s-98 158 -98 261zM425 788h-46v73h46v-73z" />
    <glyph glyph-name="cdotaccent" unicode="&#x10b;" horiz-adv-x="540" 
d="M310 512c67 0 136 -24 179 -71l-26 -34c-36 39 -96 64 -153 64c-60 0 -111 -21 -152 -62s-62 -94 -62 -160c0 -65 21 -118 62 -159s92 -61 152 -61c63 0 127 27 167 72l22 -35c-43 -48 -114 -78 -189 -78c-73 0 -134 24 -184 72c-49 49 -74 112 -74 189s25 140 75 189
c51 49 112 74 183 74zM315 627h-46v73h46v-73z" />
    <glyph glyph-name="Ccaron" unicode="&#x10c;" horiz-adv-x="719" 
d="M428 750h-52l-80 111h49l56 -80h2l56 80h49zM60 355c0 102 33 187 98 255s148 102 249 102c104 0 187 -29 250 -88l-26 -32c-56 49 -142 79 -223 79c-89 0 -161 -30 -218 -90c-57 -59 -85 -135 -85 -226c0 -93 28 -170 85 -233c57 -62 131 -93 221 -93
c93 0 172 32 237 95l27 -30c-73 -71 -161 -106 -264 -106s-188 35 -253 106s-98 158 -98 261z" />
    <glyph glyph-name="ccaron" unicode="&#x10d;" horiz-adv-x="540" 
d="M318 589h-52l-80 111h49l56 -80h2l56 80h49zM310 512c67 0 136 -24 179 -71l-26 -34c-36 39 -96 64 -153 64c-60 0 -111 -21 -152 -62s-62 -94 -62 -160c0 -65 21 -118 62 -159s92 -61 152 -61c63 0 127 27 167 72l22 -35c-43 -48 -114 -78 -189 -78
c-73 0 -134 24 -184 72c-49 49 -74 112 -74 189s25 140 75 189c51 49 112 74 183 74z" />
    <glyph glyph-name="Dcaron" unicode="&#x10e;" horiz-adv-x="738" 
d="M367 750h-52l-80 111h49l56 -80h2l56 80h49zM327 0h-220v700h220c105 0 190 -31 253 -93c64 -62 96 -148 96 -257c0 -110 -32 -196 -95 -258c-63 -61 -148 -92 -254 -92zM150 660v-620h170c95 0 170 27 226 81c57 54 85 130 85 229c0 98 -28 174 -85 228
c-56 55 -131 82 -226 82h-170z" />
    <glyph glyph-name="dcaron" unicode="&#x10f;" horiz-adv-x="578" 
d="M278 512c76 0 141 -45 173 -113h2c-3 12 -4 26 -4 41v260h42v-700h-42v63l4 38h-2c-29 -65 -93 -113 -181 -113c-66 0 -119 24 -158 72s-58 111 -58 190s21 142 62 190c42 48 96 72 162 72zM98 250c0 -67 16 -120 48 -161c33 -40 75 -60 126 -60c101 0 178 74 178 222
c0 60 -15 112 -46 155c-30 43 -73 65 -128 65c-51 0 -93 -20 -127 -60c-34 -39 -51 -93 -51 -161zM558 700h48c4 -17 6 -32 6 -47c0 -25 -7 -54 -22 -87h-39c12 31 18 57 18 78c0 18 -4 37 -11 56z" />
    <glyph glyph-name="Dcroat" unicode="&#x110;" horiz-adv-x="744" 
d="M333 0h-220v333h-60v40h60v327h220c105 0 190 -31 253 -93c64 -62 96 -148 96 -257c0 -110 -32 -196 -95 -258c-63 -61 -148 -92 -254 -92zM156 333v-293h170c95 0 170 27 226 81c57 54 85 130 85 229c0 98 -28 174 -85 228c-56 55 -131 82 -226 82h-170v-287h183v-40
h-183z" />
    <glyph glyph-name="dslash" unicode="&#x111;" horiz-adv-x="578" 
d="M278 512c75 0 140 -41 171 -108h2c-1 12 -2 26 -2 41v124h-133v40h133v91h42v-91h83v-40h-83v-569h-42v58l2 38h-2c-25 -60 -91 -108 -179 -108c-66 0 -119 24 -158 72s-58 111 -58 190s21 142 62 190c42 48 96 72 162 72zM98 250c0 -67 16 -120 48 -161
c33 -40 75 -60 126 -60c101 0 178 74 178 222c0 60 -15 112 -46 155c-30 44 -73 66 -128 66c-51 0 -93 -20 -127 -60s-51 -94 -51 -162z" />
    <glyph glyph-name="Emacron" unicode="&#x112;" horiz-adv-x="556" 
d="M509 0h-402v700h383v-40h-340v-287h279v-40h-279v-293h359v-40zM431 786h-239v40h239v-40z" />
    <glyph glyph-name="emacron" unicode="&#x113;" horiz-adv-x="549" 
d="M52 249c0 81 24 145 71 192s105 71 172 71c65 0 115 -22 150 -66c36 -43 54 -97 54 -162c0 -6 -1 -15 -2 -27h-401c0 -70 20 -126 61 -167s92 -61 153 -61s113 21 155 63l23 -35c-44 -41 -114 -69 -178 -69c-73 0 -134 24 -184 72c-49 49 -74 112 -74 189zM99 296h356
c-5 116 -72 177 -161 177c-97 0 -178 -65 -195 -177zM417 625h-239v40h239v-40z" />
    <glyph glyph-name="Ebreve" unicode="&#x114;" horiz-adv-x="556" 
d="M509 0h-402v700h383v-40h-340v-287h279v-40h-279v-293h359v-40zM210 845v16h40v-14c0 -41 25 -62 61 -62c35 0 61 20 61 63v13h40v-16c6 -130 -208 -130 -202 0z" />
    <glyph glyph-name="ebreve" unicode="&#x115;" horiz-adv-x="549" 
d="M52 249c0 81 24 145 71 192s105 71 172 71c65 0 115 -22 150 -66c36 -43 54 -97 54 -162c0 -6 -1 -15 -2 -27h-401c0 -70 20 -126 61 -167s92 -61 153 -61s113 21 155 63l23 -35c-44 -41 -114 -69 -178 -69c-73 0 -134 24 -184 72c-49 49 -74 112 -74 189zM99 296h356
c-5 116 -72 177 -161 177c-97 0 -178 -65 -195 -177zM196 684v16h40v-14c0 -41 25 -62 61 -62c35 0 61 20 61 63v13h40v-16c6 -130 -208 -130 -202 0z" />
    <glyph glyph-name="Edotaccent" unicode="&#x116;" horiz-adv-x="556" 
d="M509 0h-402v700h383v-40h-340v-287h279v-40h-279v-293h359v-40zM334 788h-46v73h46v-73z" />
    <glyph glyph-name="edotaccent" unicode="&#x117;" horiz-adv-x="549" 
d="M52 249c0 81 24 145 71 192s105 71 172 71c65 0 115 -22 150 -66c36 -43 54 -97 54 -162c0 -6 -1 -15 -2 -27h-401c0 -70 20 -126 61 -167s92 -61 153 -61s113 21 155 63l23 -35c-44 -41 -114 -69 -178 -69c-73 0 -134 24 -184 72c-49 49 -74 112 -74 189zM99 296h356
c-5 116 -72 177 -161 177c-97 0 -178 -65 -195 -177zM320 627h-46v73h46v-73z" />
    <glyph glyph-name="Eogonek" unicode="&#x118;" horiz-adv-x="556" 
d="M458 0h-351v700h383v-40h-340v-287h279v-40h-279v-293h359v-40c-53 -39 -80 -76 -80 -109c0 -29 28 -49 51 -53l17 -3l-9 -39c-5 0 -12 0 -36 8c-32 9 -68 32 -68 83c0 40 25 78 74 113z" />
    <glyph glyph-name="eogonek" unicode="&#x119;" horiz-adv-x="550" 
d="M52 249c0 81 24 145 71 192s105 71 172 71c65 0 115 -22 150 -66c36 -43 54 -97 54 -162l-2 -27h-401c0 -70 20 -126 61 -167s92 -61 153 -61c58 0 110 21 155 63l23 -35c-7 -7 -26 -21 -56 -42c-60 -41 -98 -80 -98 -124c0 -29 28 -49 51 -53l17 -3l-9 -39
c-5 0 -12 0 -36 8c-32 9 -68 32 -68 83c0 35 19 70 56 105c-13 -3 -25 -4 -35 -4c-73 0 -134 24 -184 72c-49 49 -74 112 -74 189zM99 296h356c-5 116 -72 177 -161 177c-97 0 -178 -65 -195 -177z" />
    <glyph glyph-name="Ecaron" unicode="&#x11a;" horiz-adv-x="556" 
d="M337 750h-52l-80 111h49l56 -80h2l56 80h49zM509 0h-402v700h383v-40h-340v-287h279v-40h-279v-293h359v-40z" />
    <glyph glyph-name="ecaron" unicode="&#x11b;" horiz-adv-x="549" 
d="M52 249c0 81 24 145 71 192s105 71 172 71c65 0 115 -22 150 -66c36 -43 54 -97 54 -162c0 -6 -1 -15 -2 -27h-401c0 -70 20 -126 61 -167s92 -61 153 -61s113 21 155 63l23 -35c-44 -41 -114 -69 -178 -69c-73 0 -134 24 -184 72c-49 49 -74 112 -74 189zM99 296h356
c-5 116 -72 177 -161 177c-97 0 -178 -65 -195 -177zM323 589h-52l-80 111h49l56 -80h2l56 80h49z" />
    <glyph glyph-name="Gcircumflex" unicode="&#x11c;" horiz-adv-x="754" 
d="M60 350c0 101 33 187 100 257s150 105 249 105c97 0 179 -26 244 -79l-26 -33c-52 43 -139 71 -218 71c-87 0 -160 -31 -218 -92c-57 -61 -86 -138 -86 -229s28 -168 84 -229c57 -61 128 -92 214 -92c91 0 180 44 240 115v135h-125v40h168v-319h-43v61l1 30h-2
c-55 -61 -143 -103 -239 -103c-97 0 -179 35 -245 104c-65 70 -98 156 -98 258zM341 750h-49l80 111h52l80 -111h-49l-56 80h-2z" />
    <glyph glyph-name="gcircumflex" unicode="&#x11d;" horiz-adv-x="571" 
d="M98 -171l20 37c43 -23 88 -35 134 -35c113 0 190 56 190 172v58l4 41h-2c-33 -68 -89 -102 -168 -102c-65 0 -119 24 -160 71s-62 110 -62 187c0 78 19 140 58 185c39 46 92 69 157 69c77 0 146 -33 174 -98h2c-2 5 -3 11 -3 19v67h42v-497c0 -72 -22 -125 -66 -160
c-43 -35 -98 -53 -163 -53c-54 0 -106 13 -157 39zM98 258c0 -133 73 -217 181 -217c97 0 164 65 164 217c0 142 -58 213 -174 213c-108 0 -171 -78 -171 -213zM222 589h-49l80 111h52l80 -111h-49l-56 80h-2z" />
    <glyph glyph-name="Gbreve" unicode="&#x11e;" horiz-adv-x="754" 
d="M60 350c0 101 33 187 100 257s150 105 249 105c97 0 179 -26 244 -79l-26 -33c-52 43 -139 71 -218 71c-87 0 -160 -31 -218 -92c-57 -61 -86 -138 -86 -229s28 -168 84 -229c57 -61 128 -92 214 -92c91 0 180 44 240 115v135h-125v40h168v-319h-43v61l1 30h-2
c-55 -61 -143 -103 -239 -103c-97 0 -179 35 -245 104c-65 70 -98 156 -98 258zM297 845v16h40v-14c0 -41 25 -62 61 -62c35 0 61 20 61 63v13h40v-16c6 -130 -208 -130 -202 0z" />
    <glyph glyph-name="gbreve" unicode="&#x11f;" horiz-adv-x="571" 
d="M98 -171l20 37c43 -23 88 -35 134 -35c113 0 190 56 190 172v58l4 41h-2c-33 -68 -89 -102 -168 -102c-65 0 -119 24 -160 71s-62 110 -62 187c0 78 19 140 58 185c39 46 92 69 157 69c77 0 146 -33 174 -98h2c-2 5 -3 11 -3 19v67h42v-497c0 -72 -22 -125 -66 -160
c-43 -35 -98 -53 -163 -53c-54 0 -106 13 -157 39zM98 258c0 -133 73 -217 181 -217c97 0 164 65 164 217c0 142 -58 213 -174 213c-108 0 -171 -78 -171 -213zM178 684v16h40v-14c0 -41 25 -62 61 -62c35 0 61 20 61 63v13h40v-16c6 -130 -208 -130 -202 0z" />
    <glyph glyph-name="Gdotaccent" unicode="&#x120;" horiz-adv-x="754" 
d="M60 350c0 101 33 187 100 257s150 105 249 105c97 0 179 -26 244 -79l-26 -33c-52 43 -139 71 -218 71c-87 0 -160 -31 -218 -92c-57 -61 -86 -138 -86 -229s28 -168 84 -229c57 -61 128 -92 214 -92c91 0 180 44 240 115v135h-125v40h168v-319h-43v61l1 30h-2
c-55 -61 -143 -103 -239 -103c-97 0 -179 35 -245 104c-65 70 -98 156 -98 258zM421 788h-46v73h46v-73z" />
    <glyph glyph-name="gdotaccent" unicode="&#x121;" horiz-adv-x="571" 
d="M98 -171l20 37c43 -23 88 -35 134 -35c113 0 190 56 190 172v58l4 41h-2c-33 -68 -89 -102 -168 -102c-65 0 -119 24 -160 71s-62 110 -62 187c0 78 19 140 58 185c39 46 92 69 157 69c77 0 146 -33 174 -98h2c-2 5 -3 11 -3 19v67h42v-497c0 -72 -22 -125 -66 -160
c-43 -35 -98 -53 -163 -53c-54 0 -106 13 -157 39zM98 258c0 -133 73 -217 181 -217c97 0 164 65 164 217c0 142 -58 213 -174 213c-108 0 -171 -78 -171 -213zM302 627h-46v73h46v-73z" />
    <glyph glyph-name="Gcommaaccent" unicode="&#x122;" horiz-adv-x="754" 
d="M60 350c0 101 33 187 100 257s150 105 249 105c97 0 179 -26 244 -79l-26 -33c-52 43 -139 71 -218 71c-87 0 -160 -31 -218 -92c-57 -61 -86 -138 -86 -229s28 -168 84 -229c57 -61 128 -92 214 -92c91 0 180 44 240 115v135h-125v40h168v-319h-43v61l1 30h-2
c-55 -61 -143 -103 -239 -103c-97 0 -179 35 -245 104c-65 70 -98 156 -98 258zM379 -66h48c4 -17 6 -32 6 -47c0 -25 -7 -54 -22 -87h-39c12 31 18 57 18 78c0 18 -4 37 -11 56z" />
    <glyph glyph-name="gcommaaccent" unicode="&#x123;" horiz-adv-x="571" 
d="M98 -171l20 37c43 -23 88 -35 134 -35c113 0 190 56 190 172v58l4 41h-2c-33 -68 -89 -102 -168 -102c-65 0 -119 24 -160 71s-62 110 -62 187c0 78 19 140 58 185c39 46 92 69 157 69c77 0 146 -33 174 -98h2c-2 5 -3 11 -3 19v67h42v-497c0 -72 -22 -125 -66 -160
c-43 -35 -98 -53 -163 -53c-54 0 -106 13 -157 39zM98 258c0 -133 73 -217 181 -217c97 0 164 65 164 217c0 142 -58 213 -174 213c-108 0 -171 -78 -171 -213zM305 566h-48c-4 17 -6 33 -6 47c0 25 7 54 22 87h39c-12 -31 -18 -57 -18 -78c0 -18 4 -37 11 -56z" />
    <glyph glyph-name="Hcircumflex" unicode="&#x124;" horiz-adv-x="744" 
d="M315 750h-49l80 111h52l80 -111h-49l-56 80h-2zM150 0h-43v700h43v-329h444v329h43v-700h-43v331h-444v-331z" />
    <glyph glyph-name="hcircumflex" unicode="&#x125;" horiz-adv-x="586" 
d="M129 0h-42v700h42v-288l-4 -41h2c11 32 36 63 73 94s84 47 139 47c123 0 165 -67 165 -195v-317h-42v302c0 40 -2 65 -11 96c-13 45 -46 73 -112 73c-58 0 -108 -21 -149 -64s-61 -96 -61 -161v-246zM52 750h-49l80 111h52l80 -111h-49l-56 80h-2z" />
    <glyph glyph-name="Hbar" unicode="&#x126;" horiz-adv-x="756" 
d="M156 0h-43v511h-65v40h65v149h43v-149h444v149h43v-149h65v-40h-65v-511h-43v331h-444v-331zM156 511v-140h444v140h-444z" />
    <glyph glyph-name="hbar" unicode="&#x127;" horiz-adv-x="586" 
d="M129 0h-42v569h-81v40h81v91h42v-91h133v-40h-133v-152l-2 -41h2c11 31 35 62 72 91c37 30 83 45 138 45c123 0 165 -67 165 -195v-317h-42v302c0 40 -2 65 -11 96c-13 45 -46 73 -112 73c-59 0 -109 -22 -150 -65c-40 -43 -60 -96 -60 -157v-249z" />
    <glyph glyph-name="Itilde" unicode="&#x128;" horiz-adv-x="257" 
d="M25 753h-40c0 72 28 108 83 108c67 0 79 -74 126 -74c27 0 40 24 40 71h40c0 -72 -28 -108 -83 -108c-67 0 -79 74 -126 74c-27 0 -40 -24 -40 -71zM150 0h-43v700h43v-700z" />
    <glyph glyph-name="itilde" unicode="&#x129;" horiz-adv-x="216" 
d="M5 592h-40c0 72 28 108 83 108c67 0 79 -74 126 -74c27 0 40 24 40 71h40c0 -72 -28 -108 -83 -108c-67 0 -79 74 -126 74c-27 0 -40 -24 -40 -71zM129 0h-42v500h42v-500z" />
    <glyph glyph-name="Imacron" unicode="&#x12a;" horiz-adv-x="257" 
d="M150 0h-43v700h43v-700zM249 786h-239v40h239v-40z" />
    <glyph glyph-name="imacron" unicode="&#x12b;" horiz-adv-x="216" 
d="M129 0h-42v500h42v-500zM228 625h-239v40h239v-40z" />
    <glyph glyph-name="Ibreve" unicode="&#x12c;" horiz-adv-x="257" 
d="M28 845v16h40v-14c0 -41 25 -62 61 -62c35 0 61 20 61 63v13h40v-16c6 -130 -208 -130 -202 0zM150 0h-43v700h43v-700z" />
    <glyph glyph-name="ibreve" unicode="&#x12d;" horiz-adv-x="216" 
d="M8 684v16h40v-14c0 -41 25 -62 61 -62c35 0 61 20 61 63v13h40v-16c6 -130 -208 -130 -202 0zM129 0h-42v500h42v-500z" />
    <glyph glyph-name="Iogonek" unicode="&#x12e;" horiz-adv-x="257" 
d="M25 -113c0 48 42 94 82 121v692h43v-700c-53 -39 -80 -76 -80 -109c0 -29 28 -49 51 -53l17 -3l-9 -39c-5 0 -12 0 -36 8c-32 9 -68 32 -68 83z" />
    <glyph glyph-name="iogonek" unicode="&#x12f;" horiz-adv-x="217" 
d="M5 -113c0 42 28 82 83 120v493h42v-500c-53 -39 -80 -76 -80 -109c0 -29 28 -49 51 -53l17 -3l-9 -39c-5 0 -12 0 -36 8c-32 9 -68 32 -68 83zM134 627h-50v73h50v-73z" />
    <glyph glyph-name="Idot" unicode="&#x130;" horiz-adv-x="257" 
d="M152 788h-46v73h46v-73zM150 0h-43v700h43v-700z" />
    <glyph glyph-name="dotlessi" unicode="&#x131;" horiz-adv-x="216" 
d="M129 0h-42v500h42v-500z" />
    <glyph glyph-name="IJ" unicode="&#x132;" horiz-adv-x="556" 
d="M259 -5v42c69 0 154 24 154 181v482h43v-482c0 -149 -66 -223 -197 -223zM150 0h-43v700h43v-700z" />
    <glyph glyph-name="ij" unicode="&#x133;" horiz-adv-x="432" 
d="M349 627h-50v73h50v-73zM303 -21v521h42v-520c0 -77 -25 -132 -62 -155c-36 -24 -65 -30 -97 -30c-5 0 -13 1 -25 2v39c4 -1 11 -2 22 -2c25 0 47 5 74 24c28 17 46 61 46 121zM133 627h-50v73h50v-73zM129 0h-42v500h42v-500z" />
    <glyph glyph-name="Jcircumflex" unicode="&#x134;" horiz-adv-x="509" 
d="M247 750h-49l80 111h52l80 -111h-49l-56 80h-2zM35 191v22h43v-23c0 -92 50 -161 143 -161c81 0 145 49 145 161v470h-167v40h210v-509c0 -69 -18 -121 -55 -154c-36 -33 -80 -49 -132 -49s-96 16 -133 49c-36 33 -54 85 -54 154z" />
    <glyph glyph-name="jcircumflex" unicode="&#x135;" horiz-adv-x="216" 
d="M47 589h-49l80 111h52l80 -111h-49l-56 80h-2zM87 -21v521h42v-520c0 -77 -25 -132 -62 -155c-36 -24 -65 -30 -97 -30c-11 0 -19 1 -25 2v39c9 -1 17 -2 22 -2c25 0 47 5 74 24c28 17 46 61 46 121z" />
    <glyph glyph-name="Kcommaaccent" unicode="&#x136;" horiz-adv-x="570" 
d="M150 0h-43v700h43v-312h130l200 312h52l-215 -330v-2l229 -368h-52l-214 348h-130v-348zM276 -66h48c4 -17 6 -32 6 -47c0 -25 -7 -54 -22 -87h-39c12 31 18 57 18 78c0 18 -4 37 -11 56z" />
    <glyph glyph-name="kcommaaccent" unicode="&#x137;" horiz-adv-x="473" 
d="M129 0h-42v700h42v-397h89l162 197h55l-181 -215v-2l198 -283h-53l-181 264h-89v-264zM225 -66h48c4 -17 6 -32 6 -47c0 -25 -7 -54 -22 -87h-39c12 31 18 57 18 78c0 18 -4 37 -11 56z" />
    <glyph glyph-name="kgreenlandic" unicode="&#x138;" horiz-adv-x="471" 
d="M129 0h-42v500h42v-213h86l173 213h57l-191 -230v-2l188 -268h-55l-172 250h-86v-250z" />
    <glyph glyph-name="Lacute" unicode="&#x139;" horiz-adv-x="508" 
d="M484 0h-377v700h43v-660h334v-40zM150 750h-44l67 111h56z" />
    <glyph glyph-name="lacute" unicode="&#x13a;" horiz-adv-x="227" 
d="M87 101v599h42v-586c0 -52 20 -78 59 -78c6 0 11 0 15 1v-39c-5 -1 -11 -2 -18 -2c-29 0 -98 12 -98 105zM131 750h-44l67 111h56z" />
    <glyph glyph-name="Lcommaaccent" unicode="&#x13b;" horiz-adv-x="508" 
d="M484 0h-377v700h43v-660h334v-40zM278 -66h48c4 -17 6 -32 6 -47c0 -25 -7 -54 -22 -87h-39c12 31 18 57 18 78c0 18 -4 37 -11 56z" />
    <glyph glyph-name="lcommaaccent" unicode="&#x13c;" horiz-adv-x="227" 
d="M116 -66h48c4 -17 6 -33 6 -47c0 -25 -7 -54 -22 -87h-39c12 31 18 57 18 78c0 18 -4 37 -11 56zM87 101v599h42v-586c0 -52 20 -78 59 -78c6 0 11 0 15 1v-39c-5 -1 -11 -2 -18 -2c-29 0 -98 12 -98 105z" />
    <glyph glyph-name="Lcaron" unicode="&#x13d;" horiz-adv-x="508" 
d="M484 0h-377v700h43v-660h334v-40zM247 700h48c4 -17 6 -32 6 -47c0 -25 -7 -54 -22 -87h-39c12 31 18 57 18 78c0 18 -4 37 -11 56z" />
    <glyph glyph-name="lcaron" unicode="&#x13e;" horiz-adv-x="227" 
d="M87 101v599h42v-586c0 -52 20 -78 59 -78c6 0 11 0 15 1v-39c-5 -1 -11 -2 -18 -2c-29 0 -98 12 -98 105zM197 700h48c4 -17 6 -32 6 -47c0 -25 -7 -54 -22 -87h-39c12 31 18 57 18 78c0 18 -4 37 -11 56z" />
    <glyph glyph-name="Ldot" unicode="&#x13f;" horiz-adv-x="508" 
d="M484 0h-377v700h43v-660h334v-40zM344 334h-61v63h61v-63z" />
    <glyph glyph-name="ldot" unicode="&#x140;" horiz-adv-x="233" 
d="M87 101v599h42v-586c0 -52 20 -78 59 -78c6 0 11 0 15 1v-39c-5 -1 -11 -2 -18 -2c-29 0 -98 12 -98 105zM255 334h-61v63h61v-63z" />
    <glyph glyph-name="Lslash" unicode="&#x141;" horiz-adv-x="514" 
d="M490 0h-377v370l-65 -37v47l65 37v283h43v-258l115 67v-48l-115 -66v-355h334v-40z" />
    <glyph glyph-name="lslash" unicode="&#x142;" horiz-adv-x="251" 
d="M104 384l-89 -51v47l89 51v269h42v-244l92 53v-48l-92 -53v-294c0 -52 20 -78 59 -78l15 1v-39c-6 -1 -12 -2 -18 -2c-29 0 -98 12 -98 105v283z" />
    <glyph glyph-name="Nacute" unicode="&#x143;" horiz-adv-x="750" 
d="M150 0h-43v700h40l399 -549l57 -88h2c-3 35 -5 65 -5 88v549h43v-700h-40l-399 549l-57 88h-2c3 -35 5 -65 5 -88v-549zM396 750h-44l67 111h56z" />
    <glyph glyph-name="nacute" unicode="&#x144;" horiz-adv-x="586" 
d="M129 0h-42v500h42v-88l-4 -41h2c11 32 36 63 73 94s84 47 139 47c123 0 165 -67 165 -195v-317h-42v302c0 40 -2 65 -11 96c-13 45 -46 73 -112 73c-58 0 -108 -21 -149 -64c-41 -42 -61 -95 -61 -158v-249zM328 589h-44l67 111h56z" />
    <glyph glyph-name="Ncommaaccent" unicode="&#x145;" horiz-adv-x="750" 
d="M150 0h-43v700h40l399 -549l57 -88h2c-3 35 -5 65 -5 88v549h43v-700h-40l-399 549l-57 88h-2c3 -35 5 -65 5 -88v-549zM350 -66h48c4 -17 6 -32 6 -47c0 -25 -7 -54 -22 -87h-39c12 31 18 57 18 78c0 18 -4 37 -11 56z" />
    <glyph glyph-name="ncommaaccent" unicode="&#x146;" horiz-adv-x="586" 
d="M129 0h-42v500h42v-88l-4 -41h2c11 32 36 63 73 94s84 47 139 47c123 0 165 -67 165 -195v-317h-42v302c0 40 -2 65 -11 96c-13 45 -46 73 -112 73c-58 0 -108 -21 -149 -64c-41 -42 -61 -95 -61 -158v-249zM271 -66h48c4 -17 6 -32 6 -47c0 -25 -7 -54 -22 -87h-39
c12 31 18 57 18 78c0 18 -4 37 -11 56z" />
    <glyph glyph-name="Ncaron" unicode="&#x147;" horiz-adv-x="750" 
d="M150 0h-43v700h40l399 -549l57 -88h2c-3 35 -5 65 -5 88v549h43v-700h-40l-399 549l-57 88h-2c3 -35 5 -65 5 -88v-549zM401 750h-52l-80 111h49l56 -80h2l56 80h49z" />
    <glyph glyph-name="ncaron" unicode="&#x148;" horiz-adv-x="586" 
d="M333 589h-52l-80 111h49l56 -80h2l56 80h49zM129 0h-42v500h42v-88l-4 -41h2c11 32 36 63 73 94s84 47 139 47c123 0 165 -67 165 -195v-317h-42v302c0 40 -2 65 -11 96c-13 45 -46 73 -112 73c-58 0 -108 -21 -149 -64c-41 -42 -61 -95 -61 -158v-249z" />
    <glyph glyph-name="napostrophe" unicode="&#x149;" horiz-adv-x="586" 
d="M129 0h-42v500h42v-88l-4 -41h2c11 32 36 63 73 94s84 47 139 47c123 0 165 -67 165 -195v-317h-42v302c0 40 -2 65 -11 96c-13 45 -46 73 -112 73c-58 0 -108 -21 -149 -64c-41 -42 -61 -95 -61 -158v-249zM31 700h48c4 -17 6 -32 6 -47c0 -25 -7 -54 -22 -87h-39
c12 31 18 57 18 78c0 18 -4 37 -11 56z" />
    <glyph glyph-name="Eng" unicode="&#x14a;" horiz-adv-x="750" 
d="M150 0h-43v700h40l399 -549l57 -88h2c-3 35 -5 65 -5 88v549h43v-702c0 -69 -18 -120 -55 -153c-36 -33 -80 -50 -132 -50v42c80 0 144 50 144 167l-396 545l-57 88h-2c3 -35 5 -65 5 -88v-549z" />
    <glyph glyph-name="eng" unicode="&#x14b;" horiz-adv-x="586" 
d="M129 0h-42v500h42v-83l-2 -41h2c11 31 35 62 72 91c37 30 83 45 138 45c123 0 165 -67 165 -195v-342c0 -77 -25 -132 -62 -155c-36 -24 -65 -30 -97 -30l-25 2v39c6 -1 13 -2 22 -2c25 0 47 5 74 24c28 17 46 61 46 121v328c0 40 -2 65 -11 96c-13 45 -46 73 -112 73
c-59 0 -109 -22 -150 -65c-40 -43 -60 -96 -60 -157v-249z" />
    <glyph glyph-name="Omacron" unicode="&#x14c;" horiz-adv-x="826" 
d="M59 355c0 101 34 185 102 254s152 103 252 103s184 -34 252 -103s102 -153 102 -254c0 -103 -34 -190 -102 -261s-152 -106 -252 -106s-184 35 -252 106s-102 158 -102 261zM104 355c0 -92 29 -169 88 -232s133 -94 221 -94s161 31 220 94s89 140 89 232
c0 90 -30 165 -89 225c-59 61 -132 91 -220 91s-162 -30 -221 -91c-59 -60 -88 -135 -88 -225zM533 786h-239v40h239v-40z" />
    <glyph glyph-name="omacron" unicode="&#x14d;" horiz-adv-x="620" 
d="M51 253c0 73 25 134 75 184c51 50 112 75 184 75s133 -25 183 -75c51 -50 76 -111 76 -184c0 -74 -25 -137 -76 -188c-50 -51 -111 -77 -183 -77s-133 26 -184 77c-50 51 -75 114 -75 188zM95 253c0 -63 21 -117 62 -160c42 -43 93 -64 153 -64s111 21 152 64
c42 43 63 97 63 160c0 61 -21 113 -63 155c-41 42 -92 63 -152 63s-111 -21 -153 -63c-41 -42 -62 -94 -62 -155zM430 625h-239v40h239v-40z" />
    <glyph glyph-name="Obreve" unicode="&#x14e;" horiz-adv-x="826" 
d="M59 355c0 101 34 185 102 254s152 103 252 103s184 -34 252 -103s102 -153 102 -254c0 -103 -34 -190 -102 -261s-152 -106 -252 -106s-184 35 -252 106s-102 158 -102 261zM104 355c0 -92 29 -169 88 -232s133 -94 221 -94s161 31 220 94s89 140 89 232
c0 90 -30 165 -89 225c-59 61 -132 91 -220 91s-162 -30 -221 -91c-59 -60 -88 -135 -88 -225zM312 845v16h40v-14c0 -41 25 -62 61 -62c35 0 61 20 61 63v13h40v-16c6 -130 -208 -130 -202 0z" />
    <glyph glyph-name="obreve" unicode="&#x14f;" horiz-adv-x="620" 
d="M51 253c0 73 25 134 75 184c51 50 112 75 184 75s133 -25 183 -75c51 -50 76 -111 76 -184c0 -74 -25 -137 -76 -188c-50 -51 -111 -77 -183 -77s-133 26 -184 77c-50 51 -75 114 -75 188zM95 253c0 -63 21 -117 62 -160c42 -43 93 -64 153 -64s111 21 152 64
c42 43 63 97 63 160c0 61 -21 113 -63 155c-41 42 -92 63 -152 63s-111 -21 -153 -63c-41 -42 -62 -94 -62 -155zM209 684v16h40v-14c0 -41 25 -62 61 -62c35 0 61 20 61 63v13h40v-16c6 -130 -208 -130 -202 0z" />
    <glyph glyph-name="Ohungarumlaut" unicode="&#x150;" horiz-adv-x="826" 
d="M59 355c0 101 34 185 102 254s152 103 252 103s184 -34 252 -103s102 -153 102 -254c0 -103 -34 -190 -102 -261s-152 -106 -252 -106s-184 35 -252 106s-102 158 -102 261zM104 355c0 -92 29 -169 88 -232s133 -94 221 -94s161 31 220 94s89 140 89 232
c0 90 -30 165 -89 225c-59 61 -132 91 -220 91s-162 -30 -221 -91c-59 -60 -88 -135 -88 -225zM477 750h-44l67 111h56zM365 750h-47l62 111h50z" />
    <glyph glyph-name="ohungarumlaut" unicode="&#x151;" horiz-adv-x="620" 
d="M51 253c0 73 25 134 75 184c51 50 112 75 184 75s133 -25 183 -75c51 -50 76 -111 76 -184c0 -74 -25 -137 -76 -188c-50 -51 -111 -77 -183 -77s-133 26 -184 77c-50 51 -75 114 -75 188zM95 253c0 -63 21 -117 62 -160c42 -43 93 -64 153 -64s111 21 152 64
c42 43 63 97 63 160c0 61 -21 113 -63 155c-41 42 -92 63 -152 63s-111 -21 -153 -63c-41 -42 -62 -94 -62 -155zM374 589h-44l67 111h56zM262 589h-47l62 111h50z" />
    <glyph glyph-name="OE" unicode="&#x152;" horiz-adv-x="931" 
d="M60 350c0 102 33 187 99 256s150 104 253 104c12 0 32 -2 60 -5s47 -5 56 -5h337v-40h-340v-287h279v-40h-279v-293h359v-40h-355c-9 0 -27 -2 -56 -5s-49 -5 -61 -5c-103 0 -187 34 -253 103s-99 154 -99 257zM105 350c0 -92 28 -168 85 -229c57 -60 131 -90 222 -90
c21 0 48 3 60 6l10 2v622c-22 5 -45 8 -70 8c-91 0 -165 -30 -222 -91s-85 -137 -85 -228z" />
    <glyph glyph-name="oe" unicode="&#x153;" horiz-adv-x="1022" 
d="M310 512c103 0 193 -57 234 -149h2c39 95 123 149 222 149c65 0 115 -22 150 -66c36 -43 54 -97 54 -162l-2 -27h-401c2 -72 23 -128 64 -168s91 -60 150 -60s111 21 155 63l23 -35c-44 -43 -113 -69 -178 -69c-105 0 -196 57 -236 150h-2c-41 -93 -131 -150 -235 -150
c-72 0 -133 24 -183 72c-50 49 -75 112 -75 189s25 140 75 189c51 49 112 74 183 74zM572 296h356c-5 116 -72 177 -161 177c-97 0 -178 -65 -195 -177zM525 254c0 64 -21 116 -63 156c-42 41 -93 61 -152 61c-60 0 -111 -21 -152 -62s-62 -95 -62 -160s21 -118 62 -159
s92 -61 152 -61s111 21 152 62c42 41 63 96 63 163z" />
    <glyph glyph-name="Racute" unicode="&#x154;" horiz-adv-x="607" 
d="M150 0h-43v700h205c56 0 98 -7 126 -21c60 -29 97 -91 97 -168c0 -99 -57 -174 -140 -193v-2c5 -5 10 -14 16 -25l157 -291h-51l-166 310h-201v-310zM150 660v-310h190c91 0 150 65 150 161c0 61 -31 112 -82 135c-21 9 -53 14 -98 14h-160zM318 750h-44l67 111h56z" />
    <glyph glyph-name="racute" unicode="&#x155;" horiz-adv-x="340" 
d="M129 0h-42v500h42v-95l-4 -41h2c27 81 85 140 160 140c10 0 20 -1 29 -3v-42c-4 1 -12 2 -23 2c-37 0 -68 -14 -94 -41c-52 -55 -70 -129 -70 -204v-216zM226 589h-44l67 111h56z" />
    <glyph glyph-name="Rcommaaccent" unicode="&#x156;" horiz-adv-x="607" 
d="M150 0h-43v700h205c56 0 98 -7 126 -21c60 -29 97 -91 97 -168c0 -99 -57 -174 -140 -193v-2c5 -5 10 -14 16 -25l157 -291h-51l-166 310h-201v-310zM150 660v-310h190c91 0 150 65 150 161c0 61 -31 112 -82 135c-21 9 -53 14 -98 14h-160zM292 -66h48
c4 -17 6 -32 6 -47c0 -25 -7 -54 -22 -87h-39c12 31 18 57 18 78c0 18 -4 37 -11 56z" />
    <glyph glyph-name="rcommaaccent" unicode="&#x157;" horiz-adv-x="340" 
d="M129 0h-42v500h42v-95l-4 -41h2c27 81 85 140 160 140c10 0 20 -1 29 -3v-42c-4 1 -12 2 -23 2c-37 0 -68 -14 -94 -41c-52 -55 -70 -129 -70 -204v-216zM85 -66h48c4 -17 6 -33 6 -47c0 -25 -7 -54 -22 -87h-39c12 31 18 57 18 78c0 18 -4 37 -11 56z" />
    <glyph glyph-name="Rcaron" unicode="&#x158;" horiz-adv-x="607" 
d="M150 0h-43v700h205c56 0 98 -7 126 -21c60 -29 97 -91 97 -168c0 -99 -57 -174 -140 -193v-2c5 -5 10 -14 16 -25l157 -291h-51l-166 310h-201v-310zM150 660v-310h190c91 0 150 65 150 161c0 61 -31 112 -82 135c-21 9 -53 14 -98 14h-160zM323 750h-52l-80 111h49
l56 -80h2l56 80h49z" />
    <glyph glyph-name="rcaron" unicode="&#x159;" horiz-adv-x="340" 
d="M231 589h-52l-80 111h49l56 -80h2l56 80h49zM129 0h-42v500h42v-95l-4 -41h2c27 81 85 140 160 140c10 0 20 -1 29 -3v-42c-4 1 -12 2 -23 2c-37 0 -68 -14 -94 -41c-52 -55 -70 -129 -70 -204v-216z" />
    <glyph glyph-name="Sacute" unicode="&#x15a;" horiz-adv-x="524" 
d="M52 75l29 33c52 -52 113 -78 184 -78c93 0 159 55 159 138c0 72 -56 122 -127 151c-100 43 -233 87 -231 213c0 54 20 97 60 130c41 33 91 50 151 50c73 0 132 -22 177 -65l-24 -37c-37 37 -99 60 -155 60c-45 0 -84 -12 -116 -37s-48 -57 -48 -98
c0 -68 57 -115 126 -144c101 -40 233 -87 232 -218c0 -54 -19 -98 -56 -133s-86 -52 -149 -52c-83 0 -154 29 -212 87zM285 750h-44l67 111h56z" />
    <glyph glyph-name="sacute" unicode="&#x15b;" horiz-adv-x="430" 
d="M41 60l27 32c40 -42 92 -63 155 -63c65 0 115 35 115 94c0 47 -44 78 -97 98c-78 29 -178 61 -178 156c0 43 15 76 46 99c31 24 69 36 114 36c63 0 113 -18 148 -54l-25 -34c-29 31 -71 47 -126 47c-63 0 -113 -30 -113 -91c0 -48 44 -79 97 -100
c78 -29 178 -60 178 -157c0 -80 -67 -135 -160 -135c-77 0 -137 24 -181 72zM241 589h-44l67 111h56z" />
    <glyph glyph-name="Scircumflex" unicode="&#x15c;" horiz-adv-x="524" 
d="M52 75l29 33c52 -52 113 -78 184 -78c93 0 159 55 159 138c0 72 -56 122 -127 151c-100 43 -233 87 -231 213c0 54 20 97 60 130c41 33 91 50 151 50c73 0 132 -22 177 -65l-24 -37c-37 37 -99 60 -155 60c-45 0 -84 -12 -116 -37s-48 -57 -48 -98
c0 -68 57 -115 126 -144c101 -40 233 -87 232 -218c0 -54 -19 -98 -56 -133s-86 -52 -149 -52c-83 0 -154 29 -212 87zM208 750h-49l80 111h52l80 -111h-49l-56 80h-2z" />
    <glyph glyph-name="scircumflex" unicode="&#x15d;" horiz-adv-x="430" 
d="M41 60l27 32c40 -42 92 -63 155 -63c65 0 115 35 115 94c0 47 -44 78 -97 98c-78 29 -178 61 -178 156c0 43 15 76 46 99c31 24 69 36 114 36c63 0 113 -18 148 -54l-25 -34c-29 31 -71 47 -126 47c-63 0 -113 -30 -113 -91c0 -48 44 -79 97 -100
c78 -29 178 -60 178 -157c0 -80 -67 -135 -160 -135c-77 0 -137 24 -181 72zM164 589h-49l80 111h52l80 -111h-49l-56 80h-2z" />
    <glyph glyph-name="Scedilla" unicode="&#x15e;" horiz-adv-x="525" 
d="M240 -92l-12 -1l17 82c-77 4 -141 33 -193 86l29 33c52 -52 113 -78 184 -78c93 0 159 55 159 138c0 72 -56 122 -127 151c-100 43 -233 87 -231 213c0 54 20 97 60 130c41 33 91 50 151 50c73 0 132 -22 177 -65l-24 -37c-37 37 -99 60 -155 60c-45 0 -84 -12 -116 -37
s-48 -57 -48 -98c0 -68 57 -115 126 -144c101 -40 233 -87 232 -218c0 -51 -17 -94 -51 -129c-33 -34 -79 -52 -137 -55l-9 -49c41 -7 69 -32 69 -68c0 -52 -39 -76 -91 -76c-17 0 -31 1 -44 4v38c11 -3 25 -5 41 -5c36 0 54 12 54 37s-20 38 -61 38z" />
    <glyph glyph-name="scedilla" unicode="&#x15f;" horiz-adv-x="432" 
d="M195 -92l-12 -1l17 82c-68 6 -121 30 -158 71l27 32c40 -42 92 -63 155 -63c65 0 115 35 115 94c0 47 -44 78 -97 98c-78 29 -178 61 -178 156c0 43 15 76 46 99c31 24 69 36 114 36c63 0 113 -18 148 -54l-25 -34c-29 31 -71 47 -126 47c-63 0 -113 -30 -113 -91
c0 -48 44 -79 97 -100c78 -29 178 -60 178 -157c0 -75 -62 -129 -147 -134l-9 -49c41 -7 69 -32 69 -68c0 -52 -39 -76 -91 -76c-17 0 -31 1 -44 4v38c11 -3 25 -5 41 -5c36 0 54 12 54 37s-20 38 -61 38z" />
    <glyph glyph-name="Scaron" unicode="&#x160;" horiz-adv-x="524" 
d="M52 75l29 33c52 -52 113 -78 184 -78c93 0 159 55 159 138c0 72 -56 122 -127 151c-100 43 -233 87 -231 213c0 54 20 97 60 130c41 33 91 50 151 50c73 0 132 -22 177 -65l-24 -37c-37 37 -99 60 -155 60c-45 0 -84 -12 -116 -37s-48 -57 -48 -98
c0 -68 57 -115 126 -144c101 -40 233 -87 232 -218c0 -54 -19 -98 -56 -133s-86 -52 -149 -52c-83 0 -154 29 -212 87zM291 750h-52l-80 111h49l56 -80h2l56 80h49z" />
    <glyph glyph-name="scaron" unicode="&#x161;" horiz-adv-x="430" 
d="M41 60l27 32c40 -42 92 -63 155 -63c65 0 115 35 115 94c0 47 -44 78 -97 98c-78 29 -178 61 -178 156c0 43 15 76 46 99c31 24 69 36 114 36c63 0 113 -18 148 -54l-25 -34c-29 31 -71 47 -126 47c-63 0 -113 -30 -113 -91c0 -48 44 -79 97 -100
c78 -29 178 -60 178 -157c0 -80 -67 -135 -160 -135c-77 0 -137 24 -181 72zM247 589h-52l-80 111h49l56 -80h2l56 80h49z" />
    <glyph glyph-name="Tcommaaccent" unicode="&#x162;" horiz-adv-x="601" 
d="M282 0h-3v660h-261v40h565v-40h-261v-660h-5l-11 -60c41 -7 69 -32 69 -68c0 -52 -39 -76 -91 -76c-17 0 -31 1 -44 4v38c11 -3 25 -5 41 -5c36 0 54 12 54 37s-20 38 -61 38l-12 -1z" />
    <glyph glyph-name="tcommaaccent" unicode="&#x163;" horiz-adv-x="304" 
d="M164 -92l-12 -1l24 110c-49 29 -74 83 -74 164v278h-66v38h66v142h42v-142h131v-38h-131v-275c0 -61 18 -105 45 -125c27 -19 49 -24 74 -24c10 0 18 1 23 2v-39c-5 -1 -14 -2 -25 -2c-17 0 -35 2 -54 7l-11 -63c41 -7 69 -32 69 -68c0 -52 -39 -76 -91 -76
c-17 0 -31 1 -44 4v38c11 -3 25 -5 41 -5c36 0 54 12 54 37s-20 38 -61 38z" />
    <glyph glyph-name="Tcaron" unicode="&#x164;" horiz-adv-x="601" 
d="M326 750h-52l-80 111h49l56 -80h2l56 80h49zM322 0h-43v660h-261v40h565v-40h-261v-660z" />
    <glyph glyph-name="tcaron" unicode="&#x165;" horiz-adv-x="304" 
d="M102 181v278h-66v38h66v142h42v-142h131v-38h-131v-275c0 -61 18 -105 45 -125c27 -19 49 -24 74 -24c10 0 18 1 23 2v-39c-5 -1 -14 -2 -25 -2c-52 0 -159 19 -159 185zM217 700h48c4 -17 6 -32 6 -47c0 -25 -7 -54 -22 -87h-39c12 31 18 57 18 78c0 18 -4 37 -11 56z
" />
    <glyph glyph-name="Tbar" unicode="&#x166;" horiz-adv-x="611" 
d="M327 0h-43v337h-166v40h166v283h-261v40h565v-40h-261v-283h170v-40h-170v-337z" />
    <glyph glyph-name="tbar" unicode="&#x167;" horiz-adv-x="309" 
d="M104 295h-66v40h66v124h-66v38h66v142h42v-142h131v-38h-131v-124h131v-40h-131v-111c0 -61 18 -105 45 -125c27 -19 49 -24 74 -24l23 2v-39c-7 -1 -15 -2 -25 -2c-52 0 -159 19 -159 185v114z" />
    <glyph glyph-name="Utilde" unicode="&#x168;" horiz-adv-x="721" 
d="M256 753h-40c0 72 28 108 83 108c67 0 79 -74 126 -74c27 0 40 24 40 71h40c0 -72 -28 -108 -83 -108c-67 0 -79 74 -126 74c-27 0 -40 -24 -40 -71zM99 240v460h43v-458c0 -131 85 -213 218 -213s219 82 219 215v456h43v-460c0 -77 -24 -138 -73 -184
c-48 -45 -111 -68 -188 -68c-78 0 -141 23 -190 69c-48 46 -72 107 -72 183z" />
    <glyph glyph-name="utilde" unicode="&#x169;" horiz-adv-x="580" 
d="M81 183v317h42v-302c0 -40 2 -65 11 -97c13 -43 46 -72 112 -72c60 0 109 22 147 67c39 45 58 99 58 160v244h42v-500h-42v88l4 41h-2c-11 -32 -35 -64 -72 -95s-82 -46 -135 -46c-119 0 -165 63 -165 195zM183 592h-40c0 72 28 108 83 108c67 0 79 -74 126 -74
c27 0 40 24 40 71h40c0 -72 -28 -108 -83 -108c-67 0 -79 74 -126 74c-27 0 -40 -24 -40 -71z" />
    <glyph glyph-name="Umacron" unicode="&#x16a;" horiz-adv-x="721" 
d="M99 240v460h43v-458c0 -131 85 -213 218 -213s219 82 219 215v456h43v-460c0 -77 -24 -138 -73 -184c-48 -45 -111 -68 -188 -68c-78 0 -141 23 -190 69c-48 46 -72 107 -72 183zM480 786h-239v40h239v-40z" />
    <glyph glyph-name="umacron" unicode="&#x16b;" horiz-adv-x="580" 
d="M81 183v317h42v-302c0 -40 2 -65 11 -97c13 -43 46 -72 112 -72c60 0 109 22 147 67c39 45 58 99 58 160v244h42v-500h-42v88l4 41h-2c-11 -32 -35 -64 -72 -95s-82 -46 -135 -46c-119 0 -165 63 -165 195zM407 625h-239v40h239v-40z" />
    <glyph glyph-name="Ubreve" unicode="&#x16c;" horiz-adv-x="721" 
d="M99 240v460h43v-458c0 -131 85 -213 218 -213s219 82 219 215v456h43v-460c0 -77 -24 -138 -73 -184c-48 -45 -111 -68 -188 -68c-78 0 -141 23 -190 69c-48 46 -72 107 -72 183zM259 845v16h40v-14c0 -41 25 -62 61 -62c35 0 61 20 61 63v13h40v-16
c6 -130 -208 -130 -202 0z" />
    <glyph glyph-name="ubreve" unicode="&#x16d;" horiz-adv-x="580" 
d="M81 183v317h42v-302c0 -40 2 -65 11 -97c13 -43 46 -72 112 -72c60 0 109 22 147 67c39 45 58 99 58 160v244h42v-500h-42v88l4 41h-2c-11 -32 -35 -64 -72 -95s-82 -46 -135 -46c-119 0 -165 63 -165 195zM186 684v16h40v-14c0 -41 25 -62 61 -62c35 0 61 20 61 63v13
h40v-16c6 -130 -208 -130 -202 0z" />
    <glyph glyph-name="Uring" unicode="&#x16e;" horiz-adv-x="721" 
d="M99 240v460h43v-458c0 -131 85 -213 218 -213s219 82 219 215v456h43v-460c0 -77 -24 -138 -73 -184c-48 -45 -111 -68 -188 -68c-78 0 -141 23 -190 69c-48 46 -72 107 -72 183zM407 759c-25 -25 -68 -25 -95 0c-25 25 -25 71 0 96c27 25 70 25 95 0
c27 -25 27 -71 0 -96zM392 807c0 43 -64 43 -64 0c0 -42 64 -42 64 0z" />
    <glyph glyph-name="uring" unicode="&#x16f;" horiz-adv-x="580" 
d="M81 183v317h42v-302c0 -40 2 -65 11 -97c13 -43 46 -72 112 -72c60 0 109 22 147 67c39 45 58 99 58 160v244h42v-500h-42v88l4 41h-2c-11 -32 -35 -64 -72 -95s-82 -46 -135 -46c-119 0 -165 63 -165 195zM335 598c-25 -25 -71 -25 -96 0c-25 27 -25 70 0 95
c25 27 71 27 96 0c25 -25 25 -68 0 -95zM319 646c0 43 -64 43 -64 0c0 -42 64 -42 64 0z" />
    <glyph glyph-name="Uhungarumlaut" unicode="&#x170;" horiz-adv-x="721" 
d="M99 240v460h43v-458c0 -131 85 -213 218 -213s219 82 219 215v456h43v-460c0 -77 -24 -138 -73 -184c-48 -45 -111 -68 -188 -68c-78 0 -141 23 -190 69c-48 46 -72 107 -72 183zM424 750h-44l67 111h56zM312 750h-47l62 111h50z" />
    <glyph glyph-name="uhungarumlaut" unicode="&#x171;" horiz-adv-x="580" 
d="M81 183v317h42v-302c0 -40 2 -65 11 -97c13 -43 46 -72 112 -72c60 0 109 22 147 67c39 45 58 99 58 160v244h42v-500h-42v88l4 41h-2c-11 -32 -35 -64 -72 -95s-82 -46 -135 -46c-119 0 -165 63 -165 195zM351 589h-44l67 111h56zM239 589h-47l62 111h50z" />
    <glyph glyph-name="Uogonek" unicode="&#x172;" horiz-adv-x="721" 
d="M99 240v460h43v-458c0 -131 85 -213 218 -213s219 82 219 215v456h43v-460c0 -113 -51 -174 -131 -225c-25 -15 -43 -28 -56 -37c-25 -19 -55 -54 -55 -87c0 -29 28 -49 51 -53l17 -3l-9 -39c-5 0 -12 0 -36 8c-32 9 -68 32 -68 83c0 34 18 68 53 102
c-12 -1 -21 -1 -27 -1c-78 0 -141 23 -190 69c-48 46 -72 107 -72 183z" />
    <glyph glyph-name="uogonek" unicode="&#x173;" horiz-adv-x="580" 
d="M81 183v317h42v-302c0 -40 2 -65 11 -97c13 -43 46 -72 112 -72c60 0 109 22 147 67c39 45 58 99 58 160v244h42v-500c-53 -39 -80 -76 -80 -109c0 -29 28 -49 51 -53l17 -3l-9 -39c-5 0 -12 0 -36 8c-32 9 -68 32 -68 83c0 42 28 82 83 120v81l4 41h-2
c-11 -32 -35 -64 -72 -95s-82 -46 -135 -46c-119 0 -165 63 -165 195z" />
    <glyph glyph-name="Wcircumflex" unicode="&#x174;" horiz-adv-x="914" 
d="M279 0h-54l-184 700h45l148 -570l17 -75h2c6 27 12 52 19 75l160 570h48l160 -570l19 -75h2c5 27 11 52 17 75l153 570h45l-189 -700h-54l-148 528l-27 111h-4c-9 -44 -18 -81 -27 -111zM410 750h-49l80 111h52l80 -111h-49l-56 80h-2z" />
    <glyph glyph-name="wcircumflex" unicode="&#x175;" horiz-adv-x="823" 
d="M255 0h-45l-176 500h45l136 -392l17 -54h2l17 54l137 390h47l137 -390l17 -54h2c5 19 11 37 17 54l136 392h45l-176 -500h-45l-139 388l-17 54h-2c-5 -20 -11 -38 -17 -54zM354 589h-49l80 111h52l80 -111h-49l-56 80h-2z" />
    <glyph glyph-name="Ycircumflex" unicode="&#x176;" horiz-adv-x="567" 
d="M305 0h-43v304l-238 396h49l166 -276l43 -79h2c15 30 29 56 43 79l166 276h49l-237 -396v-304zM226 750h-49l80 111h52l80 -111h-49l-56 80h-2z" />
    <glyph glyph-name="ycircumflex" unicode="&#x177;" horiz-adv-x="517" 
d="M22 -182l19 36c19 -16 39 -24 62 -24c40 0 73 30 98 90l36 83l-207 497h45l165 -399l18 -47h2c5 15 10 31 17 47l165 399h45l-257 -617c-26 -62 -68 -93 -127 -93c-28 0 -59 12 -71 21zM203 589h-49l80 111h52l80 -111h-49l-56 80h-2z" />
    <glyph glyph-name="Ydieresis" unicode="&#x178;" horiz-adv-x="567" 
d="M305 0h-43v304l-238 396h49l166 -276l43 -79h2c15 30 29 56 43 79l166 276h49l-237 -396v-304zM369 788h-46v73h46v-73zM232 788h-46v73h46v-73z" />
    <glyph glyph-name="Zacute" unicode="&#x179;" horiz-adv-x="565" 
d="M523 0h-488v34l385 562l48 64v2c-11 -1 -28 -2 -51 -2h-361v40h464v-34l-385 -562l-48 -64v-2c11 1 28 2 51 2h385v-40zM315 750h-44l67 111h56z" />
    <glyph glyph-name="zacute" unicode="&#x17a;" horiz-adv-x="487" 
d="M448 0h-410v34l303 381l39 46v2c-12 -1 -29 -2 -51 -2h-278v39h386v-34l-304 -381l-40 -46v-2c13 1 30 2 52 2h303v-39zM263 589h-44l67 111h56z" />
    <glyph glyph-name="Zdotaccent" unicode="&#x17b;" horiz-adv-x="565" 
d="M523 0h-488v34l385 562l48 64v2c-11 -1 -28 -2 -51 -2h-361v40h464v-34l-385 -562l-48 -64v-2c11 1 28 2 51 2h385v-40zM317 788h-46v73h46v-73z" />
    <glyph glyph-name="zdotaccent" unicode="&#x17c;" horiz-adv-x="487" 
d="M448 0h-410v34l303 381l39 46v2c-12 -1 -29 -2 -51 -2h-278v39h386v-34l-304 -381l-40 -46v-2c13 1 30 2 52 2h303v-39zM266 627h-46v73h46v-73z" />
    <glyph glyph-name="Zcaron" unicode="&#x17d;" horiz-adv-x="565" 
d="M523 0h-488v34l385 562l48 64v2c-11 -1 -28 -2 -51 -2h-361v40h464v-34l-385 -562l-48 -64v-2c11 1 28 2 51 2h385v-40zM320 750h-52l-80 111h49l56 -80h2l56 80h49z" />
    <glyph glyph-name="zcaron" unicode="&#x17e;" horiz-adv-x="487" 
d="M448 0h-410v34l303 381l39 46v2c-12 -1 -29 -2 -51 -2h-278v39h386v-34l-304 -381l-40 -46v-2c13 1 30 2 52 2h303v-39zM269 589h-52l-80 111h49l56 -80h2l56 80h49z" />
    <glyph glyph-name="longs" unicode="&#x17f;" horiz-adv-x="251" 
d="M144 0h-42v459h-63v38h63v23c0 77 25 132 61 155c37 23 65 30 97 30l26 -2v-39c-6 1 -14 2 -23 2c-25 0 -46 -5 -74 -24c-27 -17 -45 -61 -45 -121v-521z" />
    <glyph glyph-name="florin" unicode="&#x192;" horiz-adv-x="560" 
d="M36 -96v39c18 -3 39 -5 62 -5c40 0 120 16 130 145l26 295h-96v38h99l10 111c14 166 125 185 176 185c25 0 55 -3 70 -6l11 -1v-39c-28 5 -55 7 -82 7c-25 0 -47 -5 -76 -24c-28 -17 -50 -61 -55 -121l-11 -112h133v-38h-136l-26 -294c-7 -77 -36 -132 -75 -155
c-39 -24 -67 -30 -99 -30z" />
    <glyph glyph-name="Scommaaccent" unicode="&#x218;" horiz-adv-x="524" 
d="M52 75l29 33c52 -52 113 -78 184 -78c93 0 159 55 159 138c0 72 -56 122 -127 151c-100 43 -233 87 -231 213c0 54 20 97 60 130c41 33 91 50 151 50c73 0 132 -22 177 -65l-24 -37c-37 37 -99 60 -155 60c-45 0 -84 -12 -116 -37s-48 -57 -48 -98
c0 -68 57 -115 126 -144c101 -40 233 -87 232 -218c0 -54 -19 -98 -56 -133s-86 -52 -149 -52c-83 0 -154 29 -212 87zM238 -66h48c4 -17 6 -32 6 -47c0 -25 -7 -54 -22 -87h-39c12 31 18 57 18 78c0 18 -4 37 -11 56z" />
    <glyph glyph-name="scommaaccent" unicode="&#x219;" horiz-adv-x="430" 
d="M41 60l27 32c40 -42 92 -63 155 -63c65 0 115 35 115 94c0 47 -44 78 -97 98c-78 29 -178 61 -178 156c0 43 15 76 46 99c31 24 69 36 114 36c63 0 113 -18 148 -54l-25 -34c-29 31 -71 47 -126 47c-63 0 -113 -30 -113 -91c0 -48 44 -79 97 -100
c78 -29 178 -60 178 -157c0 -80 -67 -135 -160 -135c-77 0 -137 24 -181 72zM195 -66h48c4 -17 6 -33 6 -47c0 -25 -7 -54 -22 -87h-39c12 31 18 57 18 78c0 18 -4 37 -11 56z" />
    <glyph glyph-name="uni021A" unicode="&#x21a;" horiz-adv-x="601" 
d="M322 0h-43v660h-261v40h565v-40h-261v-660zM277 -66h48c4 -17 6 -32 6 -47c0 -25 -7 -54 -22 -87h-39c12 31 18 57 18 78c0 18 -4 37 -11 56z" />
    <glyph glyph-name="uni021B" unicode="&#x21b;" horiz-adv-x="304" 
d="M102 181v278h-66v38h66v142h42v-142h131v-38h-131v-275c0 -61 18 -105 45 -125c27 -19 49 -24 74 -24c10 0 18 1 23 2v-39c-5 -1 -14 -2 -25 -2c-52 0 -159 19 -159 185zM172 -66h48c4 -17 6 -33 6 -47c0 -25 -7 -54 -22 -87h-39c12 31 18 57 18 78c0 18 -4 37 -11 56z
" />
    <glyph glyph-name="circumflex" unicode="&#x2c6;" horiz-adv-x="508" 
d="M197 750h-49l80 111h52l80 -111h-49l-56 80h-2z" />
    <glyph glyph-name="caron" unicode="&#x2c7;" horiz-adv-x="508" 
d="M280 750h-52l-80 111h49l56 -80h2l56 80h49z" />
    <glyph glyph-name="breve" unicode="&#x2d8;" horiz-adv-x="510" 
d="M154 845v16h40v-14c0 -41 25 -62 61 -62c35 0 61 20 61 63v13h40v-16c6 -130 -208 -130 -202 0z" />
    <glyph glyph-name="dotaccent" unicode="&#x2d9;" horiz-adv-x="510" 
d="M278 788h-46v73h46v-73z" />
    <glyph glyph-name="ring" unicode="&#x2da;" horiz-adv-x="510" 
d="M303 759c-25 -25 -71 -25 -96 0s-25 71 0 96s71 25 96 0s25 -71 0 -96zM287 807c0 43 -64 43 -64 0c0 -42 64 -42 64 0z" />
    <glyph glyph-name="ogonek" unicode="&#x2db;" horiz-adv-x="509" 
d="M187 -113c0 62 61 112 86 127l10 6l39 -13l-25 -18c-10 -7 -23 -21 -40 -41c-17 -21 -25 -40 -25 -57c0 -29 28 -49 51 -53l17 -3l-9 -39c-5 0 -12 0 -36 8c-32 9 -68 32 -68 83z" />
    <glyph glyph-name="tilde" unicode="&#x2dc;" horiz-adv-x="509" 
d="M150 753h-40c0 72 28 108 83 108c67 0 79 -74 126 -74c27 0 40 24 40 71h40c0 -72 -28 -108 -83 -108c-67 0 -79 74 -126 74c-27 0 -40 -24 -40 -71z" />
    <glyph glyph-name="hungarumlaut" unicode="&#x2dd;" horiz-adv-x="509" 
d="M295 750h-44l67 111h56zM183 750h-47l62 111h50z" />
    <glyph glyph-name="uni0400" unicode="&#x400;" horiz-adv-x="556" 
d="M509 0h-402v700h383v-40h-340v-287h279v-40h-279v-293h359v-40zM346 750h-44l-79 111h56z" />
    <glyph glyph-name="uni0401" unicode="&#x401;" horiz-adv-x="556" 
d="M509 0h-402v700h383v-40h-340v-287h279v-40h-279v-293h359v-40zM398 788h-46v73h46v-73zM261 788h-46v73h46v-73z" />
    <glyph glyph-name="uni0402" unicode="&#x402;" horiz-adv-x="718" 
d="M266 0h-43v660h-206v40h493v-40h-244v-259l-1 -30h2c64 31 127 46 188 46c143 0 221 -83 221 -208c0 -75 -21 -131 -64 -167c-42 -36 -93 -54 -154 -54c-13 0 -28 1 -47 2v39c12 -1 27 -2 44 -2c50 0 92 14 126 43c35 29 52 75 52 139c0 101 -58 167 -178 167
c-31 0 -63 -4 -94 -13s-55 -17 -71 -25l-24 -13v-325z" />
    <glyph glyph-name="uni0403" unicode="&#x403;" horiz-adv-x="476" 
d="M150 0h-43v700h353v-40h-310v-660zM296 750h-44l67 111h56z" />
    <glyph glyph-name="uni0404" unicode="&#x404;" horiz-adv-x="717" 
d="M60 355c0 101 33 186 99 254c67 69 149 103 248 103c61 0 123 -14 160 -31s68 -36 81 -48l9 -9l-26 -32c-4 4 -9 10 -38 27c-15 9 -30 17 -46 24c-32 15 -87 28 -139 28c-83 0 -154 -28 -212 -85c-57 -57 -88 -128 -91 -215h422v-40h-421c5 -86 37 -158 94 -216
c57 -57 128 -86 211 -86c119 0 202 60 227 85l10 10l27 -30c-5 -5 -11 -13 -44 -37c-17 -12 -35 -23 -54 -32c-37 -19 -102 -37 -166 -37c-101 0 -184 35 -251 106s-100 158 -100 261z" />
    <glyph glyph-name="uni0405" unicode="&#x405;" horiz-adv-x="524" 
d="M52 75l29 33c52 -52 113 -78 184 -78c93 0 159 55 159 138c0 72 -56 122 -127 151c-100 43 -233 87 -231 213c0 54 20 97 60 130c41 33 91 50 151 50c73 0 132 -22 177 -65l-24 -37c-37 37 -99 60 -155 60c-45 0 -84 -12 -116 -37s-48 -57 -48 -98
c0 -68 57 -115 126 -144c101 -40 233 -87 232 -218c0 -54 -19 -98 -56 -133s-86 -52 -149 -52c-83 0 -154 29 -212 87z" />
    <glyph glyph-name="uni0406" unicode="&#x406;" horiz-adv-x="257" 
d="M150 0h-43v700h43v-700z" />
    <glyph glyph-name="uni0407" unicode="&#x407;" horiz-adv-x="257" 
d="M150 0h-43v700h43v-700zM221 788h-46v73h46v-73zM84 788h-46v73h46v-73z" />
    <glyph glyph-name="uni0408" unicode="&#x408;" horiz-adv-x="509" 
d="M35 191v22h43v-23c0 -92 50 -161 143 -161c81 0 145 49 145 161v470h-167v40h210v-509c0 -69 -18 -121 -55 -154c-36 -33 -80 -49 -132 -49s-96 16 -133 49c-36 33 -54 85 -54 154z" />
    <glyph glyph-name="uni0409" unicode="&#x409;" horiz-adv-x="923" 
d="M22 -8v42c69 9 117 65 141 166c25 103 33 214 33 381v119h329v-310h148c127 0 212 -72 212 -195c0 -59 -20 -107 -60 -142c-39 -35 -88 -53 -146 -53h-197v660h-244v-79c0 -60 -1 -113 -3 -158c-4 -89 -14 -189 -34 -254c-30 -98 -84 -171 -179 -177zM525 350v-310h150
c97 0 165 56 165 155c0 96 -69 155 -165 155h-150z" />
    <glyph glyph-name="uni040A" unicode="&#x40a;" horiz-adv-x="988" 
d="M150 0h-43v700h43v-311h394v311h43v-310h158c60 0 109 -17 147 -52c39 -35 58 -82 58 -143c0 -59 -20 -107 -60 -142c-39 -35 -88 -53 -146 -53h-200v349h-394v-349zM587 350v-310h153c97 0 165 56 165 155c0 96 -69 155 -165 155h-153z" />
    <glyph glyph-name="uni040B" unicode="&#x40b;" horiz-adv-x="712" 
d="M266 0h-43v660h-206v40h492v-40h-243v-264l-2 -33h2c61 36 128 54 201 54c126 0 189 -64 189 -193v-224h-43v217c0 107 -45 159 -146 159c-39 0 -78 -7 -115 -20s-65 -26 -86 -41v-315z" />
    <glyph glyph-name="uni040C" unicode="&#x40c;" horiz-adv-x="571" 
d="M150 0h-43v700h43v-312h130l200 312h52l-215 -330v-2l229 -368h-52l-214 348h-130v-348zM316 750h-44l67 111h56z" />
    <glyph glyph-name="uni040D" unicode="&#x40d;" horiz-adv-x="750" 
d="M147 0h-40v700h43v-549l-5 -88h2c25 39 46 70 61 91l395 546h40v-700h-43v549l5 88h-2c-23 -37 -43 -67 -58 -88zM404 750h-44l-79 111h56z" />
    <glyph glyph-name="uni040E" unicode="&#x40e;" horiz-adv-x="576" 
d="M90 28l23 34c33 -23 60 -34 82 -34c47 0 67 33 96 110l-280 562h48l212 -426l40 -90h2c11 33 22 63 32 90l160 426h47l-235 -606c-28 -71 -69 -106 -122 -106c-32 0 -67 13 -105 40zM167 843v18h42v-15c0 -45 33 -72 76 -72c41 0 77 28 77 73v14h41v-18
c0 -67 -54 -109 -118 -109s-118 42 -118 109z" />
    <glyph glyph-name="uni040F" unicode="&#x40f;" horiz-adv-x="717" 
d="M337 0h-230v700h43v-660h417v660h43v-700h-230v-140h-43v140z" />
    <glyph glyph-name="uni0410" unicode="&#x410;" horiz-adv-x="624" 
d="M73 0h-46l262 700h46l262 -700h-46l-91 242h-297zM285 566l-107 -284h267l-106 284l-26 84h-2c-10 -36 -19 -64 -26 -84z" />
    <glyph glyph-name="uni0411" unicode="&#x411;" horiz-adv-x="584" 
d="M337 0h-230v700h382v-40h-339v-260h180c119 0 202 -69 202 -201c0 -61 -18 -109 -55 -145c-36 -36 -83 -54 -140 -54zM150 360v-320h183c95 0 154 59 154 159c0 99 -63 161 -155 161h-182z" />
    <glyph glyph-name="uni0412" unicode="&#x412;" horiz-adv-x="608" 
d="M352 0h-245v700h235c52 0 94 -16 127 -48s50 -74 50 -127c0 -73 -30 -124 -91 -153v-2c71 -20 119 -89 119 -177c0 -58 -18 -105 -55 -140s-83 -53 -140 -53zM150 660v-272h191c79 0 133 54 133 137s-53 135 -134 135h-190zM150 348v-308h198c95 0 154 58 154 153
c0 93 -64 155 -155 155h-197z" />
    <glyph glyph-name="uni0413" unicode="&#x413;" horiz-adv-x="476" 
d="M150 0h-43v700h353v-40h-310v-660z" />
    <glyph glyph-name="uni0414" unicode="&#x414;" horiz-adv-x="682" 
d="M123 40h394v620h-277v-88c0 -224 -25 -405 -117 -532zM4 -140v180h70c55 69 90 158 105 258c8 51 13 96 15 135c3 40 4 86 4 138v129h362v-660h78v-180h-42v140h-549v-140h-43z" />
    <glyph glyph-name="uni0415" unicode="&#x415;" horiz-adv-x="556" 
d="M509 0h-402v700h383v-40h-340v-287h279v-40h-279v-293h359v-40z" />
    <glyph glyph-name="uni0416" unicode="&#x416;" horiz-adv-x="819" 
d="M76 0h-50l215 368v2l-201 330h50l188 -312h110v312h43v-312h110l188 312h50l-201 -330v-2l215 -368h-50l-202 348h-110v-348h-43v348h-110z" />
    <glyph glyph-name="uni0417" unicode="&#x417;" horiz-adv-x="530" 
d="M36 74l29 34c39 -45 108 -78 176 -78c53 0 97 15 132 45s53 70 53 119c0 47 -16 83 -48 110c-31 27 -71 41 -118 41h-89v40h71c43 0 81 13 112 40s47 62 47 105c0 81 -51 140 -155 140c-63 0 -118 -20 -165 -60l-24 37c53 43 116 65 189 65c129 0 200 -71 200 -179
c0 -81 -48 -133 -109 -160v-2c81 -20 134 -85 134 -177c0 -61 -22 -111 -66 -149c-43 -38 -98 -57 -165 -57c-77 0 -160 33 -204 86z" />
    <glyph glyph-name="uni0418" unicode="&#x418;" horiz-adv-x="750" 
d="M147 0h-40v700h43v-549l-5 -88h2c25 39 46 70 61 91l395 546h40v-700h-43v549l5 88h-2c-23 -37 -43 -67 -58 -88z" />
    <glyph glyph-name="uni0419" unicode="&#x419;" horiz-adv-x="750" 
d="M147 0h-40v700h43v-549l-5 -88h2c25 39 46 70 61 91l395 546h40v-700h-43v549l5 88h-2c-23 -37 -43 -67 -58 -88zM258 843v18h42v-15c0 -45 33 -72 76 -72c41 0 77 28 77 73v14h41v-18c0 -67 -54 -109 -118 -109s-118 42 -118 109z" />
    <glyph glyph-name="uni041A" unicode="&#x41a;" horiz-adv-x="571" 
d="M150 0h-43v700h43v-312h130l200 312h52l-215 -330v-2l229 -368h-52l-214 348h-130v-348z" />
    <glyph glyph-name="uni041B" unicode="&#x41b;" horiz-adv-x="652" 
d="M9 -8v42c69 9 117 65 141 166c25 103 33 214 33 381v119h362v-700h-43v660h-277v-79c0 -60 -1 -113 -3 -158c-4 -89 -14 -189 -34 -254c-30 -98 -84 -171 -179 -177z" />
    <glyph glyph-name="uni041C" unicode="&#x41c;" horiz-adv-x="834" 
d="M123 0h-43l56 700h42l204 -440l34 -79h2c12 30 23 56 34 79l204 440h42l56 -700h-43l-43 534l-3 93h-2c-13 -39 -25 -70 -36 -93l-188 -399h-44l-187 399l-37 95h-2c0 -41 -1 -72 -3 -95z" />
    <glyph glyph-name="uni041D" unicode="&#x41d;" horiz-adv-x="744" 
d="M150 0h-43v700h43v-329h444v329h43v-700h-43v331h-444v-331z" />
    <glyph glyph-name="uni041E" unicode="&#x41e;" horiz-adv-x="826" 
d="M59 355c0 100 34 184 103 253s153 104 251 104s181 -35 250 -104s104 -153 104 -253c0 -103 -35 -190 -104 -261s-152 -106 -250 -106s-182 35 -251 106s-103 158 -103 261zM104 355c0 -91 30 -169 90 -232s133 -94 219 -94s159 31 219 94s90 141 90 232
c0 89 -30 164 -90 225s-133 91 -219 91s-159 -30 -219 -91s-90 -136 -90 -225z" />
    <glyph glyph-name="uni041F" unicode="&#x41f;" horiz-adv-x="734" 
d="M150 0h-43v700h520v-700h-43v660h-434v-660z" />
    <glyph glyph-name="uni0420" unicode="&#x420;" horiz-adv-x="589" 
d="M150 0h-43v700h230c62 0 113 -19 153 -56s60 -86 60 -148c0 -63 -20 -113 -60 -150s-91 -56 -153 -56h-187v-290zM150 660v-330h185c104 0 170 62 170 166s-66 164 -170 164h-185z" />
    <glyph glyph-name="uni0421" unicode="&#x421;" horiz-adv-x="719" 
d="M60 355c0 102 33 187 98 255s148 102 249 102c104 0 187 -29 250 -88l-26 -32c-56 49 -142 79 -223 79c-89 0 -161 -30 -218 -90c-57 -59 -85 -135 -85 -226c0 -93 28 -170 85 -233c57 -62 131 -93 221 -93c93 0 172 32 237 95l27 -30c-73 -71 -161 -106 -264 -106
s-188 35 -253 106s-98 158 -98 261z" />
    <glyph glyph-name="uni0422" unicode="&#x422;" horiz-adv-x="601" 
d="M322 0h-43v660h-261v40h565v-40h-261v-660z" />
    <glyph glyph-name="uni0423" unicode="&#x423;" horiz-adv-x="576" 
d="M90 28l23 34c33 -23 60 -34 82 -34c47 0 67 33 96 110l-280 562h48l212 -426l40 -90h2c11 33 22 63 32 90l160 426h47l-235 -606c-28 -71 -69 -106 -122 -106c-32 0 -67 13 -105 40z" />
    <glyph glyph-name="uni0424" unicode="&#x424;" horiz-adv-x="809" 
d="M383 663v87h43v-87c101 0 181 -26 242 -79c61 -52 92 -123 92 -213c0 -91 -31 -162 -92 -214s-141 -78 -242 -78v-91h-43v91c-101 0 -182 26 -243 78s-91 123 -91 214s30 162 91 214s142 78 243 78zM426 625v-508c180 0 289 93 289 254s-109 254 -289 254zM383 117v508
c-180 0 -289 -93 -289 -254s109 -254 289 -254z" />
    <glyph glyph-name="uni0425" unicode="&#x425;" horiz-adv-x="555" 
d="M72 0h-51l226 370l-201 330h52l134 -223l45 -76h2c15 28 30 53 44 76l135 223h52l-203 -330l227 -370h-51l-162 266l-44 74h-2l-43 -75z" />
    <glyph glyph-name="uni0426" unicode="&#x426;" horiz-adv-x="732" 
d="M646 0h-539v700h43v-660h417v660h43v-660h78v-180h-42v140z" />
    <glyph glyph-name="uni0427" unicode="&#x427;" horiz-adv-x="600" 
d="M266 283c-137 0 -206 64 -206 193v224h43v-217c0 -107 48 -159 163 -159c68 0 143 30 184 59v317h43v-700h-43v305l2 33h-2c-63 -37 -124 -55 -184 -55z" />
    <glyph glyph-name="uni0428" unicode="&#x428;" horiz-adv-x="983" 
d="M876 0h-769v700h43v-660h320v660h43v-660h320v660h43v-700z" />
    <glyph glyph-name="uni0429" unicode="&#x429;" horiz-adv-x="1004" 
d="M919 0h-812v700h43v-660h320v660h43v-660h320v660h43v-660h86v-180h-43v140z" />
    <glyph glyph-name="uni042A" unicode="&#x42a;" horiz-adv-x="652" 
d="M417 0h-220v660h-186v40h229v-300h170c119 0 202 -69 202 -201c0 -61 -18 -109 -55 -145c-36 -36 -83 -54 -140 -54zM240 360v-320h173c95 0 154 59 154 159c0 99 -63 161 -155 161h-172z" />
    <glyph glyph-name="uni042B" unicode="&#x42b;" horiz-adv-x="785" 
d="M327 0h-220v700h43v-300h170c119 0 202 -69 202 -201c0 -61 -18 -109 -55 -145c-36 -36 -83 -54 -140 -54zM150 360v-320h173c95 0 154 59 154 159c0 99 -63 161 -155 161h-172zM678 0h-43v700h43v-700z" />
    <glyph glyph-name="uni042C" unicode="&#x42c;" horiz-adv-x="562" 
d="M327 0h-220v700h43v-300h170c119 0 202 -69 202 -201c0 -61 -18 -109 -55 -145c-36 -36 -83 -54 -140 -54zM150 360v-320h173c95 0 154 59 154 159c0 99 -63 161 -155 161h-172z" />
    <glyph glyph-name="uni042D" unicode="&#x42d;" horiz-adv-x="717" 
d="M42 94l27 30c25 -27 59 -50 103 -68s89 -27 135 -27c83 0 153 29 210 86c57 58 89 130 94 216h-421v40h422c-4 87 -35 158 -92 215s-128 85 -212 85c-86 0 -160 -26 -222 -79l-26 32c59 56 155 88 247 88c100 0 183 -34 250 -102s100 -153 100 -255
c0 -103 -33 -190 -100 -261s-150 -106 -250 -106c-97 0 -200 38 -265 106z" />
    <glyph glyph-name="uni042E" unicode="&#x42e;" horiz-adv-x="1036" 
d="M150 0h-43v700h43v-329h138c4 96 39 177 106 242c67 66 146 99 238 99c95 0 176 -35 243 -104s101 -153 101 -253c0 -103 -34 -190 -101 -261s-148 -106 -243 -106c-91 0 -170 33 -236 98c-66 66 -102 148 -107 245h-139v-331zM333 355c0 -91 29 -168 87 -231
c59 -63 129 -94 212 -94s153 31 211 94c59 63 88 140 88 231c0 89 -29 163 -88 224c-58 61 -128 91 -211 91s-153 -30 -212 -91c-58 -61 -87 -135 -87 -224z" />
    <glyph glyph-name="uni042F" unicode="&#x42f;" horiz-adv-x="601" 
d="M84 0h-51l175 288l16 25v2c-97 24 -148 95 -148 196c0 77 37 139 97 168c28 14 70 21 126 21h195v-700h-43v310h-179zM271 350h180v310h-150c-45 0 -77 -5 -98 -14c-51 -23 -82 -74 -82 -135c0 -96 59 -161 150 -161z" />
    <glyph glyph-name="uni0430" unicode="&#x430;" horiz-adv-x="508" 
d="M41 133c0 72 39 115 94 139c41 17 69 24 116 28c47 5 64 5 100 5h33v17c0 99 -46 149 -137 149c-53 0 -101 -16 -143 -48l-24 34c39 33 105 55 169 55c116 0 177 -65 177 -189v-323h-42v66l4 45h-2c-27 -69 -92 -123 -175 -123c-45 0 -85 12 -119 37s-51 61 -51 108z
M85 136c0 -57 48 -109 128 -109c51 0 93 22 124 65c31 44 47 93 47 147v27h-32c-21 0 -38 0 -51 -1c-13 0 -31 -1 -56 -4c-24 -2 -44 -6 -60 -12c-48 -14 -105 -49 -100 -113z" />
    <glyph glyph-name="uni0431" unicode="&#x431;" horiz-adv-x="567" 
d="M65 279c0 87 8 144 33 204c27 61 77 106 154 145l191 95l19 -37l-194 -96c-59 -29 -101 -64 -125 -105c-23 -40 -37 -91 -42 -154h2c39 81 105 121 198 121c61 0 112 -21 151 -62s59 -98 59 -169c0 -69 -21 -125 -62 -168s-93 -65 -158 -65c-76 0 -133 27 -170 80
s-56 124 -56 211zM115 223c0 -60 17 -108 50 -143c34 -35 76 -52 126 -52s92 17 125 52c34 35 51 81 51 140s-17 105 -50 140s-73 52 -121 52c-53 0 -97 -18 -131 -55c-33 -36 -50 -81 -50 -134z" />
    <glyph glyph-name="uni0432" unicode="&#x432;" horiz-adv-x="487" 
d="M257 0h-170v500h157c103 0 164 -44 164 -127c0 -55 -27 -92 -80 -110v-2c65 -12 107 -60 107 -123c0 -83 -66 -138 -178 -138zM129 462v-184h117c78 0 117 32 117 95c0 59 -40 89 -121 89h-113zM129 239v-200h124c92 0 138 33 138 99c0 67 -50 101 -139 101h-123z" />
    <glyph glyph-name="uni0433" unicode="&#x433;" horiz-adv-x="396" 
d="M129 0h-42v500h284v-38h-242v-462z" />
    <glyph glyph-name="uni0434" unicode="&#x434;" horiz-adv-x="553" 
d="M121 39h288v423h-198v-33c0 -172 -30 -302 -90 -390zM10 -120v159h61c65 83 98 213 98 390v71h282v-461h70v-159h-42v120h-427v-120h-42z" />
    <glyph glyph-name="uni0435" unicode="&#x435;" horiz-adv-x="549" 
d="M52 249c0 81 24 145 71 192s105 71 172 71c65 0 115 -22 150 -66c36 -43 54 -97 54 -162c0 -6 -1 -15 -2 -27h-401c0 -70 20 -126 61 -167s92 -61 153 -61s113 21 155 63l23 -35c-44 -41 -114 -69 -178 -69c-73 0 -134 24 -184 72c-49 49 -74 112 -74 189zM99 296h356
c-5 116 -72 177 -161 177c-97 0 -178 -65 -195 -177z" />
    <glyph glyph-name="uni0436" unicode="&#x436;" horiz-adv-x="692" 
d="M76 0h-53l176 255v2l-159 243h49l146 -224h90v224h42v-224h90l146 224h49l-159 -243v-2l176 -255h-53l-161 237h-88v-237h-42v237h-88z" />
    <glyph glyph-name="uni0437" unicode="&#x437;" horiz-adv-x="431" 
d="M34 60l27 32c38 -43 84 -64 138 -64c36 0 68 9 95 28s41 47 41 83c0 65 -50 101 -139 101h-60v39h54c80 0 126 33 126 96c0 64 -47 96 -116 96c-48 0 -89 -16 -123 -47l-25 34c41 36 92 54 152 54c93 0 157 -46 157 -133c0 -57 -27 -96 -81 -115v-2
c61 -13 99 -55 99 -122c0 -48 -18 -85 -53 -112s-78 -40 -127 -40c-63 0 -118 24 -165 72z" />
    <glyph glyph-name="uni0438" unicode="&#x438;" horiz-adv-x="584" 
d="M126 0h-39v500h42v-356l-3 -81h2l57 81l273 356h39v-500h-42v357l3 78h-2l-57 -78z" />
    <glyph glyph-name="uni0439" unicode="&#x439;" horiz-adv-x="584" 
d="M126 0h-39v500h42v-356l-3 -81h2l57 81l273 356h39v-500h-42v357l3 78h-2l-57 -78zM174 682v18h42v-15c0 -45 33 -72 76 -72c41 0 77 28 77 73v14h41v-18c0 -67 -54 -109 -118 -109s-118 42 -118 109z" />
    <glyph glyph-name="uni043A" unicode="&#x43a;" horiz-adv-x="471" 
d="M129 0h-42v500h42v-221h87l164 221h53l-181 -238v-2l201 -260h-55l-182 240h-87v-240z" />
    <glyph glyph-name="uni043B" unicode="&#x43b;" horiz-adv-x="513" 
d="M20 -4v39c91 15 126 119 126 316v149h280v-500h-42v461h-196v-110c0 -239 -53 -342 -168 -355z" />
    <glyph glyph-name="uni043C" unicode="&#x43c;" horiz-adv-x="705" 
d="M110 0h-42l40 500h40l169 -331l34 -73h2c11 27 23 51 34 73l170 331h40l40 -500h-42l-28 347l-1 86h-2c-7 -19 -18 -43 -33 -72l-157 -306h-43l-157 304l-33 74h-2c1 -41 0 -70 -1 -86z" />
    <glyph glyph-name="uni043D" unicode="&#x43d;" horiz-adv-x="585" 
d="M129 0h-42v500h42v-223h327v223h42v-500h-42v238h-327v-238z" />
    <glyph glyph-name="uni043E" unicode="&#x43e;" horiz-adv-x="620" 
d="M51 253c0 73 25 134 75 184c51 50 112 75 184 75s133 -25 183 -75c51 -50 76 -111 76 -184c0 -74 -25 -137 -76 -188c-50 -51 -111 -77 -183 -77s-133 26 -184 77c-50 51 -75 114 -75 188zM95 253c0 -63 21 -117 62 -160c42 -43 93 -64 153 -64s111 21 152 64
c42 43 63 97 63 160c0 61 -21 113 -63 155c-41 42 -92 63 -152 63s-111 -21 -153 -63c-41 -42 -62 -94 -62 -155z" />
    <glyph glyph-name="uni043F" unicode="&#x43f;" horiz-adv-x="575" 
d="M129 0h-42v500h401v-500h-42v461h-317v-461z" />
    <glyph glyph-name="uni0440" unicode="&#x440;" horiz-adv-x="578" 
d="M129 -200h-42v700h42v-60l-3 -40h2c29 69 97 112 180 112c66 0 118 -24 157 -72s59 -111 59 -190s-21 -142 -62 -190s-95 -72 -160 -72c-76 0 -143 42 -175 113h-2c3 -12 4 -27 4 -44v-257zM128 249c0 -59 16 -111 47 -155c31 -43 74 -65 127 -65c51 0 93 20 127 59
c34 40 51 94 51 162c0 67 -16 120 -49 160c-32 41 -74 61 -125 61c-101 0 -178 -74 -178 -222z" />
    <glyph glyph-name="uni0441" unicode="&#x441;" horiz-adv-x="540" 
d="M310 512c67 0 136 -24 179 -71l-26 -34c-36 39 -96 64 -153 64c-60 0 -111 -21 -152 -62s-62 -94 -62 -160c0 -65 21 -118 62 -159s92 -61 152 -61c63 0 127 27 167 72l22 -35c-43 -48 -114 -78 -189 -78c-73 0 -134 24 -184 72c-49 49 -74 112 -74 189s25 140 75 189
c51 49 112 74 183 74z" />
    <glyph glyph-name="uni0442" unicode="&#x442;" horiz-adv-x="472" 
d="M257 0h-42v461h-190v39h422v-39h-190v-461z" />
    <glyph glyph-name="uni0443" unicode="&#x443;" horiz-adv-x="517" 
d="M22 -182l19 36c19 -16 39 -24 62 -24c40 0 73 30 98 90l36 83l-207 497h45l165 -399l18 -47h2c5 15 10 31 17 47l165 399h45l-257 -617c-26 -62 -68 -93 -127 -93c-28 0 -59 12 -71 21z" />
    <glyph glyph-name="uni0444" unicode="&#x444;" horiz-adv-x="684" 
d="M53 253c0 75 25 135 74 182s114 72 194 76v189h42v-189c80 -4 145 -29 194 -76s74 -107 74 -182c0 -77 -25 -139 -75 -187c-49 -47 -114 -73 -193 -77v-189h-42v189c-79 4 -144 30 -194 77c-49 48 -74 110 -74 187zM363 470v-441c67 4 121 26 162 66s62 93 62 158
c0 64 -21 115 -62 154s-95 60 -162 63zM97 253c0 -65 20 -118 61 -158s96 -62 163 -66v441c-67 -3 -122 -24 -163 -63s-61 -90 -61 -154z" />
    <glyph glyph-name="uni0445" unicode="&#x445;" horiz-adv-x="462" 
d="M74 0h-52l180 264l-161 236h51l121 -182l17 -28h2l17 28l121 182h51l-161 -236l180 -264h-52l-138 207l-18 29h-2c-5 -9 -11 -19 -18 -29z" />
    <glyph glyph-name="uni0446" unicode="&#x446;" horiz-adv-x="584" 
d="M510 0h-423v500h42v-461h311v461h42v-461h70v-159h-42v120z" />
    <glyph glyph-name="uni0447" unicode="&#x447;" horiz-adv-x="484" 
d="M218 190c-111 0 -167 52 -167 155v155h42v-155c0 -34 8 -62 25 -83s50 -31 100 -31c51 0 96 15 137 45v224h42v-500h-42v199l2 34h-2c-17 -12 -39 -22 -66 -31c-27 -8 -50 -12 -71 -12z" />
    <glyph glyph-name="uni0448" unicode="&#x448;" horiz-adv-x="780" 
d="M693 0h-606v500h42v-461h240v461h42v-461h240v461h42v-500z" />
    <glyph glyph-name="uni0449" unicode="&#x449;" horiz-adv-x="795" 
d="M721 0h-634v500h42v-461h240v461h42v-461h240v461h42v-461h70v-159h-42v120z" />
    <glyph glyph-name="uni044A" unicode="&#x44a;" horiz-adv-x="518" 
d="M309 0h-155v462h-141v38h183v-200h115c78 0 169 -29 169 -151c0 -91 -59 -149 -171 -149zM196 261v-222h113c85 0 127 37 127 110c0 75 -42 112 -125 112h-115z" />
    <glyph glyph-name="uni044B" unicode="&#x44b;" horiz-adv-x="634" 
d="M242 0h-155v500h42v-200h115c78 0 169 -29 169 -151c0 -91 -59 -149 -171 -149zM129 261v-222h113c85 0 127 37 127 110c0 75 -42 112 -125 112h-115zM547 0h-42v500h42v-500z" />
    <glyph glyph-name="uni044C" unicode="&#x44c;" horiz-adv-x="451" 
d="M242 0h-155v500h42v-200h115c78 0 169 -29 169 -151c0 -91 -59 -149 -171 -149zM129 261v-222h113c85 0 127 37 127 110c0 75 -42 112 -125 112h-115z" />
    <glyph glyph-name="uni044D" unicode="&#x44d;" horiz-adv-x="539" 
d="M40 66l22 35c41 -48 98 -72 169 -72c56 0 104 18 144 55s62 86 67 146h-275v39h275c-5 60 -27 109 -68 146c-40 37 -88 56 -143 56c-59 0 -111 -21 -155 -64l-26 34c40 45 111 71 180 71c71 0 132 -25 182 -74s75 -112 75 -189s-25 -140 -75 -189
c-49 -48 -110 -72 -183 -72c-78 0 -141 26 -189 78z" />
    <glyph glyph-name="uni044E" unicode="&#x44e;" horiz-adv-x="785" 
d="M129 0h-42v500h42v-231h107c4 69 30 126 78 173s105 70 171 70c69 0 127 -25 176 -75s73 -111 73 -184c0 -74 -24 -137 -73 -188s-107 -77 -176 -77c-65 0 -122 23 -169 69c-47 47 -74 104 -79 173h-108v-230zM280 253c0 -63 20 -117 60 -160s88 -64 145 -64
s105 21 145 64s60 97 60 160c0 61 -20 113 -60 155s-88 63 -145 63s-105 -21 -145 -63s-60 -94 -60 -155z" />
    <glyph glyph-name="uni044F" unicode="&#x44f;" horiz-adv-x="479" 
d="M88 0h-53l125 177l23 30v2c-65 9 -122 62 -122 143c0 96 70 148 177 148h154v-500h-42v202h-122zM234 240h116v222h-110c-89 0 -134 -37 -134 -110c0 -69 53 -112 128 -112z" />
    <glyph glyph-name="uni0450" unicode="&#x450;" horiz-adv-x="549" 
d="M52 249c0 81 24 145 71 192s105 71 172 71c65 0 115 -22 150 -66c36 -43 54 -97 54 -162c0 -6 -1 -15 -2 -27h-401c0 -70 20 -126 61 -167s92 -61 153 -61s113 21 155 63l23 -35c-44 -41 -114 -69 -178 -69c-73 0 -134 24 -184 72c-49 49 -74 112 -74 189zM99 296h356
c-5 116 -72 177 -161 177c-97 0 -178 -65 -195 -177zM330 589h-44l-79 111h56z" />
    <glyph glyph-name="uni0451" unicode="&#x451;" horiz-adv-x="549" 
d="M52 249c0 81 24 145 71 192s105 71 172 71c65 0 115 -22 150 -66c36 -43 54 -97 54 -162c0 -6 -1 -15 -2 -27h-401c0 -70 20 -126 61 -167s92 -61 153 -61s113 21 155 63l23 -35c-44 -41 -114 -69 -178 -69c-73 0 -134 24 -184 72c-49 49 -74 112 -74 189zM99 296h356
c-5 116 -72 177 -161 177c-97 0 -178 -65 -195 -177zM380 627h-46v73h46v-73zM243 627h-46v73h46v-73z" />
    <glyph glyph-name="uni0452" unicode="&#x452;" horiz-adv-x="586" 
d="M129 0h-42v576h-66v38h66v86h42v-86h238v-38h-238v-209l-2 -41h2c11 31 35 62 72 91c37 30 83 45 138 45c123 0 165 -67 165 -195v-293c0 -77 -25 -132 -62 -155c-36 -24 -65 -30 -97 -30l-25 2v39c6 -1 13 -2 22 -2c25 0 47 5 74 24c28 17 46 61 46 121v279
c0 40 -2 65 -11 96c-13 45 -46 73 -112 73c-47 0 -89 -15 -127 -45c-37 -29 -62 -67 -75 -114c-5 -19 -8 -41 -8 -68v-194z" />
    <glyph glyph-name="uni0453" unicode="&#x453;" horiz-adv-x="396" 
d="M129 0h-42v500h284v-38h-242v-462zM234 589h-44l67 111h56z" />
    <glyph glyph-name="uni0454" unicode="&#x454;" horiz-adv-x="539" 
d="M310 512c71 0 136 -30 160 -54l19 -17l-26 -34c-4 5 -10 10 -19 17c-8 7 -25 17 -52 29c-26 12 -53 18 -82 18c-56 0 -104 -18 -145 -54c-40 -36 -63 -83 -68 -142h275v-39h-276c3 -62 24 -112 65 -150s91 -57 149 -57c65 0 126 30 150 54l17 18l22 -35
c-4 -4 -7 -9 -31 -28c-31 -22 -83 -50 -158 -50c-73 0 -134 24 -184 72c-49 49 -74 112 -74 189s25 140 75 189c51 49 112 74 183 74z" />
    <glyph glyph-name="uni0455" unicode="&#x455;" horiz-adv-x="430" 
d="M41 60l27 32c40 -42 92 -63 155 -63c65 0 115 35 115 94c0 47 -44 78 -97 98c-78 29 -178 61 -178 156c0 43 15 76 46 99c31 24 69 36 114 36c63 0 113 -18 148 -54l-25 -34c-29 31 -71 47 -126 47c-63 0 -113 -30 -113 -91c0 -48 44 -79 97 -100
c78 -29 178 -60 178 -157c0 -80 -67 -135 -160 -135c-77 0 -137 24 -181 72z" />
    <glyph glyph-name="uni0456" unicode="&#x456;" horiz-adv-x="216" 
d="M133 627h-50v73h50v-73zM129 0h-42v500h42v-500z" />
    <glyph glyph-name="uni0457" unicode="&#x457;" horiz-adv-x="216" 
d="M129 0h-42v500h42v-500zM200 627h-46v73h46v-73zM63 627h-46v73h46v-73z" />
    <glyph glyph-name="uni0458" unicode="&#x458;" horiz-adv-x="216" 
d="M133 627h-50v73h50v-73zM87 -21v521h42v-520c0 -77 -25 -132 -62 -155c-36 -24 -65 -30 -97 -30c-5 0 -13 1 -25 2v39c4 -1 11 -2 22 -2c25 0 47 5 74 24c28 17 46 61 46 121z" />
    <glyph glyph-name="uni0459" unicode="&#x459;" horiz-adv-x="705" 
d="M31 -4v39c91 15 126 119 126 316v149h226v-200h115c78 0 169 -29 169 -151c0 -91 -59 -149 -171 -149h-155v461h-142v-110c0 -239 -53 -342 -168 -355zM383 261v-222h113c85 0 127 37 127 110c0 75 -42 112 -125 112h-115z" />
    <glyph glyph-name="uni045A" unicode="&#x45a;" horiz-adv-x="779" 
d="M129 0h-42v500h42v-206h287v206h42v-206h109c77 0 175 -30 175 -143c0 -92 -59 -151 -171 -151h-155v255h-287v-255zM458 255v-216h113c85 0 127 37 127 112c0 69 -44 104 -131 104h-109z" />
    <glyph glyph-name="uni045B" unicode="&#x45b;" horiz-adv-x="586" 
d="M129 0h-42v576h-66v38h66v86h42v-86h238v-38h-238v-209l-2 -41h2c11 31 35 62 72 91c37 30 83 45 138 45c123 0 165 -67 165 -195v-267h-42v252c0 40 -2 65 -11 96c-13 45 -46 73 -112 73c-47 0 -89 -15 -127 -45c-37 -29 -62 -67 -75 -114c-5 -19 -8 -41 -8 -68v-194z
" />
    <glyph glyph-name="uni045C" unicode="&#x45c;" horiz-adv-x="471" 
d="M129 0h-42v500h42v-221h87l164 221h53l-181 -238v-2l201 -260h-55l-182 240h-87v-240zM258 589h-44l67 111h56z" />
    <glyph glyph-name="uni045D" unicode="&#x45d;" horiz-adv-x="584" 
d="M126 0h-39v500h42v-356l-3 -81h2l57 81l273 356h39v-500h-42v357l3 78h-2l-57 -78zM341 589h-44l-79 111h56z" />
    <glyph glyph-name="uni045E" unicode="&#x45e;" horiz-adv-x="517" 
d="M22 -182l19 36c19 -16 39 -24 62 -24c40 0 73 30 98 90l36 83l-207 497h45l165 -399l18 -47h2c5 15 10 31 17 47l165 399h45l-257 -617c-26 -62 -68 -93 -127 -93c-28 0 -59 12 -71 21zM141 682v18h42v-15c0 -45 33 -72 76 -72c41 0 77 28 77 73v14h41v-18
c0 -67 -54 -109 -118 -109s-118 42 -118 109z" />
    <glyph glyph-name="uni045F" unicode="&#x45f;" horiz-adv-x="550" 
d="M254 0h-167v500h42v-461h292v461h42v-500h-167v-120h-42v120z" />
    <glyph glyph-name="uni0462" unicode="&#x462;" horiz-adv-x="668" 
d="M423 0h-217v540h-190v40h190v120h43v-120h203v-40h-203v-140h173c60 0 109 -17 148 -52s59 -82 59 -143c0 -63 -20 -113 -60 -150c-39 -37 -88 -55 -146 -55zM249 360v-320h170c97 0 165 61 165 165c0 96 -69 155 -165 155h-170z" />
    <glyph glyph-name="uni0463" unicode="&#x463;" horiz-adv-x="489" 
d="M278 0h-155v462h-121v38h121v200h42v-200h170v-38h-170v-162h115c78 0 169 -29 169 -151c0 -91 -59 -149 -171 -149zM165 261v-222h113c85 0 127 37 127 110c0 75 -42 112 -125 112h-115z" />
    <glyph glyph-name="uni0472" unicode="&#x472;" horiz-adv-x="826" 
d="M59 355c0 101 34 185 102 254s152 103 252 103s184 -34 252 -103s102 -153 102 -254c0 -103 -34 -190 -102 -261s-152 -106 -252 -106s-184 35 -252 106s-102 158 -102 261zM721 335h-617c5 -87 36 -160 94 -219c59 -58 130 -87 215 -87s156 29 214 87
c58 59 89 132 94 219zM104 375h617c-5 85 -36 155 -94 211c-58 57 -129 85 -214 85s-156 -28 -214 -84s-90 -127 -95 -212z" />
    <glyph glyph-name="uni0473" unicode="&#x473;" horiz-adv-x="620" 
d="M51 253c0 73 25 134 75 184c51 50 112 75 184 75s133 -25 183 -75c51 -50 76 -111 76 -184c0 -74 -25 -137 -76 -188c-50 -51 -111 -77 -183 -77s-133 26 -184 77c-50 51 -75 114 -75 188zM310 29c56 0 104 19 145 58s64 88 69 146h-429c5 -59 27 -107 68 -146
s90 -58 147 -58zM95 272h429c-5 57 -27 104 -68 142s-89 57 -146 57s-106 -19 -147 -57s-63 -85 -68 -142z" />
    <glyph glyph-name="uni0474" unicode="&#x474;" horiz-adv-x="680" 
d="M334 0h-47l-262 700h47l210 -566l27 -84h2l27 84l163 471c15 43 32 69 49 79c18 11 49 16 94 16h24v-41h-21h-34c-4 0 -21 0 -25 -3c-15 -6 -33 -22 -45 -63z" />
    <glyph glyph-name="uni0475" unicode="&#x475;" horiz-adv-x="539" 
d="M268 0h-40l-197 500h45l154 -392l17 -54h2l17 54l107 305c23 65 54 87 123 87h21v-41h-21c-49 0 -66 -10 -85 -61z" />
    <glyph glyph-name="uni048A" unicode="&#x48a;" horiz-adv-x="767" 
d="M147 0h-40v700h43v-549l-5 -88h2c25 39 46 70 61 91l395 546h40v-660h90v-33l-60 -147h-40l49 140h-82v549l5 88h-2c-23 -37 -43 -67 -58 -88zM259 843v18h42v-15c0 -45 33 -72 76 -72c41 0 77 28 77 73v14h41v-18c0 -67 -54 -109 -118 -109s-118 42 -118 109z" />
    <glyph glyph-name="uni048B" unicode="&#x48b;" horiz-adv-x="599" 
d="M126 0h-39v500h42v-356l-3 -81h2l57 81l273 356h39v-462h70v-33l-51 -125h-38l42 120h-65v357l3 78h-2l-57 -78zM177 682v18h42v-15c0 -45 33 -72 76 -72c41 0 77 28 77 73v14h41v-18c0 -67 -54 -109 -118 -109s-118 42 -118 109z" />
    <glyph glyph-name="uni048C" unicode="&#x48c;" horiz-adv-x="649" 
d="M405 0h-227v586h-164v40h164v124h43v-124h170v-40h-170v-176h183c59 0 109 -18 148 -55s59 -87 59 -150s-20 -113 -60 -150c-39 -37 -88 -55 -146 -55zM221 370v-330h180c97 0 165 61 165 165c0 103 -69 165 -165 165h-180z" />
    <glyph glyph-name="uni048D" unicode="&#x48d;" horiz-adv-x="499" 
d="M288 0h-155v462h-121v38h121v200h42v-200h170v-38h-170v-162h115c78 0 169 -29 169 -151c0 -91 -59 -149 -171 -149zM175 261v-222h113c85 0 127 37 127 110c0 75 -42 112 -125 112h-115z" />
    <glyph glyph-name="uni048E" unicode="&#x48e;" horiz-adv-x="609" 
d="M150 0h-43v700h230c62 0 113 -19 153 -56s60 -86 60 -148c0 -67 -23 -119 -69 -158l63 -90l-32 -23l-63 91c-33 -17 -70 -26 -112 -26h-187v-290zM425 350l-71 104l32 23l72 -104c31 29 47 70 47 123c0 104 -66 164 -170 164h-185v-330h185c36 0 66 7 90 20z" />
    <glyph glyph-name="uni048F" unicode="&#x48f;" horiz-adv-x="588" 
d="M129 -200h-42v700h42v-60l-3 -40h2c3 7 4 14 23 39c26 33 73 73 157 73c66 0 118 -24 157 -72s59 -111 59 -190s-21 -142 -63 -191l57 -69l-30 -26l-56 67c-37 -29 -80 -43 -130 -43c-102 0 -154 71 -170 102l-5 11h-2c3 -12 4 -27 4 -44v-257zM404 64l-71 86l30 26
l69 -83c32 39 48 92 48 157c0 67 -16 120 -49 160c-32 41 -74 61 -125 61c-101 0 -178 -74 -178 -222c0 -59 16 -111 47 -155c31 -43 74 -65 127 -65c39 0 73 12 102 35z" />
    <glyph glyph-name="uni0490" unicode="&#x490;" horiz-adv-x="477" 
d="M150 0h-43v700h312v80h42v-120h-311v-660z" />
    <glyph glyph-name="uni0491" unicode="&#x491;" horiz-adv-x="386" 
d="M129 0h-42v500h234v70h40v-108h-232v-462z" />
    <glyph glyph-name="uni0492" unicode="&#x492;" horiz-adv-x="488" 
d="M156 0h-43v328h-65v40h65v332h353v-40h-310v-292h163v-40h-163v-328z" />
    <glyph glyph-name="uni0493" unicode="&#x493;" horiz-adv-x="400" 
d="M129 0h-42v231h-64v38h64v231h284v-38h-242v-193h135v-38h-135v-231z" />
    <glyph glyph-name="uni0494" unicode="&#x494;" horiz-adv-x="582" 
d="M150 0h-43v700h353v-40h-310v-282c15 9 38 17 67 26c30 9 58 13 84 13c49 0 83 -4 126 -27c59 -31 102 -104 102 -251c0 -107 -21 -185 -64 -234c-43 -50 -97 -75 -164 -75v39c48 0 88 16 125 53s60 113 60 217c0 175 -60 238 -185 238c-49 0 -99 -13 -151 -39v-338z" />
    <glyph glyph-name="uni0495" unicode="&#x495;" horiz-adv-x="473" 
d="M129 0h-42v500h283v-39h-241v-214c43 22 84 33 125 33c144 0 177 -115 177 -210c0 -121 -45 -212 -136 -275l-23 34c78 52 117 132 117 241c0 100 -39 169 -135 169c-45 0 -87 -12 -125 -35v-204z" />
    <glyph glyph-name="uni0496" unicode="&#x496;" horiz-adv-x="863" 
d="M76 0h-50l215 368v2l-201 330h50l188 -312h110v312h43v-312h110l188 312h50l-201 -330v-2l191 -328h81v-180h-42v140h-65l-202 348h-110v-348h-43v348h-110z" />
    <glyph glyph-name="uni0497" unicode="&#x497;" horiz-adv-x="724" 
d="M76 0h-53l176 255v2l-159 243h49l146 -224h90v224h42v-224h90l146 224h49l-159 -243v-2l149 -216h62v-159h-42v120h-46l-161 237h-88v-237h-42v237h-88z" />
    <glyph glyph-name="uni0498" unicode="&#x498;" horiz-adv-x="532" 
d="M36 74l29 34c39 -45 108 -78 176 -78c53 0 97 15 132 45s53 70 53 119c0 47 -16 83 -48 110c-31 27 -71 41 -118 41h-89v40h71c43 0 81 13 112 40s47 62 47 105c0 81 -51 140 -155 140c-63 0 -118 -20 -165 -60l-24 37c53 43 116 65 189 65c129 0 200 -71 200 -179
c0 -81 -48 -133 -109 -160v-2c81 -20 134 -85 134 -177c0 -57 -19 -105 -58 -142c-38 -37 -87 -58 -147 -63v-129h-42v129c-73 4 -147 36 -188 85z" />
    <glyph glyph-name="uni0499" unicode="&#x499;" horiz-adv-x="433" 
d="M35 60l27 32c38 -43 84 -64 138 -64c36 0 68 9 95 28s41 47 41 83c0 65 -50 101 -139 101h-60v39h54c80 0 126 33 126 96c0 64 -47 96 -116 96c-48 0 -89 -16 -123 -47l-25 34c41 36 92 54 152 54c93 0 157 -46 157 -133c0 -57 -27 -96 -81 -115v-2
c61 -13 99 -55 99 -122c0 -85 -64 -139 -149 -150v-110h-42v108c-61 3 -112 27 -154 72z" />
    <glyph glyph-name="uni049A" unicode="&#x49a;" horiz-adv-x="616" 
d="M150 0h-43v700h43v-312h130l200 312h52l-215 -330v-2l204 -328h82v-180h-42v140h-67l-214 348h-130v-348z" />
    <glyph glyph-name="uni049B" unicode="&#x49b;" horiz-adv-x="501" 
d="M129 0h-42v500h42v-221h87l164 221h53l-181 -238v-2l171 -221h60v-159h-42v120h-43l-182 240h-87v-240z" />
    <glyph glyph-name="uni049C" unicode="&#x49c;" horiz-adv-x="629" 
d="M150 0h-43v700h43v-312h86v130h41v-130h61l200 312h52l-215 -330v-2l229 -368h-52l-214 348h-61v-130h-41v130h-86v-348z" />
    <glyph glyph-name="uni049D" unicode="&#x49d;" horiz-adv-x="531" 
d="M129 0h-42v500h42v-221h70v109h39v-109h38l164 221h53l-181 -238v-2l201 -260h-55l-182 240h-38v-111h-39v111h-70v-240z" />
    <glyph glyph-name="uni049E" unicode="&#x49e;" horiz-adv-x="576" 
d="M112 533h-106v40h106v127h43v-127h112v-40h-112v-145h130l200 312h52l-215 -330v-2l229 -368h-52l-214 348h-130v-348h-43v533z" />
    <glyph glyph-name="uni049F" unicode="&#x49f;" horiz-adv-x="472" 
d="M129 0h-42v530h-63v38h63v132h42v-132h136v-38h-136v-227h89l162 197h55l-181 -215v-2l198 -283h-53l-181 264h-89v-264z" />
    <glyph glyph-name="uni04A0" unicode="&#x4a0;" horiz-adv-x="714" 
d="M293 0h-43v660h-231v40h274v-312h130l200 312h52l-215 -330v-2l229 -368h-52l-214 348h-130v-348z" />
    <glyph glyph-name="uni04A1" unicode="&#x4a1;" horiz-adv-x="538" 
d="M196 0h-42v462h-141v38h183v-221h87l164 221h53l-181 -238v-2l201 -260h-55l-182 240h-87v-240z" />
    <glyph glyph-name="uni04A2" unicode="&#x4a2;" horiz-adv-x="765" 
d="M150 0h-43v700h43v-329h444v329h43v-660h86v-180h-42v140h-87v331h-444v-331z" />
    <glyph glyph-name="uni04A3" unicode="&#x4a3;" horiz-adv-x="601" 
d="M129 0h-42v500h42v-223h327v223h42v-461h75v-159h-42v120h-75v238h-327v-238z" />
    <glyph glyph-name="uni04A4" unicode="&#x4a4;" horiz-adv-x="913" 
d="M150 0h-43v700h43v-329h394v329h353v-40h-310v-660h-43v331h-394v-331z" />
    <glyph glyph-name="uni04A5" unicode="&#x4a5;" horiz-adv-x="705" 
d="M129 0h-42v500h42v-223h287v223h264v-38h-222v-462h-42v238h-287v-238z" />
    <glyph glyph-name="uni04A6" unicode="&#x4a6;" horiz-adv-x="991" 
d="M150 0h-43v700h457v-312c15 9 38 17 67 26c30 9 58 13 84 13c49 0 83 -4 126 -28c59 -33 102 -107 102 -260c0 -107 -21 -185 -64 -234c-43 -50 -97 -75 -164 -75v39c48 0 88 16 125 53s60 113 60 217c0 181 -60 248 -185 248c-45 0 -95 -13 -151 -39v-348h-43v660h-371
v-660z" />
    <glyph glyph-name="uni04A7" unicode="&#x4a7;" horiz-adv-x="781" 
d="M129 0h-42v500h341v-233c43 22 84 33 125 33c152 0 187 -119 187 -220c0 -125 -45 -220 -136 -285l-23 34c78 55 117 138 117 251c0 105 -41 179 -145 179c-45 0 -87 -12 -125 -35v-224h-42v461h-257v-461z" />
    <glyph glyph-name="uni04A8" unicode="&#x4a8;" horiz-adv-x="929" 
d="M61 358c0 103 36 192 91 249s121 93 189 105v-41c-64 -15 -119 -50 -166 -104c-46 -53 -69 -123 -69 -209c0 -94 26 -172 79 -235c53 -62 124 -93 214 -93c52 0 105 11 160 33c-121 72 -192 195 -192 342c0 100 35 183 86 227c52 45 111 68 167 68c69 0 127 -25 174 -74
s71 -122 71 -221c0 -69 -19 -133 -58 -193c-39 -59 -90 -108 -153 -147c50 -17 104 -25 162 -25h39v-40h-39c-79 0 -148 13 -208 39c-69 -34 -139 -51 -208 -51c-102 0 -184 34 -246 101c-62 68 -93 158 -93 269zM412 405c0 -137 70 -257 194 -320c63 35 114 80 154 137
s60 118 60 183c0 88 -20 152 -59 193s-86 61 -141 61c-85 0 -208 -74 -208 -254z" />
    <glyph glyph-name="uni04A9" unicode="&#x4a9;" horiz-adv-x="756" 
d="M53 255c0 67 19 123 56 167c38 45 82 75 131 90l13 -38c-40 -13 -76 -38 -108 -76c-32 -37 -48 -85 -48 -143c0 -133 76 -226 231 -226c44 0 87 8 128 24c-95 53 -154 143 -154 252c0 57 19 105 58 146s87 61 144 61s104 -19 140 -56s54 -88 54 -151
c0 -100 -59 -189 -150 -249c34 -10 70 -15 108 -15h42v-41h-42c-55 0 -106 10 -154 30c-57 -28 -115 -42 -174 -42c-91 0 -160 25 -206 76s-69 114 -69 191zM346 305c0 -101 61 -186 156 -231c92 51 152 134 152 231c0 105 -62 166 -150 166c-43 0 -80 -16 -111 -47
s-47 -71 -47 -119z" />
    <glyph glyph-name="uni04AA" unicode="&#x4aa;" horiz-adv-x="720" 
d="M61 355c0 102 33 187 98 255s148 102 249 102c104 0 187 -29 250 -88l-26 -32c-56 49 -142 79 -223 79c-89 0 -161 -30 -218 -90c-57 -59 -85 -135 -85 -226c0 -93 28 -170 85 -233c57 -62 131 -93 221 -93c93 0 172 32 237 95l27 -30c-69 -67 -151 -102 -246 -105v-129
h-42v129c-97 6 -176 44 -237 113c-60 69 -90 154 -90 253z" />
    <glyph glyph-name="uni04AB" unicode="&#x4ab;" horiz-adv-x="542" 
d="M53 249c0 77 25 140 75 189c51 49 112 74 183 74c67 0 136 -24 179 -71l-26 -34c-36 39 -96 64 -153 64c-60 0 -111 -21 -152 -62s-62 -94 -62 -160c0 -65 21 -118 62 -159s92 -61 152 -61c63 0 127 27 167 72l22 -35c-43 -49 -102 -75 -177 -78v-108h-42v110
c-66 7 -121 33 -164 80s-64 107 -64 179z" />
    <glyph glyph-name="uni04AC" unicode="&#x4ac;" horiz-adv-x="600" 
d="M364 0h-87v660h-261v40h565v-40h-261v-620h86v-180h-42v140z" />
    <glyph glyph-name="uni04AD" unicode="&#x4ad;" horiz-adv-x="475" 
d="M290 0h-75v461h-190v39h422v-39h-190v-422h75v-159h-42v120z" />
    <glyph glyph-name="uni04AE" unicode="&#x4ae;" horiz-adv-x="555" 
d="M299 0h-43v304l-238 396h49l166 -276l43 -79h2c15 30 29 56 43 79l166 276h49l-237 -396v-304z" />
    <glyph glyph-name="uni04AF" unicode="&#x4af;" horiz-adv-x="498" 
d="M229 -200v239l-199 461h45l154 -359l19 -51h2c5 17 12 34 19 51l154 359h44l-198 -461v-239h-40z" />
    <glyph glyph-name="uni04B0" unicode="&#x4b0;" horiz-adv-x="555" 
d="M256 265h-135v39h135l-238 396h49l166 -276l43 -79h2c15 30 29 56 43 79l166 276h49l-237 -396h130v-39h-130v-265h-43v265z" />
    <glyph glyph-name="uni04B1" unicode="&#x4b1;" horiz-adv-x="497" 
d="M229 0h-114v39h114l-197 461h45l152 -359l19 -51h2c5 17 12 34 19 51l152 359h44l-196 -461h114v-39h-114v-200h-40v200z" />
    <glyph glyph-name="uni04B2" unicode="&#x4b2;" horiz-adv-x="601" 
d="M72 0h-51l226 370l-201 330h52l134 -223l46 -78h2c15 29 29 55 43 78l135 223h52l-203 -330l202 -330h81v-180h-42v140h-65l-162 266l-45 75h-2c-14 -27 -28 -53 -42 -76z" />
    <glyph glyph-name="uni04B3" unicode="&#x4b3;" horiz-adv-x="493" 
d="M74 0h-52l180 264l-161 236h51l121 -182l17 -28h2l17 28l121 182h51l-161 -236l153 -225h60v-159h-42v120h-43l-138 207l-18 29h-2c-5 -9 -11 -19 -18 -29z" />
    <glyph glyph-name="uni04B4" unicode="&#x4b4;" horiz-adv-x="881" 
d="M797 0h-547v660h-231v40h505v-40h-231v-620h417v660h43v-660h86v-180h-42v140z" />
    <glyph glyph-name="uni04B5" unicode="&#x4b5;" horiz-adv-x="708" 
d="M634 0h-423v461h-186v39h414v-39h-186v-422h311v461h42v-461h70v-159h-42v120z" />
    <glyph glyph-name="uni04B6" unicode="&#x4b6;" horiz-adv-x="621" 
d="M266 283c-137 0 -206 64 -206 193v224h43v-217c0 -107 48 -159 163 -159c68 0 143 30 184 59v317h43v-660h86v-180h-42v140h-87v305l2 33h-2c-63 -37 -124 -55 -184 -55z" />
    <glyph glyph-name="uni04B7" unicode="&#x4b7;" horiz-adv-x="505" 
d="M218 190c-111 0 -167 52 -167 155v155h42v-155c0 -34 8 -62 25 -83s50 -31 100 -31c51 0 96 15 137 45v224h42v-461h83v-159h-42v120h-83v199l2 34h-2c-17 -12 -39 -22 -66 -31c-27 -8 -50 -12 -71 -12z" />
    <glyph glyph-name="uni04B8" unicode="&#x4b8;" horiz-adv-x="599" 
d="M301 170h-41v113c-134 1 -201 65 -201 193v224h43v-217c0 -105 47 -158 158 -159v146h41v-144c57 8 106 27 148 57v317h43v-700h-43v305l2 33h-2c-45 -27 -95 -45 -148 -53v-115z" />
    <glyph glyph-name="uni04B9" unicode="&#x4b9;" horiz-adv-x="484" 
d="M253 109h-39v81c-109 1 -163 52 -163 155v155h42v-155c0 -68 25 -113 121 -114v127h39v-124c38 6 72 20 102 42v224h42v-500h-42v199l2 34h-2c-27 -19 -61 -32 -102 -40v-84z" />
    <glyph glyph-name="uni04BA" unicode="&#x4ba;" horiz-adv-x="605" 
d="M150 0h-43v700h43v-261l-2 -33h2c61 36 128 54 201 54c126 0 189 -64 189 -193v-267h-43v260c0 107 -45 159 -146 159c-39 0 -78 -7 -115 -20s-65 -26 -86 -41v-358z" />
    <glyph glyph-name="uni04BB" unicode="&#x4bb;" horiz-adv-x="586" 
d="M129 0h-42v700h42v-288l-4 -41h2c11 32 36 63 73 94s84 47 139 47c123 0 165 -67 165 -195v-317h-42v302c0 40 -2 65 -11 96c-13 45 -46 73 -112 73c-58 0 -108 -21 -149 -64s-61 -96 -61 -161v-246z" />
    <glyph glyph-name="uni04BC" unicode="&#x4bc;" horiz-adv-x="846" 
d="M50 505c0 30 2 56 6 77l9 45h44l-9 -45c-5 -23 -7 -49 -7 -77c0 -57 31 -98 87 -98h15c11 87 45 160 101 218s127 87 213 87c82 0 148 -28 198 -83c51 -55 76 -133 76 -234v-28h-547c-8 -223 139 -338 283 -338c116 0 198 57 227 81l10 10l24 -37c-5 -5 -10 -12 -43 -33
c-17 -11 -34 -20 -53 -29c-37 -16 -102 -33 -166 -33c-95 0 -174 33 -235 98s-92 152 -92 259v22h-12c-81 0 -129 55 -129 138zM240 407h497c0 47 -8 89 -23 127c-29 77 -102 137 -205 137c-73 0 -133 -25 -181 -75c-47 -49 -77 -112 -88 -189z" />
    <glyph glyph-name="uni04BD" unicode="&#x4bd;" horiz-adv-x="652" 
d="M45 376c0 26 5 52 14 79h42c-10 -23 -15 -49 -15 -76c0 -55 21 -82 62 -82h10c10 67 37 119 82 157c45 39 98 58 158 58c65 0 115 -22 150 -66c36 -43 54 -97 54 -162l-2 -27h-401c0 -70 20 -126 61 -167s92 -61 153 -61c57 0 114 26 137 47l18 16l23 -35
c-5 -5 -13 -12 -23 -20c-9 -7 -30 -17 -61 -30s-62 -19 -94 -19c-73 0 -134 24 -184 72c-49 49 -74 112 -74 189v8h-9c-67 0 -101 40 -101 119zM202 296h356c-5 116 -72 177 -161 177c-97 0 -178 -65 -195 -177z" />
    <glyph glyph-name="uni04BE" unicode="&#x4be;" horiz-adv-x="846" 
d="M50 505c0 30 2 56 6 77l9 45h44l-9 -45c-5 -23 -7 -49 -7 -77c0 -57 31 -98 87 -98h15c11 87 45 160 101 218s127 87 213 87c82 0 148 -28 198 -83c51 -55 76 -133 76 -234v-28h-547c-8 -223 139 -338 283 -338c116 0 198 57 227 81l10 10l24 -37c-5 -5 -9 -11 -41 -32
c-16 -10 -33 -19 -51 -28c-35 -16 -97 -34 -157 -35v-128h-42v129c-88 7 -160 42 -215 107s-83 148 -83 249v22h-12c-81 0 -129 55 -129 138zM240 407h497c0 47 -8 89 -23 127c-29 77 -102 137 -205 137c-73 0 -133 -25 -181 -75c-47 -49 -77 -112 -88 -189z" />
    <glyph glyph-name="uni04BF" unicode="&#x4bf;" horiz-adv-x="653" 
d="M46 376c0 26 5 52 14 79h42c-10 -23 -15 -49 -15 -76c0 -55 21 -82 62 -82h10c10 67 37 119 82 157c45 39 98 58 158 58c65 0 115 -22 150 -66c36 -43 54 -97 54 -162l-2 -27h-401c0 -70 20 -126 61 -167s92 -61 153 -61c57 0 114 26 138 47l17 16l23 -35
c-5 -5 -13 -12 -23 -20c-9 -7 -30 -17 -61 -30s-62 -19 -94 -19h-2v-108h-42v112c-62 9 -113 37 -154 83c-40 47 -60 105 -60 174v8h-9c-67 0 -101 40 -101 119zM203 296h356c-5 116 -72 177 -161 177c-97 0 -178 -65 -195 -177z" />
    <glyph glyph-name="uni04C0" unicode="&#x4c0;" horiz-adv-x="257" 
d="M150 0h-43v700h43v-700z" />
    <glyph glyph-name="uni04C1" unicode="&#x4c1;" horiz-adv-x="819" 
d="M76 0h-50l215 368v2l-201 330h50l188 -312h110v312h43v-312h110l188 312h50l-201 -330v-2l215 -368h-50l-202 348h-110v-348h-43v348h-110zM291 843v18h42v-15c0 -45 33 -72 76 -72c41 0 77 28 77 73v14h41v-18c0 -67 -54 -109 -118 -109s-118 42 -118 109z" />
    <glyph glyph-name="uni04C2" unicode="&#x4c2;" horiz-adv-x="692" 
d="M76 0h-53l176 255v2l-159 243h49l146 -224h90v224h42v-224h90l146 224h49l-159 -243v-2l176 -255h-53l-161 237h-88v-237h-42v237h-88zM228 682v18h42v-15c0 -45 33 -72 76 -72c41 0 77 28 77 73v14h41v-18c0 -67 -54 -109 -118 -109s-118 42 -118 109z" />
    <glyph glyph-name="uni04C3" unicode="&#x4c3;" horiz-adv-x="596" 
d="M150 0h-43v700h43v-312h130l200 312h52l-207 -323c75 -17 132 -56 160 -93c15 -18 26 -39 35 -62c19 -45 20 -73 20 -105c0 -93 -22 -164 -66 -213c-43 -49 -97 -74 -162 -74v39c51 0 95 20 131 59s54 102 54 189c0 81 -26 140 -77 176c-51 37 -115 55 -194 55h-76v-348z
" />
    <glyph glyph-name="uni04C4" unicode="&#x4c4;" horiz-adv-x="482" 
d="M129 0h-42v500h42v-223h85l166 223h53l-173 -227v-2c115 -28 172 -104 172 -228c0 -111 -46 -194 -139 -248l-22 36c78 41 117 111 117 212c0 135 -80 195 -209 195h-50v-238z" />
    <glyph glyph-name="uni04C5" unicode="&#x4c5;" horiz-adv-x="669" 
d="M9 -8v42c69 9 117 65 141 166c25 103 33 214 33 381v119h362v-660h90v-33l-60 -147h-40l49 140h-82v660h-277v-79c0 -60 -1 -113 -3 -158c-4 -89 -14 -189 -34 -254c-30 -98 -84 -171 -179 -177z" />
    <glyph glyph-name="uni04C6" unicode="&#x4c6;" horiz-adv-x="528" 
d="M20 -4v39c91 15 126 119 126 316v149h280v-462h70v-33l-51 -125h-38l42 120h-65v461h-196v-110c0 -239 -53 -342 -168 -355z" />
    <glyph glyph-name="uni04C7" unicode="&#x4c7;" horiz-adv-x="744" 
d="M150 0h-43v700h43v-329h444v329h43v-685c-1 -165 -110 -186 -162 -185v39c25 0 46 5 73 24c28 17 46 61 46 121v317h-444v-331z" />
    <glyph glyph-name="uni04C8" unicode="&#x4c8;" horiz-adv-x="586" 
d="M129 0h-42v500h42v-223h327v223h43v-467c0 -66 -13 -116 -38 -151s-58 -64 -101 -87l-22 36c79 37 118 104 118 202v205h-327v-238z" />
    <glyph glyph-name="uni04C9" unicode="&#x4c9;" horiz-adv-x="761" 
d="M150 0h-43v700h43v-329h444v329h43v-660h90v-33l-60 -147h-40l49 140h-82v331h-444v-331z" />
    <glyph glyph-name="uni04CA" unicode="&#x4ca;" horiz-adv-x="600" 
d="M129 0h-42v500h42v-223h327v223h42v-462h70v-33l-51 -125h-38l42 120h-65v238h-327v-238z" />
    <glyph glyph-name="uni04CB" unicode="&#x4cb;" horiz-adv-x="600" 
d="M266 283c-137 0 -206 64 -206 193v224h43v-217c0 -107 48 -159 163 -159c68 0 143 30 184 59v317h43v-700h-87v-140h-42v180h86v265l2 33h-2c-63 -37 -124 -55 -184 -55z" />
    <glyph glyph-name="uni04CC" unicode="&#x4cc;" horiz-adv-x="492" 
d="M288 -120v159h75v159l2 34h-2c-18 -11 -43 -21 -74 -30c-31 -8 -57 -12 -78 -12c-112 0 -160 60 -160 155v155h42v-155c0 -67 26 -114 118 -114c59 0 120 24 152 45v224h42v-500h-75v-120h-42z" />
    <glyph glyph-name="uni04CD" unicode="&#x4cd;" horiz-adv-x="851" 
d="M123 0h-43l56 700h42l204 -440l34 -79h2c12 30 23 56 34 79l204 440h42l53 -660h88v-33l-60 -147h-40l49 140h-77l-43 534l-3 93h-2c-13 -39 -25 -70 -36 -93l-188 -399h-44l-187 399l-37 95h-2c0 -41 -1 -72 -3 -95z" />
    <glyph glyph-name="uni04CE" unicode="&#x4ce;" horiz-adv-x="720" 
d="M110 0h-42l40 500h40l169 -331l34 -73h2c11 27 23 51 34 73l170 331h40l37 -462h68v-33l-51 -125h-38l42 120h-60l-28 347l-1 86h-2c-7 -19 -18 -43 -33 -72l-157 -306h-43l-157 304l-33 74h-2c1 -41 0 -70 -1 -86z" />
    <glyph glyph-name="uni04CF" unicode="&#x4cf;" horiz-adv-x="216" 
d="M129 0h-42v700h42v-700z" />
    <glyph glyph-name="uni04D0" unicode="&#x4d0;" horiz-adv-x="624" 
d="M73 0h-46l262 700h46l262 -700h-46l-91 242h-297zM285 566l-107 -284h267l-106 284l-26 84h-2c-10 -36 -19 -64 -26 -84zM194 843v18h42v-15c0 -45 33 -72 76 -72c41 0 77 28 77 73v14h41v-18c0 -67 -54 -109 -118 -109s-118 42 -118 109z" />
    <glyph glyph-name="uni04D1" unicode="&#x4d1;" horiz-adv-x="509" 
d="M42 133c0 72 39 115 94 139c41 17 69 24 116 28c47 5 64 5 100 5h33v17c0 99 -46 149 -137 149c-53 0 -101 -16 -143 -48l-24 34c39 33 105 55 169 55c116 0 177 -65 177 -189v-323h-42v66l4 45h-2c-27 -69 -92 -123 -175 -123c-45 0 -85 12 -119 37s-51 61 -51 108z
M86 136c0 -57 48 -109 128 -109c51 0 93 22 124 65c31 44 47 93 47 147v27h-32c-21 0 -38 0 -51 -1c-13 0 -31 -1 -56 -4c-24 -2 -44 -6 -60 -12c-48 -14 -105 -49 -100 -113zM141 682v18h42v-15c0 -45 33 -72 76 -72c41 0 77 28 77 73v14h41v-18c0 -67 -54 -109 -118 -109
s-118 42 -118 109z" />
    <glyph glyph-name="uni04D2" unicode="&#x4d2;" horiz-adv-x="624" 
d="M73 0h-46l262 700h46l262 -700h-46l-91 242h-297zM285 566l-107 -284h267l-106 284l-26 84h-2c-10 -36 -19 -64 -26 -84zM404 788h-46v73h46v-73zM267 788h-46v73h46v-73z" />
    <glyph glyph-name="uni04D3" unicode="&#x4d3;" horiz-adv-x="509" 
d="M42 133c0 72 39 115 94 139c41 17 69 24 116 28c47 5 64 5 100 5h33v17c0 99 -46 149 -137 149c-53 0 -101 -16 -143 -48l-24 34c39 33 105 55 169 55c116 0 177 -65 177 -189v-323h-42v66l4 45h-2c-27 -69 -92 -123 -175 -123c-45 0 -85 12 -119 37s-51 61 -51 108z
M86 136c0 -57 48 -109 128 -109c51 0 93 22 124 65c31 44 47 93 47 147v27h-32c-21 0 -38 0 -51 -1c-13 0 -31 -1 -56 -4c-24 -2 -44 -6 -60 -12c-48 -14 -105 -49 -100 -113zM343 627h-46v73h46v-73zM206 627h-46v73h46v-73z" />
    <glyph glyph-name="uni04D4" unicode="&#x4d4;" horiz-adv-x="823" 
d="M67 0h-46l287 700h449v-40h-340v-287h279v-40h-279v-293h359v-40h-402v333h-171zM338 660l-118 -287h154v287h-36z" />
    <glyph glyph-name="uni04D5" unicode="&#x4d5;" horiz-adv-x="870" 
d="M43 133c0 70 33 112 82 134c36 17 62 24 109 28c47 5 67 5 111 5h40v22c0 99 -47 149 -141 149c-51 0 -98 -16 -139 -48l-24 34c39 35 104 55 165 55c96 0 153 -39 172 -117h2c41 78 107 117 198 117c64 0 114 -21 149 -64s53 -96 53 -159c0 -8 -1 -17 -2 -28h-391
c0 -147 83 -232 204 -232c61 0 113 21 155 63l23 -35c-44 -41 -114 -69 -178 -69c-104 0 -189 57 -225 153h-2c-4 -20 -17 -47 -45 -86c-27 -37 -80 -67 -144 -67c-49 0 -90 13 -123 38s-49 61 -49 107zM431 300h345c-5 115 -74 172 -161 172c-96 0 -168 -60 -184 -172z
M87 136c0 -60 48 -109 128 -109c51 0 92 22 123 65c31 44 47 93 47 147v22h-69c-45 0 -73 -1 -120 -10c-63 -12 -105 -44 -109 -115z" />
    <glyph glyph-name="uni04D6" unicode="&#x4d6;" horiz-adv-x="556" 
d="M509 0h-402v700h383v-40h-340v-287h279v-40h-279v-293h359v-40zM185 843v18h42v-15c0 -45 33 -72 76 -72c41 0 77 28 77 73v14h41v-18c0 -67 -54 -109 -118 -109s-118 42 -118 109z" />
    <glyph glyph-name="uni04D7" unicode="&#x4d7;" horiz-adv-x="549" 
d="M52 249c0 81 24 145 71 192s105 71 172 71c65 0 115 -22 150 -66c36 -43 54 -97 54 -162c0 -6 -1 -15 -2 -27h-401c0 -70 20 -126 61 -167s92 -61 153 -61s113 21 155 63l23 -35c-44 -41 -114 -69 -178 -69c-73 0 -134 24 -184 72c-49 49 -74 112 -74 189zM99 296h356
c-5 116 -72 177 -161 177c-97 0 -178 -65 -195 -177zM172 682v18h42v-15c0 -45 33 -72 76 -72c41 0 77 28 77 73v14h41v-18c0 -67 -54 -109 -118 -109s-118 42 -118 109z" />
    <glyph glyph-name="uni04D8" unicode="&#x4d8;" horiz-adv-x="718" 
d="M59 343l1 28h551c0 88 -26 160 -77 216s-117 84 -196 84c-117 0 -196 -49 -223 -71l-10 -8l-26 32c5 5 10 10 42 30c17 11 34 20 53 27c37 16 101 31 165 31c93 0 169 -32 228 -97s89 -151 89 -260c0 -107 -28 -195 -83 -264s-130 -103 -225 -103
c-176 0 -289 112 -289 355zM609 331h-504c0 -201 84 -301 252 -301c73 0 134 27 181 82s71 128 71 219z" />
    <glyph glyph-name="uni04D9" unicode="&#x4d9;" horiz-adv-x="551" 
d="M51 232l2 27h401c0 61 -19 112 -56 152s-83 60 -138 60c-64 0 -128 -26 -155 -47l-20 -16l-23 35c6 5 14 12 25 19c11 8 34 18 69 31s70 19 105 19c68 0 124 -24 169 -72s68 -111 68 -189c0 -84 -22 -149 -67 -195c-45 -45 -100 -68 -166 -68c-139 0 -214 96 -214 244z
M451 220h-356c5 -129 62 -193 171 -193c48 0 90 16 126 49s56 81 59 144z" />
    <glyph glyph-name="uni04DA" unicode="&#x4da;" horiz-adv-x="718" 
d="M449 788h-46v73h46v-73zM312 788h-46v73h46v-73zM59 343l1 28h551c0 88 -26 160 -77 216s-117 84 -196 84c-117 0 -196 -49 -223 -71l-10 -8l-26 32c5 5 10 10 42 30c17 11 34 20 53 27c37 16 101 31 165 31c93 0 169 -32 228 -97s89 -151 89 -260
c0 -107 -28 -195 -83 -264s-130 -103 -225 -103c-176 0 -289 112 -289 355zM609 331h-504c0 -201 84 -301 252 -301c73 0 134 27 181 82s71 128 71 219z" />
    <glyph glyph-name="uni04DB" unicode="&#x4db;" horiz-adv-x="551" 
d="M358 627h-46v73h46v-73zM221 627h-46v73h46v-73zM51 232l2 27h401c0 61 -19 112 -56 152s-83 60 -138 60c-64 0 -128 -26 -155 -47l-20 -16l-23 35c6 5 14 12 25 19c11 8 34 18 69 31s70 19 105 19c68 0 124 -24 169 -72s68 -111 68 -189c0 -84 -22 -149 -67 -195
c-45 -45 -100 -68 -166 -68c-139 0 -214 96 -214 244zM451 220h-356c5 -129 62 -193 171 -193c48 0 90 16 126 49s56 81 59 144z" />
    <glyph glyph-name="uni04DC" unicode="&#x4dc;" horiz-adv-x="819" 
d="M502 788h-46v73h46v-73zM365 788h-46v73h46v-73zM76 0h-50l215 368v2l-201 330h50l188 -312h110v312h43v-312h110l188 312h50l-201 -330v-2l215 -368h-50l-202 348h-110v-348h-43v348h-110z" />
    <glyph glyph-name="uni04DD" unicode="&#x4dd;" horiz-adv-x="692" 
d="M437 627h-46v73h46v-73zM300 627h-46v73h46v-73zM76 0h-53l176 255v2l-159 243h49l146 -224h90v224h42v-224h90l146 224h49l-159 -243v-2l176 -255h-53l-161 237h-88v-237h-42v237h-88z" />
    <glyph glyph-name="uni04DE" unicode="&#x4de;" horiz-adv-x="530" 
d="M354 788h-46v73h46v-73zM217 788h-46v73h46v-73zM36 74l29 34c39 -45 108 -78 176 -78c53 0 97 15 132 45s53 70 53 119c0 47 -16 83 -48 110c-31 27 -71 41 -118 41h-89v40h71c43 0 81 13 112 40s47 62 47 105c0 81 -51 140 -155 140c-63 0 -118 -20 -165 -60l-24 37
c53 43 116 65 189 65c129 0 200 -71 200 -179c0 -81 -48 -133 -109 -160v-2c81 -20 134 -85 134 -177c0 -61 -22 -111 -66 -149c-43 -38 -98 -57 -165 -57c-77 0 -160 33 -204 86z" />
    <glyph glyph-name="uni04DF" unicode="&#x4df;" horiz-adv-x="431" 
d="M305 627h-46v73h46v-73zM168 627h-46v73h46v-73zM34 60l27 32c38 -43 84 -64 138 -64c36 0 68 9 95 28s41 47 41 83c0 65 -50 101 -139 101h-60v39h54c80 0 126 33 126 96c0 64 -47 96 -116 96c-48 0 -89 -16 -123 -47l-25 34c41 36 92 54 152 54c93 0 157 -46 157 -133
c0 -57 -27 -96 -81 -115v-2c61 -13 99 -55 99 -122c0 -48 -18 -85 -53 -112s-78 -40 -127 -40c-63 0 -118 24 -165 72z" />
    <glyph glyph-name="uni04E0" unicode="&#x4e0;" horiz-adv-x="516" 
d="M39 52l23 37c43 -36 107 -58 164 -58c56 0 101 15 136 45c35 31 53 70 53 118c0 87 -39 134 -139 147c-19 3 -68 4 -148 4v34l214 239l43 43l-1 2c-17 -1 -38 -2 -61 -2h-267v39h388v-30l-230 -257l-27 -26v-2c47 0 80 -1 98 -4c117 -16 175 -76 175 -181
c0 -61 -22 -112 -65 -151s-99 -59 -169 -59c-67 0 -130 21 -187 62z" />
    <glyph glyph-name="uni04E1" unicode="&#x4e1;" horiz-adv-x="473" 
d="M14 -148l23 37c43 -36 107 -58 164 -58c56 0 101 15 136 46c35 30 53 69 53 117c0 87 -39 134 -139 147c-19 3 -68 4 -148 4v34l214 239l43 43l-1 2c-17 -1 -38 -2 -61 -2h-267v39h388v-30l-230 -257l-27 -26v-2c47 0 80 -1 98 -4c117 -16 175 -76 175 -181
c0 -61 -22 -112 -65 -151s-99 -59 -169 -59c-67 0 -130 21 -187 62z" />
    <glyph glyph-name="uni04E2" unicode="&#x4e2;" horiz-adv-x="750" 
d="M147 0h-40v700h43v-549l-5 -88h2c25 39 46 70 61 91l395 546h40v-700h-43v549l5 88h-2c-23 -37 -43 -67 -58 -88zM496 787h-239v40h239v-40z" />
    <glyph glyph-name="uni04E3" unicode="&#x4e3;" horiz-adv-x="584" 
d="M126 0h-39v500h42v-356l-3 -81h2l57 81l273 356h39v-500h-42v357l3 78h-2l-57 -78zM413 625h-239v40h239v-40z" />
    <glyph glyph-name="uni04E4" unicode="&#x4e4;" horiz-adv-x="750" 
d="M466 788h-46v73h46v-73zM329 788h-46v73h46v-73zM147 0h-40v700h43v-549l-5 -88h2c25 39 46 70 61 91l395 546h40v-700h-43v549l5 88h-2c-23 -37 -43 -67 -58 -88z" />
    <glyph glyph-name="uni04E5" unicode="&#x4e5;" horiz-adv-x="584" 
d="M389 627h-46v73h46v-73zM252 627h-46v73h46v-73zM126 0h-39v500h42v-356l-3 -81h2l57 81l273 356h39v-500h-42v357l3 78h-2l-57 -78z" />
    <glyph glyph-name="uni04E6" unicode="&#x4e6;" horiz-adv-x="826" 
d="M59 355c0 101 34 185 102 254s152 103 252 103s184 -34 252 -103s102 -153 102 -254c0 -103 -34 -190 -102 -261s-152 -106 -252 -106s-184 35 -252 106s-102 158 -102 261zM104 355c0 -92 29 -169 88 -232s133 -94 221 -94s161 31 220 94s89 140 89 232
c0 90 -30 165 -89 225c-59 61 -132 91 -220 91s-162 -30 -221 -91c-59 -60 -88 -135 -88 -225zM503 788h-46v73h46v-73zM366 788h-46v73h46v-73z" />
    <glyph glyph-name="uni04E7" unicode="&#x4e7;" horiz-adv-x="620" 
d="M51 253c0 73 25 134 75 184c51 50 112 75 184 75s133 -25 183 -75c51 -50 76 -111 76 -184c0 -74 -25 -137 -76 -188c-50 -51 -111 -77 -183 -77s-133 26 -184 77c-50 51 -75 114 -75 188zM95 253c0 -63 21 -117 62 -160c42 -43 93 -64 153 -64s111 21 152 64
c42 43 63 97 63 160c0 61 -21 113 -63 155c-41 42 -92 63 -152 63s-111 -21 -153 -63c-41 -42 -62 -94 -62 -155zM403 627h-46v73h46v-73zM266 627h-46v73h46v-73z" />
    <glyph glyph-name="uni04E8" unicode="&#x4e8;" horiz-adv-x="826" 
d="M59 355c0 101 34 185 102 254s152 103 252 103s184 -34 252 -103s102 -153 102 -254c0 -103 -34 -190 -102 -261s-152 -106 -252 -106s-184 35 -252 106s-102 158 -102 261zM721 335h-617c5 -87 36 -160 94 -219c59 -58 130 -87 215 -87s156 29 214 87
c58 59 89 132 94 219zM104 375h617c-5 85 -36 155 -94 211c-58 57 -129 85 -214 85s-156 -28 -214 -84s-90 -127 -95 -212z" />
    <glyph glyph-name="uni04E9" unicode="&#x4e9;" horiz-adv-x="620" 
d="M51 253c0 73 25 134 75 184c51 50 112 75 184 75s133 -25 183 -75c51 -50 76 -111 76 -184c0 -74 -25 -137 -76 -188c-50 -51 -111 -77 -183 -77s-133 26 -184 77c-50 51 -75 114 -75 188zM310 29c56 0 104 19 145 58s64 88 69 146h-429c5 -59 27 -107 68 -146
s90 -58 147 -58zM95 272h429c-5 57 -27 104 -68 142s-89 57 -146 57s-106 -19 -147 -57s-63 -85 -68 -142z" />
    <glyph glyph-name="uni04EA" unicode="&#x4ea;" horiz-adv-x="826" 
d="M59 355c0 101 34 185 102 254s152 103 252 103s184 -34 252 -103s102 -153 102 -254c0 -103 -34 -190 -102 -261s-152 -106 -252 -106s-184 35 -252 106s-102 158 -102 261zM721 335h-617c5 -87 36 -160 94 -219c59 -58 130 -87 215 -87s156 29 214 87
c58 59 89 132 94 219zM104 375h617c-5 85 -36 155 -94 211c-58 57 -129 85 -214 85s-156 -28 -214 -84s-90 -127 -95 -212zM368 788h-46v73h46v-73zM505 788h-46v73h46v-73z" />
    <glyph glyph-name="uni04EB" unicode="&#x4eb;" horiz-adv-x="620" 
d="M51 253c0 73 25 134 75 184c51 50 112 75 184 75s133 -25 183 -75c51 -50 76 -111 76 -184c0 -74 -25 -137 -76 -188c-50 -51 -111 -77 -183 -77s-133 26 -184 77c-50 51 -75 114 -75 188zM310 29c56 0 104 19 145 58s64 88 69 146h-429c5 -59 27 -107 68 -146
s90 -58 147 -58zM95 272h429c-5 57 -27 104 -68 142s-89 57 -146 57s-106 -19 -147 -57s-63 -85 -68 -142zM261 627h-46v73h46v-73zM398 627h-46v73h46v-73z" />
    <glyph glyph-name="uni04EC" unicode="&#x4ec;" horiz-adv-x="717" 
d="M419 788h-46v73h46v-73zM282 788h-46v73h46v-73zM42 94l27 30c25 -27 59 -50 103 -68s89 -27 135 -27c83 0 153 29 210 86c57 58 89 130 94 216h-421v40h422c-4 87 -35 158 -92 215s-128 85 -212 85c-86 0 -160 -26 -222 -79l-26 32c59 56 155 88 247 88
c100 0 183 -34 250 -102s100 -153 100 -255c0 -103 -33 -190 -100 -261s-150 -106 -250 -106c-97 0 -200 38 -265 106z" />
    <glyph glyph-name="uni04ED" unicode="&#x4ed;" horiz-adv-x="539" 
d="M343 627h-46v73h46v-73zM206 627h-46v73h46v-73zM40 66l22 35c41 -48 98 -72 169 -72c56 0 104 18 144 55s62 86 67 146h-275v39h275c-5 60 -27 109 -68 146c-40 37 -88 56 -143 56c-59 0 -111 -21 -155 -64l-26 34c40 45 111 71 180 71c71 0 132 -25 182 -74
s75 -112 75 -189s-25 -140 -75 -189c-49 -48 -110 -72 -183 -72c-78 0 -141 26 -189 78z" />
    <glyph glyph-name="uni04EE" unicode="&#x4ee;" horiz-adv-x="576" 
d="M90 28l23 34c33 -23 60 -34 82 -34c47 0 67 33 96 110l-280 562h48l212 -426l40 -90h2c11 33 22 63 32 90l160 426h47l-235 -606c-28 -71 -69 -106 -122 -106c-32 0 -67 13 -105 40zM408 787h-239v40h239v-40z" />
    <glyph glyph-name="uni04EF" unicode="&#x4ef;" horiz-adv-x="517" 
d="M22 -182l19 36c19 -16 39 -24 62 -24c40 0 73 30 98 90l36 83l-207 497h45l165 -399l18 -47h2c5 15 10 31 17 47l165 399h45l-257 -617c-26 -62 -68 -93 -127 -93c-28 0 -59 12 -71 21zM378 625h-239v40h239v-40z" />
    <glyph glyph-name="uni04F0" unicode="&#x4f0;" horiz-adv-x="576" 
d="M380 788h-46v73h46v-73zM243 788h-46v73h46v-73zM90 28l23 34c33 -23 60 -34 82 -34c47 0 67 33 96 110l-280 562h48l212 -426l40 -90h2c11 33 22 63 32 90l160 426h47l-235 -606c-28 -71 -69 -106 -122 -106c-32 0 -67 13 -105 40z" />
    <glyph glyph-name="uni04F1" unicode="&#x4f1;" horiz-adv-x="517" 
d="M22 -182l19 36c19 -16 39 -24 62 -24c40 0 73 30 98 90l36 83l-207 497h45l165 -399l18 -47h2c5 15 10 31 17 47l165 399h45l-257 -617c-26 -62 -68 -93 -127 -93c-28 0 -59 12 -71 21zM350 627h-46v73h46v-73zM213 627h-46v73h46v-73z" />
    <glyph glyph-name="uni04F2" unicode="&#x4f2;" horiz-adv-x="576" 
d="M90 28l23 34c33 -23 60 -34 82 -34c47 0 67 33 96 110l-280 562h48l212 -426l40 -90h2c11 33 22 63 32 90l160 426h47l-235 -606c-28 -71 -69 -106 -122 -106c-32 0 -67 13 -105 40zM364 750h-44l67 111h56zM252 750h-47l62 111h50z" />
    <glyph glyph-name="uni04F3" unicode="&#x4f3;" horiz-adv-x="517" 
d="M22 -182l19 36c19 -16 39 -24 62 -24c40 0 73 30 98 90l36 83l-207 497h45l165 -399l18 -47h2c5 15 10 31 17 47l165 399h45l-257 -617c-26 -62 -68 -93 -127 -93c-28 0 -59 12 -71 21zM328 589h-44l67 111h56zM216 589h-47l62 111h50z" />
    <glyph glyph-name="uni04F4" unicode="&#x4f4;" horiz-adv-x="600" 
d="M375 788h-46v73h46v-73zM238 788h-46v73h46v-73zM266 283c-137 0 -206 64 -206 193v224h43v-217c0 -107 48 -159 163 -159c68 0 143 30 184 59v317h43v-700h-43v305l2 33h-2c-63 -37 -124 -55 -184 -55z" />
    <glyph glyph-name="uni04F5" unicode="&#x4f5;" horiz-adv-x="484" 
d="M324 627h-46v73h46v-73zM187 627h-46v73h46v-73zM218 190c-111 0 -167 52 -167 155v155h42v-155c0 -34 8 -62 25 -83s50 -31 100 -31c51 0 96 15 137 45v224h42v-500h-42v199l2 34h-2c-17 -12 -39 -22 -66 -31c-27 -8 -50 -12 -71 -12z" />
    <glyph glyph-name="uni04F6" unicode="&#x4f6;" horiz-adv-x="478" 
d="M194 0h-87v700h353v-40h-310v-620h86v-180h-42v140z" />
    <glyph glyph-name="uni04F7" unicode="&#x4f7;" horiz-adv-x="398" 
d="M162 0h-75v500h284v-38h-242v-423h75v-159h-42v120z" />
    <glyph glyph-name="uni04F8" unicode="&#x4f8;" horiz-adv-x="785" 
d="M485 788h-46v73h46v-73zM348 788h-46v73h46v-73zM678 0h-43v700h43v-700zM327 0h-220v700h43v-300h170c119 0 202 -69 202 -201c0 -61 -18 -109 -55 -145c-36 -36 -83 -54 -140 -54zM150 360v-320h173c95 0 154 59 154 159c0 99 -63 161 -155 161h-172z" />
    <glyph glyph-name="uni04F9" unicode="&#x4f9;" horiz-adv-x="634" 
d="M407 627h-46v73h46v-73zM270 627h-46v73h46v-73zM547 0h-42v500h42v-500zM242 0h-155v500h42v-200h115c78 0 169 -29 169 -151c0 -91 -59 -149 -171 -149zM129 261v-222h113c85 0 127 37 127 110c0 75 -42 112 -125 112h-115z" />
    <glyph glyph-name="uni0524" unicode="&#x524;" horiz-adv-x="755" 
d="M150 0h-43v700h520v-660h86v-180h-42v140h-87v660h-434v-660z" />
    <glyph glyph-name="uni0525" unicode="&#x525;" horiz-adv-x="591" 
d="M129 0h-42v500h401v-461h75v-159h-42v120h-75v461h-317v-461z" />
    <glyph glyph-name="uni1E9E" unicode="&#x1e9e;" horiz-adv-x="656" 
d="M144 0h-43v525c0 49 17 90 51 124s75 51 124 51h299v-30l-173 -242l-27 -36v-2h36c53 0 99 -19 136 -57c38 -38 57 -84 57 -137c0 -54 -19 -100 -57 -139c-37 -38 -83 -57 -136 -57h-171v40h169c43 0 78 15 107 45c29 31 43 68 43 111s-14 79 -43 109
c-28 30 -63 45 -105 45h-93v32l156 220l44 58v2c-4 -1 -18 -2 -42 -2h-194c-80 0 -138 -59 -138 -135v-525z" />
    <glyph glyph-name="thinspace" unicode="&#x2009;" horiz-adv-x="10" 
 />
    <glyph glyph-name="endash" unicode="&#x2013;" horiz-adv-x="632" 
d="M554 263h-476v40h476v-40z" />
    <glyph glyph-name="emdash" unicode="&#x2014;" horiz-adv-x="832" 
d="M754 263h-676v40h676v-40z" />
    <glyph glyph-name="quoteleft" unicode="&#x2018;" horiz-adv-x="228" 
d="M126 557h-52l48 151h39z" />
    <glyph glyph-name="quoteright" unicode="&#x2019;" horiz-adv-x="224" 
d="M115 557h-39l35 151h52z" />
    <glyph glyph-name="quotesinglbase" unicode="&#x201a;" horiz-adv-x="244" 
d="M106 -90h-39l35 151h52z" />
    <glyph glyph-name="quotedblleft" unicode="&#x201c;" horiz-adv-x="328" 
d="M226 557h-52l48 151h39zM126 557h-52l48 151h39z" />
    <glyph glyph-name="quotedblright" unicode="&#x201d;" horiz-adv-x="324" 
d="M215 557h-39l35 151h52zM115 557h-39l35 151h52z" />
    <glyph glyph-name="quotedblbase" unicode="&#x201e;" horiz-adv-x="344" 
d="M206 -90h-39l35 151h52zM106 -90h-39l35 151h52z" />
    <glyph glyph-name="dagger" unicode="&#x2020;" horiz-adv-x="379" 
d="M208 -50h-42v510h-114v40h114v200h42v-200h119v-40h-119v-510z" />
    <glyph glyph-name="daggerdbl" unicode="&#x2021;" horiz-adv-x="403" 
d="M178 186h-114v40h114v234h-114v40h114v200h42v-200h119v-40h-119v-234h119v-40h-119v-236h-42v236z" />
    <glyph glyph-name="bullet" unicode="&#x2022;" horiz-adv-x="444" 
d="M315 197c-25 -25 -56 -38 -93 -38s-68 13 -94 38c-25 26 -38 57 -38 94s13 68 38 93c26 26 57 39 94 39s68 -13 93 -39c26 -25 39 -56 39 -93s-13 -68 -39 -94z" />
    <glyph glyph-name="ellipsis" unicode="&#x2026;" horiz-adv-x="643" 
d="M565 0h-61v63h61v-63zM352 0h-61v63h61v-63zM139 0h-61v63h61v-63z" />
    <glyph glyph-name="perthousand" unicode="&#x2030;" horiz-adv-x="995" 
d="M282 489c-25 -25 -56 -38 -92 -38s-67 13 -92 38s-38 56 -38 92s13 67 38 92c25 26 56 39 92 39s67 -13 92 -39c26 -25 39 -56 39 -92s-13 -67 -39 -92zM110 0h-52l531 700h52zM128 517c33 -35 91 -35 124 0c35 35 35 93 0 128c-33 36 -91 36 -124 0
c-33 -35 -33 -93 0 -128zM734 26c-25 25 -38 56 -38 92s13 67 38 92c25 26 56 39 92 39s67 -13 92 -39c26 -25 39 -56 39 -92s-13 -67 -39 -92c-25 -25 -56 -38 -92 -38s-67 13 -92 38zM414 26c-25 25 -38 56 -38 92s13 67 38 92c25 26 56 39 92 39s67 -13 92 -39
c26 -25 39 -56 39 -92s-13 -67 -39 -92c-25 -25 -56 -38 -92 -38s-67 13 -92 38zM764 182c-33 -35 -33 -93 0 -128s91 -35 124 0c35 35 35 93 0 128c-33 36 -91 36 -124 0zM444 182c-33 -35 -33 -93 0 -128s91 -35 124 0c35 35 35 93 0 128c-33 36 -91 36 -124 0z" />
    <glyph glyph-name="guilsinglleft" unicode="&#x2039;" horiz-adv-x="334" 
d="M272 77h-53l-164 205l164 206h53l-164 -206z" />
    <glyph glyph-name="guilsinglright" unicode="&#x203a;" horiz-adv-x="334" 
d="M115 77h-53l164 205l-164 206h53l164 -206z" />
    <glyph glyph-name="fraction" unicode="&#x2044;" horiz-adv-x="150" 
d="M265 700l-335 -700h-44l336 700h43z" />
    <glyph glyph-name="zerosuperior" unicode="&#x2070;" 
d="M336 640c0 -151 -49 -227 -148 -227s-148 76 -148 227s49 227 148 227s148 -76 148 -227zM79 640c0 -127 36 -191 109 -191s109 64 109 191s-36 191 -109 191s-109 -64 -109 -191z" />
    <glyph glyph-name="foursuperior" unicode="&#x2074;" 
d="M278 423h-38v121h-215v26l222 287h31v-277h68v-36h-68v-121zM80 582v-2h160v147l3 65h-2c-11 -18 -23 -35 -35 -50z" />
    <glyph glyph-name="fivesuperior" unicode="&#x2075;" 
d="M175 413c-55 0 -98 23 -129 70l32 21c19 -33 58 -55 97 -55c63 0 112 47 112 108c0 29 -11 55 -33 76s-48 32 -79 32c-29 0 -56 -9 -81 -27l-26 10l26 209h206v-36h-174l-10 -91l-7 -43h2c20 9 42 14 65 14c43 0 78 -14 107 -42s43 -62 43 -102s-15 -74 -44 -102
s-65 -42 -107 -42z" />
    <glyph glyph-name="sixsuperior" unicode="&#x2076;" 
d="M198 413c-47 0 -85 19 -112 56c-27 38 -40 86 -40 143c0 108 51 256 186 255c29 0 56 -7 83 -20l-19 -32c-19 11 -40 16 -65 16c-40 0 -73 -17 -98 -52s-41 -77 -47 -126h2c23 28 70 48 110 48c80 0 138 -56 138 -140c0 -93 -59 -148 -138 -148zM198 449
c61 0 99 48 99 112c0 63 -41 104 -100 104c-29 0 -54 -8 -77 -25c-22 -17 -33 -34 -33 -53c0 -32 10 -63 31 -93s48 -45 80 -45z" />
    <glyph glyph-name="sevensuperior" unicode="&#x2077;" 
d="M119 423h-43l174 333l37 65v2c-13 -1 -32 -2 -55 -2h-178v36h279v-26z" />
    <glyph glyph-name="eightsuperior" unicode="&#x2078;" 
d="M188 413c-39 0 -74 12 -103 35c-29 24 -44 57 -44 98c0 20 5 39 16 58c23 37 42 50 61 61c-37 24 -55 55 -55 93c0 68 59 109 130 109c35 0 66 -10 92 -30c26 -19 39 -47 39 -82c0 -19 -5 -39 -15 -59c-19 -39 -33 -50 -45 -61c45 -27 67 -60 67 -99
c0 -34 -14 -63 -42 -87c-27 -24 -61 -36 -101 -36zM179 674l54 -23c35 32 52 67 52 104c0 48 -42 76 -93 76c-49 0 -90 -26 -90 -73c0 -26 14 -41 31 -58c11 -8 34 -21 46 -26zM188 449c27 0 51 8 72 25s32 37 32 61s-10 43 -33 58c-11 8 -22 14 -32 19
c-19 11 -60 28 -79 37c-45 -29 -68 -63 -68 -103c0 -59 49 -97 108 -97z" />
    <glyph glyph-name="ninesuperior" unicode="&#x2079;" 
d="M61 433l19 32c17 -11 39 -16 65 -16c40 0 73 17 98 52s41 77 47 126h-2c-23 -28 -70 -48 -110 -48c-80 0 -138 56 -138 140c0 93 59 148 138 148c47 0 84 -19 111 -57c27 -37 41 -85 41 -142c0 -108 -51 -256 -186 -255c-31 0 -58 7 -83 20zM179 615c29 0 54 8 76 25
c23 17 34 34 34 53c0 32 -11 63 -32 93s-47 45 -79 45c-61 0 -99 -48 -99 -112c0 -63 41 -104 100 -104z" />
    <glyph glyph-name="zeroinferior" unicode="&#x2080;" 
d="M336 60c0 -151 -49 -227 -148 -227s-148 76 -148 227s49 227 148 227s148 -76 148 -227zM79 60c0 -127 36 -191 109 -191s109 64 109 191s-36 191 -109 191s-109 -64 -109 -191z" />
    <glyph glyph-name="oneinferior" unicode="&#x2081;" 
d="M310 -157h-227v36h96v325l1 22h-1c-3 -5 -10 -14 -23 -27l-44 -43l-26 27l93 94h38v-398h93v-36z" />
    <glyph glyph-name="twoinferior" unicode="&#x2082;" 
d="M320 -157h-266c-1 12 -2 21 -2 27c0 60 35 108 78 139c63 44 143 84 143 155c0 48 -38 87 -91 87c-35 0 -67 -17 -94 -50l-24 26c24 33 71 60 118 60c83 0 130 -54 130 -123c0 -55 -34 -99 -77 -128c-62 -43 -142 -81 -144 -157h229v-36z" />
    <glyph glyph-name="threeinferior" unicode="&#x2083;" 
d="M179 -168c-53 0 -107 22 -138 65l28 26c20 -29 63 -55 111 -55c26 0 50 10 71 30c21 19 32 43 32 71c0 57 -51 96 -107 96h-32l-11 24l108 127l25 25v2c-12 -2 -25 -3 -38 -3h-164v36h255v-26l-128 -150c34 -3 64 -14 91 -35s40 -53 40 -96c0 -38 -14 -70 -43 -97
c-28 -27 -61 -40 -100 -40z" />
    <glyph glyph-name="fourinferior" unicode="&#x2084;" 
d="M278 -157h-38v121h-215v26l222 287h31v-277h68v-36h-68v-121zM80 2v-2h160v147l3 65h-2c-11 -18 -23 -35 -35 -50z" />
    <glyph glyph-name="fiveinferior" unicode="&#x2085;" 
d="M176 -167c-55 0 -98 23 -129 70l32 21c19 -33 58 -55 97 -55c63 0 112 47 112 108c0 29 -11 55 -33 76s-48 32 -79 32c-29 0 -56 -9 -81 -27l-26 10l26 209h206v-36h-174l-10 -91l-7 -43h2c20 9 42 14 65 14c43 0 78 -14 107 -42s43 -62 43 -102s-15 -74 -44 -102
s-65 -42 -107 -42z" />
    <glyph glyph-name="sixinferior" unicode="&#x2086;" 
d="M198 -167c-47 0 -85 19 -112 57c-27 37 -40 85 -40 142c0 108 51 256 186 255c29 0 56 -7 83 -20l-19 -32c-19 11 -40 16 -65 16c-40 0 -73 -17 -98 -52s-41 -77 -47 -126h2c23 28 70 48 110 48c80 0 138 -56 138 -140c0 -93 -59 -148 -138 -148zM198 -131
c61 0 99 48 99 112c0 63 -41 104 -100 104c-29 0 -54 -8 -77 -25c-22 -17 -33 -34 -33 -53c0 -32 10 -63 31 -93s48 -45 80 -45z" />
    <glyph glyph-name="seveninferior" unicode="&#x2087;" 
d="M119 -158h-43l174 333l37 65v2c-13 -1 -32 -2 -55 -2h-178v36h279v-26z" />
    <glyph glyph-name="eightinferior" unicode="&#x2088;" 
d="M188 -166c-39 0 -74 12 -103 36c-29 23 -44 56 -44 97c0 20 5 39 16 58c23 37 42 50 61 61c-37 24 -55 55 -55 93c0 68 59 109 130 109c35 0 66 -10 92 -30c26 -19 39 -47 39 -82c0 -19 -5 -39 -15 -59c-19 -39 -33 -50 -45 -61c45 -27 67 -60 67 -99
c0 -34 -14 -63 -42 -87c-27 -24 -61 -36 -101 -36zM179 95l54 -23c35 32 52 67 52 104c0 48 -42 76 -93 76c-49 0 -90 -26 -90 -73c0 -26 14 -41 31 -58c11 -8 34 -21 46 -26zM188 -130c27 0 51 8 72 25s32 37 32 61s-10 43 -33 58c-11 8 -22 14 -32 19
c-19 11 -60 28 -79 37c-45 -29 -68 -63 -68 -103c0 -59 49 -97 108 -97z" />
    <glyph glyph-name="nineinferior" unicode="&#x2089;" 
d="M61 -147l19 32c17 -11 39 -16 65 -16c40 0 73 17 98 52s41 77 47 126h-2c-23 -28 -70 -48 -110 -48c-80 0 -138 56 -138 140c0 93 59 148 138 148c47 0 84 -19 111 -57c27 -37 41 -85 41 -142c0 -108 -51 -256 -186 -255c-31 0 -58 7 -83 20zM179 35c29 0 54 8 76 25
c23 17 34 34 34 53c0 32 -11 63 -32 93s-47 45 -79 45c-61 0 -99 -48 -99 -112c0 -63 41 -104 100 -104z" />
    <glyph glyph-name="Euro" unicode="&#x20ac;" horiz-adv-x="560" 
d="M86 273h-59v40h54c-1 9 -2 23 -2 42s1 35 3 47h-55v40h62c19 79 58 144 119 194c61 51 133 76 214 76c33 0 62 -4 89 -11l-10 -42c-24 7 -50 11 -79 11c-71 0 -132 -21 -183 -63c-51 -41 -86 -96 -104 -165h328l-8 -40h-328c-5 -26 -5 -56 -2 -89h314l-7 -40h-301
c15 -72 49 -131 102 -176s116 -67 189 -67c33 0 62 4 88 13l12 -41c-28 -9 -61 -14 -100 -14c-84 0 -157 26 -219 79s-101 122 -117 206z" />
    <glyph glyph-name="numero" unicode="&#x2116;" horiz-adv-x="1015" 
d="M143 0h-43v700h40l399 -549l57 -88h2c-3 35 -5 65 -5 88v549h43v-700h-40l-399 549l-57 88h-2c3 -35 5 -65 5 -88v-549zM715 480c0 34 12 63 35 86c24 24 53 36 87 36s63 -12 87 -36c24 -23 36 -52 36 -86c0 -35 -12 -65 -36 -89s-53 -36 -87 -36s-63 12 -87 36
c-23 24 -35 54 -35 89zM755 480c0 -49 37 -87 82 -87c47 0 83 38 83 87c0 48 -36 83 -83 83c-45 0 -82 -35 -82 -83zM950 243h-226v37h226v-37z" />
    <glyph glyph-name="trademark" unicode="&#x2122;" horiz-adv-x="970" 
d="M505 264h-38l35 436h35l126 -270l14 -40h2c3 13 8 27 14 40l126 270h35l35 -436h-38l-28 328l1 28h-2l-127 -274h-34l-127 274h-2l1 -28zM265 264h-39v398h-160v38h360v-38h-161v-398z" />
    <glyph glyph-name="minus" unicode="&#x2212;" horiz-adv-x="560" 
d="M528 263h-496v40h496v-40z" />
    <glyph glyph-name="infinity" unicode="&#x221e;" horiz-adv-x="460" 
d="M346 232c-32 -32 -71 -48 -116 -48s-84 16 -117 48c-32 33 -48 72 -48 117s16 84 48 116c33 32 72 48 117 48s84 -16 116 -48s48 -71 48 -116s-16 -84 -48 -117z" />
    <glyph glyph-name="approxequal" unicode="&#x2248;" horiz-adv-x="560" 
d="M65 321l-25 30c43 44 90 66 141 66c33 0 69 -12 107 -35c39 -23 69 -35 91 -35c40 0 79 19 116 56l25 -30c-43 -44 -90 -66 -141 -66c-33 0 -69 12 -108 35c-38 23 -68 35 -90 35c-40 0 -79 -19 -116 -56zM65 161l-25 30c43 44 90 66 141 66c33 0 69 -12 107 -35
c39 -23 69 -35 91 -35c40 0 79 19 116 56l25 -30c-43 -44 -90 -66 -141 -66c-33 0 -69 12 -108 35c-38 23 -68 35 -90 35c-40 0 -79 -19 -116 -56z" />
    <glyph glyph-name="notequal" unicode="&#x2260;" horiz-adv-x="560" 
d="M142 67l-33 25l68 91h-126v40h156l91 120h-247v40h277l90 119l33 -25l-71 -94h127v-40h-157l-91 -120h248v-40h-278z" />
    <glyph glyph-name="lessequal" unicode="&#x2264;" horiz-adv-x="560" 
d="M493 68l-439 197v36l439 197v-48l-377 -166v-2l377 -166v-48zM54 -153v40h439v-40h-439z" />
    <glyph glyph-name="greaterequal" unicode="&#x2265;" horiz-adv-x="560" 
d="M506 265l-439 -197v48l377 166v2l-377 166v48l439 -197v-36zM66 -153v40h439v-40h-439z" />
    <glyph glyph-name="commaaccent" unicode="&#xf6c3;" horiz-adv-x="335" 
d="M142 -66h48c4 -17 6 -33 6 -47c0 -25 -7 -54 -22 -87h-39c12 31 18 57 18 78c0 18 -4 37 -11 56z" />
    <glyph glyph-name="cyrbreve" unicode="&#xf6d4;" horiz-adv-x="276" 
d="M20 843v18h42v-15c0 -45 33 -72 76 -72c41 0 77 28 77 73v14h41v-18c0 -67 -54 -109 -118 -109s-118 42 -118 109z" />
    <glyph glyph-name="apple" unicode="&#xf8ff;" horiz-adv-x="1130" 
d="M433 -146l-265 141v152l-126 72v278l126 71v151l265 142l134 -71l132 71l265 -142v-151l124 -71v-278l-124 -72v-152l-265 -141l-132 71zM208 169v-139l238 -126l121 66l118 -66l238 126v139l114 64v249l-114 66v136l-238 126l-118 -64l-121 64l-238 -126v-136l-114 -66
v-249zM457 -50l-215 114v121l-99 60v225l99 58v123l215 114l110 -59l107 59l214 -114v-123l100 -58v-225l-100 -60v-121l-214 -114l-107 58zM447 551v-460h43v228h228v40h-228v192h199c23 0 29 -8 29 -29v-42h42v54c0 40 -15 57 -58 57h-320v-40h65z" />
    <glyph glyph-name="zero.tnum" horiz-adv-x="560" 
d="M516 350c0 -241 -79 -362 -236 -362s-236 121 -236 362s79 362 236 362s236 -121 236 -362zM471 350c0 213 -64 320 -191 320s-191 -107 -191 -320c0 -96 11 -167 39 -227s80 -93 152 -93s124 33 152 93s39 131 39 227z" />
    <glyph glyph-name="one.tnum" horiz-adv-x="560" 
d="M469 0h-357v40h159v570l1 35h-2c-5 -9 -17 -23 -37 -43l-83 -83l-30 29l151 152h43v-660h155v-40z" />
    <glyph glyph-name="two.tnum" horiz-adv-x="560" 
d="M492 0h-426c-2 13 -3 26 -3 37c0 242 373 271 373 483c0 87 -64 150 -163 150c-68 0 -133 -40 -170 -100l-32 22c40 71 119 120 203 120c65 0 116 -19 152 -56c37 -37 55 -83 55 -136c0 -37 -9 -72 -28 -104c-36 -64 -94 -100 -158 -147l-90 -64
c-55 -40 -96 -100 -96 -165h383v-40z" />
    <glyph glyph-name="three.tnum" horiz-adv-x="560" 
d="M55 85l32 32c44 -49 116 -87 188 -87c47 0 87 16 122 48c35 33 53 74 53 124c0 52 -19 93 -56 122c-37 30 -80 45 -131 45h-48l-12 30l196 229l31 32v2c-13 -1 -31 -2 -54 -2h-287v40h401v-30l-226 -261c48 0 97 -12 146 -41c51 -29 85 -89 85 -166
c0 -59 -22 -110 -66 -152c-43 -41 -95 -62 -156 -62c-80 0 -161 37 -218 97z" />
    <glyph glyph-name="four.tnum" horiz-adv-x="560" 
d="M384 200h-360v30l363 470h40v-460h104v-40h-104v-200h-43v200zM84 242v-2h300v328l3 63h-2c-11 -17 -23 -33 -35 -48z" />
    <glyph glyph-name="five.tnum" horiz-adv-x="560" 
d="M63 89l35 27c37 -57 91 -86 162 -86c55 0 101 17 138 52s56 79 56 131c0 53 -19 97 -56 132s-83 53 -138 53c-52 0 -97 -14 -136 -42l-32 11l40 333h325v-40h-287l-25 -209l-7 -43h2c33 21 73 32 120 32c67 0 123 -22 169 -66c47 -44 70 -98 70 -161s-23 -116 -70 -160
c-47 -43 -103 -65 -169 -65c-80 0 -154 37 -197 101z" />
    <glyph glyph-name="six.tnum" horiz-adv-x="560" 
d="M54 314c0 91 24 183 69 263s128 135 231 135c44 0 85 -9 123 -28l-21 -39c-29 17 -64 25 -105 25c-51 0 -95 -17 -134 -50c-76 -65 -111 -164 -118 -272h2c39 59 115 96 198 96c63 0 114 -20 154 -61c41 -41 61 -96 61 -165c0 -71 -21 -127 -63 -168
c-41 -41 -92 -62 -152 -62c-75 0 -134 31 -179 94c-44 63 -66 140 -66 232zM304 30c49 0 89 18 119 53c31 36 46 82 46 137c0 112 -69 182 -172 182c-50 0 -95 -14 -135 -43c-39 -29 -59 -64 -59 -106c0 -69 63 -223 201 -223z" />
    <glyph glyph-name="seven.tnum" horiz-adv-x="560" 
d="M179 0h-45l292 595l37 65v2c-13 -1 -32 -2 -55 -2h-340v40h443v-30z" />
    <glyph glyph-name="eight.tnum" horiz-adv-x="560" 
d="M48 195c0 56 22 109 53 142s51 48 71 60c-60 37 -90 84 -90 142c0 49 18 90 54 123c37 33 87 50 152 50c128 0 208 -72 208 -176c0 -30 -7 -61 -21 -92c-28 -61 -51 -86 -74 -107c69 -39 104 -89 104 -150c0 -55 -22 -102 -66 -141c-43 -39 -96 -58 -159 -58
c-61 0 -115 19 -162 56c-47 38 -70 88 -70 151zM361 356c60 57 90 116 90 177c0 84 -66 137 -163 137c-99 0 -161 -56 -161 -129c0 -40 16 -70 53 -97c19 -13 36 -23 51 -31l66 -30c30 -12 51 -21 64 -27zM93 198c0 -49 19 -90 56 -121s80 -47 129 -47c47 0 89 15 126 44
c37 30 56 67 56 110c0 41 -18 75 -57 100c-19 13 -38 23 -55 31c-17 9 -40 19 -69 31s-51 22 -66 29c-19 -9 -39 -25 -70 -54c-29 -29 -50 -75 -50 -123z" />
    <glyph glyph-name="nine.tnum" horiz-adv-x="560" 
d="M82 16l21 39c29 -17 64 -25 103 -25c51 0 96 16 135 49c77 67 112 164 119 273h-2c-39 -59 -115 -96 -198 -96c-63 0 -114 20 -155 61c-40 41 -60 95 -60 162c0 73 21 130 62 171s92 62 153 62c75 0 135 -31 179 -94s66 -140 66 -233c0 -91 -24 -182 -69 -262
s-129 -135 -232 -135c-44 0 -85 9 -122 28zM262 298c52 0 97 15 136 44c39 30 58 62 58 95c0 54 -19 106 -56 157s-84 76 -139 76c-105 0 -171 -78 -171 -191c0 -111 69 -181 172 -181z" />
    <glyph glyph-name="hyphen.case" horiz-adv-x="432" 
d="M354 329h-276v40h276v-40z" />
    <glyph glyph-name="parenleft.case" horiz-adv-x="264" 
d="M216 -65h-44c-73 129 -110 272 -110 430c0 139 37 269 110 390h44c-75 -127 -113 -257 -113 -391c0 -154 38 -297 113 -429z" />
    <glyph glyph-name="parenright.case" horiz-adv-x="264" 
d="M92 -65h-44c75 132 113 275 113 429c0 134 -38 264 -113 391h44c73 -121 110 -251 110 -390c0 -158 -37 -301 -110 -430z" />
    <glyph glyph-name="bracketleft.case" horiz-adv-x="265" 
d="M206 -65h-108v820h108v-40h-65v-740h65v-40z" />
    <glyph glyph-name="bracketright.case" horiz-adv-x="265" 
d="M59 -65v40h65v740h-65v40h108v-820h-108z" />
    <glyph glyph-name="braceleft.case" horiz-adv-x="326" 
d="M132 118v94c0 61 -29 107 -85 119v40c55 12 85 56 85 119v81c0 79 24 135 57 156s55 27 79 27h9v-39h-6c-17 0 -32 -4 -56 -21s-40 -61 -40 -122v-93c0 -56 -28 -104 -79 -127v-2c53 -21 79 -64 79 -127v-106c0 -61 16 -105 40 -122s39 -21 56 -21h6v-39
c-2 -1 -5 -1 -9 -1c-17 0 -33 1 -61 16c-39 18 -73 67 -75 168z" />
    <glyph glyph-name="braceright.case" horiz-adv-x="326" 
d="M49 -65v39h6c17 0 32 4 56 21s40 61 40 122v106c0 63 26 106 79 127v2c-45 19 -79 67 -79 127v93c0 61 -16 105 -40 122s-39 21 -56 21h-6v39h9c24 0 46 -6 79 -27s57 -77 57 -156v-81c0 -61 30 -107 85 -119v-40c-55 -11 -85 -58 -85 -119v-94c0 -64 -18 -115 -39 -139
c-35 -38 -77 -46 -97 -45z" />
    <glyph glyph-name="at.case" horiz-adv-x="762" 
d="M63 350c0 101 34 187 102 258s149 107 244 107c80 0 139 -17 176 -51s56 -76 56 -126v-344h70v-40h-265c-53 0 -99 19 -137 57c-37 38 -56 84 -56 137c0 54 19 100 56 138c38 39 84 58 137 58h150c-4 76 -58 131 -181 131c-86 0 -159 -32 -218 -95s-89 -139 -89 -230
s29 -167 88 -230c59 -62 132 -93 219 -93v-42c-97 0 -180 35 -249 106s-103 158 -103 259zM451 194h145v310h-143c-43 0 -80 -15 -110 -46s-45 -67 -45 -110s15 -79 44 -109c30 -30 66 -45 109 -45z" />
    <glyph glyph-name="guillemotleft.case" horiz-adv-x="495" 
d="M432 137h-53l-164 205l164 206h53l-164 -206zM272 137h-53l-164 205l164 206h53l-164 -206z" />
    <glyph glyph-name="guillemotright.case" horiz-adv-x="495" 
d="M276 137h-53l164 205l-164 206h53l164 -206zM116 137h-53l164 205l-164 206h53l164 -206z" />
    <glyph glyph-name="guilsinglleft.case" horiz-adv-x="335" 
d="M272 137h-53l-164 205l164 206h53l-164 -206z" />
    <glyph glyph-name="guilsinglright.case" horiz-adv-x="335" 
d="M116 137h-53l164 205l-164 206h53l164 -206z" />
    <glyph glyph-name="endash.case" horiz-adv-x="632" 
d="M554 323h-476v40h476v-40z" />
    <glyph glyph-name="emdash.case" horiz-adv-x="832" 
d="M754 323h-676v40h676v-40z" />
    <glyph glyph-name="periodcentered.case" horiz-adv-x="213" 
d="M135 317h-57v59h57v-59z" />
    <glyph glyph-name="questiondown.case" horiz-adv-x="435" 
d="M230 525h43v-44c0 -60 -28 -110 -63 -143c-51 -49 -116 -96 -116 -179c0 -73 61 -129 146 -129c47 0 89 14 127 42l23 -34c-36 -29 -96 -50 -149 -50c-57 0 -103 16 -139 49c-35 33 -53 74 -53 123c0 61 28 111 63 144c53 49 118 95 118 177v44zM222 700h59v-61h-59v61z
" />
    <glyph glyph-name="exclamdown.case" horiz-adv-x="248" 
d="M103 525h43v-525h-43v525zM94 700h59v-61h-59v61z" />
    <glyph glyph-name="bullet.case" horiz-adv-x="442" 
d="M314 257c-25 -25 -56 -38 -93 -38s-68 13 -94 38c-25 26 -38 57 -38 94s13 68 38 93c26 26 57 39 94 39s68 -13 93 -39c26 -25 39 -56 39 -93s-13 -68 -39 -94z" />
    <glyph glyph-name="zero.p_osf" horiz-adv-x="584" 
d="M62 268c0 77 20 143 61 199c41 57 97 85 169 85s128 -28 169 -85c41 -56 61 -122 61 -199c0 -76 -20 -142 -61 -197c-40 -55 -96 -83 -169 -83s-129 28 -170 83c-40 55 -60 121 -60 197zM155 439c-33 -47 -49 -104 -49 -169s16 -122 49 -170c33 -47 78 -71 137 -71
s104 24 137 71c33 48 49 105 49 170s-16 122 -49 169c-33 48 -78 72 -137 72s-104 -24 -137 -72z" />
    <glyph glyph-name="one.p_osf" horiz-adv-x="455" 
d="M416 0h-341v39h159v409l1 48h-2c-11 -8 -24 -17 -39 -26l-117 -71l-20 31l177 110h42v-501h140v-39z" />
    <glyph glyph-name="two.p_osf" horiz-adv-x="530" 
d="M473 0h-405v32c124 84 211 151 260 202c50 51 75 101 75 150c0 84 -63 127 -151 127c-56 0 -110 -26 -163 -79l-27 30c40 48 117 90 194 90c63 0 110 -17 142 -50c33 -33 49 -71 49 -113c0 -57 -23 -112 -70 -165s-125 -114 -235 -185v-2c13 1 31 2 54 2h277v-39z" />
    <glyph glyph-name="three.p_osf" horiz-adv-x="525" 
d="M46 -37l32 29c45 -53 102 -79 170 -79c46 0 86 15 121 44s53 68 53 116c0 49 -18 87 -55 113c-37 27 -81 40 -133 40h-47l-12 32l192 213l31 30v2c-13 -1 -31 -2 -54 -2h-255v39h372v-28l-226 -245c48 0 95 -10 146 -37c51 -25 85 -82 85 -157c0 -60 -22 -108 -65 -145
s-94 -56 -155 -56c-81 0 -147 30 -200 91z" />
    <glyph glyph-name="four.p_osf" horiz-adv-x="579" 
d="M382 41h-344v29l348 470h38v-460h113v-39h-113v-157h-42v157zM348 417l-252 -337h286v329l3 63h-2c-11 -21 -23 -39 -35 -55z" />
    <glyph glyph-name="five.p_osf" horiz-adv-x="531" 
d="M53 -24l35 24c33 -48 95 -76 156 -76c52 0 97 15 134 46c38 30 57 71 57 124c0 51 -19 92 -56 121s-80 44 -130 44c-45 0 -96 -16 -119 -29l-16 -9l-31 10l40 309h314v-39h-277l-24 -189l-7 -40h2c34 19 75 28 123 28c61 0 114 -18 158 -54c45 -35 67 -86 67 -151
c0 -64 -22 -115 -67 -154s-100 -58 -167 -58c-76 0 -151 34 -192 93z" />
    <glyph glyph-name="six.p_osf" horiz-adv-x="585" 
d="M67 286c0 87 24 175 69 252s128 130 231 130c43 0 84 -9 122 -26l-21 -38c-29 15 -64 23 -103 23c-76 0 -136 -31 -181 -92c-44 -61 -69 -134 -74 -217h2c39 61 115 96 199 96c63 0 114 -19 154 -57c41 -37 61 -87 61 -150c0 -69 -21 -122 -62 -161s-92 -58 -153 -58
c-75 0 -134 28 -178 85s-66 128 -66 213zM115 242c0 -50 19 -98 56 -144s84 -69 139 -69c107 0 172 73 172 178c0 101 -70 166 -173 166c-52 0 -97 -14 -136 -42s-58 -58 -58 -89z" />
    <glyph glyph-name="seven.p_osf" horiz-adv-x="500" 
d="M156 -116h-46l280 557l34 60v2c-13 -1 -32 -2 -55 -2h-325v39h429v-28z" />
    <glyph glyph-name="eight.p_osf" horiz-adv-x="580" 
d="M64 187c0 49 22 97 53 128c32 31 52 45 72 56c-62 35 -93 81 -93 137c0 44 18 82 53 113c35 32 84 48 147 48c125 0 204 -67 204 -166c0 -45 -18 -92 -43 -124c-24 -32 -40 -49 -53 -60c71 -38 107 -86 107 -144c0 -51 -22 -95 -65 -132s-95 -55 -156 -55
s-114 18 -159 53c-45 36 -67 85 -67 146zM365 338c61 50 91 105 91 165c0 76 -67 125 -160 125s-156 -52 -156 -120c4 -49 26 -78 74 -105c18 -9 33 -17 45 -22l54 -22c23 -9 41 -16 52 -21zM108 187c0 -48 18 -86 54 -115c37 -29 79 -43 128 -43c46 0 87 14 123 41
c36 28 54 63 54 104c0 37 -16 67 -55 91c-19 12 -36 22 -52 29c-15 8 -38 18 -67 29s-50 20 -64 27c-17 -9 -35 -20 -67 -48c-32 -27 -54 -70 -54 -115z" />
    <glyph glyph-name="nine.p_osf" horiz-adv-x="568" 
d="M89 -102l21 38c27 -15 62 -23 103 -23c76 0 136 31 180 92c45 61 70 134 75 217h-2c-39 -61 -115 -96 -199 -96c-63 0 -114 19 -155 56c-40 38 -60 88 -60 151c0 69 21 122 62 161s92 58 153 58c75 0 134 -29 178 -86s66 -127 66 -212c0 -87 -24 -175 -69 -252
s-128 -130 -231 -130c-45 0 -85 9 -122 26zM269 167c52 0 97 14 136 42s58 58 58 89c0 50 -19 98 -56 144s-84 69 -139 69c-107 0 -172 -73 -172 -178c0 -101 70 -166 173 -166z" />
    <glyph glyph-name="zero.t_osf" horiz-adv-x="560" 
d="M50 268c0 77 20 143 61 199c41 57 97 85 169 85s128 -28 169 -85c41 -56 61 -122 61 -199c0 -76 -20 -142 -61 -197c-40 -55 -96 -83 -169 -83s-129 28 -170 83c-40 55 -60 121 -60 197zM143 439c-33 -47 -49 -104 -49 -169s16 -122 49 -170c33 -47 78 -71 137 -71
s104 24 137 71c33 48 49 105 49 170s-16 122 -49 169c-33 48 -78 72 -137 72s-104 -24 -137 -72z" />
    <glyph glyph-name="one.t_osf" horiz-adv-x="560" 
d="M468 0h-341v39h159v409l1 48h-2c-11 -8 -24 -17 -39 -26l-117 -71l-20 31l177 110h42v-501h140v-39z" />
    <glyph glyph-name="two.t_osf" horiz-adv-x="560" 
d="M488 0h-405v32c124 84 211 151 260 202c50 51 75 101 75 150c0 84 -63 127 -151 127c-56 0 -110 -26 -163 -79l-27 30c40 48 117 90 194 90c63 0 110 -17 142 -50c33 -33 49 -71 49 -113c0 -57 -23 -112 -70 -165s-125 -114 -235 -185v-2c13 1 31 2 54 2h277v-39z" />
    <glyph glyph-name="three.t_osf" horiz-adv-x="560" 
d="M63 -37l32 29c45 -53 102 -79 170 -79c46 0 86 15 121 44s53 68 53 116c0 49 -18 87 -55 113c-37 27 -81 40 -133 40h-47l-12 32l192 213l31 30v2c-13 -1 -31 -2 -54 -2h-255v39h372v-28l-226 -245c48 0 95 -10 146 -37c51 -25 85 -82 85 -157c0 -60 -22 -108 -65 -145
s-94 -56 -155 -56c-81 0 -147 30 -200 91z" />
    <glyph glyph-name="four.t_osf" horiz-adv-x="560" 
d="M372 41h-344v29l348 470h38v-460h113v-39h-113v-157h-42v157zM338 417l-252 -337h286v329l3 63h-2c-11 -21 -23 -39 -35 -55z" />
    <glyph glyph-name="five.t_osf" horiz-adv-x="560" 
d="M67 -24l35 24c33 -48 95 -76 156 -76c52 0 97 15 134 46c38 30 57 71 57 124c0 51 -19 92 -56 121s-80 44 -130 44c-45 0 -96 -16 -119 -29l-16 -9l-31 10l40 309h314v-39h-277l-24 -189l-7 -40h2c34 19 75 28 123 28c61 0 114 -18 158 -54c45 -35 67 -86 67 -151
c0 -64 -22 -115 -67 -154s-100 -58 -167 -58c-76 0 -151 34 -192 93z" />
    <glyph glyph-name="six.t_osf" horiz-adv-x="560" 
d="M54 286c0 87 24 175 69 252s128 130 231 130c43 0 84 -9 122 -26l-21 -38c-29 15 -64 23 -103 23c-76 0 -136 -31 -181 -92c-44 -61 -69 -134 -74 -217h2c39 61 115 96 199 96c63 0 114 -19 154 -57c41 -37 61 -87 61 -150c0 -69 -21 -122 -62 -161s-92 -58 -153 -58
c-75 0 -134 28 -178 85s-66 128 -66 213zM102 242c0 -50 19 -98 56 -144s84 -69 139 -69c107 0 172 73 172 178c0 101 -70 166 -173 166c-52 0 -97 -14 -136 -42s-58 -58 -58 -89z" />
    <glyph glyph-name="seven.t_osf" horiz-adv-x="560" 
d="M186 -116h-46l280 557l34 60v2c-13 -1 -32 -2 -55 -2h-325v39h429v-28z" />
    <glyph glyph-name="eight.t_osf" horiz-adv-x="560" 
d="M54 187c0 49 22 97 53 128c32 31 52 45 72 56c-62 35 -93 81 -93 137c0 44 18 82 53 113c35 32 84 48 147 48c125 0 204 -67 204 -166c0 -45 -18 -92 -43 -124c-24 -32 -40 -49 -53 -60c71 -38 107 -86 107 -144c0 -51 -22 -95 -65 -132s-95 -55 -156 -55
s-114 18 -159 53c-45 36 -67 85 -67 146zM355 338c61 50 91 105 91 165c0 76 -67 125 -160 125s-156 -52 -156 -120c4 -49 26 -78 74 -105c18 -9 33 -17 45 -22l54 -22c23 -9 41 -16 52 -21zM98 187c0 -48 18 -86 54 -115c37 -29 79 -43 128 -43c46 0 87 14 123 41
c36 28 54 63 54 104c0 37 -16 67 -55 91c-19 12 -36 22 -52 29c-15 8 -38 18 -67 29s-50 20 -64 27c-17 -9 -35 -20 -67 -48c-32 -27 -54 -70 -54 -115z" />
    <glyph glyph-name="nine.t_osf" horiz-adv-x="560" 
d="M85 -102l21 38c27 -15 62 -23 103 -23c76 0 136 31 180 92c45 61 70 134 75 217h-2c-39 -61 -115 -96 -199 -96c-63 0 -114 19 -155 56c-40 38 -60 88 -60 151c0 69 21 122 62 161s92 58 153 58c75 0 134 -29 178 -86s66 -127 66 -212c0 -87 -24 -175 -69 -252
s-128 -130 -231 -130c-45 0 -85 9 -122 26zM265 167c52 0 97 14 136 42s58 58 58 89c0 50 -19 98 -56 144s-84 69 -139 69c-107 0 -172 -73 -172 -178c0 -101 70 -166 173 -166z" />
    <glyph glyph-name="dollar.osf" horiz-adv-x="497" 
d="M49 86l33 29c37 -48 109 -86 178 -86c76 0 136 42 136 113c0 53 -49 90 -112 113c-89 34 -207 69 -205 176c0 91 68 145 161 153v84h43v-84c63 -6 110 -26 142 -60l-27 -33c-34 35 -81 53 -142 53c-75 0 -133 -36 -133 -109c0 -55 49 -91 112 -115
c91 -33 205 -69 205 -178c0 -43 -16 -79 -48 -108c-31 -28 -72 -43 -121 -45v-93h-43v94c-68 7 -139 44 -179 96z" />
    <glyph glyph-name="cent.osf" horiz-adv-x="552" 
d="M314 -25h-43v83c-63 6 -116 31 -158 74c-41 44 -62 99 -62 166s21 122 62 165c42 43 95 68 158 74v87h43v-86c71 -5 127 -30 170 -77l-23 -35c-35 44 -101 72 -162 72c-57 0 -105 -19 -145 -56c-39 -37 -59 -85 -59 -144s20 -108 59 -145c40 -37 88 -55 145 -55
c65 0 119 24 162 72l22 -35c-37 -44 -108 -75 -169 -78v-82z" />
    <glyph glyph-name="sterling.osf" horiz-adv-x="582" 
d="M514 0h-459v39h66v209h-46v39h46v121c0 50 19 92 56 126c38 34 86 51 145 51c60 0 112 -17 157 -51l-29 -33c-32 25 -85 43 -129 43c-99 0 -158 -61 -158 -140v-117h243v-39h-243v-209h351v-39z" />
    <glyph glyph-name="yen.osf" horiz-adv-x="585" 
d="M272 157h-168v40h168v32l-30 48h-138v40h114l-159 258h49l141 -232l43 -76h2c15 28 29 53 43 76l141 232h49l-158 -258h111v-40h-136l-29 -48v-32h165v-40h-165v-157h-43v157z" />
    <glyph glyph-name="florin.osf" horiz-adv-x="470" 
d="M-40 -123v39c18 -3 39 -5 62 -5c25 0 47 5 75 24c29 17 51 61 56 121l24 275h-96v38h99l10 115c7 77 36 132 75 155s68 30 100 30c25 0 55 -2 70 -5l11 -2v-39c-28 5 -55 7 -82 7c-25 0 -47 -5 -76 -24c-28 -17 -50 -61 -55 -121l-11 -116h133v-38h-136l-24 -274
c-7 -77 -36 -132 -75 -155c-39 -24 -67 -30 -99 -30z" />
    <glyph glyph-name="Euro.osf" horiz-adv-x="609" 
d="M129 208h-72v40h65c-3 27 -4 51 -1 73h-64v40h70c15 65 48 118 99 160c52 43 120 64 205 64c31 0 62 -4 92 -12l-11 -41c-27 7 -54 11 -81 11c-139 0 -227 -75 -258 -182h301l-9 -40h-301c-4 -24 -4 -48 1 -73h288l-9 -40h-270c29 -105 120 -178 257 -178
c32 0 61 4 88 13l12 -41c-31 -9 -65 -14 -100 -14c-81 0 -147 21 -199 62s-86 94 -103 158z" />
    <glyph glyph-name="zero.numerator" 
d="M336 483c0 -151 -49 -227 -148 -227s-148 76 -148 227s49 227 148 227s148 -76 148 -227zM79 483c0 -127 36 -191 109 -191s109 64 109 191s-36 191 -109 191s-109 -64 -109 -191z" />
    <glyph glyph-name="one.numerator" 
d="M310 266h-227v36h96v325l1 22h-1c-3 -5 -10 -14 -23 -27l-44 -43l-26 27l93 94h38v-398h93v-36z" />
    <glyph glyph-name="two.numerator" 
d="M320 266h-266c-1 12 -2 21 -2 27c0 60 35 108 78 139c63 44 143 84 143 155c0 48 -38 87 -91 87c-35 0 -67 -17 -94 -50l-24 26c24 33 71 60 118 60c83 0 130 -54 130 -123c0 -55 -34 -99 -77 -128c-62 -43 -142 -81 -144 -157h229v-36z" />
    <glyph glyph-name="three.numerator" 
d="M179 256c-53 0 -107 22 -138 65l28 26c20 -29 63 -55 111 -55c26 0 50 10 71 29c21 20 32 44 32 72c0 57 -51 96 -107 96h-32l-11 24l108 127l25 25v2c-12 -2 -25 -3 -38 -3h-164v36h255v-26l-128 -150c34 -3 64 -14 91 -35s40 -53 40 -96c0 -38 -14 -70 -43 -97
c-28 -27 -61 -40 -100 -40z" />
    <glyph glyph-name="four.numerator" 
d="M278 266h-38v121h-215v26l222 287h31v-277h68v-36h-68v-121zM80 425v-2h160v147l3 65h-2c-11 -18 -23 -35 -35 -50z" />
    <glyph glyph-name="five.numerator" 
d="M176 256c-55 0 -98 23 -129 70l32 21c19 -33 58 -55 97 -55c63 0 112 47 112 108c0 29 -11 55 -33 76s-48 32 -79 32c-29 0 -56 -9 -81 -27l-26 10l26 209h206v-36h-174l-10 -91l-7 -43h2c20 9 42 14 65 14c43 0 78 -14 107 -42s43 -62 43 -102s-15 -74 -44 -102
s-65 -42 -107 -42z" />
    <glyph glyph-name="six.numerator" 
d="M198 256c-47 0 -85 19 -112 56c-27 38 -40 86 -40 143c0 108 51 256 186 255c29 0 56 -7 83 -20l-19 -32c-19 11 -40 16 -65 16c-40 0 -73 -17 -98 -52s-41 -77 -47 -126h2c23 28 70 48 110 48c80 0 138 -56 138 -140c0 -93 -59 -148 -138 -148zM198 292
c61 0 99 48 99 112c0 63 -41 104 -100 104c-29 0 -54 -8 -77 -25c-22 -17 -33 -34 -33 -53c0 -32 10 -63 31 -93s48 -45 80 -45z" />
    <glyph glyph-name="seven.numerator" 
d="M119 266h-43l174 333l37 65v2c-13 -1 -32 -2 -55 -2h-178v36h279v-26z" />
    <glyph glyph-name="eight.numerator" 
d="M188 255c-39 0 -74 12 -103 35c-29 24 -44 57 -44 98c0 20 5 39 16 58c23 37 42 50 61 61c-37 24 -55 55 -55 93c0 68 59 109 130 109c35 0 66 -10 92 -30c26 -19 39 -47 39 -82c0 -19 -5 -39 -15 -59c-19 -39 -33 -50 -45 -61c45 -27 67 -60 67 -99
c0 -34 -14 -63 -42 -87c-27 -24 -61 -36 -101 -36zM179 516l54 -23c35 32 52 67 52 104c0 48 -42 76 -93 76c-49 0 -90 -26 -90 -73c0 -26 14 -41 31 -58c11 -8 34 -21 46 -26zM188 291c27 0 51 8 72 25s32 37 32 61s-10 43 -33 58c-11 8 -22 14 -32 19
c-19 11 -60 28 -79 37c-45 -29 -68 -63 -68 -103c0 -59 49 -97 108 -97z" />
    <glyph glyph-name="nine.numerator" 
d="M61 276l19 32c17 -11 39 -16 65 -16c40 0 73 17 98 52s41 77 47 126h-2c-23 -28 -70 -48 -110 -48c-80 0 -138 56 -138 140c0 93 59 148 138 148c47 0 84 -19 111 -57c27 -37 41 -85 41 -142c0 -108 -51 -256 -186 -255c-31 0 -58 7 -83 20zM179 458c29 0 54 8 76 25
c23 17 34 34 34 53c0 32 -11 63 -32 93s-47 45 -79 45c-61 0 -99 -48 -99 -112c0 -63 41 -104 100 -104z" />
    <glyph glyph-name="zero.denominator" 
d="M336 217c0 -151 -49 -227 -148 -227s-148 76 -148 227s49 227 148 227s148 -76 148 -227zM79 217c0 -127 36 -191 109 -191s109 64 109 191s-36 191 -109 191s-109 -64 -109 -191z" />
    <glyph glyph-name="one.denominator" 
d="M310 0h-227v36h96v325l1 22h-1c-3 -5 -10 -14 -23 -27l-44 -43l-26 27l93 94h38v-398h93v-36z" />
    <glyph glyph-name="two.denominator" 
d="M320 0h-266c-1 12 -2 21 -2 27c0 60 35 108 78 139c63 44 143 84 143 155c0 48 -38 87 -91 87c-35 0 -67 -17 -94 -50l-24 26c24 33 71 60 118 60c83 0 130 -54 130 -123c0 -55 -34 -99 -77 -128c-62 -43 -142 -81 -144 -157h229v-36z" />
    <glyph glyph-name="three.denominator" 
d="M179 -10c-53 0 -107 22 -138 65l28 26c20 -29 63 -55 111 -55c26 0 50 10 71 29c21 20 32 44 32 72c0 57 -51 96 -107 96h-32l-11 24l108 127l25 25v2c-12 -2 -25 -3 -38 -3h-164v36h255v-26l-128 -150c34 -3 64 -14 91 -35s40 -53 40 -96c0 -38 -14 -70 -43 -97
c-28 -27 -61 -40 -100 -40z" />
    <glyph glyph-name="four.denominator" 
d="M278 0h-38v121h-215v26l222 287h31v-277h68v-36h-68v-121zM80 159v-2h160v147l3 65h-2c-11 -18 -23 -35 -35 -50z" />
    <glyph glyph-name="five.denominator" 
d="M175 -10c-55 0 -98 23 -129 70l32 21c19 -33 58 -55 97 -55c63 0 112 47 112 108c0 29 -11 55 -33 76s-48 32 -79 32c-29 0 -56 -9 -81 -27l-26 10l26 209h206v-36h-174l-10 -91l-7 -43h2c20 9 42 14 65 14c43 0 78 -14 107 -42s43 -62 43 -102s-15 -74 -44 -102
s-65 -42 -107 -42z" />
    <glyph glyph-name="six.denominator" 
d="M198 -10c-47 0 -85 19 -112 56c-27 38 -40 86 -40 143c0 108 51 256 186 255c29 0 56 -7 83 -20l-19 -32c-19 11 -40 16 -65 16c-40 0 -73 -17 -98 -52s-41 -77 -47 -126h2c23 28 70 48 110 48c80 0 138 -56 138 -140c0 -93 -59 -148 -138 -148zM198 26
c61 0 99 48 99 112c0 63 -41 104 -100 104c-29 0 -54 -8 -77 -25c-22 -17 -33 -34 -33 -53c0 -32 10 -63 31 -93s48 -45 80 -45z" />
    <glyph glyph-name="seven.denominator" 
d="M119 0h-43l174 333l37 65v2c-13 -1 -32 -2 -55 -2h-178v36h279v-26z" />
    <glyph glyph-name="eight.denominator" 
d="M188 -10c-39 0 -74 12 -103 35c-29 24 -44 57 -44 98c0 20 5 39 16 58c23 37 42 50 61 61c-37 24 -55 55 -55 93c0 68 59 109 130 109c35 0 66 -10 92 -30c26 -19 39 -47 39 -82c0 -19 -5 -39 -15 -59c-19 -39 -33 -50 -45 -61c45 -27 67 -60 67 -99
c0 -34 -14 -63 -42 -87c-27 -24 -61 -36 -101 -36zM179 251l54 -23c35 32 52 67 52 104c0 48 -42 76 -93 76c-49 0 -90 -26 -90 -73c0 -26 14 -41 31 -58c11 -8 34 -21 46 -26zM188 26c27 0 51 8 72 25s32 37 32 61s-10 43 -33 58c-11 8 -22 14 -32 19c-19 11 -60 28 -79 37
c-45 -29 -68 -63 -68 -103c0 -59 49 -97 108 -97z" />
    <glyph glyph-name="nine.denominator" 
d="M61 10l19 32c17 -11 39 -16 65 -16c40 0 73 17 98 52s41 77 47 126h-2c-23 -28 -70 -48 -110 -48c-80 0 -138 56 -138 140c0 93 59 148 138 148c47 0 84 -19 111 -57c27 -37 41 -85 41 -142c0 -108 -51 -256 -186 -255c-31 0 -58 7 -83 20zM179 192c29 0 54 8 76 25
c23 17 34 34 34 53c0 32 -11 63 -32 93s-47 45 -79 45c-61 0 -99 -48 -99 -112c0 -63 41 -104 100 -104z" />
    <glyph glyph-name="uni0433.BUL" horiz-adv-x="430" 
d="M47 111c0 165 279 148 279 279c0 55 -45 81 -108 81c-51 0 -98 -19 -117 -35l-14 -12l-25 34l17 15c8 6 25 14 52 24s55 15 84 15c93 0 155 -40 155 -120c0 -63 -43 -108 -98 -135c-81 -39 -181 -71 -181 -144c0 -55 50 -84 115 -84c59 0 115 26 138 47l17 16l27 -32
c0 -1 -60 -70 -181 -72c-95 0 -160 46 -160 123z" />
    <glyph glyph-name="uni0434.BUL" horiz-adv-x="571" 
d="M98 -171l20 37c43 -23 88 -35 134 -35c113 0 190 56 190 172v58l4 41h-2c-33 -68 -89 -102 -168 -102c-65 0 -119 24 -160 71s-62 110 -62 187c0 78 19 140 58 185c39 46 92 69 157 69c77 0 146 -33 174 -98h2c-2 5 -3 11 -3 19v67h42v-497c0 -72 -22 -125 -66 -160
c-43 -35 -98 -53 -163 -53c-54 0 -106 13 -157 39zM98 258c0 -133 73 -217 181 -217c97 0 164 65 164 217c0 142 -58 213 -174 213c-108 0 -171 -78 -171 -213z" />
    <glyph glyph-name="uni0436.BUL" horiz-adv-x="692" 
d="M76 0h-53l176 255v2l-159 243h49l146 -224h90v424h42v-424h90l146 224h49l-159 -243v-2l176 -255h-53l-161 237h-88v-237h-42v237h-88z" />
    <glyph glyph-name="uni0438.BUL" horiz-adv-x="580" 
d="M81 183v317h42v-302c0 -40 2 -65 11 -97c13 -43 46 -72 112 -72c60 0 109 22 147 67c39 45 58 99 58 160v244h42v-500h-42v88l4 41h-2c-11 -32 -35 -64 -72 -95s-82 -46 -135 -46c-119 0 -165 63 -165 195z" />
    <glyph glyph-name="uni0439.BUL" horiz-adv-x="580" 
d="M81 183v317h42v-302c0 -40 2 -65 11 -97c13 -43 46 -72 112 -72c60 0 109 22 147 67c39 45 58 99 58 160v244h42v-500h-42v88l4 41h-2c-11 -32 -35 -64 -72 -95s-82 -46 -135 -46c-119 0 -165 63 -165 195zM169 682v18h42v-15c0 -45 33 -72 76 -72c41 0 77 28 77 73v14
h41v-18c0 -67 -54 -109 -118 -109s-118 42 -118 109z" />
    <glyph glyph-name="uni043A.BUL" horiz-adv-x="472" 
d="M129 0h-42v700h42v-397h89l162 197h55l-181 -215v-2l198 -283h-53l-181 264h-89v-264z" />
    <glyph glyph-name="uni043B.BUL" horiz-adv-x="496" 
d="M76 0h-45l197 500h40l196 -500h-44l-154 392l-17 54h-2c-5 -20 -11 -38 -17 -54z" />
    <glyph glyph-name="uni043F.BUL" horiz-adv-x="586" 
d="M129 0h-42v500h42v-88l-4 -41h2c11 32 36 63 73 94s84 47 139 47c123 0 165 -67 165 -195v-317h-42v302c0 40 -2 65 -11 96c-13 45 -46 73 -112 73c-58 0 -108 -21 -149 -64c-41 -42 -61 -95 -61 -158v-249z" />
    <glyph glyph-name="uni0442.BUL" horiz-adv-x="918" 
d="M129 0h-42v500h42v-88l-4 -41h2c13 37 38 70 76 98c39 29 77 43 116 43c99 0 147 -45 158 -136h2c15 37 40 68 75 95s74 41 115 41c123 0 167 -67 167 -195v-317h-42v302c0 109 -28 171 -125 171c-52 0 -96 -23 -132 -69s-54 -98 -54 -155v-249h-42v302
c0 40 -1 65 -12 97c-13 44 -44 74 -110 74c-53 0 -98 -23 -135 -69s-55 -98 -55 -155v-249z" />
    <glyph glyph-name="uni0446.BUL" horiz-adv-x="596" 
d="M81 183v317h42v-302c0 -40 2 -65 11 -97c13 -43 46 -72 112 -72c60 0 109 22 147 67c39 45 58 99 58 160v244h42v-461h76v-159h-42v120h-76v88l4 41h-2c-11 -32 -35 -64 -72 -95s-82 -46 -135 -46c-119 0 -165 63 -165 195z" />
    <glyph glyph-name="uni0448.BUL" horiz-adv-x="917" 
d="M788 500h42v-500h-42v88l4 41h-2c-13 -37 -38 -70 -77 -99c-38 -28 -76 -42 -115 -42c-99 0 -147 45 -158 136h-2c-15 -37 -40 -69 -75 -96s-74 -40 -115 -40c-123 0 -167 67 -167 195v317h42v-302c0 -109 28 -171 125 -171c52 0 96 23 132 69s54 98 54 155v249h42v-302
c0 -40 2 -65 11 -97c15 -44 45 -74 111 -74c53 0 97 23 134 69s56 98 56 155v249z" />
    <glyph glyph-name="uni0449.BUL" horiz-adv-x="933" 
d="M788 500h42v-461h76v-159h-42v120h-76v88l4 41h-2c-13 -37 -38 -70 -77 -99c-38 -28 -76 -42 -115 -42c-99 0 -147 45 -158 136h-2c-15 -37 -40 -69 -75 -96s-74 -40 -115 -40c-123 0 -167 67 -167 195v317h42v-302c0 -109 28 -171 125 -171c52 0 96 23 132 69
s54 98 54 155v249h42v-302c0 -40 2 -65 11 -97c15 -44 45 -74 111 -74c53 0 97 23 134 69s56 98 56 155v249z" />
    <glyph glyph-name="uni044A.BUL" horiz-adv-x="559" 
d="M148 174v288h-117v38h159v-151c0 -29 -1 -47 -2 -55h2c27 43 84 73 151 73c104 0 176 -63 176 -191c0 -51 -17 -96 -50 -133s-79 -55 -139 -55s-105 18 -135 54c-30 37 -45 81 -45 132zM190 174c0 -85 53 -146 138 -146s144 60 144 148c0 104 -55 151 -131 151
c-93 0 -151 -60 -151 -153z" />
    <glyph glyph-name="uni044C.BUL" horiz-adv-x="492" 
d="M81 174v326h42v-151c0 -29 -1 -47 -2 -55h2c27 43 84 73 151 73c104 0 176 -63 176 -191c0 -51 -17 -96 -50 -133s-79 -55 -139 -55s-105 18 -135 54c-30 37 -45 81 -45 132zM123 174c0 -85 53 -146 138 -146s144 60 144 148c0 104 -54 151 -131 151
c-93 0 -151 -60 -151 -153z" />
    <glyph glyph-name="uni044E.BUL" horiz-adv-x="785" 
d="M129 0h-42v700h42v-431h107c4 69 30 126 78 173s105 70 171 70c69 0 127 -25 176 -75s73 -111 73 -184c0 -74 -24 -137 -73 -188s-107 -77 -176 -77c-65 0 -122 23 -169 69c-47 47 -74 104 -79 173h-108v-230zM280 253c0 -63 20 -117 60 -160s88 -64 145 -64
s105 21 145 64s60 97 60 160c0 61 -20 113 -60 155s-88 63 -145 63s-105 -21 -145 -63s-60 -94 -60 -155z" />
    <glyph glyph-name="uni0432.BUL" horiz-adv-x="572" 
d="M79 237v196c0 79 20 145 59 198c40 54 97 81 170 81c41 0 76 -11 107 -34c31 -22 47 -52 47 -90c0 -71 -47 -126 -141 -165v-2c41 -1 85 -15 128 -43s72 -83 72 -151c0 -69 -21 -126 -62 -171s-96 -68 -166 -68c-127 0 -214 82 -214 249zM118 433v-108h2
c15 32 46 59 91 81l83 40c93 48 126 84 126 140c0 27 -12 48 -36 63c-23 15 -49 23 -78 23c-140 0 -188 -122 -188 -239zM121 218c0 -60 16 -107 49 -140s74 -50 123 -50c52 0 96 17 131 52s53 83 53 145c0 55 -18 95 -54 122s-77 40 -123 40s-87 -15 -124 -45
c-37 -29 -55 -71 -55 -124z" />
    </font>
</defs>
</svg>
